<?xml version="1.0" encoding="UTF-8" standalone="no"?>
<svg
   xmlns:dc="http://purl.org/dc/elements/1.1/"
   xmlns:cc="http://creativecommons.org/ns#"
   xmlns:rdf="http://www.w3.org/1999/02/22-rdf-syntax-ns#"
   xmlns:svg="http://www.w3.org/2000/svg"
   xmlns="http://www.w3.org/2000/svg"
   xmlns:sodipodi="http://sodipodi.sourceforge.net/DTD/sodipodi-0.dtd"
   xmlns:inkscape="http://www.inkscape.org/namespaces/inkscape"
   width="288"
   height="47"
   id="svg3150"
   version="1.1"
   inkscape:version="0.48.4 r9939"
   sodipodi:docname="codeschool.svg">
  <metadata
     id="metadata3180">
    <rdf:RDF>
      <cc:Work
         rdf:about="">
        <dc:format>image/svg+xml</dc:format>
        <dc:type
           rdf:resource="http://purl.org/dc/dcmitype/StillImage" />
        <dc:title></dc:title>
      </cc:Work>
    </rdf:RDF>
  </metadata>
  <defs
     id="defs3178" />
  <sodipodi:namedview
     pagecolor="#ffffff"
     bordercolor="#666666"
     borderopacity="1"
     objecttolerance="10"
     gridtolerance="10"
     guidetolerance="10"
     inkscape:pageopacity="0"
     inkscape:pageshadow="2"
     inkscape:window-width="1398"
     inkscape:window-height="1029"
     id="namedview3176"
     showgrid="false"
     inkscape:zoom="3.1672491"
     inkscape:cx="144"
     inkscape:cy="23.5"
     inkscape:window-x="0"
     inkscape:window-y="19"
     inkscape:window-maximized="0"
     inkscape:current-layer="svg3150" />
  <path
     d="M 38.8125 16.78125 C 38.5775 16.78125 38.33525 16.8805 38.15625 17.0625 L 24.875 30.34375 C 24.514 30.70475 24.514 31.29725 24.875 31.65625 L 38.15625 44.9375 C 38.33025 45.1095 38.5685 45.21875 38.8125 45.21875 C 39.0575 45.21875 39.29575 45.1105 39.46875 44.9375 C 39.64175 44.7655 39.75 44.52325 39.75 44.28125 L 39.75 40.59375 C 39.75 40.35175 39.64175 40.1105 39.46875 39.9375 L 30.53125 31 L 39.46875 22.0625 C 39.64175 21.8895 39.75 21.65125 39.75 21.40625 L 39.75 17.71875 C 39.75 17.47475 39.64175 17.2355 39.46875 17.0625 C 39.28775 16.8805 39.0475 16.78125 38.8125 16.78125 z M 44.625 16.78125 C 44.388 16.78125 44.14775 16.8805 43.96875 17.0625 C 43.79575 17.2355 43.6875 17.47475 43.6875 17.71875 L 43.6875 21.40625 C 43.6875 21.65125 43.79575 21.8895 43.96875 22.0625 L 52.90625 31 L 43.96875 39.9375 C 43.79575 40.1105 43.6875 40.35175 43.6875 40.59375 L 43.6875 44.28125 C 43.6875 44.52325 43.79575 44.7655 43.96875 44.9375 C 44.13975 45.1105 44.381 45.21875 44.625 45.21875 C 44.869 45.21875 45.10725 45.1095 45.28125 44.9375 L 58.5625 31.65625 C 58.9215 31.29725 58.9235 30.70475 58.5625 30.34375 L 45.28125 17.0625 C 45.10025 16.8805 44.859 16.78125 44.625 16.78125 z "
     id="path3152"
     style="fill:#c68144;fill-opacity:1" />
  <path
     style="fill:#626f68"
     d="M 86.96875 -0.0625 L 86.96875 22.34375 L 86.84375 22.34375 C 84.63275 18.51775 79.90525 16.78125 75.78125 16.78125 C 67.29225 16.78125 61.28125 22.8835 61.28125 31.3125 C 61.28125 39.7415 67.29225 45.84375 75.78125 45.84375 C 79.90625 45.84375 84.63275 44.10825 86.84375 40.28125 L 86.9375 40.28125 C 86.9605 40.85325 87.066 42.00425 87.375 42.90625 C 87.678 43.79225 88.112 44.75175 88.875 45.59375 C 91.228 48.19175 95.84425 46.64025 97.03125 46.15625 C 96.25925 45.41625 95.577 44.5885 95 43.6875 C 91.312 45.5745 90.6695 42.155 90.5625 40.625 L 90.5625 -0.0625 L 86.96875 -0.0625 z M 185 -0.0625 L 185 45.125 L 188.59375 45.125 L 188.59375 31.3125 C 188.59375 23.7195 192.83625 20.03125 198.15625 20.03125 C 203.83525 20.03125 205.09375 24.39 205.09375 28.875 L 205.09375 40.03125 L 205.09375 40.0625 C 205.10275 40.4745 205.17025 41.85325 205.53125 42.90625 C 205.83525 43.79225 206.26725 44.783 207.03125 45.625 C 209.38525 48.223 214.0015 46.64025 215.1875 46.15625 C 214.4165 45.41625 213.73325 44.5885 213.15625 43.6875 C 208.48025 46.0765 208.6875 39.9375 208.6875 39.9375 L 208.6875 28.6875 C 208.6875 22.6495 206.76425 16.78125 198.15625 16.78125 C 193.67325 16.78125 190.15175 19.29475 188.71875 22.34375 L 188.59375 22.34375 L 188.59375 -0.0625 L 185 -0.0625 z M 277.90625 -0.0625 L 277.90625 39.96875 L 277.90625 40 C 277.91125 40.311 277.96175 41.79125 278.34375 42.90625 C 278.64675 43.79225 279.07975 44.783 279.84375 45.625 C 282.19775 48.223 286.814 46.64025 288 46.15625 C 287.228 45.41525 286.54675 44.5875 285.96875 43.6875 C 282.06875 45.6805 281.53475 41.737 281.46875 40.375 L 281.46875 -0.0625 L 277.90625 -0.0625 z M 14.53125 16.78125 C 6.04225 16.78025 0 22.8845 0 31.3125 C 0 39.7405 6.04325 45.84375 14.53125 45.84375 C 18.47725 45.84375 21.9975 44.2895 24.6875 41.0625 L 21.9375 38.78125 C 20.0845 41.05225 17.52125 42.625 14.53125 42.625 C 7.77625 42.625 3.59375 37.5295 3.59375 31.3125 C 3.59375 25.0955 7.77625 20.03125 14.53125 20.03125 C 17.40025 20.03125 19.8445 21.44675 21.9375 23.71875 L 24.8125 21.5625 C 22.1225 18.5135 18.53725 16.78125 14.53125 16.78125 z M 108.625 16.78125 C 100.555 16.78125 94.8125 23 94.8125 31.25 C 94.8125 39.799 100.35325 45.84375 108.78125 45.84375 C 113.68325 45.84375 117.94 44.1235 120.75 39.9375 L 118.125 37.71875 C 116.332 40.70675 112.48975 42.625 108.84375 42.625 C 100.47375 42.625 98.375 35.20675 98.375 32.21875 L 121.59375 32.21875 L 121.59375 29.6875 C 121.59375 23.2915 117.114 16.78125 108.625 16.78125 z M 144.25 16.78125 C 139.706 16.78125 134.78125 19.369 134.78125 24.75 C 134.78125 35.271 151.1875 29.93925 151.1875 37.53125 C 151.1875 40.69925 147.95075 42.625 144.84375 42.625 C 141.61475 42.625 138.3075 40.9915 136.8125 38.0625 L 133.65625 40.21875 C 135.80825 44.04475 140.05825 45.84375 144.78125 45.84375 C 150.04125 45.84375 154.75 42.96125 154.75 37.28125 C 154.75 26.10325 138.375 31.9105 138.375 24.4375 C 138.375 21.5675 141.679 20.03125 144.25 20.03125 C 147.478 20.03125 149.374 21.39525 150.75 23.90625 L 153.96875 22 C 152.17575 18.473 148.733 16.78125 144.25 16.78125 z M 172.21875 16.78125 C 163.72975 16.78125 157.6875 22.8835 157.6875 31.3125 C 157.6875 39.7415 163.72975 45.84375 172.21875 45.84375 C 176.16375 45.84375 179.685 44.2895 182.375 41.0625 L 179.625 38.78125 C 177.771 41.05225 175.20675 42.625 172.21875 42.625 C 165.46375 42.625 161.28125 37.5295 161.28125 31.3125 C 161.28125 25.0955 165.46375 20.03125 172.21875 20.03125 C 175.08775 20.03125 177.533 21.44675 179.625 23.71875 L 182.5 21.5625 C 179.81 18.5135 176.22375 16.78125 172.21875 16.78125 z M 227.03125 16.78125 C 218.54225 16.78125 212.5 22.8835 212.5 31.3125 C 212.5 39.7415 218.54225 45.84375 227.03125 45.84375 C 235.51925 45.84375 241.5625 39.7405 241.5625 31.3125 C 241.5635 22.8825 235.52025 16.78125 227.03125 16.78125 z M 259.53125 16.78125 C 251.04325 16.78125 245.03125 22.8835 245.03125 31.3125 C 245.03125 39.7415 251.04325 45.84375 259.53125 45.84375 C 268.01925 45.84375 274.0625 39.7405 274.0625 31.3125 C 274.0625 22.8825 268.01925 16.78125 259.53125 16.78125 z M 75.78125 20.03125 C 82.29725 20.03125 87.34375 25.0945 87.34375 31.3125 C 87.34375 37.5295 82.29825 42.625 75.78125 42.625 C 69.02725 42.625 64.84375 37.5295 64.84375 31.3125 C 64.84375 25.0945 69.02725 20.03125 75.78125 20.03125 z M 108.4375 20.03125 C 113.7575 20.03125 118 24.06575 118 28.96875 L 98.375 28.96875 C 98.375 27.53475 100.6065 20.03125 108.4375 20.03125 z M 227.03125 20.03125 C 233.78625 20.03125 237.96875 25.0965 237.96875 31.3125 C 237.96875 37.5285 233.78625 42.625 227.03125 42.625 C 220.27525 42.625 216.09375 37.5295 216.09375 31.3125 C 216.09375 25.0955 220.27625 20.03125 227.03125 20.03125 z M 259.53125 20.03125 C 266.28725 20.03125 270.46875 25.0965 270.46875 31.3125 C 270.46875 37.5285 266.28725 42.625 259.53125 42.625 C 252.77625 42.625 248.59375 37.5295 248.59375 31.3125 C 248.59375 25.0955 252.77725 20.03125 259.53125 20.03125 z "
     id="path3158" />
</svg>
