<?xml version="1.0" encoding="UTF-8" standalone="no"?>
<!-- Created with Inkscape (http://www.inkscape.org/) -->

<svg
   xmlns:dc="http://purl.org/dc/elements/1.1/"
   xmlns:cc="http://creativecommons.org/ns#"
   xmlns:rdf="http://www.w3.org/1999/02/22-rdf-syntax-ns#"
   xmlns:svg="http://www.w3.org/2000/svg"
   xmlns="http://www.w3.org/2000/svg"
   xmlns:sodipodi="http://sodipodi.sourceforge.net/DTD/sodipodi-0.dtd"
   xmlns:inkscape="http://www.inkscape.org/namespaces/inkscape"
   width="238.43513"
   height="238.43509"
   id="svg2"
   sodipodi:version="0.32"
   inkscape:version="0.48.4 r9939"
   sodipodi:docname="contactbackground.svg"
   inkscape:output_extension="org.inkscape.output.svg.inkscape"
   version="1.1"
   inkscape:export-filename="/home/koxta/proiektuak/iunetrecet/manuala/iune_txikia.png"
   inkscape:export-xdpi="90"
   inkscape:export-ydpi="90">
  <defs
     id="defs4" />
  <sodipodi:namedview
     id="base"
     pagecolor="#ffffff"
     bordercolor="#666666"
     borderopacity="1.0"
     inkscape:pageopacity="0.0"
     inkscape:pageshadow="2"
     inkscape:zoom="1.3358628"
     inkscape:cx="104.35449"
     inkscape:cy="111.47427"
     inkscape:document-units="mm"
     inkscape:current-layer="layer1"
     inkscape:window-width="1398"
     inkscape:window-height="1029"
     inkscape:window-x="0"
     inkscape:window-y="19"
     showgrid="false"
     showguides="true"
     inkscape:guide-bbox="true"
     units="px"
     inkscape:snap-page="true"
     inkscape:snap-to-guides="true"
     inkscape:window-maximized="0"
     borderlayer="true"
     fit-margin-top="0"
     fit-margin-left="0"
     fit-margin-right="0"
     fit-margin-bottom="0" />
  <metadata
     id="metadata7">
    <rdf:RDF>
      <cc:Work
         rdf:about="">
        <dc:format>image/svg+xml</dc:format>
        <dc:type
           rdf:resource="http://purl.org/dc/dcmitype/StillImage" />
        <dc:title></dc:title>
      </cc:Work>
    </rdf:RDF>
  </metadata>
  <g
     inkscape:label="Capa 1"
     inkscape:groupmode="layer"
     id="layer1"
     transform="translate(-27.490189,-711.72953)">
    <path
       sodipodi:type="arc"
       style="color:#000000;fill:#d40000;fill-opacity:1;fill-rule:nonzero;stroke:none;stroke-width:0.5;marker:none;visibility:visible;display:inline;overflow:visible;enable-background:accumulate"
       id="path6369-6"
       sodipodi:cx="181.37704"
       sodipodi:cy="588.62842"
       sodipodi:rx="70.666382"
       sodipodi:ry="70.666382"
       d="m 252.04343,588.62842 a 70.666382,70.666382 0 1 1 -141.33277,0 70.666382,70.666382 0 1 1 141.33277,0 z"
       transform="matrix(1.6870475,0,0,1.6870475,-159.28393,-162.097)" />
    <path
       style="font-size:medium;font-style:normal;font-variant:normal;font-weight:normal;font-stretch:normal;text-indent:0;text-align:start;text-decoration:none;line-height:normal;letter-spacing:normal;word-spacing:normal;text-transform:none;direction:ltr;block-progression:tb;writing-mode:lr-tb;text-anchor:start;baseline-shift:baseline;color:#000000;fill:#ffffff;fill-opacity:1;stroke:none;stroke-width:3.54330707000000000;marker:none;visibility:visible;display:inline;overflow:visible;enable-background:accumulate;font-family:Sans;-inkscape-font-specification:Sans"
       d="M 64.65625 43.3125 L 64.65625 45.09375 L 64.65625 193.3125 L 64.65625 195.09375 L 66.4375 195.09375 L 172 195.09375 L 173.78125 195.09375 L 173.78125 193.3125 L 173.78125 66.375 L 173.78125 65.65625 L 173.25 65.125 L 168.65625 60.53125 L 167.84375 59.71875 L 163.03125 54.90625 L 162.1875 54.0625 L 157.375 49.25 L 156.5625 48.4375 L 151.96875 43.84375 L 151.4375 43.3125 L 150.71875 43.3125 L 66.4375 43.3125 L 64.65625 43.3125 z M 68.21875 46.875 L 148.9375 46.875 L 148.9375 60.75 L 81.25 60.75 L 81.25 64.3125 L 148.9375 64.3125 L 148.9375 66.375 L 150.71875 68.15625 L 170.21875 68.15625 L 170.21875 191.53125 L 68.21875 191.53125 L 68.21875 46.875 z M 152.46875 49.34375 L 154.0625 50.9375 L 154.875 51.75 L 159.6875 56.5625 L 160.53125 57.40625 L 165.34375 62.21875 L 166.15625 63.03125 L 167.75 64.625 L 152.46875 64.625 L 152.46875 49.34375 z M 81.40625 77.4375 L 81.40625 80.96875 L 157 80.96875 L 157 77.4375 L 81.40625 77.4375 z M 81.40625 94.125 L 81.40625 97.65625 L 157 97.65625 L 157 94.125 L 81.40625 94.125 z M 81.40625 110.8125 L 81.40625 114.34375 L 157 114.34375 L 157 110.8125 L 81.40625 110.8125 z M 81.40625 127.5 L 81.40625 131.03125 L 157 131.03125 L 157 127.5 L 81.40625 127.5 z M 81.40625 144.15625 L 81.40625 147.71875 L 157 147.71875 L 157 144.15625 L 81.40625 144.15625 z M 81.40625 160.84375 L 81.40625 164.40625 L 157 164.40625 L 157 160.84375 L 81.40625 160.84375 z M 81.40625 177.53125 L 81.40625 181.09375 L 157 181.09375 L 157 177.53125 L 81.40625 177.53125 z "
       transform="translate(27.490189,711.72953)"
       id="path5565" />
    <path
       style="fill:none;stroke:#000000;stroke-width:3.54330707;stroke-linecap:butt;stroke-linejoin:miter;stroke-miterlimit:4;stroke-opacity:1;stroke-dasharray:none"
       d="m -243.12142,749.17093 77.10371,61.38355 73.360834,-60.46738"
       id="path5366"
       inkscape:connector-curvature="0" />
    <path
       style="font-size:medium;font-style:normal;font-variant:normal;font-weight:normal;font-stretch:normal;text-indent:0;text-align:start;text-decoration:none;line-height:normal;letter-spacing:normal;word-spacing:normal;text-transform:none;direction:ltr;block-progression:tb;writing-mode:lr-tb;text-anchor:start;baseline-shift:baseline;color:#000000;fill:#d40000;fill-opacity:1;stroke:none;stroke-width:5.43439198;marker:none;visibility:visible;display:inline;overflow:visible;enable-background:accumulate;font-family:Sans;-inkscape-font-specification:Sans"
       d="m -209.97441,487.8652 c -65.83124,0 -119.2577,53.42646 -119.2577,119.2577 0,65.83123 53.42646,119.25769 119.2577,119.25769 65.83123,0 119.257693,-53.42646 119.257693,-119.25769 0,-65.83124 -53.426463,-119.2577 -119.257693,-119.2577 z m 0,5.318 c 62.95881,0 113.939693,50.98088 113.939693,113.9397 0,62.95882 -50.980883,113.93969 -113.939693,113.93969 -62.95882,0 -113.9397,-50.98087 -113.9397,-113.93969 0,-62.95882 50.98088,-113.9397 113.9397,-113.9397 z"
       inkscape:connector-curvature="0" />
    <path
       inkscape:connector-curvature="0"
       style="color:#000000;fill:none;stroke:#000000;stroke-width:3.54330707;stroke-miterlimit:4;marker:none;visibility:visible;display:inline;overflow:visible;enable-background:accumulate"
       d="m -33.539992,748.48768 0,148.2188 -105.549768,0 0,-148.2188 z"
       id="path5362-2" />
  </g>
</svg>
