<?xml version="1.0" encoding="UTF-8" standalone="no"?>
<!-- Created with Inkscape (http://www.inkscape.org/) -->

<svg
   xmlns:dc="http://purl.org/dc/elements/1.1/"
   xmlns:cc="http://creativecommons.org/ns#"
   xmlns:rdf="http://www.w3.org/1999/02/22-rdf-syntax-ns#"
   xmlns:svg="http://www.w3.org/2000/svg"
   xmlns="http://www.w3.org/2000/svg"
   xmlns:sodipodi="http://sodipodi.sourceforge.net/DTD/sodipodi-0.dtd"
   xmlns:inkscape="http://www.inkscape.org/namespaces/inkscape"
   width="238.43513"
   height="238.43509"
   id="svg2"
   sodipodi:version="0.32"
   inkscape:version="0.48.4 r9939"
   sodipodi:docname="cv.svg"
   inkscape:output_extension="org.inkscape.output.svg.inkscape"
   version="1.1"
   inkscape:export-filename="/home/koxta/proiektuak/iunetrecet/manuala/iune_txikia.png"
   inkscape:export-xdpi="90"
   inkscape:export-ydpi="90">
  <defs
     id="defs4" />
  <sodipodi:namedview
     id="base"
     pagecolor="#ffffff"
     bordercolor="#666666"
     borderopacity="1.0"
     inkscape:pageopacity="0.0"
     inkscape:pageshadow="2"
     inkscape:zoom="1.3358628"
     inkscape:cx="104.35449"
     inkscape:cy="111.47427"
     inkscape:document-units="mm"
     inkscape:current-layer="layer1"
     inkscape:window-width="1398"
     inkscape:window-height="1029"
     inkscape:window-x="0"
     inkscape:window-y="19"
     showgrid="false"
     showguides="true"
     inkscape:guide-bbox="true"
     units="px"
     inkscape:snap-page="true"
     inkscape:snap-to-guides="true"
     inkscape:window-maximized="0"
     borderlayer="true"
     fit-margin-top="0"
     fit-margin-left="0"
     fit-margin-right="0"
     fit-margin-bottom="0" />
  <metadata
     id="metadata7">
    <rdf:RDF>
      <cc:Work
         rdf:about="">
        <dc:format>image/svg+xml</dc:format>
        <dc:type
           rdf:resource="http://purl.org/dc/dcmitype/StillImage" />
        <dc:title></dc:title>
      </cc:Work>
    </rdf:RDF>
  </metadata>
  <g
     inkscape:label="Capa 1"
     inkscape:groupmode="layer"
     id="layer1"
     transform="translate(-27.490189,-711.72953)">
    <path
       style="font-size:medium;font-style:normal;font-variant:normal;font-weight:normal;font-stretch:normal;text-indent:0;text-align:start;text-decoration:none;line-height:normal;letter-spacing:normal;word-spacing:normal;text-transform:none;direction:ltr;block-progression:tb;writing-mode:lr-tb;text-anchor:start;baseline-shift:baseline;color:#000000;fill:#d40000;fill-opacity:1;stroke:none;stroke-width:3.54330707000000000;marker:none;visibility:visible;display:inline;overflow:visible;enable-background:accumulate;font-family:Sans;-inkscape-font-specification:Sans"
       d="m 92.146439,755.04203 0,1.78125 0,148.21875 0,1.78125 1.78125,0 105.562501,0 1.78125,0 0,-1.78125 0,-126.9375 0,-0.71875 -0.53125,-0.53125 -4.59375,-4.59375 -0.8125,-0.8125 -4.8125,-4.8125 -0.84375,-0.84375 -4.8125,-4.8125 -0.8125,-0.8125 -4.59375,-4.59375 -0.53125,-0.53125 -0.71875,0 -84.281251,0 -1.78125,0 z m 3.5625,3.5625 80.718751,0 0,13.875 -67.6875,0 0,3.5625 67.6875,0 0,2.0625 1.78125,1.78125 19.5,0 0,123.375 -102.000001,0 0,-144.65625 z m 84.250001,2.46875 1.59375,1.59375 0.8125,0.8125 4.8125,4.8125 0.84375,0.84375 4.8125,4.8125 0.8125,0.8125 1.59375,1.59375 -15.28125,0 0,-15.28125 z m -71.0625,28.09375 0,3.53125 75.59375,0 0,-3.53125 -75.59375,0 z m 0,16.6875 0,3.53125 75.59375,0 0,-3.53125 -75.59375,0 z m 0,16.6875 0,3.53125 75.59375,0 0,-3.53125 -75.59375,0 z m 0,16.6875 0,3.53125 75.59375,0 0,-3.53125 -75.59375,0 z m 0,16.65625 0,3.5625 75.59375,0 0,-3.5625 -75.59375,0 z m 0,16.6875 0,3.5625 75.59375,0 0,-3.5625 -75.59375,0 z m 0,16.6875 0,3.5625 75.59375,0 0,-3.5625 -75.59375,0 z"
       id="path5565"
       inkscape:connector-curvature="0" />
    <path
       style="fill:none;stroke:#000000;stroke-width:3.54330707;stroke-linecap:butt;stroke-linejoin:miter;stroke-miterlimit:4;stroke-opacity:1;stroke-dasharray:none"
       d="m -243.12142,749.17093 77.10371,61.38355 73.360834,-60.46738"
       id="path5366"
       inkscape:connector-curvature="0" />
    <path
       style="font-size:medium;font-style:normal;font-variant:normal;font-weight:normal;font-stretch:normal;text-indent:0;text-align:start;text-decoration:none;line-height:normal;letter-spacing:normal;word-spacing:normal;text-transform:none;direction:ltr;block-progression:tb;writing-mode:lr-tb;text-anchor:start;baseline-shift:baseline;color:#000000;fill:#d40000;fill-opacity:1;stroke:none;stroke-width:5.43439198;marker:none;visibility:visible;display:inline;overflow:visible;enable-background:accumulate;font-family:Sans;-inkscape-font-specification:Sans"
       d="m 146.70776,711.68938 c -65.83124,0 -119.2577,53.42646 -119.2577,119.2577 0,65.83123 53.42646,119.25769 119.2577,119.25769 65.83123,0 119.25769,-53.42646 119.25769,-119.25769 0,-65.83124 -53.42646,-119.2577 -119.25769,-119.2577 z m 0,5.318 c 62.95881,0 113.93969,50.98088 113.93969,113.9397 0,62.95882 -50.98088,113.93969 -113.93969,113.93969 -62.95882,0 -113.9397,-50.98087 -113.9397,-113.93969 0,-62.95882 50.98088,-113.9397 113.9397,-113.9397 z"
       inkscape:connector-curvature="0" />
    <path
       inkscape:connector-curvature="0"
       style="color:#000000;fill:none;stroke:#000000;stroke-width:3.54330707;stroke-miterlimit:4;marker:none;visibility:visible;display:inline;overflow:visible;enable-background:accumulate"
       d="m -33.539992,748.48768 0,148.2188 -105.549768,0 0,-148.2188 z"
       id="path5362-2" />
  </g>
</svg>
