<?xml version="1.0" encoding="UTF-8" standalone="no"?>
<!-- Created with Inkscape (http://www.inkscape.org/) -->

<svg
   xmlns:dc="http://purl.org/dc/elements/1.1/"
   xmlns:cc="http://creativecommons.org/ns#"
   xmlns:rdf="http://www.w3.org/1999/02/22-rdf-syntax-ns#"
   xmlns:svg="http://www.w3.org/2000/svg"
   xmlns="http://www.w3.org/2000/svg"
   xmlns:xlink="http://www.w3.org/1999/xlink"
   xmlns:sodipodi="http://sodipodi.sourceforge.net/DTD/sodipodi-0.dtd"
   xmlns:inkscape="http://www.inkscape.org/namespaces/inkscape"
   width="2000"
   height="841.15515"
   id="svg2"
   sodipodi:version="0.32"
   inkscape:version="0.48.4 r9939"
   sodipodi:docname="185 dokumentu berria"
   inkscape:output_extension="org.inkscape.output.svg.inkscape"
   version="1.1">
  <defs
     id="defs4">
    <pattern
       inkscape:collect="always"
       xlink:href="#pattern8263"
       id="pattern55067"
       patternTransform="matrix(0.11232695,-0.06739616,0.06739616,0.11232695,324.1167,468.60033)" />
    <pattern
       inkscape:collect="always"
       xlink:href="#pattern8227"
       id="pattern8263"
       patternTransform="matrix(0.85749295,-0.51449571,0.51449571,0.85749295,232.96315,-904.67851)" />
    <pattern
       inkscape:collect="always"
       xlink:href="#pattern6491"
       id="pattern8227"
       patternTransform="matrix(0.85749295,-0.51449571,0.51449571,0.85749295,-37.773308,-906.69885)" />
    <pattern
       inkscape:collect="always"
       xlink:href="#pattern6482"
       id="pattern6491"
       patternTransform="matrix(0.85749295,-0.51449571,0.51449571,0.85749295,-37.773308,-906.69885)" />
    <pattern
       patternUnits="userSpaceOnUse"
       width="13.735748"
       height="13.735748"
       patternTransform="translate(-37.773308,-906.69885)"
       id="pattern6482">
      <g
         id="g6478"
         transform="translate(37.773308,906.69885)">
        <rect
           style="color:#000000;fill:#333333;fill-opacity:1;fill-rule:nonzero;stroke:none;stroke-width:1.60300004;marker:none;visibility:visible;display:inline;overflow:visible;enable-background:accumulate"
           id="rect6458"
           width="13.735748"
           height="13.735748"
           x="-37.773308"
           y="-906.69885" />
        <rect
           style="color:#000000;fill:#666666;fill-opacity:1;fill-rule:nonzero;stroke:none;stroke-width:1.60300004;marker:none;visibility:visible;display:inline;overflow:visible;enable-background:accumulate"
           id="rect6458-4"
           width="10.988599"
           height="10.988599"
           x="-36.399734"
           y="-905.32526" />
      </g>
    </pattern>
  </defs>
  <sodipodi:namedview
     id="base"
     pagecolor="#ffffff"
     bordercolor="#666666"
     borderopacity="1.0"
     inkscape:pageopacity="0.0"
     inkscape:pageshadow="2"
     inkscape:zoom="0.20591723"
     inkscape:cx="214.50463"
     inkscape:cy="83.854363"
     inkscape:document-units="px"
     inkscape:current-layer="layer1"
     inkscape:window-width="1398"
     inkscape:window-height="1029"
     inkscape:window-x="0"
     inkscape:window-y="19"
     showgrid="false"
     fit-margin-top="0"
     fit-margin-left="0"
     fit-margin-right="0"
     fit-margin-bottom="0"
     inkscape:window-maximized="0" />
  <metadata
     id="metadata7">
    <rdf:RDF>
      <cc:Work
         rdf:about="">
        <dc:format>image/svg+xml</dc:format>
        <dc:type
           rdf:resource="http://purl.org/dc/dcmitype/StillImage" />
        <dc:title></dc:title>
      </cc:Work>
    </rdf:RDF>
  </metadata>
  <g
     inkscape:label="Capa 1"
     inkscape:groupmode="layer"
     id="layer1"
     transform="translate(-223.52575,117.48061)">
    <g
       id="g55286"
       transform="matrix(2.9667915,0,0,2.9667915,-439.62852,-1423.3168)">
      <path
         id="rect3295-6-2"
         d="m 277.21875,470.8125 0,218.3125 10.75,0 0,-218.3125 -5.375,0 -2.25,0 -3.125,0 z"
         style="color:#000000;fill:#aa0000;fill-opacity:1;fill-rule:nonzero;stroke:none;stroke-width:1.619784;marker:none;visibility:visible;display:inline;overflow:visible;enable-background:accumulate"
         inkscape:connector-curvature="0" />
      <path
         id="rect3295-4"
         d="m 275.4375,477.96875 0,211.15625 3.8125,0 0,-211.15625 -3.8125,0 z"
         style="color:#000000;fill:#800000;fill-opacity:1;fill-rule:nonzero;stroke:none;stroke-width:1.60300004;marker:none;visibility:visible;display:inline;overflow:visible;enable-background:accumulate"
         inkscape:connector-curvature="0" />
      <path
         id="rect3295-6-1-6"
         d="m 286.84375,477.96875 0,211.15625 3.8125,0 0,-211.15625 -3.8125,0 z"
         style="color:#000000;fill:#800000;fill-opacity:1;fill-rule:nonzero;stroke:none;stroke-width:1.60300004;marker:none;visibility:visible;display:inline;overflow:visible;enable-background:accumulate"
         inkscape:connector-curvature="0" />
      <path
         id="path3576-6"
         d="m 283.00427,440.15118 -3.78656,18.91235 -3.78656,18.91644 0.0409,0 -0.0287,0.14327 c 0,0 0.0138,0.0302 0.0409,0.086 0.0679,0.13928 0.21547,0.42943 0.41346,0.74503 0.0396,0.0631 0.0793,0.12809 0.1228,0.1924 0.0869,0.12856 0.18287,0.2552 0.28246,0.37661 6.6e-4,7.8e-4 -6.5e-4,0.003 0,0.004 0.0492,0.0598 0.0999,0.11671 0.15146,0.17193 0.0516,0.0553 0.10603,0.11091 0.15965,0.15965 6.6e-4,6.5e-4 0.003,-6.6e-4 0.004,0 0.0808,0.073 0.16159,0.13959 0.24562,0.1924 9.2e-4,5.2e-4 0.003,-5.3e-4 0.004,0 0.0556,0.0347 0.11138,0.0666 0.16784,0.0901 0.0575,0.0239 0.11807,0.0429 0.17602,0.0532 0.029,0.005 0.057,0.007 0.086,0.008 0.041,0.002 0.0787,0.005 0.11872,0.004 0.0333,-5.2e-4 0.0656,-0.006 0.0982,-0.008 0.0679,-0.005 0.13552,-0.0122 0.20059,-0.0246 0.003,-5.2e-4 0.006,5.2e-4 0.008,0 0.003,-5.2e-4 0.006,5.2e-4 0.008,0 0.0649,-0.0129 0.12608,-0.0332 0.18831,-0.0532 0.0647,-0.0208 0.12621,-0.0458 0.1883,-0.0737 0.0555,-0.025 0.11022,-0.0557 0.16375,-0.086 0.006,-0.004 0.0142,-0.005 0.0205,-0.008 0.007,-0.004 0.0137,-0.008 0.0205,-0.0123 0.0399,-0.0237 0.0799,-0.0472 0.11872,-0.0737 0.0481,-0.0329 0.0926,-0.0696 0.13918,-0.10643 0.002,-0.002 0.006,-0.002 0.008,-0.004 0.001,-10e-4 0.003,-0.003 0.004,-0.004 0.0606,-0.0485 0.12178,-0.10079 0.18011,-0.15556 0.0118,-0.0111 0.0251,-0.0214 0.0368,-0.0328 0.0472,-0.0456 0.0933,-0.094 0.13918,-0.14327 0.006,-0.006 0.0105,-0.0141 0.0164,-0.0205 0.0136,-0.0148 0.0275,-0.03 0.0409,-0.045 0.0889,-0.0996 0.17738,-0.20393 0.26199,-0.31521 0.005,-0.007 0.0111,-0.0135 0.0164,-0.0205 0.043,-0.0571 0.0848,-0.11649 0.1269,-0.17602 0.0105,-0.0148 0.0223,-0.0301 0.0327,-0.045 0.0371,-0.0532 0.074,-0.10892 0.11053,-0.16374 0.0152,-0.0228 0.0299,-0.0465 0.045,-0.0696 0.088,-0.13451 0.17219,-0.27239 0.25789,-0.41345 0.0144,-0.0238 0.0306,-0.0457 0.045,-0.0696 0.0203,-0.0336 0.0412,-0.0685 0.0614,-0.10234 0.87622,-1.46956 1.69168,-3.12637 3.13568,-3.1193 1.43143,0.007 2.21977,1.65545 3.07428,3.1193 0.0871,0.14923 0.17687,0.29455 0.26608,0.43802 0.0286,0.046 0.0571,0.0941 0.086,0.13918 0.0354,0.0553 0.0704,0.10994 0.10643,0.16374 0.0152,0.0227 0.0297,0.0472 0.045,0.0696 0.0104,0.0152 0.0223,0.03 0.0328,0.045 0.0917,0.13222 0.18582,0.26165 0.28245,0.38071 0.0501,0.0617 0.0997,0.1186 0.15147,0.17602 0.042,0.0468 0.0836,0.0915 0.1269,0.13509 0.0121,0.0122 0.0247,0.0249 0.0368,0.0368 0.0307,0.03 0.0628,0.0577 0.0942,0.086 0.0274,0.0247 0.054,0.0503 0.0819,0.0737 0.028,0.0234 0.0574,0.0435 0.086,0.0655 0.0249,0.0192 0.0483,0.0393 0.0737,0.0573 0.0499,0.0355 0.0997,0.0675 0.15147,0.0982 0.0507,0.0301 0.10294,0.0607 0.15555,0.086 0.0147,0.007 0.0301,0.0138 0.045,0.0205 0.042,0.0189 0.0837,0.0335 0.1269,0.0491 0.0218,0.008 0.0434,0.0175 0.0655,0.0246 0.041,0.013 0.0847,0.0228 0.1269,0.0328 0.0244,0.006 0.0489,0.0117 0.0737,0.0164 0.0577,0.0109 0.1161,0.0196 0.17602,0.0246 0.0697,0.006 0.13995,0.007 0.21287,0.004 0.0588,-0.002 0.11721,-0.0118 0.17602,-0.0287 0.0294,-0.008 0.0608,-0.0169 0.0901,-0.0287 0.14655,-0.0587 0.29023,-0.15956 0.42983,-0.28246 0.0558,-0.0491 0.10987,-0.10371 0.16374,-0.15965 0.48779,-0.5077 0.88284,-1.24837 1.00702,-1.49416 0.0284,-0.056 0.045,-0.086 0.045,-0.086 l -2.30469,-11.35969 -0.0368,0.008 -1.54328,-7.70821 -3.79066,-18.91235 z"
         style="color:#000000;fill:#d38d5f;stroke:none;stroke-width:2.19945359;marker:none;visibility:visible;display:inline;overflow:visible;enable-background:accumulate"
         inkscape:connector-curvature="0" />
      <path
         id="rect3712"
         d="m 283.00427,440.15118 -3.55732,17.77433 7.11874,0 -3.56142,-17.77433 z"
         style="color:#000000;fill:#aa0000;stroke:none;stroke-width:2.65284896;marker:none;visibility:visible;display:inline;overflow:visible;enable-background:accumulate"
         inkscape:connector-curvature="0" />
      <path
         id="rect3751"
         d="m 308.5,650 0,39.125 26.09375,0 0,-39.125 -26.09375,0 z"
         style="color:#000000;fill:#4d4d4d;stroke:none;stroke-width:1.58797038;marker:none;visibility:visible;display:inline;overflow:visible;enable-background:accumulate"
         inkscape:connector-curvature="0" />
      <path
         id="rect3751-8"
         d="m 325.625,649.65625 c -0.11791,6.65287 -0.096,13.31579 0,19.96875 0.099,6.48974 0.26773,12.99754 0.40625,19.5 l 3.59375,0 c -0.13854,-6.50228 -0.27591,-13.01044 -0.375,-19.5 -0.0943,-6.65296 -0.1478,-13.31589 -0.0313,-19.96875 l -3.59375,0 z"
         style="color:#000000;fill:#666666;stroke:none;stroke-width:0.58861643;marker:none;visibility:visible;display:inline;overflow:visible;enable-background:accumulate"
         inkscape:connector-curvature="0" />
      <path
         sodipodi:nodetypes="cccac"
         inkscape:connector-curvature="0"
         id="path4636"
         d="m 323.29348,445.66458 -1.66033,0 -1.66033,0 c 0.55344,-1.83781 -0.259,-5.51341 1.66033,-5.51341 1.91932,0 1.10689,3.6756 1.66033,5.51341 z"
         inkscape:transform-center-y="-7.014806"
         style="color:#000000;fill:#cccccc;fill-opacity:1;fill-rule:nonzero;stroke:none;stroke-width:1.60300004;marker:none;visibility:visible;display:inline;overflow:visible;enable-background:accumulate" />
      <path
         inkscape:connector-curvature="0"
         id="rect3749-4"
         d="m 318.67963,445.4488 c -10.16342,16.71569 -10.527,31.92479 -10.017,46.99841 l -0.14327,0.58538 0,157.4023 0.16374,0 25.90009,0 0.16374,0 0,-157.4023 -0.14327,-0.60176 c 0.50919,-15.06827 0.14684,-30.27238 -10.0129,-46.98203 l -1.18305,0 -3.21346,0 -1.51462,0 z"
         style="color:#000000;fill:#1a1a1a;stroke:none;stroke-width:1.80012226;marker:none;visibility:visible;display:inline;overflow:visible;enable-background:accumulate" />
      <path
         sodipodi:nodetypes="cccsc"
         inkscape:connector-curvature="0"
         id="path4678"
         d="m 326.19204,534.84546 -4.24012,0 -4.24013,0 c -0.095,-7.02961 -0.23119,-21.08882 4.24013,-21.08882 4.21155,0 4.24012,13.93434 4.24012,21.08882 z"
         inkscape:transform-center-y="-26.831644"
         style="color:#000000;fill:#121212;fill-opacity:1;stroke:none;stroke-width:0.84216785;marker:none;visibility:visible;display:inline;overflow:visible;enable-background:accumulate" />
      <path
         sodipodi:nodetypes="cccsc"
         inkscape:connector-curvature="0"
         id="path4678-1"
         d="m 326.19204,540.85873 -4.24012,0 -4.24013,0 c -0.095,7.02961 -0.23119,21.08881 4.24013,21.08881 4.21155,0 4.24012,-13.93433 4.24012,-21.08881 z"
         inkscape:transform-center-y="26.831644"
         style="color:#000000;fill:#121212;fill-opacity:1;stroke:none;stroke-width:0.84216785;marker:none;visibility:visible;display:inline;overflow:visible;enable-background:accumulate" />
      <path
         sodipodi:nodetypes="ccccccccccccccccccccccccccccccccc"
         inkscape:connector-curvature="0"
         id="path7984"
         d="m 402.83327,489.42754 0,1.55966 -3.09885,0.42573 -0.87601,2.38655 0,11.76906 1.11345,3.10292 0,9.69771 -1.19124,2.46841 0,8.1094 0.79416,1.03568 0,7.79007 -1.82983,2.94329 0,21.31274 5.08832,0.0818 0,0.18013 5.68599,-0.0901 5.68598,0.0901 0,-0.18013 5.08833,-0.0818 0,-21.31274 -1.82575,-2.94329 0,-7.79007 0.79416,-1.03568 0,-8.1094 -1.19123,-2.46841 0,-9.69771 1.10937,-3.10292 0,-11.76906 -0.87194,-2.38655 -3.10294,-0.42573 0,-1.55966 -5.68598,0.78188 z"
         style="fill:#000000;stroke:none" />
      <path
         id="rect6651-9"
         d="m 394.5625,561.65625 0,113.90625 c 0.0908,4.61122 0.18952,9.23231 0.28125,13.84375 l 27.125,0 0.5,-13.84375 0,-113.90625 -27.90625,0 z"
         style="color:#000000;fill:#000000;stroke:none;stroke-width:1.53369057;marker:none;visibility:visible;display:inline;overflow:visible;enable-background:accumulate"
         inkscape:connector-curvature="0" />
      <path
         inkscape:connector-curvature="0"
         id="rect7819"
         d="m 399.17156,491.55621 c -1.17205,0 -2.33409,1.31799 -2.36199,2.63626 -2.13667,22.03902 -1.96289,44.60723 -2.12866,67.23707 l 27.67671,0 c -0.16578,-22.62984 0.008,-45.19805 -2.12867,-67.23707 -0.0279,-1.31827 -1.18994,-2.63626 -2.36199,-2.63626 l -1.25264,0 -16.19012,0 -1.25264,0 z"
         style="color:#000000;fill:#9b9b9b;fill-opacity:0.57950535;stroke:none;stroke-width:1.70150328;marker:none;visibility:visible;display:inline;overflow:visible;enable-background:accumulate" />
      <path
         sodipodi:nodetypes="ccccccccc"
         inkscape:connector-curvature="0"
         id="rect7896"
         d="m 400.95227,474.82984 -1.39182,1.49824 0.0736,15.07624 17.77024,0 0.0736,-15.07624 -1.3918,-1.49824 -3.22167,0 -8.69066,0 z"
         style="color:#000000;fill:#050505;fill-opacity:1;stroke:none;stroke-width:1.60300004;marker:none;visibility:visible;display:inline;overflow:visible;enable-background:accumulate" />
      <path
         inkscape:connector-curvature="0"
         id="path7961"
         d="m 408.50786,440.15118 -0.0304,0.39298 c -1.57027,11.00245 -4.3591,18.94853 -4.3591,28.95799 l -0.0267,0.56082 4.42756,-0.0246 4.42755,0.0246 -0.0267,-0.56082 c 0,-10.00311 -2.78065,-17.94591 -4.35148,-28.93753 l -0.0342,-0.41344 c -0.004,0.0318 -0.0106,0.0624 -0.0151,0.0942 -0.004,-0.0316 -0.007,-0.0626 -0.0119,-0.0942 z"
         style="fill:#000000;stroke:none" />
      <path
         sodipodi:nodetypes="ccccc"
         inkscape:connector-curvature="0"
         id="rect7940-6"
         d="m 403.87125,469.66116 9.29602,0 1.88365,5.19134 -13.06331,0 z"
         style="color:#000000;fill:#080808;fill-opacity:1;stroke:none;stroke-width:1.89235926;marker:none;visibility:visible;display:inline;overflow:visible;enable-background:accumulate" />
      <rect
         y="454.4646"
         x="446.20221"
         height="14.313414"
         width="10.019391"
         id="rect8114"
         style="color:#000000;fill:#795a30;fill-opacity:1;fill-rule:nonzero;stroke:none;stroke-width:1.60300004;marker:none;visibility:visible;display:inline;overflow:visible;enable-background:accumulate" />
      <rect
         y="440.15118"
         x="450.41672"
         height="11.450732"
         width="1.5903795"
         id="rect8134-6"
         style="color:#000000;fill:#000000;fill-opacity:1;fill-rule:nonzero;stroke:none;stroke-width:1.60300004;marker:none;visibility:visible;display:inline;overflow:visible;enable-background:accumulate" />
      <path
         inkscape:connector-curvature="0"
         id="rect8019-8"
         d="m 443.25806,466.23303 -2.86141,39.12236 21.63049,0 -2.86551,-39.12236 -5.88248,0 -4.13451,0 -5.88658,0 z"
         style="color:#000000;fill:#72542d;fill-opacity:1;fill-rule:nonzero;stroke:none;stroke-width:1.60300004;marker:none;visibility:visible;display:inline;overflow:visible;enable-background:accumulate" />
      <rect
         y="451.92001"
         x="446.20221"
         height="2.544606"
         width="10.019391"
         id="rect8114-4"
         style="color:#000000;fill:#666666;fill-opacity:1;fill-rule:nonzero;stroke:none;stroke-width:1.60300004;marker:none;visibility:visible;display:inline;overflow:visible;enable-background:accumulate" />
      <rect
         y="442.85483"
         x="450.17816"
         height="11.450732"
         width="2.0674932"
         id="rect8134"
         style="color:#000000;fill:#666666;fill-opacity:1;fill-rule:nonzero;stroke:none;stroke-width:1.60300004;marker:none;visibility:visible;display:inline;overflow:visible;enable-background:accumulate" />
      <path
         id="rect8019"
         d="m 440.40625,504 0,185.125 21.625,0 0,-185.125 -21.625,0 z"
         style="color:#000000;fill:#795a30;fill-opacity:1;fill-rule:nonzero;stroke:none;stroke-width:1.60300004;marker:none;visibility:visible;display:inline;overflow:visible;enable-background:accumulate"
         inkscape:connector-curvature="0" />
      <path
         sodipodi:nodetypes="ccccc"
         inkscape:connector-curvature="0"
         id="rect4711-4-0"
         d="m 356.13042,472.82961 13.90514,0 1.79932,43.71443 -17.61624,0 z"
         style="color:#000000;fill:#1a1a1a;fill-opacity:1;stroke:none;stroke-width:1.04598308;marker:none;visibility:visible;display:inline;overflow:visible;enable-background:accumulate" />
      <path
         id="rect4711"
         d="m 354.3125,516.46875 0,172.65625 17.4375,0 0,-172.65625 -17.4375,0 z"
         style="color:#000000;fill:#083e7a;fill-opacity:1;stroke:none;stroke-width:2.39068413;marker:none;visibility:visible;display:inline;overflow:visible;enable-background:accumulate"
         inkscape:connector-curvature="0" />
      <path
         id="rect4806"
         d="M 375.15625,660.65625 372.375,665.75 c 0,0 -1.32286,1.90375 -1.3125,3 0.01,1.0507 1.3125,2.875 1.3125,2.875 l 2.34375,2.96875 -0.0625,14.53125 1.8125,0 0.28125,-28.46875 -1.59375,0 z m -0.21875,3.59375 0,8.625 -1.53125,-3.0625 c 0,0 -0.42926,-0.77301 -0.4375,-1.25 -0.009,-0.51013 0.4375,-1.375 0.4375,-1.375 l 1.53125,-2.9375 z"
         style="color:#000000;fill:#999999;fill-opacity:1;fill-rule:nonzero;stroke:none;stroke-width:1.60300004;marker:none;visibility:visible;display:inline;overflow:visible;enable-background:accumulate"
         inkscape:connector-curvature="0" />
      <path
         sodipodi:nodetypes="ccccc"
         inkscape:connector-curvature="0"
         id="rect4711-4"
         d="m 356.13042,472.82962 13.90514,0 1.79932,43.71443 -17.61624,0 z"
         style="color:#000000;fill:url(#pattern55067);fill-opacity:1;stroke:none;stroke-width:1.04598308;marker:none;visibility:visible;display:inline;overflow:visible;enable-background:accumulate" />
      <path
         sodipodi:nodetypes="ccccc"
         inkscape:connector-curvature="0"
         id="rect4711-4-7"
         d="m 357.59351,453.3919 10.95509,0 1.41757,19.69971 -13.87882,0 z"
         style="color:#000000;fill:#666666;fill-opacity:1;stroke:none;stroke-width:1.04598308;marker:none;visibility:visible;display:inline;overflow:visible;enable-background:accumulate" />
      <rect
         y="451.86618"
         x="358.21924"
         height="1.7953204"
         width="9.615057"
         id="rect6569"
         style="color:#000000;fill:#6c6c6c;fill-opacity:1;fill-rule:nonzero;stroke:none;stroke-width:1.60300004;marker:none;visibility:visible;display:inline;overflow:visible;enable-background:accumulate" />
      <rect
         y="448.20126"
         x="360.60144"
         height="1.8289363"
         width="4.8506575"
         id="rect6627"
         style="color:#000000;fill:#0e0e0e;fill-opacity:1;fill-rule:nonzero;stroke:none;stroke-width:1.60300004;marker:none;visibility:visible;display:inline;overflow:visible;enable-background:accumulate" />
      <path
         id="rect4711-4-7-8-5-6"
         d="m 359.94679,450.08155 -1.72749,1.8655 3.86842,0 1.87897,0 3.86842,0 -1.72749,-1.8655 -2.30468,0 -1.55147,0 -2.30468,0 z"
         style="color:#000000;fill:#737373;fill-opacity:1;stroke:none;stroke-width:1.04598308;marker:none;visibility:visible;display:inline;overflow:visible;enable-background:accumulate"
         inkscape:connector-curvature="0" />
      <path
         transform="matrix(0.10367571,0,0,0.20197121,339.66663,676.61848)"
         inkscape:transform-center-y="-10.364413"
         d="m 248.49799,-1130.4643 -23.28614,0 -23.28613,0 11.64306,-20.1664 11.64307,-20.1664 11.64307,20.1664 z"
         inkscape:randomized="0"
         inkscape:rounded="0"
         inkscape:flatsided="false"
         sodipodi:arg2="1.5707963"
         sodipodi:arg1="0.52359878"
         sodipodi:r2="13.444259"
         sodipodi:r1="26.888515"
         sodipodi:cy="-1143.9086"
         sodipodi:cx="225.21185"
         sodipodi:sides="3"
         id="path6629"
         style="color:#000000;fill:#1a1a1a;fill-opacity:1;fill-rule:nonzero;stroke:none;stroke-width:1.60300004;marker:none;visibility:visible;display:inline;overflow:visible;enable-background:accumulate"
         sodipodi:type="star" />
      <rect
         ry="2.9725552"
         y="648.8783"
         x="226.23605"
         height="33.490788"
         width="33.490788"
         id="rect8178"
         style="color:#000000;fill:#060606;fill-opacity:1;stroke:none;stroke-width:1.60300004;marker:none;visibility:visible;display:inline;overflow:visible;enable-background:accumulate" />
      <path
         sodipodi:nodetypes="ssscccss"
         inkscape:connector-curvature="0"
         id="rect8156"
         d="m 234.06379,649.86914 17.83534,0 c 1.64679,0 2.97255,1.32576 2.97255,2.97256 l 0,19.02435 c 0.39076,3.48625 -9.32616,3.53754 -11.89022,3.56706 -2.9226,-0.021 -11.77095,-0.12608 -11.89022,-3.96341 l 0,-18.628 c 0,-1.6468 1.32576,-2.97256 2.97255,-2.97256 z"
         style="color:#000000;fill:#151515;fill-opacity:1;stroke:none;stroke-width:1.60300004;marker:none;visibility:visible;display:inline;overflow:visible;enable-background:accumulate" />
      <text
         sodipodi:linespacing="125%"
         id="text10095"
         y="666.30688"
         x="233.14087"
         style="font-size:4.37854767px;font-style:normal;font-variant:normal;font-weight:normal;font-stretch:normal;text-indent:0;text-align:start;text-decoration:none;line-height:125%;letter-spacing:0px;word-spacing:0px;text-transform:none;direction:ltr;block-progression:tb;writing-mode:lr-tb;text-anchor:start;baseline-shift:baseline;color:#000000;fill:#ffffff;fill-opacity:1;fill-rule:nonzero;stroke:none;stroke-width:1px;marker:none;visibility:visible;display:inline;overflow:visible;enable-background:accumulate;font-family:Lato;-inkscape-font-specification:Lato"
         xml:space="preserve"><tspan
           style="font-size:17.51419067px;font-style:normal;font-variant:normal;font-weight:normal;font-stretch:normal;text-align:start;line-height:125%;writing-mode:lr-tb;text-anchor:start;fill:#ffffff;font-family:Lato;-inkscape-font-specification:Lato"
           y="666.30688"
           x="233.14087"
           id="tspan10097"
           sodipodi:role="line">U</tspan></text>
      <text
         sodipodi:linespacing="125%"
         id="text10095-7"
         y="671.70923"
         x="248.14604"
         style="font-size:1.17252171px;font-style:normal;font-variant:normal;font-weight:normal;font-stretch:normal;text-indent:0;text-align:start;text-decoration:none;line-height:125%;letter-spacing:0px;word-spacing:0px;text-transform:none;direction:ltr;block-progression:tb;writing-mode:lr-tb;text-anchor:start;baseline-shift:baseline;color:#000000;fill:#ffffff;fill-opacity:1;fill-rule:nonzero;stroke:none;stroke-width:1px;marker:none;visibility:visible;display:inline;overflow:visible;enable-background:accumulate;font-family:Lato;-inkscape-font-specification:Lato"
         xml:space="preserve"><tspan
           style="font-size:4.69008684px;font-style:normal;font-variant:normal;font-weight:normal;font-stretch:normal;text-align:start;line-height:125%;writing-mode:lr-tb;text-anchor:start;fill:#ffffff;font-family:Lato;-inkscape-font-specification:Lato"
           y="671.70923"
           x="248.14604"
           id="tspan10097-6"
           sodipodi:role="line">4</tspan></text>
      <rect
         ry="2.9725552"
         y="605.66797"
         x="226.23607"
         height="33.490788"
         width="33.490788"
         id="rect8178-1"
         style="color:#000000;fill:#060606;fill-opacity:1;stroke:none;stroke-width:1.60300004;marker:none;visibility:visible;display:inline;overflow:visible;enable-background:accumulate" />
      <path
         sodipodi:nodetypes="ssscccss"
         inkscape:connector-curvature="0"
         id="rect8156-7"
         d="m 234.0638,606.65887 17.83533,0 c 1.6468,0 2.97256,1.32574 2.97256,2.97254 l 0,19.02436 c 0.39076,3.48624 -9.32616,3.53753 -11.89022,3.56706 -2.9226,-0.021 -11.77095,-0.12609 -11.89022,-3.96342 l 0,-18.628 c 0,-1.6468 1.32575,-2.97254 2.97255,-2.97254 z"
         style="color:#000000;fill:#151515;fill-opacity:1;stroke:none;stroke-width:1.60300004;marker:none;visibility:visible;display:inline;overflow:visible;enable-background:accumulate" />
      <text
         sodipodi:linespacing="125%"
         id="text10095-74"
         y="623.09662"
         x="233.14087"
         style="font-size:4.37854767px;font-style:normal;font-variant:normal;font-weight:normal;font-stretch:normal;text-indent:0;text-align:start;text-decoration:none;line-height:125%;letter-spacing:0px;word-spacing:0px;text-transform:none;direction:ltr;block-progression:tb;writing-mode:lr-tb;text-anchor:start;baseline-shift:baseline;color:#000000;fill:#ffffff;fill-opacity:1;fill-rule:nonzero;stroke:none;stroke-width:1px;marker:none;visibility:visible;display:inline;overflow:visible;enable-background:accumulate;font-family:Lato;-inkscape-font-specification:Lato"
         xml:space="preserve"><tspan
           style="font-size:17.51419067px;font-style:normal;font-variant:normal;font-weight:normal;font-stretch:normal;text-align:start;line-height:125%;writing-mode:lr-tb;text-anchor:start;fill:#ffffff;font-family:Lato;-inkscape-font-specification:Lato"
           y="623.09662"
           x="233.14087"
           id="tspan10097-9"
           sodipodi:role="line">&lt;</tspan></text>
      <text
         sodipodi:linespacing="125%"
         id="text10095-7-3"
         y="627.48486"
         x="236.22536"
         style="font-size:15.34947395px;font-style:normal;font-variant:normal;font-weight:normal;font-stretch:normal;text-indent:0;text-align:start;text-decoration:none;line-height:125%;letter-spacing:0px;word-spacing:0px;text-transform:none;direction:ltr;block-progression:tb;writing-mode:lr-tb;text-anchor:start;baseline-shift:baseline;color:#000000;fill:#ffffff;fill-opacity:1;fill-rule:nonzero;stroke:none;stroke-width:1px;marker:none;visibility:visible;display:inline;overflow:visible;enable-background:accumulate;font-family:Lato;-inkscape-font-specification:Lato"
         xml:space="preserve"><tspan
           style="font-size:15.34947395px;font-style:normal;font-variant:normal;font-weight:normal;font-stretch:normal;text-align:start;line-height:125%;writing-mode:lr-tb;text-anchor:start;fill:#ffffff;font-family:Lato;-inkscape-font-specification:Lato"
           y="627.48486"
           x="236.22536"
           id="tspan10097-6-4"
           sodipodi:role="line">,</tspan></text>
      <rect
         ry="2.9725552"
         y="562.4577"
         x="225.19066"
         height="33.490788"
         width="33.490788"
         id="rect8178-9"
         style="color:#000000;fill:#060606;fill-opacity:1;stroke:none;stroke-width:1.60300004;marker:none;visibility:visible;display:inline;overflow:visible;enable-background:accumulate" />
      <path
         sodipodi:nodetypes="ssscccss"
         inkscape:connector-curvature="0"
         id="rect8156-8"
         d="m 233.01839,563.44856 17.83533,0 c 1.6468,0 2.97256,1.32575 2.97256,2.97254 l 0,19.02436 c 0.39076,3.48625 -9.32616,3.53754 -11.89022,3.56706 -2.9226,-0.021 -11.77095,-0.12608 -11.89022,-3.96341 l 0,-18.62801 c 0,-1.64679 1.32575,-2.97254 2.97255,-2.97254 z"
         style="color:#000000;fill:#151515;fill-opacity:1;stroke:none;stroke-width:1.60300004;marker:none;visibility:visible;display:inline;overflow:visible;enable-background:accumulate" />
      <text
         sodipodi:linespacing="125%"
         id="text10095-6"
         y="579.88629"
         x="232.09546"
         style="font-size:4.37854767px;font-style:normal;font-variant:normal;font-weight:normal;font-stretch:normal;text-indent:0;text-align:start;text-decoration:none;line-height:125%;letter-spacing:0px;word-spacing:0px;text-transform:none;direction:ltr;block-progression:tb;writing-mode:lr-tb;text-anchor:start;baseline-shift:baseline;color:#000000;fill:#ffffff;fill-opacity:1;fill-rule:nonzero;stroke:none;stroke-width:1px;marker:none;visibility:visible;display:inline;overflow:visible;enable-background:accumulate;font-family:Lato;-inkscape-font-specification:Lato"
         xml:space="preserve"><tspan
           style="font-size:17.51419067px;font-style:normal;font-variant:normal;font-weight:normal;font-stretch:normal;text-align:start;line-height:125%;writing-mode:lr-tb;text-anchor:start;fill:#ffffff;font-family:Lato;-inkscape-font-specification:Lato"
           y="579.88629"
           x="232.09546"
           id="tspan10097-4"
           sodipodi:role="line">P</tspan></text>
      <text
         sodipodi:linespacing="125%"
         id="text10095-7-7"
         y="591.00073"
         x="244.69482"
         style="font-size:0.88276124px;font-style:normal;font-variant:normal;font-weight:normal;font-stretch:normal;text-indent:0;text-align:start;text-decoration:none;line-height:125%;letter-spacing:0px;word-spacing:0px;text-transform:none;direction:ltr;block-progression:tb;writing-mode:lr-tb;text-anchor:start;baseline-shift:baseline;color:#000000;fill:#ffffff;fill-opacity:1;fill-rule:nonzero;stroke:none;stroke-width:1px;marker:none;visibility:visible;display:inline;overflow:visible;enable-background:accumulate;font-family:Lato;-inkscape-font-specification:Lato"
         xml:space="preserve"><tspan
           style="font-size:13.18238258px;font-style:normal;font-variant:normal;font-weight:normal;font-stretch:normal;text-align:start;line-height:125%;writing-mode:lr-tb;text-anchor:start;fill:#ffffff;font-family:Lato;-inkscape-font-specification:Lato"
           y="591.00073"
           x="244.69482"
           id="tspan10097-6-8"
           sodipodi:role="line">*</tspan></text>
      <rect
         ry="2.9725552"
         y="519.24738"
         x="226.23607"
         height="33.490788"
         width="33.490788"
         id="rect8178-0"
         style="color:#000000;fill:#060606;fill-opacity:1;stroke:none;stroke-width:1.60300004;marker:none;visibility:visible;display:inline;overflow:visible;enable-background:accumulate" />
      <path
         sodipodi:nodetypes="ssscccss"
         inkscape:connector-curvature="0"
         id="rect8156-3"
         d="m 234.0638,520.23825 17.83533,0 c 1.6468,0 2.97256,1.32575 2.97256,2.97255 l 0,19.02436 c 0.39076,3.48624 -9.32616,3.53753 -11.89022,3.56706 -2.9226,-0.021 -11.77095,-0.12609 -11.89022,-3.96342 l 0,-18.628 c 0,-1.6468 1.32575,-2.97255 2.97255,-2.97255 z"
         style="color:#000000;fill:#151515;fill-opacity:1;stroke:none;stroke-width:1.60300004;marker:none;visibility:visible;display:inline;overflow:visible;enable-background:accumulate" />
      <text
         sodipodi:linespacing="125%"
         id="text10095-3"
         y="529.88354"
         x="234.70889"
         style="font-size:9.35462666px;font-style:normal;font-variant:normal;font-weight:normal;font-stretch:normal;text-indent:0;text-align:start;text-decoration:none;line-height:125%;letter-spacing:0px;word-spacing:0px;text-transform:none;direction:ltr;block-progression:tb;writing-mode:lr-tb;text-anchor:start;baseline-shift:baseline;color:#000000;fill:#ffffff;fill-opacity:1;fill-rule:nonzero;stroke:none;stroke-width:1px;marker:none;visibility:visible;display:inline;overflow:visible;enable-background:accumulate;font-family:Lato;-inkscape-font-specification:Lato"
         xml:space="preserve"><tspan
           style="font-size:9.35462666px;font-style:normal;font-variant:normal;font-weight:normal;font-stretch:normal;text-align:start;line-height:125%;writing-mode:lr-tb;text-anchor:start;fill:#ffffff;font-family:Lato;-inkscape-font-specification:Lato"
           y="529.88354"
           x="234.70889"
           id="tspan10097-93"
           sodipodi:role="line">#</tspan></text>
      <text
         sodipodi:linespacing="125%"
         id="text10095-7-0"
         y="543.34418"
         x="234.05"
         style="font-size:14.46312141px;font-style:normal;font-variant:normal;font-weight:normal;font-stretch:normal;text-indent:0;text-align:start;text-decoration:none;line-height:125%;letter-spacing:0px;word-spacing:0px;text-transform:none;direction:ltr;block-progression:tb;writing-mode:lr-tb;text-anchor:start;baseline-shift:baseline;color:#000000;fill:#ffffff;fill-opacity:1;fill-rule:nonzero;stroke:none;stroke-width:1px;marker:none;visibility:visible;display:inline;overflow:visible;enable-background:accumulate;font-family:Lato;-inkscape-font-specification:Lato"
         xml:space="preserve"><tspan
           style="font-size:14.46312141px;font-style:normal;font-variant:normal;font-weight:normal;font-stretch:normal;text-align:start;line-height:125%;writing-mode:lr-tb;text-anchor:start;fill:#ffffff;font-family:Lato;-inkscape-font-specification:Lato"
           y="543.34418"
           x="234.05"
           id="tspan10097-6-1"
           sodipodi:role="line">3</tspan></text>
      <g
         transform="translate(189.41253,6129.426)"
         id="text42984"
         style="font-size:237.33641052px;font-style:normal;font-variant:normal;font-weight:normal;font-stretch:normal;text-indent:0;text-align:start;text-decoration:none;line-height:125%;letter-spacing:0px;word-spacing:0px;text-transform:none;direction:ltr;block-progression:tb;writing-mode:lr-tb;text-anchor:start;baseline-shift:baseline;color:#000000;fill:#000000;fill-opacity:1;fill-rule:nonzero;stroke:none;stroke-width:1px;marker:none;visibility:visible;display:inline;overflow:visible;enable-background:accumulate;font-family:Lato;-inkscape-font-specification:Lato">
        <path
           sodipodi:nodetypes="ccsccccsccccccccccccccccccscccccccccccscccscc"
           inkscape:connector-curvature="0"
           id="path42989"
           style="marker:none;font-family:NeoRetroDraw;-inkscape-font-specification:NeoRetroDraw"
           d="m 708.24215,-5417.0955 c -1.4e-4,3.9556 -1.18682,6.7245 -3.56005,8.3067 -8.86069,-0.3164 -15.58521,-0.4746 -20.17359,-0.4746 -8.86067,0 -22.30972,0.3956 -40.34719,1.1866 -17.8794,0.7912 -574.447695,2.3254 -583.466432,2.3253 l -4.984065,0 c -4.430308,-3.4809 -11.471281,-7.9111 -21.122941,-13.2908 -0.316459,-5.0631 -0.474683,-8.8605 -0.474672,-11.3922 -1.1e-5,-4.5884 0.474661,-8.3067 1.424018,-11.1548 14.081934,0.9495 576.188072,0.2855 600.079982,0.2854 28.0056,0.3166 47.0716,0.633 57.19807,0.9494 3.63903,2.3734 8.78131,6.2499 15.42687,11.6295 -0.31659,1.5823 -0.47482,2.6899 -0.47467,3.3227 -1.5e-4,0.7912 0.079,2.1361 0.23733,4.0347 0.15808,1.8988 0.2372,3.3228 0.23734,4.2721 m -4.27206,-8.0695 c -3.32284,-4.1137 -6.40821,-6.8827 -9.25612,-8.3068 -1.26592,3.1646 -1.89881,5.6171 -1.89869,7.3575 -1.2e-4,5.2214 3.48081,8.3068 10.4428,9.2561 l 0.71201,-8.3068 m -16.13887,-4.7467 c -1.2e-4,-4.272 -1.2e-4,-6.408 0,-6.4081 -13.13273,-0.791 -30.61649,-1.2657 -52.45135,-1.424 -25.94882,1e-4 -586.63094,0.9804 -595.807923,0.6639 -0.949361,2.3735 -1.424033,4.8259 -1.424018,7.3574 -1.5e-5,2.6899 0.316433,5.0633 0.949345,7.1201 14.556603,0.9494 568.751536,0.2855 576.346346,0.2855 17.4046,0 28.32206,-0.1582 32.75242,-0.4747 0.63281,0 2.21505,-0.1582 4.74672,-0.4747 1.89861,-0.3164 3.48085,-0.4746 4.74673,-0.4747 1.8986,1e-4 4.82575,0.1583 8.78145,0.4747 4.11373,0.1583 7.1991,0.2374 9.25612,0.2373 4.27194,1e-4 7.9111,-0.3954 10.91747,-1.1866 0.79101,-1.1075 1.18657,-3.0062 1.18669,-5.6961 m 8.30677,17.5629 c 0.1581,-1.1075 -1.50326,-2.7689 -4.98406,-4.9841 -9.49357,-0.9493 -18.98702,-1.4239 -28.48037,-1.424 -5.22149,1e-4 -12.89536,0.3165 -23.02163,0.9493 -10.12642,0.4748 -17.72117,0.7121 -22.7843,0.7121 -7.5948,0 -559.099926,0.7431 -568.276899,-0.048 0.632871,1.2658 1.977776,2.6898 4.034719,4.272 2.215108,1.4241 3.718237,2.6108 4.509391,3.5601 L 640.1266,-5410.45 c 6.64533,-0.013 15.98056,-0.3164 28.00569,-0.9494 12.97428,-0.6328 22.3095,-0.9493 28.0057,-0.9493" />
      </g>
    </g>
  </g>
</svg>
