<?xml version="1.0" encoding="UTF-8" standalone="no"?>
<!-- Created with Inkscape (http://www.inkscape.org/) -->

<svg
   xmlns:dc="http://purl.org/dc/elements/1.1/"
   xmlns:cc="http://creativecommons.org/ns#"
   xmlns:rdf="http://www.w3.org/1999/02/22-rdf-syntax-ns#"
   xmlns:svg="http://www.w3.org/2000/svg"
   xmlns="http://www.w3.org/2000/svg"
   xmlns:sodipodi="http://sodipodi.sourceforge.net/DTD/sodipodi-0.dtd"
   xmlns:inkscape="http://www.inkscape.org/namespaces/inkscape"
   width="349.25"
   height="179.86481"
   id="svg2"
   sodipodi:version="0.32"
   inkscape:version="0.48.4 r9939"
   sodipodi:docname="hyde.svg"
   inkscape:output_extension="org.inkscape.output.svg.inkscape"
   version="1.1">
  <defs
     id="defs4" />
  <sodipodi:namedview
     id="base"
     pagecolor="#ffffff"
     bordercolor="#666666"
     borderopacity="1.0"
     inkscape:pageopacity="0.0"
     inkscape:pageshadow="2"
     inkscape:zoom="2.7412731"
     inkscape:cx="131.4812"
     inkscape:cy="109.07708"
     inkscape:document-units="px"
     inkscape:current-layer="layer1"
     inkscape:window-width="1398"
     inkscape:window-height="1029"
     inkscape:window-x="0"
     inkscape:window-y="19"
     showgrid="false"
     showguides="true"
     inkscape:guide-bbox="true"
     fit-margin-top="0"
     fit-margin-left="0"
     fit-margin-right="0"
     fit-margin-bottom="0"
     inkscape:window-maximized="0"
     inkscape:snap-page="true" />
  <metadata
     id="metadata7">
    <rdf:RDF>
      <cc:Work
         rdf:about="">
        <dc:format>image/svg+xml</dc:format>
        <dc:type
           rdf:resource="http://purl.org/dc/dcmitype/StillImage" />
        <dc:title />
      </cc:Work>
    </rdf:RDF>
  </metadata>
  <g
     inkscape:label="Capa 1"
     inkscape:groupmode="layer"
     id="layer1"
     transform="translate(-85.1875,-170.80229)">
    <g
       id="g4383">
      <path
         inkscape:connector-curvature="0"
         id="path4371"
         d="m 185.99025,319.64844 3.8303,-18.20248 -7.48923,-26.54752 c -4.11908,-14.60114 -8.36399,-29.58502 -9.43312,-33.29752 l -1.94388,-6.75 16.42941,0 16.42942,0 0.0155,33.25 0.0155,33.25 -4.18518,18.25 -4.18519,18.25 -6.65694,0 -6.65695,0 3.83031,-18.20248 z m 15.82398,17.5002 c 5.9e-4,-0.43875 1.79385,-8.67272 3.98501,-18.29772 l 3.98394,-17.5 0.015,-33.25 0.015,-33.25 16.328,0 16.32801,0 -14.07801,51.25 -14.078,51.25 -6.25,0.29772 c -3.4375,0.16374 -6.24952,-0.0613 -6.24892,-0.5 z m -103.001082,-78.79772 0,-47.5 16.000002,0 16,0 0,47.5 0,47.5 -16,0 -16.000002,0 0,-47.5 z m 39.000002,11.86408 0,-35.63593 4.60629,0.63136 c 10.12009,1.38712 18.66523,8.55093 24.10735,20.21036 2.71937,5.8261 2.77417,6.32044 3.12358,28.18013 l 0.35565,22.25 -16.09644,0 -16.09643,0 0,-35.63592 z m 137.72263,34.59728 c -9.8453,-1.65566 -19.74179,-10.28521 -23.87008,-20.81427 -3.35818,-8.56492 -3.15621,-20.67114 0.47675,-28.57722 5.33275,-11.60517 13.92397,-18.82045 24.06441,-20.21036 l 4.60629,-0.63136 0,35.63593 c 0,19.59975 -0.1125,35.58299 -0.25,35.5183 -0.1375,-0.0647 -2.39982,-0.47915 -5.02737,-0.92102 z m 12.27737,-46.46136 0,-47.5 16,0 16,0 0,47.5 0,47.5 -16,0 -16,0 0,-47.5 z m 75.7977,45.62358 c -12.29157,-4.04732 -20.69299,-11.40137 -26.01307,-22.77012 -2.42515,-5.18242 -3.14552,-8.27912 -3.5415,-15.22392 -0.85955,-15.0752 3.09041,-26.37184 12.25017,-35.03476 9.80252,-9.27081 19.59504,-12.55405 35.49017,-11.89915 9.26447,0.38172 11.48751,0.83625 17.22803,3.52257 3.62505,1.69636 8.37342,4.86672 10.55193,7.04523 6.71085,6.71085 11.23657,18.90897 11.23657,30.28579 l 0,4.95078 -23.5,0 -23.5,0 0,16.46482 c 0,15.23509 0.14396,16.54186 1.92756,17.49641 2.03078,1.08684 5.07045,0.41777 6.30713,-1.38829 0.40408,-0.59012 0.74158,-5.91044 0.75,-11.82294 l 0.0153,-10.75 19,0 19,0 -0.009,2.25 c -0.0162,3.87613 -5.79482,12.54772 -11.25329,16.88698 -2.88053,2.28991 -8.61233,5.7753 -12.73733,7.74533 -6.8421,3.26766 -8.37721,3.60541 -17.5,3.85039 -7.65026,0.20542 -11.33989,-0.17267 -15.7023,-1.60912 z m 18.0023,-46.32358 c 0.82048,-0.82048 1.2,-5.6839 1.2,-15.37755 0,-15.53663 -0.45809,-16.84456 -5.68953,-16.24471 l -2.81047,0.32226 -0.27739,14.86453 c -0.18867,10.11021 0.0904,15.30767 0.87245,16.25 1.41381,1.70354 5.08531,1.8051 6.70494,0.18547 z"
         style="fill:#000000" />
      <text
         sodipodi:linespacing="125%"
         id="text4373"
         y="204.25938"
         x="96.507256"
         style="font-size:28.8237133px;font-style:normal;font-variant:normal;font-weight:normal;font-stretch:normal;text-indent:0;text-align:start;text-decoration:none;line-height:125%;letter-spacing:0px;word-spacing:0px;text-transform:none;direction:ltr;block-progression:tb;writing-mode:lr-tb;text-anchor:start;baseline-shift:baseline;color:#000000;fill:#000000;fill-opacity:1;fill-rule:nonzero;stroke:none;stroke-width:1px;marker:none;visibility:visible;display:inline;overflow:visible;enable-background:accumulate;font-family:Comfortaa;-inkscape-font-specification:Comfortaa"
         xml:space="preserve"><tspan
           style="font-style:normal;font-variant:normal;font-weight:normal;font-stretch:normal;font-family:FreeSans;-inkscape-font-specification:FreeSans"
           y="204.25938"
           x="96.507256"
           id="tspan4375"
           sodipodi:role="line">POWERED BY</tspan></text>
    </g>
    <path
       style="font-size:medium;font-style:normal;font-variant:normal;font-weight:normal;font-stretch:normal;text-indent:0;text-align:start;text-decoration:none;line-height:normal;letter-spacing:normal;word-spacing:normal;text-transform:none;direction:ltr;block-progression:tb;writing-mode:lr-tb;text-anchor:start;baseline-shift:baseline;color:#000000;fill:#000000;fill-opacity:1;stroke:none;stroke-width:2;marker:none;visibility:visible;display:inline;overflow:visible;enable-background:accumulate;font-family:Sans;-inkscape-font-specification:Sans"
       d="m 85.1875,170.80229 0,1.00204 0,177.86072 0,1.00204 0.999999,0 347.250011,0 1,0 0,-1.00204 0,-177.86072 0,-1.00204 -1,0 -347.250011,0 -0.999999,0 z m 2,2.00406 345.25001,0 0,175.85667 -345.25001,0 0,-175.85667 z"
       id="rect4381"
       inkscape:connector-curvature="0" />
  </g>
</svg>
