<?xml version="1.0" encoding="UTF-8" standalone="no"?>
<!-- Created with Inkscape (http://www.inkscape.org/) -->

<svg
   xmlns:dc="http://purl.org/dc/elements/1.1/"
   xmlns:cc="http://creativecommons.org/ns#"
   xmlns:rdf="http://www.w3.org/1999/02/22-rdf-syntax-ns#"
   xmlns:svg="http://www.w3.org/2000/svg"
   xmlns="http://www.w3.org/2000/svg"
   xmlns:sodipodi="http://sodipodi.sourceforge.net/DTD/sodipodi-0.dtd"
   xmlns:inkscape="http://www.inkscape.org/namespaces/inkscape"
   width="244.26486"
   height="110.07497"
   id="svg2"
   sodipodi:version="0.32"
   inkscape:version="0.48.4 r9939"
   sodipodi:docname="iune_en.svg"
   inkscape:output_extension="org.inkscape.output.svg.inkscape"
   version="1.1"
   inkscape:export-filename="/home/koxta/proiektuak/iunetrecet/manuala/iune_txikia.png"
   inkscape:export-xdpi="90"
   inkscape:export-ydpi="90">
  <defs
     id="defs4" />
  <sodipodi:namedview
     id="base"
     pagecolor="#ffffff"
     bordercolor="#666666"
     borderopacity="1.0"
     inkscape:pageopacity="0.0"
     inkscape:pageshadow="2"
     inkscape:zoom="1.5718696"
     inkscape:cx="48.454411"
     inkscape:cy="-16.527328"
     inkscape:document-units="mm"
     inkscape:current-layer="g9609"
     inkscape:window-width="1398"
     inkscape:window-height="1029"
     inkscape:window-x="0"
     inkscape:window-y="19"
     showgrid="false"
     showguides="true"
     inkscape:guide-bbox="true"
     units="px"
     inkscape:snap-page="false"
     inkscape:snap-to-guides="true"
     inkscape:window-maximized="0"
     borderlayer="false"
     fit-margin-top="0"
     fit-margin-left="0"
     fit-margin-right="0"
     fit-margin-bottom="0"
     inkscape:showpageshadow="false"
     showborder="true" />
  <metadata
     id="metadata7">
    <rdf:RDF>
      <cc:Work
         rdf:about="">
        <dc:format>image/svg+xml</dc:format>
        <dc:type
           rdf:resource="http://purl.org/dc/dcmitype/StillImage" />
        <dc:title></dc:title>
      </cc:Work>
    </rdf:RDF>
  </metadata>
  <g
     inkscape:label="Capa 1"
     inkscape:groupmode="layer"
     id="layer1"
     transform="translate(-27.631361,-848.38807)">
    <g
       transform="matrix(1.7238307,0,0,1.7238307,-155.56504,-599.45078)"
       id="g9609">
      <path
         d="m 233.8019,883.30084 c 2.26321,-0.43283 4.26075,-1.51498 5.99264,-3.24635 2.30256,-2.302 3.45385,-5.08602 3.45389,-8.35211 -4e-5,-3.26609 -1.15133,-6.05014 -3.45389,-8.35205 -1.73189,-1.73146 -3.72943,-2.81361 -5.99264,-3.24644 l 0,23.19695 m -10.86351,-2.50855 c -1e-5,0.64922 -0.23617,1.2002 -0.70848,1.65269 -0.45265,0.47223 -1.00371,0.70834 -1.65314,0.70834 -0.64945,0 -1.21035,-0.22629 -1.68267,-0.67877 -2.65683,-3.04972 -3.98525,-6.64042 -3.98525,-10.77217 0,-4.56462 1.61378,-8.46028 4.84135,-11.68699 3.22755,-3.22671 7.12424,-4.84011 11.69007,-4.84011 4.5658,0 8.46249,1.6134 11.69007,4.84011 3.22753,3.22671 4.84131,7.12237 4.84134,11.68699 -3e-5,4.56459 -1.61381,8.46025 -4.84134,11.68705 -3.22758,3.22672 -7.12427,4.84002 -11.69007,4.84002 -0.64947,0 -1.21035,-0.23611 -1.68267,-0.70825 -0.45266,-0.45257 -0.67897,-1.00347 -0.67897,-1.65269 l 0,-25.76462 c -2.26325,0.43283 -4.26078,1.51498 -5.99263,3.24644 -2.30261,2.30191 -3.4539,5.08596 -3.4539,8.35205 0,2.95131 0.93482,5.48929 2.80444,7.61431 0.33456,0.43284 0.50184,0.9247 0.50185,1.4756"
         style="font-size:226.59182739px;font-style:normal;font-variant:normal;font-weight:normal;font-stretch:normal;text-indent:0;text-align:start;text-decoration:none;line-height:125%;letter-spacing:0px;word-spacing:0px;text-transform:none;direction:ltr;block-progression:tb;writing-mode:lr-tb;text-anchor:start;color:#000000;fill:#000000;fill-opacity:1;fill-rule:nonzero;stroke:none;stroke-width:1px;marker:none;visibility:visible;font-family:Comfortaa;-inkscape-font-specification:Comfortaa"
         id="path37252-6-1-3-3-6-1"
         inkscape:connector-curvature="0" />
      <path
         inkscape:connector-curvature="0"
         id="path37254-7-6-8-2-0-4"
         d="m 207.82273,888.23338 c 0.56475,0 1.05506,-0.18419 1.48587,-0.54126 0.0597,-0.0514 0.10712,-0.11722 0.1637,-0.17625 0.23615,-0.22628 0.42339,-0.46726 0.54146,-0.74276 0.11317,-0.2755 0.1763,-0.58176 0.1763,-0.90637 l 0,-15.34586 c 0,-4.23018 -1.504,-7.854 -4.49541,-10.86425 -0.0748,-0.0748 -0.15105,-0.14152 -0.22666,-0.21403 l 0,0.0131 c -0.369,-0.3566 -0.75843,-0.69505 -1.14589,-1.00712 -0.19373,-0.15604 -0.3809,-0.30833 -0.57924,-0.45324 -0.19833,-0.1448 -0.40147,-0.28167 -0.60443,-0.41534 -0.4059,-0.26754 -0.82226,-0.50731 -1.24662,-0.73024 -0.21218,-0.11141 -0.42541,-0.2144 -0.6422,-0.31469 -0.20648,-0.0951 -0.41904,-0.19186 -0.62961,-0.27699 -0.0329,-0.0131 -0.0677,-0.0244 -0.10074,-0.0374 -0.19755,-0.0786 -0.40323,-0.15716 -0.60443,-0.22656 -0.19078,-0.0655 -0.38523,-0.13125 -0.57923,-0.18888 -0.0334,-0.0103 -0.0672,-0.0149 -0.10074,-0.0252 -0.20344,-0.0589 -0.41006,-0.11348 -0.61702,-0.16371 -0.17768,-0.043 -0.34859,-0.0889 -0.52887,-0.12582 -0.30801,-0.0626 -0.62883,-0.10693 -0.94441,-0.15108 -0.0171,0 -0.0333,-0.0103 -0.0504,-0.0131 -0.4636,-0.0636 -0.93039,-0.11506 -1.41033,-0.13844 -0.0256,0 -0.0499,0 -0.0755,0 -0.25558,-0.0112 -0.50793,-0.0131 -0.76813,-0.0131 -0.30574,0 -0.60736,0.01 -0.90663,0.0252 -0.46214,0.0244 -0.913,0.0645 -1.35996,0.12592 -0.26743,0.0365 -0.53131,0.0758 -0.79331,0.12582 -0.0304,0.01 -0.0578,0.0196 -0.0882,0.0252 -0.18494,0.0365 -0.37184,0.0702 -0.55406,0.11328 -0.0295,0.01 -0.0587,0.0178 -0.0882,0.0252 -0.11386,0.0281 -0.22719,0.058 -0.33999,0.0879 -0.32386,0.087 -0.64208,0.18083 -0.957,0.28954 -0.20121,0.0692 -0.40687,0.14836 -0.60443,0.22657 -0.0244,0.01 -0.0513,0.0149 -0.0755,0.0252 -0.009,0 -0.0165,0.01 -0.0251,0.0122 -0.20384,0.0823 -0.4045,0.17241 -0.60443,0.26437 -0.009,0 -0.0167,0.01 -0.0251,0.0131 -0.0462,0.0215 -0.0926,0.0411 -0.13851,0.0626 -0.16784,0.0795 -0.33859,0.1654 -0.50369,0.25183 -0.42436,0.22283 -0.84072,0.46268 -1.24663,0.73014 -0.20294,0.13367 -0.40608,0.27052 -0.60443,0.41543 -0.19834,0.14482 -0.3855,0.2972 -0.57924,0.45315 -0.38745,0.31207 -0.76428,0.65052 -1.13329,1.00712 l 0,-0.0252 c -0.08,0.0767 -0.16012,0.14799 -0.23925,0.22657 -2.99142,3.01033 -4.48282,6.63406 -4.48281,10.86424 l 0,15.34586 c 1e-5,0.2435 0.0217,0.47662 0.0882,0.69243 0.11071,0.35969 0.32184,0.67391 0.61703,0.9567 0.11067,0.11544 0.21755,0.22751 0.33998,0.31479 0.003,0 0.01,0 0.0127,0 0.0599,0.0421 0.12618,0.0907 0.18889,0.12582 0.003,0 0.01,0 0.0127,0 0.32903,0.18448 0.68963,0.27699 1.09551,0.27699 0.0812,0 0.16084,-0.01 0.23926,-0.0131 0.23431,-0.0225 0.46075,-0.0748 0.66739,-0.1637 0.20728,-0.087 0.39614,-0.21329 0.57924,-0.36502 0.0597,-0.0514 0.10711,-0.11722 0.1637,-0.17624 0.23615,-0.22629 0.42338,-0.46726 0.54146,-0.74276 0.11808,-0.2755 0.17628,-0.58177 0.17629,-0.90637 l 0,-15.34586 c 0,-0.18326 0.005,-0.36137 0.0127,-0.54136 0.0162,-0.35978 0.0398,-0.71086 0.0882,-1.05746 0.0489,-0.34658 0.11998,-0.68625 0.20148,-1.01965 0.0807,-0.33341 0.1766,-0.66175 0.28961,-0.98197 0.11301,-0.32021 0.24507,-0.63724 0.39037,-0.94416 0.50852,-1.07439 1.21142,-2.07113 2.11548,-2.98358 0.39115,-0.38738 0.80055,-0.73014 1.22144,-1.04483 0.003,0 0.01,0 0.0127,0 0.27795,-0.20748 0.55277,-0.4159 0.84367,-0.59168 1.60891,-0.98009 3.43274,-1.46036 5.45243,-1.46036 1.27862,0 2.47105,0.19888 3.58876,0.59168 0.004,0 0.01,0 0.0127,0 0.15648,0.0552 0.31258,0.12592 0.46591,0.18887 0.004,0 0.01,0 0.0127,0 0.15326,0.0627 0.30322,0.13059 0.45332,0.20141 0.003,0 0.01,0 0.0127,0 0.15012,0.0711 0.29379,0.1478 0.44073,0.22657 0.003,0 0.01,0 0.0127,0 0.14699,0.0786 0.28431,0.16511 0.42814,0.25183 0.003,0 0.01,0 0.0127,0 0.14397,0.087 0.28733,0.19476 0.42813,0.28953 0.003,0 0.01,0 0.0127,0 0.57442,0.38738 1.11547,0.83051 1.63698,1.34698 1.16237,1.17317 1.99731,2.48694 2.50585,3.92774 0.0565,0.16007 0.11526,0.31498 0.16369,0.4784 0.0969,0.32676 0.17468,0.66708 0.23926,1.00713 0.12915,0.67999 0.20147,1.38196 0.20147,2.11491 l 0,15.34586 c 0,0.2434 0.0217,0.47652 0.0882,0.69233 0.11071,0.35969 0.32183,0.67391 0.61702,0.9568 0.11067,0.11543 0.21757,0.2275 0.34,0.31469 0.003,0 0.01,0 0.0127,0 0.0599,0.0421 0.12617,0.0907 0.18888,0.12591 0.003,0 0.01,0 0.0127,0 0.32903,0.18448 0.68961,0.2769 1.09552,0.2769 z"
         style="font-size:226.59182739px;font-style:normal;font-variant:normal;font-weight:normal;font-stretch:normal;text-indent:0;text-align:start;text-decoration:none;line-height:125%;letter-spacing:0px;word-spacing:0px;text-transform:none;direction:ltr;block-progression:tb;writing-mode:lr-tb;text-anchor:start;color:#000000;fill:#000000;fill-opacity:1;fill-rule:nonzero;stroke:none;stroke-width:1px;marker:none;visibility:visible;font-family:Comfortaa;-inkscape-font-specification:Comfortaa" />
      <path
         inkscape:connector-curvature="0"
         id="path37256-2-8-4-2-6-1"
         d="m 159.40578,888.23338 c 0.5289,0 1.05189,-0.0281 1.56143,-0.0758 0.23632,-0.0215 0.47299,-0.044 0.70517,-0.0758 0.017,0 0.0334,-0.0103 0.0504,-0.0131 0.47124,-0.0665 0.9311,-0.15679 1.38515,-0.26437 0.13048,-0.0308 0.26131,-0.0664 0.39036,-0.10065 0.13762,-0.0365 0.27955,-0.0721 0.41554,-0.11329 0.23539,-0.0702 0.46201,-0.14434 0.69257,-0.22666 0.46111,-0.16464 0.91823,-0.35482 1.35995,-0.56643 0.22086,-0.10589 0.43877,-0.20973 0.65481,-0.32732 0.21601,-0.11759 0.43102,-0.24836 0.64219,-0.37774 1.0559,-0.64669 2.04953,-1.43857 2.98435,-2.37927 3.01105,-2.9906 4.50798,-6.59636 4.508,-10.82643 l 0,-15.34588 c -1e-5,-0.2434 -0.0217,-0.47381 -0.0882,-0.69234 -0.1107,-0.36427 -0.32183,-0.69945 -0.61702,-0.9945 -0.11067,-0.11066 -0.21756,-0.21861 -0.33999,-0.30215 -0.003,0 -0.01,0 -0.0127,0 -0.0617,-0.0403 -0.12473,-0.0795 -0.18888,-0.11329 -0.003,0 -0.01,0 -0.0127,0 -0.0639,-0.0327 -0.12245,-0.0618 -0.18888,-0.088 -0.27848,-0.11618 -0.57767,-0.17624 -0.90664,-0.17624 -0.0812,0 -0.16083,0.01 -0.23924,0.0122 -0.47164,0.043 -0.89971,0.20309 -1.25923,0.50357 -0.0572,0.0477 -0.0967,0.10925 -0.1511,0.1637 -0.23617,0.23611 -0.42339,0.48757 -0.54146,0.76793 -0.11808,0.28035 -0.1763,0.5943 -0.1763,0.919 l 0,15.34579 c 0,0.18326 -0.005,0.36156 -0.0127,0.54135 -0.0326,0.71938 -0.12663,1.41191 -0.28961,2.07712 -0.0808,0.33262 -0.17663,0.66284 -0.28963,0.98193 -0.11301,0.31909 -0.24506,0.62602 -0.39036,0.93164 -0.50853,1.06951 -1.21142,2.05456 -2.11549,2.95832 -0.26075,0.26071 -0.5319,0.50207 -0.80589,0.73023 -0.1397,0.11627 -0.28499,0.232 -0.42813,0.33985 -0.27795,0.20936 -0.55277,0.40169 -0.84368,0.57906 -0.29381,0.17923 -0.59959,0.34434 -0.90664,0.49102 -0.30217,0.145 -0.61641,0.27708 -0.93183,0.39027 -0.16012,0.0571 -0.32764,0.1147 -0.49108,0.16363 -0.97787,0.29326 -2.02324,0.44059 -3.12287,0.44059 -1.28291,0 -2.48042,-0.20505 -3.60136,-0.60422 -0.47879,-0.17109 -0.9368,-0.37249 -1.38514,-0.61693 -0.003,0 -0.01,0 -0.0127,0 -0.14624,-0.0795 -0.28513,-0.17662 -0.42814,-0.26436 -0.003,0 -0.01,0 -0.0127,0 -0.143,-0.088 -0.28837,-0.18121 -0.42813,-0.2769 -0.003,0 -0.01,0 -0.0127,0 -0.57441,-0.39103 -1.11546,-0.85081 -1.63699,-1.37224 -0.7749,-0.77466 -1.4045,-1.60873 -1.88882,-2.50519 -0.24216,-0.44817 -0.4475,-0.90609 -0.61702,-1.38477 -0.057,-0.1595 -0.1148,-0.32798 -0.1637,-0.49093 -0.0969,-0.3259 -0.17467,-0.65508 -0.23924,-0.99447 -0.1304,-0.67878 -0.20148,-1.38206 -0.20149,-2.115 l 0,-15.34579 c 1e-5,-0.1624 -0.01,-0.32714 -0.0378,-0.4784 -0.0886,-0.45379 -0.31314,-0.85436 -0.66738,-1.20853 -0.11067,-0.11067 -0.21756,-0.21852 -0.33999,-0.30216 -0.003,0 -0.01,0 -0.0127,0 -0.0617,-0.0402 -0.12473,-0.0795 -0.18888,-0.11328 -0.003,0 -0.01,0 -0.0127,0 -0.33391,-0.17306 -0.69386,-0.26437 -1.09553,-0.26437 -0.0812,0 -0.16083,0.01 -0.23924,0.0131 -0.47163,0.043 -0.8997,0.203 -1.25922,0.50357 -0.0572,0.0477 -0.0967,0.10926 -0.15111,0.16361 -0.23616,0.23611 -0.42338,0.48757 -0.54147,0.76793 -0.11808,0.28035 -0.17627,0.5943 -0.17628,0.919 l 0,15.34588 c 2e-5,4.23007 1.50954,7.83574 4.52058,10.82633 0.37394,0.37634 0.7526,0.72827 1.14589,1.05755 0.39331,0.32919 0.79618,0.63677 1.20885,0.91891 0.20633,0.14116 0.41844,0.27354 0.62961,0.40291 0.21119,0.12937 0.42619,0.26006 0.6422,0.37765 0.21603,0.11758 0.43393,0.22151 0.65479,0.32732 0.22087,0.1058 0.4417,0.20804 0.66739,0.30215 0.22572,0.0941 0.46202,0.18204 0.69258,0.26436 0.23055,0.0823 0.45717,0.15604 0.69257,0.22657 0.15237,0.0459 0.3115,0.0851 0.46591,0.12592 0.0856,0.0225 0.16555,0.0543 0.25184,0.0758 0.0246,0.01 0.0509,0.01 0.0755,0.0131 0.21465,0.0505 0.4363,0.0969 0.65479,0.13844 0.42474,0.0814 0.85771,0.14267 1.297,0.18888 0.0685,0.01 0.13265,0.0187 0.20146,0.0252 0.009,7.2e-4 0.0168,-9e-4 0.0251,0 0.24494,0.0215 0.49353,0.0393 0.74294,0.0505 0.004,1.8e-4 0.009,-1.8e-4 0.0127,0 0.25369,0.0112 0.50982,0.0252 0.76812,0.0252 z"
         style="font-size:226.59182739px;font-style:normal;font-variant:normal;font-weight:normal;font-stretch:normal;text-indent:0;text-align:start;text-decoration:none;line-height:125%;letter-spacing:0px;word-spacing:0px;text-transform:none;direction:ltr;block-progression:tb;writing-mode:lr-tb;text-anchor:start;color:#000000;fill:#000000;fill-opacity:1;fill-rule:nonzero;stroke:none;stroke-width:1px;marker:none;visibility:visible;font-family:Comfortaa;-inkscape-font-specification:Comfortaa" />
      <path
         d="m 120.4436,860.10389 c -2.26322,0.43293 -4.26076,1.51508 -5.99265,3.24644 -2.30256,2.30201 -3.45385,5.08605 -3.45388,8.35205 3e-5,3.26609 1.15132,6.05011 3.45388,8.35211 1.73189,1.73146 3.72943,2.81352 5.99265,3.24635 l 0,-23.19695 m 10.8635,2.50864 c 1e-5,-0.6493 0.23617,-1.20021 0.70849,-1.65278 0.45264,-0.47213 1.00369,-0.70824 1.65313,-0.70824 0.64947,0 1.21035,0.22628 1.68267,0.67877 2.65684,3.04962 3.98525,6.64033 3.98525,10.7721 0,4.56468 -1.61378,8.46034 -4.84135,11.68705 -3.22754,3.22672 -7.12424,4.84011 -11.69006,4.84002 -4.5658,9e-5 -8.4625,-1.6133 -11.69008,-4.84002 -3.22753,-3.22671 -4.84131,-7.12237 -4.84135,-11.68705 4e-5,-4.56462 1.61382,-8.46028 4.84135,-11.68699 3.22758,-3.22671 7.12428,-4.84002 11.69008,-4.84011 0.64946,9e-5 1.21035,0.23611 1.68266,0.70833 0.45266,0.45258 0.67898,1.00349 0.67897,1.65269 l 0,25.76454 c 2.26324,-0.43283 4.26078,-1.51489 5.99264,-3.24635 2.3026,-2.302 3.45388,-5.08602 3.45388,-8.35211 0,-2.95121 -0.9348,-5.48933 -2.80443,-7.61425 -0.33456,-0.43284 -0.50184,-0.9247 -0.50185,-1.4756"
         style="font-size:226.59182739px;font-style:normal;font-variant:normal;font-weight:normal;font-stretch:normal;text-indent:0;text-align:start;text-decoration:none;line-height:125%;letter-spacing:0px;word-spacing:0px;text-transform:none;direction:ltr;block-progression:tb;writing-mode:lr-tb;text-anchor:start;color:#000000;fill:#000000;fill-opacity:1;fill-rule:nonzero;stroke:none;stroke-width:1px;marker:none;visibility:visible;font-family:Comfortaa;-inkscape-font-specification:Comfortaa"
         id="path37258-8-6-9-6-9-9"
         inkscape:connector-curvature="0" />
      <path
         inkscape:connector-curvature="0"
         id="path37292-0-7-4-5-7-4-7"
         d="m 118.33865,844.36163 c 0,-2.4662 1.99976,-4.46543 4.46658,-4.46543 2.46682,0 4.46657,1.99923 4.46657,4.46543 0,2.46617 -1.99975,4.46541 -4.46657,4.46541 -2.46682,0 -4.46658,-1.99924 -4.46658,-4.46541 z"
         style="color:#000000;fill:#d40000;fill-opacity:1;fill-rule:nonzero;stroke:none;stroke-width:2;marker:none;visibility:visible;display:inline;overflow:visible;enable-background:accumulate" />
      <g
         transform="matrix(-0.17998787,0,0,-0.17998787,247.97172,1029.3086)"
         id="g7241-3-7">
        <g
           transform="scale(-1,-1)"
           style="font-size:49.26651382px;font-style:normal;font-variant:normal;font-weight:normal;font-stretch:normal;text-indent:0;text-align:start;text-decoration:none;line-height:125%;letter-spacing:0px;word-spacing:0px;text-transform:none;direction:ltr;block-progression:tb;writing-mode:lr-tb;text-anchor:start;baseline-shift:baseline;color:#000000;fill:#d40000;fill-opacity:1;fill-rule:nonzero;stroke:none;stroke-width:1px;marker:none;visibility:visible;display:inline;overflow:visible;enable-background:accumulate;font-family:Comfortaa;-inkscape-font-specification:Comfortaa"
           id="text3227-7">
          <path
             d="m -554.15781,-1027.2958 c -3e-5,-2.6622 -0.93821,-4.9315 -2.81454,-6.8079 -1.87639,-1.8763 -4.14566,-2.8145 -6.80783,-2.8145 -2.6622,0 -4.93147,0.9382 -6.80782,2.8145 -1.87637,1.8764 -2.81455,4.1457 -2.81454,6.8079 -10e-6,2.6622 0.93817,4.9314 2.81454,6.8078 1.87635,1.8764 4.14562,2.8145 6.80782,2.8145 2.66217,0 4.93144,-0.9381 6.80783,-2.8145 1.87633,-1.8764 2.81451,-4.1456 2.81454,-6.8078 m 0,-23.1418 c -3e-5,-0.5292 0.1844,-0.9783 0.55328,-1.3472 0.38487,-0.3848 0.84193,-0.5773 1.37119,-0.5773 0.5292,0 0.97825,0.1925 1.34713,0.5773 0.38487,0.3689 0.57731,0.818 0.57734,1.3472 l 0,23.1418 c -3e-5,3.7206 -1.31508,6.896 -3.94517,9.5261 -2.63013,2.6301 -5.80551,3.9452 -9.52614,3.9452 -3.72066,0 -6.89604,-1.3151 -9.52614,-3.9452 -2.63012,-2.6301 -3.94517,-5.8055 -3.94517,-9.5261 0,-3.7207 1.31505,-6.896 3.94517,-9.5262 2.6301,-2.6301 5.80548,-3.9451 9.52614,-3.9451 3.72063,0 6.89601,1.315 9.52614,3.9451 0.0321,0.032 0.0641,0.064 0.0962,0.096 l 0,-13.7118"
             style="marker:none"
             id="path4219" />
          <path
             d="m -540.20538,-1046.5406 c -10e-6,0.6576 -0.24057,1.2269 -0.72168,1.708 -0.46509,0.4651 -1.02639,0.6977 -1.68391,0.6976 -0.65754,10e-5 -1.22686,-0.2325 -1.70797,-0.6976 -0.46509,-0.4811 -0.69763,-1.0504 -0.69763,-1.708 0,-0.6575 0.23254,-1.2188 0.69763,-1.6839 0.48111,-0.4811 1.05043,-0.7216 1.70797,-0.7217 0.65752,1e-4 1.21882,0.2406 1.68391,0.7217 0.48111,0.4651 0.72167,1.0264 0.72168,1.6839 m -4.33007,7.6979 c 0,-0.5292 0.18443,-0.9782 0.55329,-1.3471 0.38489,-0.3849 0.84195,-0.5773 1.37119,-0.5773 0.52922,0 0.97826,0.1924 1.34713,0.5773 0.38488,0.3689 0.57733,0.8179 0.57734,1.3471 l 0,23.0937 c -10e-6,0.5292 -0.19246,0.9863 -0.57734,1.3712 -0.36887,0.3688 -0.81791,0.5533 -1.34713,0.5533 -0.52924,0 -0.9863,-0.1845 -1.37119,-0.5533 -0.36886,-0.3849 -0.55329,-0.842 -0.55329,-1.3712 l 0,-23.0937"
             style="marker:none"
             id="path4221" />
          <path
             d="m -530.15001,-1027.2958 c -1.4594,-0.5453 -2.47776,-1.1146 -3.0551,-1.708 -1.13865,-1.1226 -1.70797,-2.4777 -1.70797,-4.0655 0,-1.5876 0.59337,-2.9748 1.78014,-4.1616 2.30936,-2.3575 5.32436,-3.5362 9.04502,-3.5362 4.02534,0 7.47335,1.6117 10.34404,4.8352 0.25658,0.3047 0.37686,0.6816 0.36084,1.1306 -2e-5,0.5293 -0.19247,0.9863 -0.57734,1.3712 -0.36888,0.3689 -0.81792,0.5533 -1.34713,0.5533 -0.52925,0 -0.95424,-0.1684 -1.27496,-0.5052 -0.32077,-0.3367 -0.55331,-0.5773 -0.69763,-0.7217 -1.87638,-1.8763 -4.14565,-2.8145 -6.80782,-2.8145 -2.6622,0 -4.78714,0.834 -6.37482,2.5018 -0.3849,0.4651 -0.57735,1.0184 -0.57734,1.6599 0.0481,0.7537 0.44102,1.2669 1.17874,1.5395 l 11.83551,3.9212 c 1.45937,0.5452 2.47774,1.1146 3.0551,1.7079 1.13863,1.1227 1.70795,2.4778 1.70797,4.0655 -2e-5,1.5877 -0.5934,2.9749 -1.78014,4.1617 -2.30938,2.3574 -5.32439,3.5362 -9.04502,3.5362 -4.0414,0 -7.48941,-1.6118 -10.34404,-4.8353 -0.24056,-0.3367 -0.36084,-0.7136 -0.36084,-1.1306 0,-0.5292 0.18442,-0.9783 0.55328,-1.3471 0.3849,-0.3849 0.84196,-0.5774 1.37119,-0.5774 0.52923,0 0.95421,0.1684 1.27496,0.5052 0.32074,0.3368 0.55328,0.5774 0.69763,0.7217 1.87635,1.8764 4.14562,2.8145 6.80782,2.8145 2.66217,0 4.78711,-0.8339 6.37482,-2.5018 0.38487,-0.4651 0.57732,-1.0183 0.57734,-1.6598 -0.0481,-0.7538 -0.44104,-1.267 -1.17874,-1.5396 l -11.83551,-3.9211"
             style="marker:none"
             id="path4223" />
          <path
             d="m -486.48853,-1029.2203 c -0.35284,-1.8443 -1.23489,-3.4721 -2.64615,-4.8834 -1.87638,-1.8763 -4.14565,-2.8145 -6.80782,-2.8145 -2.6622,0 -4.93147,0.9382 -6.80783,2.8145 -1.41128,1.4113 -2.29333,3.0391 -2.64615,4.8834 l 18.90795,0 m -2.04475,8.8526 c 0.52921,0 0.97825,0.1924 1.34713,0.5773 0.38487,0.3689 0.57732,0.8179 0.57734,1.3471 -2e-5,0.5293 -0.18445,0.9863 -0.55328,1.3712 -2.4858,2.1651 -5.4126,3.2476 -8.78041,3.2476 -3.72066,0 -6.89604,-1.3151 -9.52614,-3.9452 -2.63012,-2.6301 -3.94518,-5.8055 -3.94517,-9.5261 -10e-6,-3.7207 1.31505,-6.896 3.94517,-9.5262 2.6301,-2.6301 5.80548,-3.9451 9.52614,-3.9451 3.72063,0 6.896,1.315 9.52614,3.9451 2.63009,2.6302 3.94514,5.8055 3.94517,9.5262 -3e-5,0.5292 -0.19248,0.9863 -0.57734,1.3712 -0.36889,0.3688 -0.81793,0.5532 -1.34713,0.5532 l -21.00082,0 c 0.35282,1.8443 1.23487,3.4721 2.64615,4.8834 1.87636,1.8764 4.14563,2.8145 6.80783,2.8145 2.40557,0 4.47438,-0.7617 6.20642,-2.2853 0.3528,-0.2726 0.75373,-0.4089 1.2028,-0.4089"
             style="marker:none"
             id="path4225" />
          <path
             d="m -478.62224,-1038.8427 c 0,-0.5292 0.18442,-0.9782 0.55328,-1.3471 0.3849,-0.3849 0.84196,-0.5773 1.37119,-0.5773 0.52923,0 0.97827,0.1924 1.34713,0.5773 0.38489,0.3689 0.57734,0.8179 0.57734,1.3471 l 0,1.5637 c 2.40559,-2.3254 5.2923,-3.4881 8.66013,-3.4881 3.448,0 6.39084,1.2268 8.82852,3.6805 2.45368,2.4377 3.68053,5.3805 3.68056,8.8285 l 0,12.5091 c -3e-5,0.5292 -0.19247,0.9863 -0.57734,1.3712 -0.36889,0.3688 -0.81793,0.5533 -1.34713,0.5533 -0.52926,0 -0.98632,-0.1845 -1.37119,-0.5533 -0.36888,-0.3849 -0.55331,-0.842 -0.55329,-1.3712 l 0,-12.5091 c -2e-5,-2.3895 -0.84999,-4.4262 -2.54992,-6.1102 -1.68394,-1.6999 -3.72067,-2.5499 -6.11021,-2.5499 -2.38956,0 -4.43431,0.85 -6.13425,2.5499 -1.68392,1.684 -2.52588,3.7207 -2.52588,6.1102 l 0,12.5091 c 0,0.5292 -0.19245,0.9863 -0.57734,1.3712 -0.36886,0.3688 -0.8179,0.5533 -1.34713,0.5533 -0.52923,0 -0.98629,-0.1845 -1.37119,-0.5533 -0.36886,-0.3849 -0.55328,-0.842 -0.55328,-1.3712 l 0,-23.0937 m 13.97649,-6.7597 c -1.44337,1.283 -3.14332,1.9245 -5.09986,1.9245 -2.13297,0 -3.95319,-0.7537 -5.46069,-2.2613 -0.35283,-0.3848 -0.52924,-0.8339 -0.52923,-1.3471 -1e-5,-0.5292 0.18442,-0.9782 0.55328,-1.3471 0.38489,-0.3849 0.84196,-0.5773 1.37119,-0.5774 0.51319,10e-5 0.96223,0.1765 1.34713,0.5293 0.75375,0.7698 1.65985,1.1547 2.71832,1.1546 0.89808,10e-5 1.69994,-0.2806 2.40559,-0.8419 1.42731,-1.283 3.12726,-1.9245 5.09986,-1.9245 2.13293,0 3.95316,0.7538 5.46069,2.2613 0.3528,0.3849 0.52921,0.8339 0.52923,1.3471 -2e-5,0.5293 -0.19247,0.9863 -0.57734,1.3712 -0.36888,0.3689 -0.81793,0.5533 -1.34713,0.5533 -0.51322,0 -0.96226,-0.1764 -1.34714,-0.5293 -0.75377,-0.7697 -1.65987,-1.1546 -2.71831,-1.1546 -0.91415,0 -1.71601,0.2806 -2.40559,0.8419"
             style="marker:none"
             id="path4227" />
          <path
             d="m -436.28383,-1036.9182 c -2.6622,0 -4.93148,0.9382 -6.80783,2.8145 -1.87637,1.8764 -2.81455,4.1457 -2.81454,6.8079 -10e-6,2.6622 0.93817,4.9314 2.81454,6.8078 1.87635,1.8764 4.14563,2.8145 6.80783,2.8145 2.66217,0 4.93144,-0.9381 6.80782,-2.8145 1.87634,-1.8764 2.81452,-4.1456 2.81454,-6.8078 -2e-5,-2.6622 -0.9382,-4.9315 -2.81454,-6.8079 -1.87638,-1.8763 -4.14565,-2.8145 -6.80782,-2.8145 m 9.62236,19.0523 c -2.69428,2.6942 -5.90173,4.0414 -9.62236,4.0414 -3.72066,0 -6.89604,-1.3151 -9.52615,-3.9452 -2.63011,-2.6301 -3.94517,-5.8055 -3.94517,-9.5261 0,-3.7207 1.31506,-6.896 3.94517,-9.5262 2.63011,-2.6301 5.80549,-3.9451 9.52615,-3.9451 3.72063,0 6.896,1.315 9.52614,3.9451 2.63008,2.6302 3.94514,5.8055 3.94517,9.5262 l 0,11.5468 c -3e-5,0.5292 -0.19248,0.9863 -0.57734,1.3712 -0.36889,0.3688 -0.81793,0.5533 -1.34713,0.5533 -0.52926,0 -0.98632,-0.1845 -1.37119,-0.5533 -0.36888,-0.3849 -0.55331,-0.842 -0.55329,-1.3712 l 0,-2.1169"
             style="marker:none"
             id="path4229" />
          <path
             d="m -395.86989,-1027.2958 c -3e-5,-2.6622 -0.93821,-4.9315 -2.81455,-6.8079 -1.87638,-1.8763 -4.14565,-2.8145 -6.80782,-2.8145 -2.6622,0 -4.93147,0.9382 -6.80782,2.8145 -1.87637,1.8764 -2.81455,4.1457 -2.81455,6.8079 0,2.6622 0.93818,4.9314 2.81455,6.8078 1.87635,1.8764 4.14562,2.8145 6.80782,2.8145 2.66217,0 4.93144,-0.9381 6.80782,-2.8145 1.87634,-1.8764 2.81452,-4.1456 2.81455,-6.8078 m 0,-23.1418 c -3e-5,-0.5292 0.1844,-0.9783 0.55328,-1.3472 0.38487,-0.3848 0.84193,-0.5773 1.37119,-0.5773 0.5292,0 0.97824,0.1925 1.34713,0.5773 0.38487,0.3689 0.57731,0.818 0.57734,1.3472 l 0,23.1418 c -3e-5,3.7206 -1.31508,6.896 -3.94517,9.5261 -2.63013,2.6301 -5.80551,3.9452 -9.52614,3.9452 -3.72066,0 -6.89604,-1.3151 -9.52614,-3.9452 -2.63012,-2.6301 -3.94517,-5.8055 -3.94517,-9.5261 0,-3.7207 1.31505,-6.896 3.94517,-9.5262 2.6301,-2.6301 5.80548,-3.9451 9.52614,-3.9451 3.72063,0 6.89601,1.315 9.52614,3.9451 0.032,0.032 0.0641,0.064 0.0962,0.096 l 0,-13.7118"
             style="marker:none"
             id="path4231" />
          <path
             d="m -361.22938,-1027.2958 c -3e-5,3.7206 -1.31509,6.896 -3.94517,9.5261 -2.63014,2.6301 -5.80552,3.9452 -9.52615,3.9452 -3.72066,0 -6.89603,-1.3151 -9.52614,-3.9452 -2.63011,-2.6301 -3.94517,-5.8055 -3.94517,-9.5261 0,-3.7207 1.31506,-6.896 3.94517,-9.5262 2.63011,-2.6301 5.80548,-3.9451 9.52614,-3.9451 3.72063,0 6.89601,1.315 9.52615,3.9451 2.63008,2.6302 3.94514,5.8055 3.94517,9.5262 m -13.47132,-9.6224 c -2.6622,0 -4.93147,0.9382 -6.80782,2.8145 -1.87637,1.8764 -2.81455,4.1457 -2.81454,6.8079 -10e-6,2.6622 0.93817,4.9314 2.81454,6.8078 1.87635,1.8764 4.14562,2.8145 6.80782,2.8145 2.66217,0 4.93145,-0.9381 6.80783,-2.8145 1.87634,-1.8764 2.81452,-4.1456 2.81454,-6.8078 -2e-5,-2.6622 -0.9382,-4.9315 -2.81454,-6.8079 -1.87638,-1.8763 -4.14566,-2.8145 -6.80783,-2.8145"
             style="marker:none"
             id="path4233" />
          <path
             d="m -357.38043,-1038.8427 c 0,-0.5292 0.18443,-0.9782 0.55329,-1.3471 0.38489,-0.3849 0.84195,-0.5773 1.37119,-0.5773 0.52922,0 0.97826,0.1924 1.34713,0.5773 0.38489,0.3689 0.57733,0.8179 0.57734,1.3471 l 0,2.1169 c 2.69425,-2.6942 5.9017,-4.0413 9.62236,-4.0413 1.87635,0 3.60035,0.3207 5.17203,0.9622 0.28865,0.1123 0.55326,0.2807 0.79384,0.5052 0.36884,0.3849 0.55327,0.8419 0.55329,1.3711 -2e-5,0.5293 -0.19247,0.9864 -0.57734,1.3712 -0.36888,0.3689 -0.81793,0.5533 -1.34714,0.5533 -0.30472,0 -0.58538,-0.064 -0.84195,-0.1924 -1.13867,-0.4811 -2.38957,-0.7217 -3.75273,-0.7217 -2.6622,0 -4.93147,0.9382 -6.80782,2.8145 -1.87637,1.8764 -2.81455,4.1457 -2.81454,6.8079 l 0,11.5468 c -1e-5,0.5292 -0.19245,0.9863 -0.57734,1.3712 -0.36887,0.3688 -0.81791,0.5533 -1.34713,0.5533 -0.52924,0 -0.9863,-0.1845 -1.37119,-0.5533 -0.36886,-0.3849 -0.55329,-0.842 -0.55329,-1.3712 l 0,-23.0937"
             style="marker:none"
             id="path4235" />
          <path
             d="m -320.81544,-1036.9182 c -2.6622,0 -4.93147,0.9382 -6.80783,2.8145 -1.87636,1.8764 -2.81454,4.1457 -2.81454,6.8079 0,2.6622 0.93818,4.9314 2.81454,6.8078 1.87636,1.8764 4.14563,2.8145 6.80783,2.8145 2.66217,0 4.93144,-0.9381 6.80782,-2.8145 1.87634,-1.8764 2.81452,-4.1456 2.81454,-6.8078 -2e-5,-2.6622 -0.9382,-4.9315 -2.81454,-6.8079 -1.87638,-1.8763 -4.14565,-2.8145 -6.80782,-2.8145 m 9.62236,19.0523 c -2.69428,2.6942 -5.90173,4.0414 -9.62236,4.0414 -3.72066,0 -6.89604,-1.3151 -9.52614,-3.9452 -2.63012,-2.6301 -3.94518,-5.8055 -3.94517,-9.5261 -1e-5,-3.7207 1.31505,-6.896 3.94517,-9.5262 2.6301,-2.6301 5.80548,-3.9451 9.52614,-3.9451 3.72063,0 6.896,1.315 9.52614,3.9451 2.63009,2.6302 3.94514,5.8055 3.94517,9.5262 l 0,11.5468 c -3e-5,0.5292 -0.19248,0.9863 -0.57734,1.3712 -0.36889,0.3688 -0.81793,0.5533 -1.34713,0.5533 -0.52926,0 -0.98632,-0.1845 -1.37119,-0.5533 -0.36888,-0.3849 -0.55331,-0.842 -0.55329,-1.3712 l 0,-2.1169"
             style="marker:none"
             id="path4237" />
          <path
             d="m -275.59033,-1036.9182 c -2.6622,0 -4.93147,0.9382 -6.80782,2.8145 -1.87637,1.8764 -2.81455,4.1457 -2.81454,6.8079 -10e-6,2.6622 0.93817,4.9314 2.81454,6.8078 1.87635,1.8764 4.14562,2.8145 6.80782,2.8145 2.66217,0 4.93144,-0.9381 6.80782,-2.8145 1.87634,-1.8764 2.81452,-4.1456 2.81455,-6.8078 -3e-5,-2.6622 -0.93821,-4.9315 -2.81455,-6.8079 -1.87638,-1.8763 -4.14565,-2.8145 -6.80782,-2.8145 m 9.62237,19.0523 c -0.0321,0.032 -0.0642,0.064 -0.0962,0.096 -2.63013,2.6301 -5.80551,3.9452 -9.52614,3.9452 -3.72066,0 -6.89604,-1.3151 -9.52614,-3.9452 -2.63012,-2.6301 -3.94517,-5.8055 -3.94517,-9.5261 0,-3.7207 1.31505,-6.896 3.94517,-9.5262 2.6301,-2.6301 5.80548,-3.9451 9.52614,-3.9451 3.72063,0 6.89601,1.315 9.52614,3.9451 2.63009,2.6302 3.94514,5.8055 3.94517,9.5262 l 0,13.4713 c -3e-5,2.8065 -1.01037,5.2442 -3.03104,7.313 -2.82259,2.8225 -6.2305,4.2338 -10.22377,4.2338 -3.99329,0 -7.39319,-1.4113 -10.1997,-4.2338 -1.04243,-1.0264 -1.89241,-2.141 -2.54993,-3.3438 -0.19245,-0.2887 -0.28867,-0.6255 -0.28867,-1.0103 0,-0.5293 0.18442,-0.9863 0.55328,-1.3712 0.3849,-0.3689 0.84196,-0.5533 1.37119,-0.5533 0.52923,0 0.98629,0.1844 1.37119,0.5533 0.16037,0.1764 0.29668,0.3688 0.40895,0.5773 0.48111,0.866 1.09855,1.6759 1.8523,2.4297 2.0688,2.0688 4.5626,3.1032 7.48139,3.1032 2.91877,0 5.41256,-1.0344 7.48139,-3.1032 1.28296,-1.5396 1.92445,-3.0712 1.92448,-4.5947 l 0,-4.0414"
             style="marker:none"
             id="path4239" />
          <path
             d="m -258.27008,-1038.8427 c 0,-0.5292 0.18443,-0.9782 0.55329,-1.3471 0.38489,-0.3849 0.84195,-0.5773 1.37119,-0.5773 0.52922,0 0.97827,0.1924 1.34713,0.5773 0.38489,0.3689 0.57733,0.8179 0.57734,1.3471 l 0,2.1169 c 2.69425,-2.6942 5.90171,-4.0413 9.62237,-4.0413 1.87634,0 3.60035,0.3207 5.17202,0.9622 0.28865,0.1123 0.55326,0.2807 0.79384,0.5052 0.36884,0.3849 0.55327,0.8419 0.55329,1.3711 -2e-5,0.5293 -0.19247,0.9864 -0.57734,1.3712 -0.36888,0.3689 -0.81792,0.5533 -1.34713,0.5533 -0.30473,0 -0.58538,-0.064 -0.84196,-0.1924 -1.13867,-0.4811 -2.38957,-0.7217 -3.75272,-0.7217 -2.6622,0 -4.93148,0.9382 -6.80783,2.8145 -1.87637,1.8764 -2.81455,4.1457 -2.81454,6.8079 l 0,11.5468 c -1e-5,0.5292 -0.19245,0.9863 -0.57734,1.3712 -0.36886,0.3688 -0.81791,0.5533 -1.34713,0.5533 -0.52924,0 -0.9863,-0.1845 -1.37119,-0.5533 -0.36886,-0.3849 -0.55329,-0.842 -0.55329,-1.3712 l 0,-23.0937"
             style="marker:none"
             id="path4241" />
          <path
             d="m -221.70508,-1036.9182 c -2.6622,0 -4.93147,0.9382 -6.80782,2.8145 -1.87637,1.8764 -2.81455,4.1457 -2.81454,6.8079 -1e-5,2.6622 0.93817,4.9314 2.81454,6.8078 1.87635,1.8764 4.14562,2.8145 6.80782,2.8145 2.66217,0 4.93145,-0.9381 6.80783,-2.8145 1.87634,-1.8764 2.81452,-4.1456 2.81454,-6.8078 -2e-5,-2.6622 -0.9382,-4.9315 -2.81454,-6.8079 -1.87638,-1.8763 -4.14566,-2.8145 -6.80783,-2.8145 m 9.62237,19.0523 c -2.69428,2.6942 -5.90174,4.0414 -9.62237,4.0414 -3.72065,0 -6.89603,-1.3151 -9.52614,-3.9452 -2.63011,-2.6301 -3.94517,-5.8055 -3.94517,-9.5261 0,-3.7207 1.31506,-6.896 3.94517,-9.5262 2.63011,-2.6301 5.80549,-3.9451 9.52614,-3.9451 3.72063,0 6.89601,1.315 9.52615,3.9451 2.63008,2.6302 3.94514,5.8055 3.94517,9.5262 l 0,11.5468 c -3e-5,0.5292 -0.19248,0.9863 -0.57734,1.3712 -0.36889,0.3688 -0.81793,0.5533 -1.34714,0.5533 -0.52925,0 -0.98631,-0.1845 -1.37118,-0.5533 -0.36889,-0.3849 -0.55331,-0.842 -0.55329,-1.3712 l 0,-2.1169 m -4.37818,-31.1765 -5.84558,5.8456 c -0.36887,0.3368 -0.8099,0.5052 -1.32308,0.5052 -0.52924,0 -0.9863,-0.1844 -1.37119,-0.5533 -0.36886,-0.3849 -0.55329,-0.8419 -0.55328,-1.3712 -1e-5,-0.4971 0.16036,-0.9301 0.48112,-1.299 l 5.84558,-5.8456 c 0.38488,-0.3688 0.84194,-0.5532 1.37119,-0.5533 0.52921,10e-5 0.97826,0.1925 1.34713,0.5774 0.38488,0.3688 0.57732,0.8179 0.57734,1.3471 -2e-5,0.5132 -0.17643,0.9623 -0.52923,1.3471"
             style="marker:none"
             id="path4243" />
          <path
             d="m -190.38427,-1052.314 c 0.52921,10e-5 0.97826,0.1925 1.34713,0.5774 0.38488,0.3688 0.57732,0.8179 0.57734,1.3471 -2e-5,0.5293 -0.19246,0.9863 -0.57734,1.3712 -0.36887,0.3689 -0.81792,0.5533 -1.34713,0.5533 -5.13194,0 -7.6979,2.566 -7.69789,7.6979 l 0,1.4433 5.79747,0 c 0.52922,0 0.97826,0.1925 1.34713,0.5773 0.38488,0.3689 0.57733,0.818 0.57735,1.3472 -2e-5,0.5292 -0.19247,0.9863 -0.57735,1.3712 -0.36887,0.3688 -0.81791,0.5533 -1.34713,0.5533 l -5.79747,0 0,19.7258 c -1e-5,0.5292 -0.19246,0.9863 -0.57734,1.3712 -0.36887,0.3688 -0.81791,0.5533 -1.34714,0.5533 -0.52923,0 -0.9863,-0.1845 -1.37118,-0.5533 -0.36887,-0.3849 -0.55329,-0.842 -0.55329,-1.3712 l 0,-19.7258 -1.92447,0 c -0.52924,0 -0.9863,-0.1845 -1.37119,-0.5533 -0.36886,-0.3849 -0.55329,-0.842 -0.55329,-1.3712 0,-0.5292 0.18443,-0.9783 0.55329,-1.3472 0.38489,-0.3848 0.84195,-0.5773 1.37119,-0.5773 l 1.92447,0 0,-1.4433 c 0,-7.6979 3.84894,-11.5468 11.54684,-11.5469"
             style="marker:none"
             id="path4245" />
          <path
             d="m -180.2808,-1046.5406 c -1e-5,0.6576 -0.24056,1.2269 -0.72167,1.708 -0.46509,0.4651 -1.0264,0.6977 -1.68392,0.6976 -0.65753,10e-5 -1.22685,-0.2325 -1.70797,-0.6976 -0.46508,-0.4811 -0.69762,-1.0504 -0.69762,-1.708 0,-0.6575 0.23254,-1.2188 0.69762,-1.6839 0.48112,-0.4811 1.05044,-0.7216 1.70797,-0.7217 0.65752,1e-4 1.21883,0.2406 1.68392,0.7217 0.48111,0.4651 0.72166,1.0264 0.72167,1.6839 m -4.33006,7.6979 c -1e-5,-0.5292 0.18442,-0.9782 0.55328,-1.3471 0.38489,-0.3849 0.84196,-0.5773 1.37119,-0.5773 0.52923,0 0.97827,0.1924 1.34713,0.5773 0.38489,0.3689 0.57734,0.8179 0.57734,1.3471 l 0,23.0937 c 0,0.5292 -0.19245,0.9863 -0.57734,1.3712 -0.36886,0.3688 -0.8179,0.5533 -1.34713,0.5533 -0.52923,0 -0.9863,-0.1845 -1.37119,-0.5533 -0.36886,-0.3849 -0.55329,-0.842 -0.55328,-1.3712 l 0,-23.0937"
             style="marker:none"
             id="path4247" />
          <path
             d="m -154.05984,-1020.4158 c 0.5292,0 0.97825,0.1924 1.34713,0.5773 0.38487,0.3689 0.57731,0.8179 0.57734,1.3471 -3e-5,0.5293 -0.20049,1.0024 -0.6014,1.4193 -2.4858,2.1651 -5.4126,3.2476 -8.78041,3.2476 -3.72066,0 -6.89604,-1.3151 -9.52614,-3.9452 -2.63012,-2.6301 -3.94517,-5.8055 -3.94517,-9.5261 0,-3.7207 1.31505,-6.896 3.94517,-9.5262 2.6301,-2.6301 5.80548,-3.9451 9.52614,-3.9451 3.36781,0 6.29461,1.0825 8.78041,3.2475 0.44902,0.401 0.67354,0.8981 0.67357,1.4915 -3e-5,0.5292 -0.19248,0.9863 -0.57735,1.3712 -0.36888,0.3688 -0.81792,0.5533 -1.34713,0.5532 -0.4651,10e-5 -0.87405,-0.1443 -1.22685,-0.433 -1.79619,-1.5876 -3.89707,-2.3815 -6.30265,-2.3815 -2.6622,0 -4.93147,0.9382 -6.80782,2.8145 -1.87637,1.8764 -2.81455,4.1457 -2.81454,6.8079 -1e-5,2.6622 0.93817,4.9314 2.81454,6.8078 1.87635,1.8764 4.14562,2.8145 6.80782,2.8145 2.40558,0 4.49844,-0.7858 6.2786,-2.3574 0.33676,-0.2566 0.72967,-0.3849 1.17874,-0.3849"
             style="marker:none"
             id="path4249" />
          <path
             d="m -134.57455,-1036.9182 c -2.6622,0 -4.93147,0.9382 -6.80783,2.8145 -1.87636,1.8764 -2.81454,4.1457 -2.81454,6.8079 0,2.6622 0.93818,4.9314 2.81454,6.8078 1.87636,1.8764 4.14563,2.8145 6.80783,2.8145 2.66217,0 4.93144,-0.9381 6.80782,-2.8145 1.87634,-1.8764 2.81452,-4.1456 2.81454,-6.8078 -2e-5,-2.6622 -0.9382,-4.9315 -2.81454,-6.8079 -1.87638,-1.8763 -4.14565,-2.8145 -6.80782,-2.8145 m 9.62236,19.0523 c -2.69428,2.6942 -5.90173,4.0414 -9.62236,4.0414 -3.72066,0 -6.89604,-1.3151 -9.52614,-3.9452 -2.63012,-2.6301 -3.94518,-5.8055 -3.94517,-9.5261 -1e-5,-3.7207 1.31505,-6.896 3.94517,-9.5262 2.6301,-2.6301 5.80548,-3.9451 9.52614,-3.9451 3.72063,0 6.89601,1.315 9.52614,3.9451 2.63009,2.6302 3.94514,5.8055 3.94517,9.5262 l 0,11.5468 c -3e-5,0.5292 -0.19247,0.9863 -0.57734,1.3712 -0.36889,0.3688 -0.81793,0.5533 -1.34713,0.5533 -0.52926,0 -0.98632,-0.1845 -1.37119,-0.5533 -0.36888,-0.3849 -0.55331,-0.842 -0.55329,-1.3712 l 0,-2.1169"
             style="marker:none"
             id="path4251" />
          <path
             d="m -102.82074,-1050.3895 c 0,-0.5292 0.18443,-0.9783 0.55329,-1.3471 0.38489,-0.3849 0.84195,-0.5773 1.37119,-0.5774 0.52922,10e-5 0.978267,0.1925 1.347129,0.5774 0.384889,0.3688 0.577336,0.8179 0.577342,1.3471 l 0,32.716 1.924473,0 c 0.529222,0 0.978265,0.1925 1.347131,0.5774 0.384885,0.3688 0.577333,0.8179 0.577342,1.3471 -9e-6,0.5292 -0.192457,0.9863 -0.577342,1.3712 -0.368866,0.3688 -0.817909,0.5533 -1.347131,0.5533 l -3.848944,0 c -0.52924,0 -0.9863,-0.1845 -1.37119,-0.5533 -0.36886,-0.3849 -0.55329,-0.842 -0.55329,-1.3712 l 0,-34.6405"
             style="marker:none"
             id="path4253" />
          <path
             d="m -85.019353,-1046.5406 c -8e-6,0.6576 -0.240567,1.2269 -0.721678,1.708 -0.465088,0.4651 -1.026392,0.6977 -1.683914,0.6976 -0.657533,10e-5 -1.226856,-0.2325 -1.70797,-0.6976 -0.465084,-0.4811 -0.697625,-1.0504 -0.697621,-1.708 -4e-6,-0.6575 0.232537,-1.2188 0.697621,-1.6839 0.481114,-0.4811 1.050437,-0.7216 1.70797,-0.7217 0.657522,1e-4 1.218826,0.2406 1.683914,0.7217 0.481111,0.4651 0.72167,1.0264 0.721678,1.6839 m -4.330065,7.6979 c -4e-6,-0.5292 0.184425,-0.9782 0.553286,-1.3471 0.38489,-0.3849 0.841952,-0.5773 1.371187,-0.5773 0.529224,0 0.978267,0.1924 1.347132,0.5773 0.384887,0.3689 0.577334,0.8179 0.577342,1.3471 l 0,23.0937 c -8e-6,0.5292 -0.192455,0.9863 -0.577342,1.3712 -0.368865,0.3688 -0.817908,0.5533 -1.347132,0.5533 -0.529235,0 -0.986297,-0.1845 -1.371187,-0.5533 -0.368861,-0.3849 -0.55329,-0.842 -0.553286,-1.3712 l 0,-23.0937"
             style="marker:none"
             id="path4255" />
          <path
             d="m -66.255765,-1017.6735 c 2.66217,0 4.931443,-0.9381 6.807824,-2.8145 1.876337,-1.8764 2.814517,-4.1456 2.814542,-6.8078 -2.5e-5,-2.6622 -0.938205,-4.9315 -2.814542,-6.8079 -1.876381,-1.8763 -4.145654,-2.8145 -6.807824,-2.8145 -2.6622,0 -4.931473,0.9382 -6.807824,2.8145 -1.876368,1.8764 -2.814547,4.1457 -2.814542,6.8079 -5e-6,2.6622 0.938174,4.9314 2.814542,6.8078 1.876351,1.8764 4.145624,2.8145 6.807824,2.8145 m -9.622366,-19.0523 c 0.03207,-0.032 0.06414,-0.064 0.09622,-0.096 2.630105,-2.6301 5.805482,-3.9451 9.526142,-3.9451 3.720629,0 6.896007,1.315 9.526143,3.9451 2.630085,2.6302 3.945141,5.8055 3.94517,9.5262 -2.9e-5,3.7206 -1.315085,6.896 -3.94517,9.5261 -2.630136,2.6301 -5.805514,3.9452 -9.526143,3.9452 -3.72066,0 -6.896037,-1.3151 -9.526142,-3.9452 -2.630117,-2.6301 -3.945172,-5.8055 -3.94517,-9.5261 l 0,-23.1418 c -2e-6,-0.5292 0.184426,-0.9783 0.553286,-1.3472 0.384892,-0.3848 0.841954,-0.5773 1.371187,-0.5773 0.529226,0 0.978269,0.1925 1.347131,0.5773 0.384889,0.3689 0.577337,0.818 0.577342,1.3472 l 0,13.7118"
             style="marker:none"
             id="path4257" />
          <path
             d="m -48.935512,-1038.8427 c -2e-6,-0.5292 0.184426,-0.9782 0.553286,-1.3471 0.384892,-0.3849 0.841954,-0.5773 1.371187,-0.5773 0.529226,0 0.978269,0.1924 1.347131,0.5773 0.384889,0.3689 0.577336,0.8179 0.577342,1.3471 l 0,2.1169 c 2.694254,-2.6942 5.901706,-4.0413 9.622366,-4.0413 1.876344,0 3.60035,0.3207 5.172022,0.9622 0.28865,0.1123 0.553265,0.2807 0.793845,0.5052 0.368836,0.3849 0.553264,0.8419 0.553286,1.3711 -2.2e-5,0.5293 -0.192469,0.9864 -0.577342,1.3712 -0.368878,0.3689 -0.817921,0.5533 -1.347131,0.5533 -0.304728,0 -0.58538,-0.064 -0.841957,-0.1924 -1.138665,-0.4811 -2.389571,-0.7217 -3.752723,-0.7217 -2.6622,0 -4.931473,0.9382 -6.807824,2.8145 -1.876368,1.8764 -2.814548,4.1457 -2.814542,6.8079 l 0,11.5468 c -6e-6,0.5292 -0.192453,0.9863 -0.577342,1.3712 -0.368862,0.3688 -0.817905,0.5533 -1.347131,0.5533 -0.529233,0 -0.986295,-0.1845 -1.371187,-0.5533 -0.36886,-0.3849 -0.553288,-0.842 -0.553286,-1.3712 l 0,-23.0937"
             style="marker:none"
             id="path4259" />
          <path
             d="m -2.9165362,-1029.2203 c -0.3528446,-1.8443 -1.234894,-3.4721 -2.6461507,-4.8834 -1.8763817,-1.8763 -4.1456541,-2.8145 -6.8078241,-2.8145 -2.6622,0 -4.931473,0.9382 -6.807824,2.8145 -1.411287,1.4113 -2.293337,3.0391 -2.64615,4.8834 l 18.9079488,0 m -2.0447528,8.8526 c 0.5292068,0 0.9782501,0.1924 1.3471312,0.5773 0.3848701,0.3689 0.5773173,0.8179 0.577342,1.3471 -2.47e-5,0.5293 -0.1844532,0.9863 -0.5532861,1.3712 -2.4857995,2.1651 -5.4125996,3.2476 -8.7804091,3.2476 -3.72066,0 -6.896037,-1.3151 -9.526142,-3.9452 -2.630117,-2.6301 -3.945172,-5.8055 -3.94517,-9.5261 -2e-6,-3.7207 1.315053,-6.896 3.94517,-9.5262 2.630105,-2.6301 5.805482,-3.9451 9.526142,-3.9451 3.7206292,0 6.8960068,1.315 9.5261425,3.9451 2.63008582,2.6302 3.9451412,5.8055 3.9451701,9.5262 -2.89e-5,0.5292 -0.19247604,0.9863 -0.577342,1.3712 -0.36888529,0.3688 -0.81792858,0.5532 -1.34713124,0.5532 l -21.00081336,0 c 0.352813,1.8443 1.234863,3.4721 2.64615,4.8834 1.876351,1.8764 4.145624,2.8145 6.807824,2.8145 2.4055739,0 4.4743805,-0.7617 6.2064262,-2.2853 0.3527982,-0.2726 0.7537297,-0.4089 1.2027958,-0.4089"
             style="marker:none"
             id="path4261" />
        </g>
      </g>
      <path
         inkscape:connector-curvature="0"
         id="path37292-07-1-0-3-9-6"
         d="m 226.97369,899.28565 c 0,-2.46618 1.99976,-4.46541 4.46658,-4.46541 2.46682,0 4.46657,1.99923 4.46657,4.46541 0,2.46618 -1.99975,4.46541 -4.46657,4.46541 -2.46682,0 -4.46658,-1.99923 -4.46658,-4.46541 z"
         style="color:#000000;fill:#d40000;fill-opacity:1;fill-rule:nonzero;stroke:none;stroke-width:2;marker:none;visibility:visible;display:inline;overflow:visible;enable-background:accumulate" />
      <g
         transform="matrix(0.17998787,0,0,0.17998787,106.47098,714.33864)"
         id="g7241-3-7-0">
        <g
           transform="scale(-1,-1)"
           style="font-size:49.26651382px;font-style:normal;font-variant:normal;font-weight:normal;font-stretch:normal;text-indent:0;text-align:start;text-decoration:none;line-height:125%;letter-spacing:0px;word-spacing:0px;text-transform:none;direction:ltr;block-progression:tb;writing-mode:lr-tb;text-anchor:start;baseline-shift:baseline;color:#000000;fill:#d40000;fill-opacity:1;fill-rule:nonzero;stroke:none;stroke-width:1px;marker:none;visibility:visible;display:inline;overflow:visible;enable-background:accumulate;font-family:Comfortaa;-inkscape-font-specification:Comfortaa"
           id="text3227-7-9">
          <path
             d="m -554.15781,-1027.2958 c -3e-5,-2.6622 -0.93821,-4.9315 -2.81454,-6.8079 -1.87639,-1.8763 -4.14566,-2.8145 -6.80783,-2.8145 -2.6622,0 -4.93147,0.9382 -6.80782,2.8145 -1.87637,1.8764 -2.81455,4.1457 -2.81454,6.8079 -10e-6,2.6622 0.93817,4.9314 2.81454,6.8078 1.87635,1.8764 4.14562,2.8145 6.80782,2.8145 2.66217,0 4.93144,-0.9381 6.80783,-2.8145 1.87633,-1.8764 2.81451,-4.1456 2.81454,-6.8078 m 0,-23.1418 c -3e-5,-0.5292 0.1844,-0.9783 0.55328,-1.3472 0.38487,-0.3848 0.84193,-0.5773 1.37119,-0.5773 0.5292,0 0.97825,0.1925 1.34713,0.5773 0.38487,0.3689 0.57731,0.818 0.57734,1.3472 l 0,23.1418 c -3e-5,3.7206 -1.31508,6.896 -3.94517,9.5261 -2.63013,2.6301 -5.80551,3.9452 -9.52614,3.9452 -3.72066,0 -6.89604,-1.3151 -9.52614,-3.9452 -2.63012,-2.6301 -3.94517,-5.8055 -3.94517,-9.5261 0,-3.7207 1.31505,-6.896 3.94517,-9.5262 2.6301,-2.6301 5.80548,-3.9451 9.52614,-3.9451 3.72063,0 6.89601,1.315 9.52614,3.9451 0.0321,0.032 0.0641,0.064 0.0962,0.096 l 0,-13.7118"
             style="marker:none"
             id="path4174" />
          <path
             d="m -540.20538,-1046.5406 c -10e-6,0.6576 -0.24057,1.2269 -0.72168,1.708 -0.46509,0.4651 -1.02639,0.6977 -1.68391,0.6976 -0.65754,10e-5 -1.22686,-0.2325 -1.70797,-0.6976 -0.46509,-0.4811 -0.69763,-1.0504 -0.69763,-1.708 0,-0.6575 0.23254,-1.2188 0.69763,-1.6839 0.48111,-0.4811 1.05043,-0.7216 1.70797,-0.7217 0.65752,1e-4 1.21882,0.2406 1.68391,0.7217 0.48111,0.4651 0.72167,1.0264 0.72168,1.6839 m -4.33007,7.6979 c 0,-0.5292 0.18443,-0.9782 0.55329,-1.3471 0.38489,-0.3849 0.84195,-0.5773 1.37119,-0.5773 0.52922,0 0.97826,0.1924 1.34713,0.5773 0.38488,0.3689 0.57733,0.8179 0.57734,1.3471 l 0,23.0937 c -10e-6,0.5292 -0.19246,0.9863 -0.57734,1.3712 -0.36887,0.3688 -0.81791,0.5533 -1.34713,0.5533 -0.52924,0 -0.9863,-0.1845 -1.37119,-0.5533 -0.36886,-0.3849 -0.55329,-0.842 -0.55329,-1.3712 l 0,-23.0937"
             style="marker:none"
             id="path4176" />
          <path
             d="m -530.15001,-1027.2958 c -1.4594,-0.5453 -2.47776,-1.1146 -3.0551,-1.708 -1.13865,-1.1226 -1.70797,-2.4777 -1.70797,-4.0655 0,-1.5876 0.59337,-2.9748 1.78014,-4.1616 2.30936,-2.3575 5.32436,-3.5362 9.04502,-3.5362 4.02534,0 7.47335,1.6117 10.34404,4.8352 0.25658,0.3047 0.37686,0.6816 0.36084,1.1306 -2e-5,0.5293 -0.19247,0.9863 -0.57734,1.3712 -0.36888,0.3689 -0.81792,0.5533 -1.34713,0.5533 -0.52925,0 -0.95424,-0.1684 -1.27496,-0.5052 -0.32077,-0.3367 -0.55331,-0.5773 -0.69763,-0.7217 -1.87638,-1.8763 -4.14565,-2.8145 -6.80782,-2.8145 -2.6622,0 -4.78714,0.834 -6.37482,2.5018 -0.3849,0.4651 -0.57735,1.0184 -0.57734,1.6599 0.0481,0.7537 0.44102,1.2669 1.17874,1.5395 l 11.83551,3.9212 c 1.45937,0.5452 2.47774,1.1146 3.0551,1.7079 1.13863,1.1227 1.70795,2.4778 1.70797,4.0655 -2e-5,1.5877 -0.5934,2.9749 -1.78014,4.1617 -2.30938,2.3574 -5.32439,3.5362 -9.04502,3.5362 -4.0414,0 -7.48941,-1.6118 -10.34404,-4.8353 -0.24056,-0.3367 -0.36084,-0.7136 -0.36084,-1.1306 0,-0.5292 0.18442,-0.9783 0.55328,-1.3471 0.3849,-0.3849 0.84196,-0.5774 1.37119,-0.5774 0.52923,0 0.95421,0.1684 1.27496,0.5052 0.32074,0.3368 0.55328,0.5774 0.69763,0.7217 1.87635,1.8764 4.14562,2.8145 6.80782,2.8145 2.66217,0 4.78711,-0.8339 6.37482,-2.5018 0.38487,-0.4651 0.57732,-1.0183 0.57734,-1.6598 -0.0481,-0.7538 -0.44104,-1.267 -1.17874,-1.5396 l -11.83551,-3.9211"
             style="marker:none"
             id="path4178" />
          <path
             d="m -486.48853,-1029.2203 c -0.35284,-1.8443 -1.23489,-3.4721 -2.64615,-4.8834 -1.87638,-1.8763 -4.14565,-2.8145 -6.80782,-2.8145 -2.6622,0 -4.93147,0.9382 -6.80783,2.8145 -1.41128,1.4113 -2.29333,3.0391 -2.64615,4.8834 l 18.90795,0 m -2.04475,8.8526 c 0.52921,0 0.97825,0.1924 1.34713,0.5773 0.38487,0.3689 0.57732,0.8179 0.57734,1.3471 -2e-5,0.5293 -0.18445,0.9863 -0.55328,1.3712 -2.4858,2.1651 -5.4126,3.2476 -8.78041,3.2476 -3.72066,0 -6.89604,-1.3151 -9.52614,-3.9452 -2.63012,-2.6301 -3.94518,-5.8055 -3.94517,-9.5261 -10e-6,-3.7207 1.31505,-6.896 3.94517,-9.5262 2.6301,-2.6301 5.80548,-3.9451 9.52614,-3.9451 3.72063,0 6.896,1.315 9.52614,3.9451 2.63009,2.6302 3.94514,5.8055 3.94517,9.5262 -3e-5,0.5292 -0.19248,0.9863 -0.57734,1.3712 -0.36889,0.3688 -0.81793,0.5532 -1.34713,0.5532 l -21.00082,0 c 0.35282,1.8443 1.23487,3.4721 2.64615,4.8834 1.87636,1.8764 4.14563,2.8145 6.80783,2.8145 2.40557,0 4.47438,-0.7617 6.20642,-2.2853 0.3528,-0.2726 0.75373,-0.4089 1.2028,-0.4089"
             style="marker:none"
             id="path4180" />
          <path
             d="m -478.62224,-1038.8427 c 0,-0.5292 0.18442,-0.9782 0.55328,-1.3471 0.3849,-0.3849 0.84196,-0.5773 1.37119,-0.5773 0.52923,0 0.97827,0.1924 1.34713,0.5773 0.38489,0.3689 0.57734,0.8179 0.57734,1.3471 l 0,1.5637 c 2.40559,-2.3254 5.2923,-3.4881 8.66013,-3.4881 3.448,0 6.39084,1.2268 8.82852,3.6805 2.45368,2.4377 3.68053,5.3805 3.68056,8.8285 l 0,12.5091 c -3e-5,0.5292 -0.19247,0.9863 -0.57734,1.3712 -0.36889,0.3688 -0.81793,0.5533 -1.34713,0.5533 -0.52926,0 -0.98632,-0.1845 -1.37119,-0.5533 -0.36888,-0.3849 -0.55331,-0.842 -0.55329,-1.3712 l 0,-12.5091 c -2e-5,-2.3895 -0.84999,-4.4262 -2.54992,-6.1102 -1.68394,-1.6999 -3.72067,-2.5499 -6.11021,-2.5499 -2.38956,0 -4.43431,0.85 -6.13425,2.5499 -1.68392,1.684 -2.52588,3.7207 -2.52588,6.1102 l 0,12.5091 c 0,0.5292 -0.19245,0.9863 -0.57734,1.3712 -0.36886,0.3688 -0.8179,0.5533 -1.34713,0.5533 -0.52923,0 -0.98629,-0.1845 -1.37119,-0.5533 -0.36886,-0.3849 -0.55328,-0.842 -0.55328,-1.3712 l 0,-23.0937 m 13.97649,-6.7597 c -1.44337,1.283 -3.14332,1.9245 -5.09986,1.9245 -2.13297,0 -3.95319,-0.7537 -5.46069,-2.2613 -0.35283,-0.3848 -0.52924,-0.8339 -0.52923,-1.3471 -1e-5,-0.5292 0.18442,-0.9782 0.55328,-1.3471 0.38489,-0.3849 0.84196,-0.5773 1.37119,-0.5774 0.51319,10e-5 0.96223,0.1765 1.34713,0.5293 0.75375,0.7698 1.65985,1.1547 2.71832,1.1546 0.89808,10e-5 1.69994,-0.2806 2.40559,-0.8419 1.42731,-1.283 3.12726,-1.9245 5.09986,-1.9245 2.13293,0 3.95316,0.7538 5.46069,2.2613 0.3528,0.3849 0.52921,0.8339 0.52923,1.3471 -2e-5,0.5293 -0.19247,0.9863 -0.57734,1.3712 -0.36888,0.3689 -0.81793,0.5533 -1.34713,0.5533 -0.51322,0 -0.96226,-0.1764 -1.34714,-0.5293 -0.75377,-0.7697 -1.65987,-1.1546 -2.71831,-1.1546 -0.91415,0 -1.71601,0.2806 -2.40559,0.8419"
             style="marker:none"
             id="path4182" />
          <path
             d="m -436.28383,-1036.9182 c -2.6622,0 -4.93148,0.9382 -6.80783,2.8145 -1.87637,1.8764 -2.81455,4.1457 -2.81454,6.8079 -10e-6,2.6622 0.93817,4.9314 2.81454,6.8078 1.87635,1.8764 4.14563,2.8145 6.80783,2.8145 2.66217,0 4.93144,-0.9381 6.80782,-2.8145 1.87634,-1.8764 2.81452,-4.1456 2.81454,-6.8078 -2e-5,-2.6622 -0.9382,-4.9315 -2.81454,-6.8079 -1.87638,-1.8763 -4.14565,-2.8145 -6.80782,-2.8145 m 9.62236,19.0523 c -2.69428,2.6942 -5.90173,4.0414 -9.62236,4.0414 -3.72066,0 -6.89604,-1.3151 -9.52615,-3.9452 -2.63011,-2.6301 -3.94517,-5.8055 -3.94517,-9.5261 0,-3.7207 1.31506,-6.896 3.94517,-9.5262 2.63011,-2.6301 5.80549,-3.9451 9.52615,-3.9451 3.72063,0 6.896,1.315 9.52614,3.9451 2.63008,2.6302 3.94514,5.8055 3.94517,9.5262 l 0,11.5468 c -3e-5,0.5292 -0.19248,0.9863 -0.57734,1.3712 -0.36889,0.3688 -0.81793,0.5533 -1.34713,0.5533 -0.52926,0 -0.98632,-0.1845 -1.37119,-0.5533 -0.36888,-0.3849 -0.55331,-0.842 -0.55329,-1.3712 l 0,-2.1169"
             style="marker:none"
             id="path4184" />
          <path
             d="m -395.86989,-1027.2958 c -3e-5,-2.6622 -0.93821,-4.9315 -2.81455,-6.8079 -1.87638,-1.8763 -4.14565,-2.8145 -6.80782,-2.8145 -2.6622,0 -4.93147,0.9382 -6.80782,2.8145 -1.87637,1.8764 -2.81455,4.1457 -2.81455,6.8079 0,2.6622 0.93818,4.9314 2.81455,6.8078 1.87635,1.8764 4.14562,2.8145 6.80782,2.8145 2.66217,0 4.93144,-0.9381 6.80782,-2.8145 1.87634,-1.8764 2.81452,-4.1456 2.81455,-6.8078 m 0,-23.1418 c -3e-5,-0.5292 0.1844,-0.9783 0.55328,-1.3472 0.38487,-0.3848 0.84193,-0.5773 1.37119,-0.5773 0.5292,0 0.97824,0.1925 1.34713,0.5773 0.38487,0.3689 0.57731,0.818 0.57734,1.3472 l 0,23.1418 c -3e-5,3.7206 -1.31508,6.896 -3.94517,9.5261 -2.63013,2.6301 -5.80551,3.9452 -9.52614,3.9452 -3.72066,0 -6.89604,-1.3151 -9.52614,-3.9452 -2.63012,-2.6301 -3.94517,-5.8055 -3.94517,-9.5261 0,-3.7207 1.31505,-6.896 3.94517,-9.5262 2.6301,-2.6301 5.80548,-3.9451 9.52614,-3.9451 3.72063,0 6.89601,1.315 9.52614,3.9451 0.032,0.032 0.0641,0.064 0.0962,0.096 l 0,-13.7118"
             style="marker:none"
             id="path4186" />
          <path
             d="m -361.22938,-1027.2958 c -3e-5,3.7206 -1.31509,6.896 -3.94517,9.5261 -2.63014,2.6301 -5.80552,3.9452 -9.52615,3.9452 -3.72066,0 -6.89603,-1.3151 -9.52614,-3.9452 -2.63011,-2.6301 -3.94517,-5.8055 -3.94517,-9.5261 0,-3.7207 1.31506,-6.896 3.94517,-9.5262 2.63011,-2.6301 5.80548,-3.9451 9.52614,-3.9451 3.72063,0 6.89601,1.315 9.52615,3.9451 2.63008,2.6302 3.94514,5.8055 3.94517,9.5262 m -13.47132,-9.6224 c -2.6622,0 -4.93147,0.9382 -6.80782,2.8145 -1.87637,1.8764 -2.81455,4.1457 -2.81454,6.8079 -10e-6,2.6622 0.93817,4.9314 2.81454,6.8078 1.87635,1.8764 4.14562,2.8145 6.80782,2.8145 2.66217,0 4.93145,-0.9381 6.80783,-2.8145 1.87634,-1.8764 2.81452,-4.1456 2.81454,-6.8078 -2e-5,-2.6622 -0.9382,-4.9315 -2.81454,-6.8079 -1.87638,-1.8763 -4.14566,-2.8145 -6.80783,-2.8145"
             style="marker:none"
             id="path4188" />
          <path
             d="m -357.38043,-1038.8427 c 0,-0.5292 0.18443,-0.9782 0.55329,-1.3471 0.38489,-0.3849 0.84195,-0.5773 1.37119,-0.5773 0.52922,0 0.97826,0.1924 1.34713,0.5773 0.38489,0.3689 0.57733,0.8179 0.57734,1.3471 l 0,2.1169 c 2.69425,-2.6942 5.9017,-4.0413 9.62236,-4.0413 1.87635,0 3.60035,0.3207 5.17203,0.9622 0.28865,0.1123 0.55326,0.2807 0.79384,0.5052 0.36884,0.3849 0.55327,0.8419 0.55329,1.3711 -2e-5,0.5293 -0.19247,0.9864 -0.57734,1.3712 -0.36888,0.3689 -0.81793,0.5533 -1.34714,0.5533 -0.30472,0 -0.58538,-0.064 -0.84195,-0.1924 -1.13867,-0.4811 -2.38957,-0.7217 -3.75273,-0.7217 -2.6622,0 -4.93147,0.9382 -6.80782,2.8145 -1.87637,1.8764 -2.81455,4.1457 -2.81454,6.8079 l 0,11.5468 c -1e-5,0.5292 -0.19245,0.9863 -0.57734,1.3712 -0.36887,0.3688 -0.81791,0.5533 -1.34713,0.5533 -0.52924,0 -0.9863,-0.1845 -1.37119,-0.5533 -0.36886,-0.3849 -0.55329,-0.842 -0.55329,-1.3712 l 0,-23.0937"
             style="marker:none"
             id="path4190" />
          <path
             d="m -320.81544,-1036.9182 c -2.6622,0 -4.93147,0.9382 -6.80783,2.8145 -1.87636,1.8764 -2.81454,4.1457 -2.81454,6.8079 0,2.6622 0.93818,4.9314 2.81454,6.8078 1.87636,1.8764 4.14563,2.8145 6.80783,2.8145 2.66217,0 4.93144,-0.9381 6.80782,-2.8145 1.87634,-1.8764 2.81452,-4.1456 2.81454,-6.8078 -2e-5,-2.6622 -0.9382,-4.9315 -2.81454,-6.8079 -1.87638,-1.8763 -4.14565,-2.8145 -6.80782,-2.8145 m 9.62236,19.0523 c -2.69428,2.6942 -5.90173,4.0414 -9.62236,4.0414 -3.72066,0 -6.89604,-1.3151 -9.52614,-3.9452 -2.63012,-2.6301 -3.94518,-5.8055 -3.94517,-9.5261 -1e-5,-3.7207 1.31505,-6.896 3.94517,-9.5262 2.6301,-2.6301 5.80548,-3.9451 9.52614,-3.9451 3.72063,0 6.896,1.315 9.52614,3.9451 2.63009,2.6302 3.94514,5.8055 3.94517,9.5262 l 0,11.5468 c -3e-5,0.5292 -0.19248,0.9863 -0.57734,1.3712 -0.36889,0.3688 -0.81793,0.5533 -1.34713,0.5533 -0.52926,0 -0.98632,-0.1845 -1.37119,-0.5533 -0.36888,-0.3849 -0.55331,-0.842 -0.55329,-1.3712 l 0,-2.1169"
             style="marker:none"
             id="path4192" />
          <path
             d="m -275.59033,-1036.9182 c -2.6622,0 -4.93147,0.9382 -6.80782,2.8145 -1.87637,1.8764 -2.81455,4.1457 -2.81454,6.8079 -10e-6,2.6622 0.93817,4.9314 2.81454,6.8078 1.87635,1.8764 4.14562,2.8145 6.80782,2.8145 2.66217,0 4.93144,-0.9381 6.80782,-2.8145 1.87634,-1.8764 2.81452,-4.1456 2.81455,-6.8078 -3e-5,-2.6622 -0.93821,-4.9315 -2.81455,-6.8079 -1.87638,-1.8763 -4.14565,-2.8145 -6.80782,-2.8145 m 9.62237,19.0523 c -0.0321,0.032 -0.0642,0.064 -0.0962,0.096 -2.63013,2.6301 -5.80551,3.9452 -9.52614,3.9452 -3.72066,0 -6.89604,-1.3151 -9.52614,-3.9452 -2.63012,-2.6301 -3.94517,-5.8055 -3.94517,-9.5261 0,-3.7207 1.31505,-6.896 3.94517,-9.5262 2.6301,-2.6301 5.80548,-3.9451 9.52614,-3.9451 3.72063,0 6.89601,1.315 9.52614,3.9451 2.63009,2.6302 3.94514,5.8055 3.94517,9.5262 l 0,13.4713 c -3e-5,2.8065 -1.01037,5.2442 -3.03104,7.313 -2.82259,2.8225 -6.2305,4.2338 -10.22377,4.2338 -3.99329,0 -7.39319,-1.4113 -10.1997,-4.2338 -1.04243,-1.0264 -1.89241,-2.141 -2.54993,-3.3438 -0.19245,-0.2887 -0.28867,-0.6255 -0.28867,-1.0103 0,-0.5293 0.18442,-0.9863 0.55328,-1.3712 0.3849,-0.3689 0.84196,-0.5533 1.37119,-0.5533 0.52923,0 0.98629,0.1844 1.37119,0.5533 0.16037,0.1764 0.29668,0.3688 0.40895,0.5773 0.48111,0.866 1.09855,1.6759 1.8523,2.4297 2.0688,2.0688 4.5626,3.1032 7.48139,3.1032 2.91877,0 5.41256,-1.0344 7.48139,-3.1032 1.28296,-1.5396 1.92445,-3.0712 1.92448,-4.5947 l 0,-4.0414"
             style="marker:none"
             id="path4194" />
          <path
             d="m -258.27008,-1038.8427 c 0,-0.5292 0.18443,-0.9782 0.55329,-1.3471 0.38489,-0.3849 0.84195,-0.5773 1.37119,-0.5773 0.52922,0 0.97827,0.1924 1.34713,0.5773 0.38489,0.3689 0.57733,0.8179 0.57734,1.3471 l 0,2.1169 c 2.69425,-2.6942 5.90171,-4.0413 9.62237,-4.0413 1.87634,0 3.60035,0.3207 5.17202,0.9622 0.28865,0.1123 0.55326,0.2807 0.79384,0.5052 0.36884,0.3849 0.55327,0.8419 0.55329,1.3711 -2e-5,0.5293 -0.19247,0.9864 -0.57734,1.3712 -0.36888,0.3689 -0.81792,0.5533 -1.34713,0.5533 -0.30473,0 -0.58538,-0.064 -0.84196,-0.1924 -1.13867,-0.4811 -2.38957,-0.7217 -3.75272,-0.7217 -2.6622,0 -4.93148,0.9382 -6.80783,2.8145 -1.87637,1.8764 -2.81455,4.1457 -2.81454,6.8079 l 0,11.5468 c -1e-5,0.5292 -0.19245,0.9863 -0.57734,1.3712 -0.36886,0.3688 -0.81791,0.5533 -1.34713,0.5533 -0.52924,0 -0.9863,-0.1845 -1.37119,-0.5533 -0.36886,-0.3849 -0.55329,-0.842 -0.55329,-1.3712 l 0,-23.0937"
             style="marker:none"
             id="path4196" />
          <path
             d="m -221.70508,-1036.9182 c -2.6622,0 -4.93147,0.9382 -6.80782,2.8145 -1.87637,1.8764 -2.81455,4.1457 -2.81454,6.8079 -1e-5,2.6622 0.93817,4.9314 2.81454,6.8078 1.87635,1.8764 4.14562,2.8145 6.80782,2.8145 2.66217,0 4.93145,-0.9381 6.80783,-2.8145 1.87634,-1.8764 2.81452,-4.1456 2.81454,-6.8078 -2e-5,-2.6622 -0.9382,-4.9315 -2.81454,-6.8079 -1.87638,-1.8763 -4.14566,-2.8145 -6.80783,-2.8145 m 9.62237,19.0523 c -2.69428,2.6942 -5.90174,4.0414 -9.62237,4.0414 -3.72065,0 -6.89603,-1.3151 -9.52614,-3.9452 -2.63011,-2.6301 -3.94517,-5.8055 -3.94517,-9.5261 0,-3.7207 1.31506,-6.896 3.94517,-9.5262 2.63011,-2.6301 5.80549,-3.9451 9.52614,-3.9451 3.72063,0 6.89601,1.315 9.52615,3.9451 2.63008,2.6302 3.94514,5.8055 3.94517,9.5262 l 0,11.5468 c -3e-5,0.5292 -0.19248,0.9863 -0.57734,1.3712 -0.36889,0.3688 -0.81793,0.5533 -1.34714,0.5533 -0.52925,0 -0.98631,-0.1845 -1.37118,-0.5533 -0.36889,-0.3849 -0.55331,-0.842 -0.55329,-1.3712 l 0,-2.1169 m -4.37818,-31.1765 -5.84558,5.8456 c -0.36887,0.3368 -0.8099,0.5052 -1.32308,0.5052 -0.52924,0 -0.9863,-0.1844 -1.37119,-0.5533 -0.36886,-0.3849 -0.55329,-0.8419 -0.55328,-1.3712 -1e-5,-0.4971 0.16036,-0.9301 0.48112,-1.299 l 5.84558,-5.8456 c 0.38488,-0.3688 0.84194,-0.5532 1.37119,-0.5533 0.52921,10e-5 0.97826,0.1925 1.34713,0.5774 0.38488,0.3688 0.57732,0.8179 0.57734,1.3471 -2e-5,0.5132 -0.17643,0.9623 -0.52923,1.3471"
             style="marker:none"
             id="path4198" />
          <path
             d="m -190.38427,-1052.314 c 0.52921,10e-5 0.97826,0.1925 1.34713,0.5774 0.38488,0.3688 0.57732,0.8179 0.57734,1.3471 -2e-5,0.5293 -0.19246,0.9863 -0.57734,1.3712 -0.36887,0.3689 -0.81792,0.5533 -1.34713,0.5533 -5.13194,0 -7.6979,2.566 -7.69789,7.6979 l 0,1.4433 5.79747,0 c 0.52922,0 0.97826,0.1925 1.34713,0.5773 0.38488,0.3689 0.57733,0.818 0.57735,1.3472 -2e-5,0.5292 -0.19247,0.9863 -0.57735,1.3712 -0.36887,0.3688 -0.81791,0.5533 -1.34713,0.5533 l -5.79747,0 0,19.7258 c -1e-5,0.5292 -0.19246,0.9863 -0.57734,1.3712 -0.36887,0.3688 -0.81791,0.5533 -1.34714,0.5533 -0.52923,0 -0.9863,-0.1845 -1.37118,-0.5533 -0.36887,-0.3849 -0.55329,-0.842 -0.55329,-1.3712 l 0,-19.7258 -1.92447,0 c -0.52924,0 -0.9863,-0.1845 -1.37119,-0.5533 -0.36886,-0.3849 -0.55329,-0.842 -0.55329,-1.3712 0,-0.5292 0.18443,-0.9783 0.55329,-1.3472 0.38489,-0.3848 0.84195,-0.5773 1.37119,-0.5773 l 1.92447,0 0,-1.4433 c 0,-7.6979 3.84894,-11.5468 11.54684,-11.5469"
             style="marker:none"
             id="path4200" />
          <path
             d="m -180.2808,-1046.5406 c -1e-5,0.6576 -0.24056,1.2269 -0.72167,1.708 -0.46509,0.4651 -1.0264,0.6977 -1.68392,0.6976 -0.65753,10e-5 -1.22685,-0.2325 -1.70797,-0.6976 -0.46508,-0.4811 -0.69762,-1.0504 -0.69762,-1.708 0,-0.6575 0.23254,-1.2188 0.69762,-1.6839 0.48112,-0.4811 1.05044,-0.7216 1.70797,-0.7217 0.65752,1e-4 1.21883,0.2406 1.68392,0.7217 0.48111,0.4651 0.72166,1.0264 0.72167,1.6839 m -4.33006,7.6979 c -1e-5,-0.5292 0.18442,-0.9782 0.55328,-1.3471 0.38489,-0.3849 0.84196,-0.5773 1.37119,-0.5773 0.52923,0 0.97827,0.1924 1.34713,0.5773 0.38489,0.3689 0.57734,0.8179 0.57734,1.3471 l 0,23.0937 c 0,0.5292 -0.19245,0.9863 -0.57734,1.3712 -0.36886,0.3688 -0.8179,0.5533 -1.34713,0.5533 -0.52923,0 -0.9863,-0.1845 -1.37119,-0.5533 -0.36886,-0.3849 -0.55329,-0.842 -0.55328,-1.3712 l 0,-23.0937"
             style="marker:none"
             id="path4202" />
          <path
             d="m -154.05984,-1020.4158 c 0.5292,0 0.97825,0.1924 1.34713,0.5773 0.38487,0.3689 0.57731,0.8179 0.57734,1.3471 -3e-5,0.5293 -0.20049,1.0024 -0.6014,1.4193 -2.4858,2.1651 -5.4126,3.2476 -8.78041,3.2476 -3.72066,0 -6.89604,-1.3151 -9.52614,-3.9452 -2.63012,-2.6301 -3.94517,-5.8055 -3.94517,-9.5261 0,-3.7207 1.31505,-6.896 3.94517,-9.5262 2.6301,-2.6301 5.80548,-3.9451 9.52614,-3.9451 3.36781,0 6.29461,1.0825 8.78041,3.2475 0.44902,0.401 0.67354,0.8981 0.67357,1.4915 -3e-5,0.5292 -0.19248,0.9863 -0.57735,1.3712 -0.36888,0.3688 -0.81792,0.5533 -1.34713,0.5532 -0.4651,10e-5 -0.87405,-0.1443 -1.22685,-0.433 -1.79619,-1.5876 -3.89707,-2.3815 -6.30265,-2.3815 -2.6622,0 -4.93147,0.9382 -6.80782,2.8145 -1.87637,1.8764 -2.81455,4.1457 -2.81454,6.8079 -1e-5,2.6622 0.93817,4.9314 2.81454,6.8078 1.87635,1.8764 4.14562,2.8145 6.80782,2.8145 2.40558,0 4.49844,-0.7858 6.2786,-2.3574 0.33676,-0.2566 0.72967,-0.3849 1.17874,-0.3849"
             style="marker:none"
             id="path4204" />
          <path
             d="m -134.57455,-1036.9182 c -2.6622,0 -4.93147,0.9382 -6.80783,2.8145 -1.87636,1.8764 -2.81454,4.1457 -2.81454,6.8079 0,2.6622 0.93818,4.9314 2.81454,6.8078 1.87636,1.8764 4.14563,2.8145 6.80783,2.8145 2.66217,0 4.93144,-0.9381 6.80782,-2.8145 1.87634,-1.8764 2.81452,-4.1456 2.81454,-6.8078 -2e-5,-2.6622 -0.9382,-4.9315 -2.81454,-6.8079 -1.87638,-1.8763 -4.14565,-2.8145 -6.80782,-2.8145 m 9.62236,19.0523 c -2.69428,2.6942 -5.90173,4.0414 -9.62236,4.0414 -3.72066,0 -6.89604,-1.3151 -9.52614,-3.9452 -2.63012,-2.6301 -3.94518,-5.8055 -3.94517,-9.5261 -1e-5,-3.7207 1.31505,-6.896 3.94517,-9.5262 2.6301,-2.6301 5.80548,-3.9451 9.52614,-3.9451 3.72063,0 6.89601,1.315 9.52614,3.9451 2.63009,2.6302 3.94514,5.8055 3.94517,9.5262 l 0,11.5468 c -3e-5,0.5292 -0.19247,0.9863 -0.57734,1.3712 -0.36889,0.3688 -0.81793,0.5533 -1.34713,0.5533 -0.52926,0 -0.98632,-0.1845 -1.37119,-0.5533 -0.36888,-0.3849 -0.55331,-0.842 -0.55329,-1.3712 l 0,-2.1169"
             style="marker:none"
             id="path4206" />
          <path
             d="m -102.82074,-1050.3895 c 0,-0.5292 0.18443,-0.9783 0.55329,-1.3471 0.38489,-0.3849 0.84195,-0.5773 1.37119,-0.5774 0.52922,10e-5 0.978267,0.1925 1.347129,0.5774 0.384889,0.3688 0.577336,0.8179 0.577342,1.3471 l 0,32.716 1.924473,0 c 0.529222,0 0.978265,0.1925 1.347131,0.5774 0.384885,0.3688 0.577333,0.8179 0.577342,1.3471 -9e-6,0.5292 -0.192457,0.9863 -0.577342,1.3712 -0.368866,0.3688 -0.817909,0.5533 -1.347131,0.5533 l -3.848944,0 c -0.52924,0 -0.9863,-0.1845 -1.37119,-0.5533 -0.36886,-0.3849 -0.55329,-0.842 -0.55329,-1.3712 l 0,-34.6405"
             style="marker:none"
             id="path4208" />
          <path
             d="m -85.019353,-1046.5406 c -8e-6,0.6576 -0.240567,1.2269 -0.721678,1.708 -0.465088,0.4651 -1.026392,0.6977 -1.683914,0.6976 -0.657533,10e-5 -1.226856,-0.2325 -1.70797,-0.6976 -0.465084,-0.4811 -0.697625,-1.0504 -0.697621,-1.708 -4e-6,-0.6575 0.232537,-1.2188 0.697621,-1.6839 0.481114,-0.4811 1.050437,-0.7216 1.70797,-0.7217 0.657522,1e-4 1.218826,0.2406 1.683914,0.7217 0.481111,0.4651 0.72167,1.0264 0.721678,1.6839 m -4.330065,7.6979 c -4e-6,-0.5292 0.184425,-0.9782 0.553286,-1.3471 0.38489,-0.3849 0.841952,-0.5773 1.371187,-0.5773 0.529224,0 0.978267,0.1924 1.347132,0.5773 0.384887,0.3689 0.577334,0.8179 0.577342,1.3471 l 0,23.0937 c -8e-6,0.5292 -0.192455,0.9863 -0.577342,1.3712 -0.368865,0.3688 -0.817908,0.5533 -1.347132,0.5533 -0.529235,0 -0.986297,-0.1845 -1.371187,-0.5533 -0.368861,-0.3849 -0.55329,-0.842 -0.553286,-1.3712 l 0,-23.0937"
             style="marker:none"
             id="path4210" />
          <path
             d="m -66.255765,-1017.6735 c 2.66217,0 4.931443,-0.9381 6.807824,-2.8145 1.876337,-1.8764 2.814517,-4.1456 2.814542,-6.8078 -2.5e-5,-2.6622 -0.938205,-4.9315 -2.814542,-6.8079 -1.876381,-1.8763 -4.145654,-2.8145 -6.807824,-2.8145 -2.6622,0 -4.931473,0.9382 -6.807824,2.8145 -1.876368,1.8764 -2.814547,4.1457 -2.814542,6.8079 -5e-6,2.6622 0.938174,4.9314 2.814542,6.8078 1.876351,1.8764 4.145624,2.8145 6.807824,2.8145 m -9.622366,-19.0523 c 0.03207,-0.032 0.06414,-0.064 0.09622,-0.096 2.630105,-2.6301 5.805482,-3.9451 9.526142,-3.9451 3.720629,0 6.896007,1.315 9.526143,3.9451 2.630085,2.6302 3.945141,5.8055 3.94517,9.5262 -2.9e-5,3.7206 -1.315085,6.896 -3.94517,9.5261 -2.630136,2.6301 -5.805514,3.9452 -9.526143,3.9452 -3.72066,0 -6.896037,-1.3151 -9.526142,-3.9452 -2.630117,-2.6301 -3.945172,-5.8055 -3.94517,-9.5261 l 0,-23.1418 c -2e-6,-0.5292 0.184426,-0.9783 0.553286,-1.3472 0.384892,-0.3848 0.841954,-0.5773 1.371187,-0.5773 0.529226,0 0.978269,0.1925 1.347131,0.5773 0.384889,0.3689 0.577337,0.818 0.577342,1.3472 l 0,13.7118"
             style="marker:none"
             id="path4212" />
          <path
             d="m -48.935512,-1038.8427 c -2e-6,-0.5292 0.184426,-0.9782 0.553286,-1.3471 0.384892,-0.3849 0.841954,-0.5773 1.371187,-0.5773 0.529226,0 0.978269,0.1924 1.347131,0.5773 0.384889,0.3689 0.577336,0.8179 0.577342,1.3471 l 0,2.1169 c 2.694254,-2.6942 5.901706,-4.0413 9.622366,-4.0413 1.876344,0 3.60035,0.3207 5.172022,0.9622 0.28865,0.1123 0.553265,0.2807 0.793845,0.5052 0.368836,0.3849 0.553264,0.8419 0.553286,1.3711 -2.2e-5,0.5293 -0.192469,0.9864 -0.577342,1.3712 -0.368878,0.3689 -0.817921,0.5533 -1.347131,0.5533 -0.304728,0 -0.58538,-0.064 -0.841957,-0.1924 -1.138665,-0.4811 -2.389571,-0.7217 -3.752723,-0.7217 -2.6622,0 -4.931473,0.9382 -6.807824,2.8145 -1.876368,1.8764 -2.814548,4.1457 -2.814542,6.8079 l 0,11.5468 c -6e-6,0.5292 -0.192453,0.9863 -0.577342,1.3712 -0.368862,0.3688 -0.817905,0.5533 -1.347131,0.5533 -0.529233,0 -0.986295,-0.1845 -1.371187,-0.5533 -0.36886,-0.3849 -0.553288,-0.842 -0.553286,-1.3712 l 0,-23.0937"
             style="marker:none"
             id="path4214" />
          <path
             d="m -2.9165362,-1029.2203 c -0.3528446,-1.8443 -1.234894,-3.4721 -2.6461507,-4.8834 -1.8763817,-1.8763 -4.1456541,-2.8145 -6.8078241,-2.8145 -2.6622,0 -4.931473,0.9382 -6.807824,2.8145 -1.411287,1.4113 -2.293337,3.0391 -2.64615,4.8834 l 18.9079488,0 m -2.0447528,8.8526 c 0.5292068,0 0.9782501,0.1924 1.3471312,0.5773 0.3848701,0.3689 0.5773173,0.8179 0.577342,1.3471 -2.47e-5,0.5293 -0.1844532,0.9863 -0.5532861,1.3712 -2.4857995,2.1651 -5.4125996,3.2476 -8.7804091,3.2476 -3.72066,0 -6.896037,-1.3151 -9.526142,-3.9452 -2.630117,-2.6301 -3.945172,-5.8055 -3.94517,-9.5261 -2e-6,-3.7207 1.315053,-6.896 3.94517,-9.5262 2.630105,-2.6301 5.805482,-3.9451 9.526142,-3.9451 3.7206292,0 6.8960068,1.315 9.5261425,3.9451 2.63008582,2.6302 3.9451412,5.8055 3.9451701,9.5262 -2.89e-5,0.5292 -0.19247604,0.9863 -0.577342,1.3712 -0.36888529,0.3688 -0.81792858,0.5532 -1.34713124,0.5532 l -21.00081336,0 c 0.352813,1.8443 1.234863,3.4721 2.64615,4.8834 1.876351,1.8764 4.145624,2.8145 6.807824,2.8145 2.4055739,0 4.4743805,-0.7617 6.2064262,-2.2853 0.3527982,-0.2726 0.7537297,-0.4089 1.2027958,-0.4089"
             style="marker:none"
             id="path4216" />
        </g>
      </g>
    </g>
  </g>
</svg>
