<?xml version="1.0" encoding="UTF-8" standalone="no"?>
<!-- Created with Inkscape (http://www.inkscape.org/) -->

<svg
   xmlns:dc="http://purl.org/dc/elements/1.1/"
   xmlns:cc="http://creativecommons.org/ns#"
   xmlns:rdf="http://www.w3.org/1999/02/22-rdf-syntax-ns#"
   xmlns:svg="http://www.w3.org/2000/svg"
   xmlns="http://www.w3.org/2000/svg"
   xmlns:sodipodi="http://sodipodi.sourceforge.net/DTD/sodipodi-0.dtd"
   xmlns:inkscape="http://www.inkscape.org/namespaces/inkscape"
   width="244.26486"
   height="110.07497"
   id="svg2"
   sodipodi:version="0.32"
   inkscape:version="0.48.4 r9939"
   sodipodi:docname="iune.svg"
   inkscape:output_extension="org.inkscape.output.svg.inkscape"
   version="1.1"
   inkscape:export-filename="/home/koxta/proiektuak/iunetrecet/manuala/iune_txikia.png"
   inkscape:export-xdpi="90"
   inkscape:export-ydpi="90">
  <defs
     id="defs4" />
  <sodipodi:namedview
     id="base"
     pagecolor="#ffffff"
     bordercolor="#666666"
     borderopacity="1.0"
     inkscape:pageopacity="0.0"
     inkscape:pageshadow="2"
     inkscape:zoom="1.5718696"
     inkscape:cx="184.59802"
     inkscape:cy="-16.527328"
     inkscape:document-units="mm"
     inkscape:current-layer="layer1"
     inkscape:window-width="1398"
     inkscape:window-height="1029"
     inkscape:window-x="0"
     inkscape:window-y="19"
     showgrid="false"
     showguides="true"
     inkscape:guide-bbox="true"
     units="px"
     inkscape:snap-page="true"
     inkscape:snap-to-guides="true"
     inkscape:window-maximized="0"
     borderlayer="false"
     fit-margin-top="0"
     fit-margin-left="0"
     fit-margin-right="0"
     fit-margin-bottom="0"
     inkscape:showpageshadow="false"
     showborder="false" />
  <metadata
     id="metadata7">
    <rdf:RDF>
      <cc:Work
         rdf:about="">
        <dc:format>image/svg+xml</dc:format>
        <dc:type
           rdf:resource="http://purl.org/dc/dcmitype/StillImage" />
        <dc:title />
      </cc:Work>
    </rdf:RDF>
  </metadata>
  <g
     inkscape:label="Capa 1"
     inkscape:groupmode="layer"
     id="layer1"
     transform="translate(-27.631361,-848.38807)">
    <g
       transform="matrix(1.7238307,0,0,1.7238307,-155.56504,-599.45078)"
       id="g9609">
      <path
         d="m 233.8019,883.30084 c 2.26321,-0.43283 4.26075,-1.51498 5.99264,-3.24635 2.30256,-2.302 3.45385,-5.08602 3.45389,-8.35211 -4e-5,-3.26609 -1.15133,-6.05014 -3.45389,-8.35205 -1.73189,-1.73146 -3.72943,-2.81361 -5.99264,-3.24644 l 0,23.19695 m -10.86351,-2.50855 c -1e-5,0.64922 -0.23617,1.2002 -0.70848,1.65269 -0.45265,0.47223 -1.00371,0.70834 -1.65314,0.70834 -0.64945,0 -1.21035,-0.22629 -1.68267,-0.67877 -2.65683,-3.04972 -3.98525,-6.64042 -3.98525,-10.77217 0,-4.56462 1.61378,-8.46028 4.84135,-11.68699 3.22755,-3.22671 7.12424,-4.84011 11.69007,-4.84011 4.5658,0 8.46249,1.6134 11.69007,4.84011 3.22753,3.22671 4.84131,7.12237 4.84134,11.68699 -3e-5,4.56459 -1.61381,8.46025 -4.84134,11.68705 -3.22758,3.22672 -7.12427,4.84002 -11.69007,4.84002 -0.64947,0 -1.21035,-0.23611 -1.68267,-0.70825 -0.45266,-0.45257 -0.67897,-1.00347 -0.67897,-1.65269 l 0,-25.76462 c -2.26325,0.43283 -4.26078,1.51498 -5.99263,3.24644 -2.30261,2.30191 -3.4539,5.08596 -3.4539,8.35205 0,2.95131 0.93482,5.48929 2.80444,7.61431 0.33456,0.43284 0.50184,0.9247 0.50185,1.4756"
         style="font-size:226.59182739px;font-style:normal;font-variant:normal;font-weight:normal;font-stretch:normal;text-indent:0;text-align:start;text-decoration:none;line-height:125%;letter-spacing:0px;word-spacing:0px;text-transform:none;direction:ltr;block-progression:tb;writing-mode:lr-tb;text-anchor:start;color:#000000;fill:#000000;fill-opacity:1;fill-rule:nonzero;stroke:none;stroke-width:1px;marker:none;visibility:visible;font-family:Comfortaa;-inkscape-font-specification:Comfortaa"
         id="path37252-6-1-3-3-6-1"
         inkscape:connector-curvature="0" />
      <path
         inkscape:connector-curvature="0"
         id="path37254-7-6-8-2-0-4"
         d="m 207.82273,888.23338 c 0.56475,0 1.05506,-0.18419 1.48587,-0.54126 0.0597,-0.0514 0.10712,-0.11722 0.1637,-0.17625 0.23615,-0.22628 0.42339,-0.46726 0.54146,-0.74276 0.11317,-0.2755 0.1763,-0.58176 0.1763,-0.90637 l 0,-15.34586 c 0,-4.23018 -1.504,-7.854 -4.49541,-10.86425 -0.0748,-0.0748 -0.15105,-0.14152 -0.22666,-0.21403 l 0,0.0131 c -0.369,-0.3566 -0.75843,-0.69505 -1.14589,-1.00712 -0.19373,-0.15604 -0.3809,-0.30833 -0.57924,-0.45324 -0.19833,-0.1448 -0.40147,-0.28167 -0.60443,-0.41534 -0.4059,-0.26754 -0.82226,-0.50731 -1.24662,-0.73024 -0.21218,-0.11141 -0.42541,-0.2144 -0.6422,-0.31469 -0.20648,-0.0951 -0.41904,-0.19186 -0.62961,-0.27699 -0.0329,-0.0131 -0.0677,-0.0244 -0.10074,-0.0374 -0.19755,-0.0786 -0.40323,-0.15716 -0.60443,-0.22656 -0.19078,-0.0655 -0.38523,-0.13125 -0.57923,-0.18888 -0.0334,-0.0103 -0.0672,-0.0149 -0.10074,-0.0252 -0.20344,-0.0589 -0.41006,-0.11348 -0.61702,-0.16371 -0.17768,-0.043 -0.34859,-0.0889 -0.52887,-0.12582 -0.30801,-0.0626 -0.62883,-0.10693 -0.94441,-0.15108 -0.0171,0 -0.0333,-0.0103 -0.0504,-0.0131 -0.4636,-0.0636 -0.93039,-0.11506 -1.41033,-0.13844 -0.0256,0 -0.0499,0 -0.0755,0 -0.25558,-0.0112 -0.50793,-0.0131 -0.76813,-0.0131 -0.30574,0 -0.60736,0.01 -0.90663,0.0252 -0.46214,0.0244 -0.913,0.0645 -1.35996,0.12592 -0.26743,0.0365 -0.53131,0.0758 -0.79331,0.12582 -0.0304,0.01 -0.0578,0.0196 -0.0882,0.0252 -0.18494,0.0365 -0.37184,0.0702 -0.55406,0.11328 -0.0295,0.01 -0.0587,0.0178 -0.0882,0.0252 -0.11386,0.0281 -0.22719,0.058 -0.33999,0.0879 -0.32386,0.087 -0.64208,0.18083 -0.957,0.28954 -0.20121,0.0692 -0.40687,0.14836 -0.60443,0.22657 -0.0244,0.01 -0.0513,0.0149 -0.0755,0.0252 -0.009,0 -0.0165,0.01 -0.0251,0.0122 -0.20384,0.0823 -0.4045,0.17241 -0.60443,0.26437 -0.009,0 -0.0167,0.01 -0.0251,0.0131 -0.0462,0.0215 -0.0926,0.0411 -0.13851,0.0626 -0.16784,0.0795 -0.33859,0.1654 -0.50369,0.25183 -0.42436,0.22283 -0.84072,0.46268 -1.24663,0.73014 -0.20294,0.13367 -0.40608,0.27052 -0.60443,0.41543 -0.19834,0.14482 -0.3855,0.2972 -0.57924,0.45315 -0.38745,0.31207 -0.76428,0.65052 -1.13329,1.00712 l 0,-0.0252 c -0.08,0.0767 -0.16012,0.14799 -0.23925,0.22657 -2.99142,3.01033 -4.48282,6.63406 -4.48281,10.86424 l 0,15.34586 c 1e-5,0.2435 0.0217,0.47662 0.0882,0.69243 0.11071,0.35969 0.32184,0.67391 0.61703,0.9567 0.11067,0.11544 0.21755,0.22751 0.33998,0.31479 0.003,0 0.01,0 0.0127,0 0.0599,0.0421 0.12618,0.0907 0.18889,0.12582 0.003,0 0.01,0 0.0127,0 0.32903,0.18448 0.68963,0.27699 1.09551,0.27699 0.0812,0 0.16084,-0.01 0.23926,-0.0131 0.23431,-0.0225 0.46075,-0.0748 0.66739,-0.1637 0.20728,-0.087 0.39614,-0.21329 0.57924,-0.36502 0.0597,-0.0514 0.10711,-0.11722 0.1637,-0.17624 0.23615,-0.22629 0.42338,-0.46726 0.54146,-0.74276 0.11808,-0.2755 0.17628,-0.58177 0.17629,-0.90637 l 0,-15.34586 c 0,-0.18326 0.005,-0.36137 0.0127,-0.54136 0.0162,-0.35978 0.0398,-0.71086 0.0882,-1.05746 0.0489,-0.34658 0.11998,-0.68625 0.20148,-1.01965 0.0807,-0.33341 0.1766,-0.66175 0.28961,-0.98197 0.11301,-0.32021 0.24507,-0.63724 0.39037,-0.94416 0.50852,-1.07439 1.21142,-2.07113 2.11548,-2.98358 0.39115,-0.38738 0.80055,-0.73014 1.22144,-1.04483 0.003,0 0.01,0 0.0127,0 0.27795,-0.20748 0.55277,-0.4159 0.84367,-0.59168 1.60891,-0.98009 3.43274,-1.46036 5.45243,-1.46036 1.27862,0 2.47105,0.19888 3.58876,0.59168 0.004,0 0.01,0 0.0127,0 0.15648,0.0552 0.31258,0.12592 0.46591,0.18887 0.004,0 0.01,0 0.0127,0 0.15326,0.0627 0.30322,0.13059 0.45332,0.20141 0.003,0 0.01,0 0.0127,0 0.15012,0.0711 0.29379,0.1478 0.44073,0.22657 0.003,0 0.01,0 0.0127,0 0.14699,0.0786 0.28431,0.16511 0.42814,0.25183 0.003,0 0.01,0 0.0127,0 0.14397,0.087 0.28733,0.19476 0.42813,0.28953 0.003,0 0.01,0 0.0127,0 0.57442,0.38738 1.11547,0.83051 1.63698,1.34698 1.16237,1.17317 1.99731,2.48694 2.50585,3.92774 0.0565,0.16007 0.11526,0.31498 0.16369,0.4784 0.0969,0.32676 0.17468,0.66708 0.23926,1.00713 0.12915,0.67999 0.20147,1.38196 0.20147,2.11491 l 0,15.34586 c 0,0.2434 0.0217,0.47652 0.0882,0.69233 0.11071,0.35969 0.32183,0.67391 0.61702,0.9568 0.11067,0.11543 0.21757,0.2275 0.34,0.31469 0.003,0 0.01,0 0.0127,0 0.0599,0.0421 0.12617,0.0907 0.18888,0.12591 0.003,0 0.01,0 0.0127,0 0.32903,0.18448 0.68961,0.2769 1.09552,0.2769 z"
         style="font-size:226.59182739px;font-style:normal;font-variant:normal;font-weight:normal;font-stretch:normal;text-indent:0;text-align:start;text-decoration:none;line-height:125%;letter-spacing:0px;word-spacing:0px;text-transform:none;direction:ltr;block-progression:tb;writing-mode:lr-tb;text-anchor:start;color:#000000;fill:#000000;fill-opacity:1;fill-rule:nonzero;stroke:none;stroke-width:1px;marker:none;visibility:visible;font-family:Comfortaa;-inkscape-font-specification:Comfortaa" />
      <path
         inkscape:connector-curvature="0"
         id="path37256-2-8-4-2-6-1"
         d="m 159.40578,888.23338 c 0.5289,0 1.05189,-0.0281 1.56143,-0.0758 0.23632,-0.0215 0.47299,-0.044 0.70517,-0.0758 0.017,0 0.0334,-0.0103 0.0504,-0.0131 0.47124,-0.0665 0.9311,-0.15679 1.38515,-0.26437 0.13048,-0.0308 0.26131,-0.0664 0.39036,-0.10065 0.13762,-0.0365 0.27955,-0.0721 0.41554,-0.11329 0.23539,-0.0702 0.46201,-0.14434 0.69257,-0.22666 0.46111,-0.16464 0.91823,-0.35482 1.35995,-0.56643 0.22086,-0.10589 0.43877,-0.20973 0.65481,-0.32732 0.21601,-0.11759 0.43102,-0.24836 0.64219,-0.37774 1.0559,-0.64669 2.04953,-1.43857 2.98435,-2.37927 3.01105,-2.9906 4.50798,-6.59636 4.508,-10.82643 l 0,-15.34588 c -1e-5,-0.2434 -0.0217,-0.47381 -0.0882,-0.69234 -0.1107,-0.36427 -0.32183,-0.69945 -0.61702,-0.9945 -0.11067,-0.11066 -0.21756,-0.21861 -0.33999,-0.30215 -0.003,0 -0.01,0 -0.0127,0 -0.0617,-0.0403 -0.12473,-0.0795 -0.18888,-0.11329 -0.003,0 -0.01,0 -0.0127,0 -0.0639,-0.0327 -0.12245,-0.0618 -0.18888,-0.088 -0.27848,-0.11618 -0.57767,-0.17624 -0.90664,-0.17624 -0.0812,0 -0.16083,0.01 -0.23924,0.0122 -0.47164,0.043 -0.89971,0.20309 -1.25923,0.50357 -0.0572,0.0477 -0.0967,0.10925 -0.1511,0.1637 -0.23617,0.23611 -0.42339,0.48757 -0.54146,0.76793 -0.11808,0.28035 -0.1763,0.5943 -0.1763,0.919 l 0,15.34579 c 0,0.18326 -0.005,0.36156 -0.0127,0.54135 -0.0326,0.71938 -0.12663,1.41191 -0.28961,2.07712 -0.0808,0.33262 -0.17663,0.66284 -0.28963,0.98193 -0.11301,0.31909 -0.24506,0.62602 -0.39036,0.93164 -0.50853,1.06951 -1.21142,2.05456 -2.11549,2.95832 -0.26075,0.26071 -0.5319,0.50207 -0.80589,0.73023 -0.1397,0.11627 -0.28499,0.232 -0.42813,0.33985 -0.27795,0.20936 -0.55277,0.40169 -0.84368,0.57906 -0.29381,0.17923 -0.59959,0.34434 -0.90664,0.49102 -0.30217,0.145 -0.61641,0.27708 -0.93183,0.39027 -0.16012,0.0571 -0.32764,0.1147 -0.49108,0.16363 -0.97787,0.29326 -2.02324,0.44059 -3.12287,0.44059 -1.28291,0 -2.48042,-0.20505 -3.60136,-0.60422 -0.47879,-0.17109 -0.9368,-0.37249 -1.38514,-0.61693 -0.003,0 -0.01,0 -0.0127,0 -0.14624,-0.0795 -0.28513,-0.17662 -0.42814,-0.26436 -0.003,0 -0.01,0 -0.0127,0 -0.143,-0.088 -0.28837,-0.18121 -0.42813,-0.2769 -0.003,0 -0.01,0 -0.0127,0 -0.57441,-0.39103 -1.11546,-0.85081 -1.63699,-1.37224 -0.7749,-0.77466 -1.4045,-1.60873 -1.88882,-2.50519 -0.24216,-0.44817 -0.4475,-0.90609 -0.61702,-1.38477 -0.057,-0.1595 -0.1148,-0.32798 -0.1637,-0.49093 -0.0969,-0.3259 -0.17467,-0.65508 -0.23924,-0.99447 -0.1304,-0.67878 -0.20148,-1.38206 -0.20149,-2.115 l 0,-15.34579 c 1e-5,-0.1624 -0.01,-0.32714 -0.0378,-0.4784 -0.0886,-0.45379 -0.31314,-0.85436 -0.66738,-1.20853 -0.11067,-0.11067 -0.21756,-0.21852 -0.33999,-0.30216 -0.003,0 -0.01,0 -0.0127,0 -0.0617,-0.0402 -0.12473,-0.0795 -0.18888,-0.11328 -0.003,0 -0.01,0 -0.0127,0 -0.33391,-0.17306 -0.69386,-0.26437 -1.09553,-0.26437 -0.0812,0 -0.16083,0.01 -0.23924,0.0131 -0.47163,0.043 -0.8997,0.203 -1.25922,0.50357 -0.0572,0.0477 -0.0967,0.10926 -0.15111,0.16361 -0.23616,0.23611 -0.42338,0.48757 -0.54147,0.76793 -0.11808,0.28035 -0.17627,0.5943 -0.17628,0.919 l 0,15.34588 c 2e-5,4.23007 1.50954,7.83574 4.52058,10.82633 0.37394,0.37634 0.7526,0.72827 1.14589,1.05755 0.39331,0.32919 0.79618,0.63677 1.20885,0.91891 0.20633,0.14116 0.41844,0.27354 0.62961,0.40291 0.21119,0.12937 0.42619,0.26006 0.6422,0.37765 0.21603,0.11758 0.43393,0.22151 0.65479,0.32732 0.22087,0.1058 0.4417,0.20804 0.66739,0.30215 0.22572,0.0941 0.46202,0.18204 0.69258,0.26436 0.23055,0.0823 0.45717,0.15604 0.69257,0.22657 0.15237,0.0459 0.3115,0.0851 0.46591,0.12592 0.0856,0.0225 0.16555,0.0543 0.25184,0.0758 0.0246,0.01 0.0509,0.01 0.0755,0.0131 0.21465,0.0505 0.4363,0.0969 0.65479,0.13844 0.42474,0.0814 0.85771,0.14267 1.297,0.18888 0.0685,0.01 0.13265,0.0187 0.20146,0.0252 0.009,7.2e-4 0.0168,-9e-4 0.0251,0 0.24494,0.0215 0.49353,0.0393 0.74294,0.0505 0.004,1.8e-4 0.009,-1.8e-4 0.0127,0 0.25369,0.0112 0.50982,0.0252 0.76812,0.0252 z"
         style="font-size:226.59182739px;font-style:normal;font-variant:normal;font-weight:normal;font-stretch:normal;text-indent:0;text-align:start;text-decoration:none;line-height:125%;letter-spacing:0px;word-spacing:0px;text-transform:none;direction:ltr;block-progression:tb;writing-mode:lr-tb;text-anchor:start;color:#000000;fill:#000000;fill-opacity:1;fill-rule:nonzero;stroke:none;stroke-width:1px;marker:none;visibility:visible;font-family:Comfortaa;-inkscape-font-specification:Comfortaa" />
      <path
         d="m 120.4436,860.10389 c -2.26322,0.43293 -4.26076,1.51508 -5.99265,3.24644 -2.30256,2.30201 -3.45385,5.08605 -3.45388,8.35205 3e-5,3.26609 1.15132,6.05011 3.45388,8.35211 1.73189,1.73146 3.72943,2.81352 5.99265,3.24635 l 0,-23.19695 m 10.8635,2.50864 c 1e-5,-0.6493 0.23617,-1.20021 0.70849,-1.65278 0.45264,-0.47213 1.00369,-0.70824 1.65313,-0.70824 0.64947,0 1.21035,0.22628 1.68267,0.67877 2.65684,3.04962 3.98525,6.64033 3.98525,10.7721 0,4.56468 -1.61378,8.46034 -4.84135,11.68705 -3.22754,3.22672 -7.12424,4.84011 -11.69006,4.84002 -4.5658,9e-5 -8.4625,-1.6133 -11.69008,-4.84002 -3.22753,-3.22671 -4.84131,-7.12237 -4.84135,-11.68705 4e-5,-4.56462 1.61382,-8.46028 4.84135,-11.68699 3.22758,-3.22671 7.12428,-4.84002 11.69008,-4.84011 0.64946,9e-5 1.21035,0.23611 1.68266,0.70833 0.45266,0.45258 0.67898,1.00349 0.67897,1.65269 l 0,25.76454 c 2.26324,-0.43283 4.26078,-1.51489 5.99264,-3.24635 2.3026,-2.302 3.45388,-5.08602 3.45388,-8.35211 0,-2.95121 -0.9348,-5.48933 -2.80443,-7.61425 -0.33456,-0.43284 -0.50184,-0.9247 -0.50185,-1.4756"
         style="font-size:226.59182739px;font-style:normal;font-variant:normal;font-weight:normal;font-stretch:normal;text-indent:0;text-align:start;text-decoration:none;line-height:125%;letter-spacing:0px;word-spacing:0px;text-transform:none;direction:ltr;block-progression:tb;writing-mode:lr-tb;text-anchor:start;color:#000000;fill:#000000;fill-opacity:1;fill-rule:nonzero;stroke:none;stroke-width:1px;marker:none;visibility:visible;font-family:Comfortaa;-inkscape-font-specification:Comfortaa"
         id="path37258-8-6-9-6-9-9"
         inkscape:connector-curvature="0" />
      <path
         inkscape:connector-curvature="0"
         id="path37292-0-7-4-5-7-4-7"
         d="m 118.33865,844.36163 c 0,-2.4662 1.99976,-4.46543 4.46658,-4.46543 2.46682,0 4.46657,1.99923 4.46657,4.46543 0,2.46617 -1.99975,4.46541 -4.46657,4.46541 -2.46682,0 -4.46658,-1.99924 -4.46658,-4.46541 z"
         style="color:#000000;fill:#d40000;fill-opacity:1;fill-rule:nonzero;stroke:none;stroke-width:2;marker:none;visibility:visible;display:inline;overflow:visible;enable-background:accumulate" />
      <g
         transform="matrix(-0.17998787,0,0,-0.17998787,247.97172,1029.3086)"
         id="g7241-3-7">
        <path
           id="path3576-5-9-1"
           style="font-size:8.73411083px;font-style:normal;font-variant:normal;font-weight:normal;font-stretch:normal;text-indent:0;text-align:start;text-decoration:none;line-height:125%;letter-spacing:0px;word-spacing:0px;text-transform:none;direction:ltr;block-progression:tb;writing-mode:lr-tb;text-anchor:start;color:#000000;fill:#d40000;fill-opacity:1;fill-rule:nonzero;stroke:none;stroke-width:1px;marker:none;visibility:visible;font-family:Comfortaa;-inkscape-font-specification:Comfortaa"
           d="m 555.76781,1026.7663 c 0,2.4147 0.85117,4.473 2.55357,6.175 1.70245,1.7019 3.7613,2.5529 6.17669,2.5529 2.41535,0 4.47419,-0.851 6.17665,-2.5529 1.70239,-1.702 2.55357,-3.7603 2.55357,-6.175 0,-2.4148 -0.85118,-4.4731 -2.55357,-6.1751 -1.70246,-1.702 -3.7613,-2.5529 -6.17665,-2.5529 -2.41539,0 -4.47424,0.8509 -6.17669,2.5529 -1.7024,1.702 -2.55357,3.7603 -2.55357,6.1751 m 0,20.9907 c 0,0.4803 -0.16717,0.8873 -0.50203,1.2219 -0.34914,0.3491 -0.76389,0.5236 -1.24412,0.5236 -0.47981,0 -0.88757,-0.1745 -1.22222,-0.5236 -0.34914,-0.3347 -0.52372,-0.7419 -0.52372,-1.2219 l 0,-20.9907 c 6e-5,-3.3749 1.19318,-6.2551 3.57943,-8.6408 2.38625,-2.3856 5.26722,-3.5784 8.64298,-3.5784 3.3757,0 6.25668,1.1928 8.64292,3.5784 2.38625,2.3857 3.57938,5.2659 3.57938,8.6408 0,3.3748 -1.19313,6.255 -3.57938,8.6407 -2.38624,2.3856 -5.26722,3.5784 -8.64292,3.5784 -3.37576,0 -6.25673,-1.1928 -8.64298,-3.5784 -0.0317,-0.032 -0.0582,-0.058 -0.0873,-0.087 l 0,12.4373"
           inkscape:connector-curvature="0" />
        <path
           id="path3578-8-0-7"
           style="font-size:8.73411083px;font-style:normal;font-variant:normal;font-weight:normal;font-stretch:normal;text-indent:0;text-align:start;text-decoration:none;line-height:125%;letter-spacing:0px;word-spacing:0px;text-transform:none;direction:ltr;block-progression:tb;writing-mode:lr-tb;text-anchor:start;color:#000000;fill:#d40000;fill-opacity:1;fill-rule:nonzero;stroke:none;stroke-width:1px;marker:none;visibility:visible;font-family:Comfortaa;-inkscape-font-specification:Comfortaa"
           d="m 543.10892,1044.2222 c 0,-0.5964 0.21795,-1.1129 0.65475,-1.5492 0.42162,-0.4221 0.93127,-0.6328 1.52783,-0.6328 0.59656,0 1.11309,0.211 1.54957,0.6328 0.42162,0.4363 0.63296,0.9528 0.63296,1.5492 0,0.5964 -0.21108,1.1055 -0.63296,1.5274 -0.43643,0.4363 -0.95301,0.6546 -1.54957,0.6546 -0.59656,0 -1.10584,-0.2184 -1.52783,-0.6546 -0.43643,-0.4216 -0.65475,-0.931 -0.65475,-1.5274 m 3.92862,-6.9824 c 0,0.4797 -0.16716,0.8874 -0.50203,1.2219 -0.34914,0.3491 -0.76394,0.5236 -1.24406,0.5236 -0.47981,0 -0.88757,-0.1745 -1.22222,-0.5236 -0.34915,-0.3347 -0.52372,-0.7419 -0.52372,-1.2219 l 0,-20.9471 c 0,-0.4797 0.17457,-0.8947 0.52372,-1.2438 0.33486,-0.3347 0.74204,-0.5019 1.22222,-0.5019 0.47981,0 0.89481,0.1672 1.24406,0.5019 0.33487,0.3491 0.50203,0.7637 0.50203,1.2438 l 0,20.9471"
           inkscape:connector-curvature="0" />
        <path
           id="path3580-2-3-9"
           style="font-size:8.73411083px;font-style:normal;font-variant:normal;font-weight:normal;font-stretch:normal;text-indent:0;text-align:start;text-decoration:none;line-height:125%;letter-spacing:0px;word-spacing:0px;text-transform:none;direction:ltr;block-progression:tb;writing-mode:lr-tb;text-anchor:start;color:#000000;fill:#d40000;fill-opacity:1;fill-rule:nonzero;stroke:none;stroke-width:1px;marker:none;visibility:visible;font-family:Comfortaa;-inkscape-font-specification:Comfortaa"
           d="m 533.98581,1026.7663 c 1.32411,0.4944 2.24807,1.0109 2.77184,1.5492 1.0331,1.0182 1.54963,2.2474 1.54963,3.6875 0,1.4401 -0.53837,2.6984 -1.61506,3.7749 -2.09524,2.1383 -4.83074,3.2075 -8.20645,3.2075 -3.65216,0 -6.7805,-1.4619 -9.38501,-4.3858 -0.23277,-0.2761 -0.34174,-0.6182 -0.32746,-1.0255 0,-0.4802 0.17457,-0.8947 0.52372,-1.2438 0.33486,-0.3347 0.74209,-0.5019 1.22222,-0.5019 0.47981,0 0.86577,0.1529 1.15678,0.4586 0.29095,0.3057 0.50203,0.5235 0.63295,0.6546 1.7024,1.702 3.76125,2.5529 6.17665,2.5529 2.41534,0 4.34331,-0.7564 5.78374,-2.2692 0.34915,-0.4221 0.52372,-0.9238 0.52372,-1.5056 -0.0476,-0.6837 -0.40046,-1.1492 -1.0695,-1.3965 l -10.73822,-3.5566 c -1.32405,-0.4945 -2.24801,-1.0111 -2.77184,-1.5492 -1.03304,-1.0183 -1.54957,-2.2475 -1.54962,-3.6876 5e-5,-1.4402 0.53837,-2.6984 1.61511,-3.7749 2.09524,-2.1383 4.83074,-3.2075 8.20645,-3.2075 3.66671,0 6.79499,1.4619 9.38502,4.3858 0.21795,0.3056 0.32745,0.6473 0.32745,1.0255 0,0.4803 -0.16717,0.8874 -0.50203,1.2219 -0.34914,0.3491 -0.76388,0.5236 -1.24406,0.5236 -0.47981,0 -0.86573,-0.1528 -1.15673,-0.4585 -0.29096,-0.3057 -0.50203,-0.5236 -0.63296,-0.6546 -1.7024,-1.702 -3.7613,-2.5529 -6.17664,-2.5529 -2.4154,0 -4.34326,0.7563 -5.7838,2.2692 -0.34914,0.4215 -0.52372,0.9238 -0.52372,1.5056 0.0476,0.6837 0.39993,1.1492 1.06944,1.3965 l 10.73822,3.5566"
           inkscape:connector-curvature="0" />
        <path
           id="path3582-1-5-6"
           style="font-size:8.73411083px;font-style:normal;font-variant:normal;font-weight:normal;font-stretch:normal;text-indent:0;text-align:start;text-decoration:none;line-height:125%;letter-spacing:0px;word-spacing:0px;text-transform:none;direction:ltr;block-progression:tb;writing-mode:lr-tb;text-anchor:start;color:#000000;fill:#d40000;fill-opacity:1;fill-rule:nonzero;stroke:none;stroke-width:1px;marker:none;visibility:visible;font-family:Comfortaa;-inkscape-font-specification:Comfortaa"
           d="m 494.37229,1028.5118 c 0.32005,1.6729 1.12039,3.1494 2.40085,4.4295 1.7024,1.7019 3.7613,2.5529 6.17664,2.5529 2.4154,0 4.47424,-0.851 6.17664,-2.5529 1.28041,-1.2801 2.08075,-2.7566 2.4008,-4.4295 l -17.15493,0 m 1.85518,-8.0297 c -0.47981,0 -0.88757,-0.1745 -1.22227,-0.5236 -0.34915,-0.3347 -0.52372,-0.7418 -0.52372,-1.2219 5e-5,-0.4797 0.16717,-0.8946 0.50203,-1.2438 2.25537,-1.9637 4.91078,-2.9456 7.96638,-2.9456 3.3757,0 6.25668,1.1928 8.64292,3.5784 2.38625,2.3857 3.57943,5.2659 3.57943,8.6408 0,3.3748 -1.19318,6.255 -3.57943,8.6407 -2.38624,2.3856 -5.26722,3.5784 -8.64292,3.5784 -3.37571,0 -6.25668,-1.1928 -8.64298,-3.5784 -2.3862,-2.3857 -3.57937,-5.2659 -3.57943,-8.6407 6e-5,-0.4803 0.17458,-0.8947 0.52372,-1.2437 0.33486,-0.3348 0.74209,-0.5019 1.22222,-0.5019 l 19.05374,0 c -0.32005,-1.673 -1.12038,-3.1494 -2.40079,-4.4295 -1.7024,-1.702 -3.76125,-2.5529 -6.17664,-2.5529 -2.18258,0 -4.05955,0.6909 -5.63102,2.0729 -0.32005,0.247 -0.68385,0.3707 -1.09129,0.3707"
           inkscape:connector-curvature="0" />
        <path
           id="path3584-22-6-0"
           style="font-size:8.73411083px;font-style:normal;font-variant:normal;font-weight:normal;font-stretch:normal;text-indent:0;text-align:start;text-decoration:none;line-height:125%;letter-spacing:0px;word-spacing:0px;text-transform:none;direction:ltr;block-progression:tb;writing-mode:lr-tb;text-anchor:start;color:#000000;fill:#d40000;fill-opacity:1;fill-rule:nonzero;stroke:none;stroke-width:1px;marker:none;visibility:visible;font-family:Comfortaa;-inkscape-font-specification:Comfortaa"
           d="m 481.56068,1044.2222 c 0,-0.5964 0.21795,-1.1129 0.65475,-1.5492 0.42162,-0.4221 0.93122,-0.6328 1.52778,-0.6328 0.59661,0 1.11313,0.211 1.54962,0.6328 0.42162,0.4363 0.63296,0.9528 0.63296,1.5492 0,0.5964 -0.21108,1.1055 -0.63296,1.5274 -0.43643,0.4363 -0.95301,0.6546 -1.54962,0.6546 -0.59656,0 -1.10584,-0.2184 -1.52778,-0.6546 -0.43643,-0.4216 -0.65475,-0.931 -0.65475,-1.5274 m 3.92857,-6.9824 c 0,0.4797 -0.16717,0.8874 -0.50203,1.2219 -0.34914,0.3491 -0.76394,0.5236 -1.24412,0.5236 -0.47981,0 -0.88757,-0.1745 -1.22222,-0.5236 -0.34914,-0.3347 -0.52372,-0.7419 -0.52372,-1.2219 l 0,-20.9471 c 0,-0.4797 0.17458,-0.8947 0.52372,-1.2438 0.33486,-0.3347 0.74204,-0.5019 1.22222,-0.5019 0.48034,0 0.89487,0.1672 1.24412,0.5019 0.33486,0.3491 0.50203,0.7637 0.50203,1.2438 l 0,20.9471"
           inkscape:connector-curvature="0" />
        <path
           style="font-size:8.73411083px;font-style:normal;font-variant:normal;font-weight:normal;font-stretch:normal;text-indent:0;text-align:start;text-decoration:none;line-height:125%;letter-spacing:0px;word-spacing:0px;text-transform:none;direction:ltr;block-progression:tb;writing-mode:lr-tb;text-anchor:start;color:#000000;fill:#d40000;fill-opacity:1;fill-rule:nonzero;stroke:none;stroke-width:1px;marker:none;visibility:visible;font-family:Comfortaa;-inkscape-font-specification:Comfortaa"
           d="m 455.75389,1014.4857 c -0.47981,0 -0.80795,0.1613 -1.15721,0.4956 -0.33486,0.349 -0.49568,0.8421 -0.49568,1.3222 l 0,11.4037 c 6e-5,3.1275 1.08013,5.722 3.3063,7.9331 0.0545,0.055 0.11004,0.1116 0.16558,0.1655 0.54562,0.5273 1.05294,0.9267 1.65315,1.3222 0.61021,0.4173 1.15096,0.7134 1.81846,0.9916 0.0423,0.016 0.12168,-0.016 0.16558,0 1.29586,0.5178 2.62367,0.8264 4.13288,0.8264 0.78208,0 1.58961,-0.026 2.3144,-0.1656 1.4187,-0.2639 2.76719,-0.8617 3.96756,-1.6527 0.5498,-0.376 1.14985,-0.8333 1.65315,-1.3222 0.055,-0.054 0.11056,-0.11 0.16558,-0.1655 2.22617,-2.2111 3.30624,-4.8055 3.3063,-7.933 l 0,-11.4038 c -6e-5,-0.4797 -0.14654,-0.9731 -0.49568,-1.3222 -0.33486,-0.3347 -0.84239,-0.4955 -1.32252,-0.4955 -0.24017,0 -0.45389,0.081 -0.66126,0.1655 -0.20367,0.084 -0.32851,0.1629 -0.49568,0.3306 -0.34915,0.349 -0.49568,0.8424 -0.49568,1.3221 l 0,11.4038 c 0,2.1674 -0.78658,3.9265 -2.31441,5.4539 -1.15673,1.1565 -2.45883,1.8594 -3.96756,2.1486 -0.50203,0.096 -1.11112,0.1655 -1.65315,0.1655 -2.16803,0 -3.91307,-0.7719 -5.45539,-2.3138 -0.38194,-0.3818 -0.70543,-0.735 -0.99189,-1.1569 -0.28936,-0.422 -0.6338,-0.8603 -0.82657,-1.3222 -0.38194,-0.9237 -0.49568,-1.8911 -0.49568,-2.9749 l 0,-11.4037 c 0,-0.4797 -0.14654,-0.9731 -0.49568,-1.3222 -0.33486,-0.3348 -0.84229,-0.4955 -1.32252,-0.4955 z"
           id="path3586-0-8-1"
           inkscape:connector-curvature="0" />
        <path
           id="path3588-70-8-0"
           style="font-size:8.73411083px;font-style:normal;font-variant:normal;font-weight:normal;font-stretch:normal;text-indent:0;text-align:start;text-decoration:none;line-height:125%;letter-spacing:0px;word-spacing:0px;text-transform:none;direction:ltr;block-progression:tb;writing-mode:lr-tb;text-anchor:start;color:#000000;fill:#d40000;fill-opacity:1;fill-rule:nonzero;stroke:none;stroke-width:1px;marker:none;visibility:visible;font-family:Comfortaa;-inkscape-font-specification:Comfortaa"
           d="m 438.34594,1035.4942 c 2.41534,0 4.47424,-0.851 6.17664,-2.5529 1.7024,-1.702 2.55357,-3.7603 2.55357,-6.175 0,-2.4148 -0.85117,-4.4731 -2.55357,-6.1751 -1.7024,-1.702 -3.7613,-2.5529 -6.17664,-2.5529 -2.4154,0 -4.47424,0.8509 -6.17664,2.5529 -1.70245,1.702 -2.55363,3.7603 -2.55363,6.1751 0,2.4147 0.85118,4.473 2.55363,6.175 1.7024,1.7019 3.76124,2.5529 6.17664,2.5529 m -8.73027,-17.2814 c 2.4445,-2.4438 5.35457,-3.6657 8.73027,-3.6657 3.3757,0 6.25668,1.1928 8.64293,3.5784 2.38624,2.3857 3.57937,5.2659 3.57937,8.6408 0,3.3748 -1.19313,6.255 -3.57937,8.6407 -2.38625,2.3856 -5.26723,3.5784 -8.64293,3.5784 -3.3757,0 -6.25668,-1.1928 -8.64298,-3.5784 -2.38619,-2.3857 -3.57937,-5.2659 -3.57942,-8.6407 l 0,-10.4736 c 5e-5,-0.4797 0.17457,-0.8947 0.52371,-1.2438 0.33487,-0.3347 0.74204,-0.5019 1.22222,-0.5019 0.47981,0 0.89487,0.1672 1.24407,0.5019 0.33486,0.3491 0.50203,0.7637 0.50203,1.2438 l 0,1.9201"
           inkscape:connector-curvature="0" />
        <path
           id="path3590-7-1-7"
           style="font-size:8.73411083px;font-style:normal;font-variant:normal;font-weight:normal;font-stretch:normal;text-indent:0;text-align:start;text-decoration:none;line-height:125%;letter-spacing:0px;word-spacing:0px;text-transform:none;direction:ltr;block-progression:tb;writing-mode:lr-tb;text-anchor:start;color:#000000;fill:#d40000;fill-opacity:1;fill-rule:nonzero;stroke:none;stroke-width:1px;marker:none;visibility:visible;font-family:Comfortaa;-inkscape-font-specification:Comfortaa"
           d="m 412.32977,1018.0383 c -0.48034,0 -0.88757,-0.1746 -1.22222,-0.5236 -0.34915,-0.3348 -0.52372,-0.7419 -0.52372,-1.2219 0,-0.4797 0.17457,-0.8947 0.52372,-1.2438 0.33486,-0.3347 0.74204,-0.5019 1.22222,-0.5019 5.82019,0 8.73021,2.9094 8.73021,8.728 l 0,12.2191 1.7461,0 c 0.47981,0 0.89481,0.1672 1.24406,0.5019 0.33487,0.3491 0.50203,0.7637 0.50203,1.2438 0,0.4797 -0.16716,0.8873 -0.50203,1.2219 -0.34914,0.349 -0.76394,0.5236 -1.24406,0.5236 l -1.7461,0 0,8.728 c 0,0.4796 -0.16717,0.8872 -0.50203,1.2219 -0.34914,0.349 -0.76388,0.5235 -1.24401,0.5235 -0.47981,0 -0.88757,-0.1745 -1.22227,-0.5235 -0.34915,-0.3348 -0.52372,-0.742 -0.52372,-1.2219 l 0,-8.728 -3.51393,0 c -0.47981,-10e-5 -0.88757,-0.1746 -1.22222,-0.5236 -0.34915,-0.3348 -0.52372,-0.7419 -0.52372,-1.2219 0,-0.4797 0.17457,-0.8947 0.52372,-1.2438 0.33486,-0.3347 0.74209,-0.5019 1.22222,-0.5019 l 3.51393,0 0,-12.2191 c 0,-3.4911 -1.74599,-5.2368 -5.23813,-5.2368"
           inkscape:connector-curvature="0" />
        <path
           id="path3592-97-53-2"
           style="font-size:8.73411083px;font-style:normal;font-variant:normal;font-weight:normal;font-stretch:normal;text-indent:0;text-align:start;text-decoration:none;line-height:125%;letter-spacing:0px;word-spacing:0px;text-transform:none;direction:ltr;block-progression:tb;writing-mode:lr-tb;text-anchor:start;color:#000000;fill:#d40000;fill-opacity:1;fill-rule:nonzero;stroke:none;stroke-width:1px;marker:none;visibility:visible;font-family:Comfortaa;-inkscape-font-specification:Comfortaa"
           d="m 387.88507,1018.0383 c -0.47981,0 -0.88752,-0.1746 -1.22222,-0.5236 -0.34915,-0.3348 -0.52372,-0.7419 -0.52372,-1.2219 0,-0.4797 0.17457,-0.8947 0.52372,-1.2438 0.33486,-0.3347 0.74209,-0.5019 1.22222,-0.5019 l 17.46053,0 c 0.47981,0 0.89481,0.1672 1.24406,0.5019 0.33487,0.3491 0.50203,0.7637 0.50203,1.2438 0,0.4072 -0.11638,0.7637 -0.34914,1.0692 l -15.12512,18.1323 13.72833,0 c 0.47981,0 0.89481,0.1671 1.24406,0.5019 0.33487,0.349 0.50203,0.7636 0.50203,1.2437 0,0.4797 -0.16716,0.8874 -0.50203,1.2219 -0.34914,0.3491 -0.76394,0.5236 -1.24406,0.5236 l -17.46059,0 c -0.47981,0 -0.88751,-0.1745 -1.22222,-0.5236 -0.34914,-0.3347 -0.52372,-0.7419 -0.52372,-1.2219 0,-0.4363 0.13808,-0.8146 0.41475,-1.1346 l 15.08153,-18.0669 -13.75023,0"
           inkscape:connector-curvature="0" />
        <path
           id="path3594-9-1-5"
           style="font-size:8.73411083px;font-style:normal;font-variant:normal;font-weight:normal;font-stretch:normal;text-indent:0;text-align:start;text-decoration:none;line-height:125%;letter-spacing:0px;word-spacing:0px;text-transform:none;direction:ltr;block-progression:tb;writing-mode:lr-tb;text-anchor:start;color:#000000;fill:#d40000;fill-opacity:1;fill-rule:nonzero;stroke:none;stroke-width:1px;marker:none;visibility:visible;font-family:Comfortaa;-inkscape-font-specification:Comfortaa"
           d="m 371.82138,1035.4942 c 2.41545,0 4.47429,-0.851 6.17669,-2.5529 1.7024,-1.702 2.55363,-3.7603 2.55363,-6.175 0,-2.4148 -0.85123,-4.4731 -2.55363,-6.1751 -1.7024,-1.702 -3.76124,-2.5529 -6.17669,-2.5529 -2.41529,0 -4.47424,0.8509 -6.17664,2.5529 -1.70235,1.702 -2.55357,3.7603 -2.55357,6.1751 0,2.4147 0.85122,4.473 2.55357,6.175 1.7024,1.7019 3.76135,2.5529 6.17664,2.5529 m -8.73021,-17.2814 c 2.44443,-2.4438 5.35456,-3.6657 8.73021,-3.6657 3.3757,0 6.25668,1.1928 8.64298,3.5784 2.38625,2.3857 3.57942,5.2659 3.57942,8.6408 0,3.3748 -1.19317,6.255 -3.57942,8.6407 -2.3863,2.3856 -5.26728,3.5784 -8.64298,3.5784 -3.37565,0 -6.25663,-1.1928 -8.64293,-3.5784 -2.38625,-2.3857 -3.57937,-5.2659 -3.57942,-8.6407 l 0,-10.4736 c 5e-5,-0.4797 0.17457,-0.8947 0.52371,-1.2438 0.33487,-0.3347 0.74215,-0.5019 1.22228,-0.5019 0.47981,0 0.89487,0.1672 1.24406,0.5019 0.33487,0.3491 0.50203,0.7637 0.50203,1.2438 l 0,1.9201"
           inkscape:connector-curvature="0" />
        <path
           id="path3596-4-8-3"
           style="font-size:8.73411083px;font-style:normal;font-variant:normal;font-weight:normal;font-stretch:normal;text-indent:0;text-align:start;text-decoration:none;line-height:125%;letter-spacing:0px;word-spacing:0px;text-transform:none;direction:ltr;block-progression:tb;writing-mode:lr-tb;text-anchor:start;color:#000000;fill:#d40000;fill-opacity:1;fill-rule:nonzero;stroke:none;stroke-width:1px;marker:none;visibility:visible;font-family:Comfortaa;-inkscape-font-specification:Comfortaa"
           d="m 350.43233,1044.2222 c 0,-0.5964 0.21795,-1.1129 0.65475,-1.5492 0.42162,-0.4221 0.93121,-0.6328 1.52778,-0.6328 0.59661,0 1.11313,0.211 1.54962,0.6328 0.42162,0.4363 0.63296,0.9528 0.63296,1.5492 0,0.5964 -0.21108,1.1055 -0.63296,1.5274 -0.43643,0.4363 -0.95301,0.6546 -1.54962,0.6546 -0.59657,0 -1.10584,-0.2184 -1.52778,-0.6546 -0.43643,-0.4216 -0.65475,-0.931 -0.65475,-1.5274 m 3.92857,-6.9824 c 0,0.4797 -0.16717,0.8874 -0.50203,1.2219 -0.34914,0.3491 -0.76383,0.5236 -1.24401,0.5236 -0.47981,0 -0.88757,-0.1745 -1.22228,-0.5236 -0.34914,-0.3347 -0.52371,-0.7419 -0.52371,-1.2219 l 0,-20.9471 c 0,-0.4797 0.17457,-0.8947 0.52371,-1.2438 0.33487,-0.3347 0.7421,-0.5019 1.22228,-0.5019 0.48034,0 0.89487,0.1672 1.24401,0.5019 0.33486,0.3491 0.50203,0.7637 0.50203,1.2438 l 0,20.9471"
           inkscape:connector-curvature="0" />
        <path
           id="path3598-43-2-2"
           style="font-size:8.73411083px;font-style:normal;font-variant:normal;font-weight:normal;font-stretch:normal;text-indent:0;text-align:start;text-decoration:none;line-height:125%;letter-spacing:0px;word-spacing:0px;text-transform:none;direction:ltr;block-progression:tb;writing-mode:lr-tb;text-anchor:start;color:#000000;fill:#d40000;fill-opacity:1;fill-rule:nonzero;stroke:none;stroke-width:1px;marker:none;visibility:visible;font-family:Comfortaa;-inkscape-font-specification:Comfortaa"
           d="m 345.63063,1047.7134 c 0,0.4797 -0.16716,0.8873 -0.50203,1.2219 -0.34914,0.3491 -0.76388,0.5236 -1.24406,0.5236 -0.48034,0 -0.88757,-0.1745 -1.22222,-0.5236 -0.34915,-0.3348 -0.52372,-0.7419 -0.52372,-1.2219 l 0,-29.6751 -1.74604,0 c -0.47981,0 -0.88757,-0.1746 -1.22222,-0.5236 -0.34915,-0.3348 -0.52372,-0.7419 -0.52372,-1.2219 0,-0.4797 0.17457,-0.8947 0.52372,-1.2438 0.33486,-0.3347 0.74204,-0.5019 1.22222,-0.5019 l 3.49208,0 c 0.47981,0 0.89487,0.1672 1.24407,0.5019 0.33486,0.3491 0.50203,0.7637 0.50203,1.2438 l 0,31.4207"
           inkscape:connector-curvature="0" />
        <path
           id="path3600-73-9-9"
           style="font-size:8.73411083px;font-style:normal;font-variant:normal;font-weight:normal;font-stretch:normal;text-indent:0;text-align:start;text-decoration:none;line-height:125%;letter-spacing:0px;word-spacing:0px;text-transform:none;direction:ltr;block-progression:tb;writing-mode:lr-tb;text-anchor:start;color:#000000;fill:#d40000;fill-opacity:1;fill-rule:nonzero;stroke:none;stroke-width:1px;marker:none;visibility:visible;font-family:Comfortaa;-inkscape-font-specification:Comfortaa"
           d="m 314.35454,1028.5118 c 0.32005,1.6729 1.12038,3.1494 2.40079,4.4295 1.70246,1.7019 3.7613,2.5529 6.17664,2.5529 2.4154,0 4.47424,-0.851 6.1767,-2.5529 1.28046,-1.2801 2.08069,-2.7566 2.40079,-4.4295 l -17.15492,0 m 1.85517,-8.0297 c -0.48033,0 -0.88756,-0.1745 -1.22221,-0.5236 -0.34915,-0.3347 -0.52372,-0.7418 -0.52372,-1.2219 5e-5,-0.4797 0.16716,-0.8946 0.50203,-1.2438 2.25531,-1.9637 4.91077,-2.9456 7.96632,-2.9456 3.37576,0 6.25673,1.1928 8.64298,3.5784 2.3863,2.3857 3.57937,5.2659 3.57937,8.6408 0,3.3748 -1.19307,6.255 -3.57937,8.6407 -2.38625,2.3856 -5.26722,3.5784 -8.64298,3.5784 -3.3757,0 -6.25668,-1.1928 -8.64292,-3.5784 -2.38625,-2.3857 -3.57938,-5.2659 -3.57943,-8.6407 5e-5,-0.4803 0.17457,-0.8947 0.52372,-1.2437 0.33486,-0.3348 0.74209,-0.5019 1.22222,-0.5019 l 19.05379,0 c -0.32004,-1.673 -1.12033,-3.1494 -2.40079,-4.4295 -1.70245,-1.702 -3.7613,-2.5529 -6.17669,-2.5529 -2.18253,0 -4.0595,0.6909 -5.63097,2.0729 -0.32005,0.247 -0.6839,0.3707 -1.09129,0.3707"
           inkscape:connector-curvature="0" />
        <path
           id="path3602-8-9-4"
           style="font-size:8.73411083px;font-style:normal;font-variant:normal;font-weight:normal;font-stretch:normal;text-indent:0;text-align:start;text-decoration:none;line-height:125%;letter-spacing:0px;word-spacing:0px;text-transform:none;direction:ltr;block-progression:tb;writing-mode:lr-tb;text-anchor:start;color:#000000;fill:#d40000;fill-opacity:1;fill-rule:nonzero;stroke:none;stroke-width:1px;marker:none;visibility:visible;font-family:Comfortaa;-inkscape-font-specification:Comfortaa"
           d="m 281.89981,1035.4942 c 2.4154,0 4.4743,-0.851 6.17664,-2.5529 1.70246,-1.702 2.55363,-3.7603 2.55363,-6.175 0,-2.4148 -0.85117,-4.4731 -2.55363,-6.1751 -1.70234,-1.702 -3.76124,-2.5529 -6.17664,-2.5529 -2.41534,0 -4.47424,0.8509 -6.17664,2.5529 -1.70234,1.702 -2.55357,3.7603 -2.55357,6.1751 0,2.4147 0.85123,4.473 2.55357,6.175 1.7024,1.7019 3.7613,2.5529 6.17664,2.5529 m -8.73021,-17.2814 c 0.0317,-0.032 0.0582,-0.058 0.0873,-0.087 2.3863,-2.3856 5.26727,-3.5785 8.64292,-3.5785 3.37571,0 6.25668,1.1929 8.64293,3.5785 2.3863,2.3856 3.57942,5.2658 3.57942,8.6407 0,3.3748 -1.19312,6.255 -3.57942,8.6407 -2.38625,2.3856 -5.26722,3.5784 -8.64293,3.5784 -3.37565,0 -6.25662,-1.1928 -8.64292,-3.5784 -2.38625,-2.3857 -3.57943,-5.2659 -3.57943,-8.6407 l 0,-12.2192 c 0,-2.5457 0.91672,-4.7567 2.75005,-6.6333 2.56087,-2.5602 5.65281,-3.8403 9.27588,-3.8403 3.62307,0 6.70771,1.2801 9.25404,3.8403 0.94581,0.931 1.71695,1.942 2.31356,3.033 0.17457,0.2618 0.26186,0.5673 0.26186,0.9164 0,0.4797 -0.16717,0.8946 -0.50203,1.2438 -0.34914,0.3347 -0.76389,0.5019 -1.24407,0.5019 -0.47981,0 -0.89481,-0.1672 -1.24406,-0.5019 -0.14548,-0.1603 -0.26927,-0.3348 -0.37084,-0.5236 -0.43643,-0.7855 -0.99665,-1.5202 -1.68055,-2.2039 -1.87697,-1.8764 -4.13959,-2.8147 -6.78775,-2.8148 -2.64816,1e-4 -4.91078,0.9384 -6.7878,2.8148 -1.16398,1.3965 -1.74604,2.7857 -1.74604,4.1676 l 0,3.6658"
           inkscape:connector-curvature="0" />
        <path
           id="path3604-7-0-7"
           style="font-size:8.73411083px;font-style:normal;font-variant:normal;font-weight:normal;font-stretch:normal;text-indent:0;text-align:start;text-decoration:none;line-height:125%;letter-spacing:0px;word-spacing:0px;text-transform:none;direction:ltr;block-progression:tb;writing-mode:lr-tb;text-anchor:start;color:#000000;fill:#d40000;fill-opacity:1;fill-rule:nonzero;stroke:none;stroke-width:1px;marker:none;visibility:visible;font-family:Comfortaa;-inkscape-font-specification:Comfortaa"
           d="m 266.18538,1037.2398 c 0,0.4797 -0.16717,0.8874 -0.50203,1.2219 -0.34915,0.3491 -0.76389,0.5236 -1.24402,0.5236 -0.47981,0 -0.88757,-0.1745 -1.22227,-0.5236 -0.34914,-0.3347 -0.52372,-0.7419 -0.52372,-1.2219 l 0,-1.9201 c -2.44449,2.4438 -5.35456,3.6657 -8.73026,3.6657 -1.70235,0 -3.26657,-0.2909 -4.69251,-0.8728 -0.26186,-0.1015 -0.50203,-0.2549 -0.7203,-0.4585 -0.33486,-0.3491 -0.50203,-0.7637 -0.50203,-1.2438 6e-5,-0.4796 0.17458,-0.8946 0.52372,-1.2437 0.33486,-0.3348 0.74204,-0.5019 1.22222,-0.5019 0.27614,0 0.53107,0.058 0.76389,0.1745 1.0331,0.4364 2.16803,0.6546 3.4048,0.6546 2.41534,0 4.47424,-0.8509 6.17664,-2.5529 1.7024,-1.7019 2.55362,-3.7603 2.55362,-6.175 l 0,-10.4735 c 0,-0.4797 0.17458,-0.8947 0.52372,-1.2438 0.33486,-0.3348 0.74209,-0.5019 1.22227,-0.5019 0.47981,0 0.89482,0.1671 1.24402,0.5019 0.33486,0.3491 0.50202,0.7636 0.50202,1.2438 l 0,20.9471"
           inkscape:connector-curvature="0" />
        <path
           id="path3606-19-1-3"
           style="font-size:8.73411083px;font-style:normal;font-variant:normal;font-weight:normal;font-stretch:normal;text-indent:0;text-align:start;text-decoration:none;line-height:125%;letter-spacing:0px;word-spacing:0px;text-transform:none;direction:ltr;block-progression:tb;writing-mode:lr-tb;text-anchor:start;color:#000000;fill:#d40000;fill-opacity:1;fill-rule:nonzero;stroke:none;stroke-width:1px;marker:none;visibility:visible;font-family:Comfortaa;-inkscape-font-specification:Comfortaa"
           d="m 233.01046,1035.4942 c 2.41534,0 4.47419,-0.851 6.17664,-2.5529 1.7024,-1.702 2.55357,-3.7603 2.55357,-6.175 0,-2.4148 -0.85117,-4.4731 -2.55357,-6.1751 -1.70245,-1.702 -3.7613,-2.5529 -6.17664,-2.5529 -2.41539,0 -4.47424,0.8509 -6.17669,2.5529 -1.7024,1.702 -2.55357,3.7603 -2.55357,6.1751 0,2.4147 0.85117,4.473 2.55357,6.175 1.70245,1.7019 3.7613,2.5529 6.17669,2.5529 m -8.73026,-17.2814 c 2.44449,-2.4438 5.3545,-3.6657 8.73026,-3.6657 3.3757,0 6.25668,1.1928 8.64293,3.5784 2.38625,2.3857 3.57937,5.2659 3.57937,8.6408 0,3.3748 -1.19312,6.255 -3.57937,8.6407 -2.38625,2.3856 -5.26723,3.5784 -8.64293,3.5784 -3.37576,0 -6.25673,-1.1928 -8.64303,-3.5784 -2.3862,-2.3857 -3.57932,-5.2659 -3.57937,-8.6407 l 0,-10.4736 c 5e-5,-0.4797 0.17457,-0.8947 0.52371,-1.2438 0.33487,-0.3347 0.7421,-0.5019 1.22222,-0.5019 0.47981,0 0.89493,0.1672 1.24412,0.5019 0.33487,0.3491 0.50203,0.7637 0.50203,1.2438 l 0,1.9201"
           inkscape:connector-curvature="0" />
        <path
           id="path3608-9-9-9"
           style="font-size:8.73411083px;font-style:normal;font-variant:normal;font-weight:normal;font-stretch:normal;text-indent:0;text-align:start;text-decoration:none;line-height:125%;letter-spacing:0px;word-spacing:0px;text-transform:none;direction:ltr;block-progression:tb;writing-mode:lr-tb;text-anchor:start;color:#000000;fill:#d40000;fill-opacity:1;fill-rule:nonzero;stroke:none;stroke-width:1px;marker:none;visibility:visible;font-family:Comfortaa;-inkscape-font-specification:Comfortaa"
           d="m 204.54985,1049.4589 c -0.48034,0 -0.88757,-0.1745 -1.22227,-0.5235 -0.34915,-0.3348 -0.52372,-0.742 -0.52372,-1.2219 0,-0.4797 0.17457,-0.8947 0.52372,-1.2438 0.33486,-0.3348 0.74209,-0.5019 1.22227,-0.5019 4.65611,0 6.98417,-2.3275 6.98417,-6.9823 l 0,-1.3092 -5.25998,0 c -0.47981,0 -0.88756,-0.1746 -1.22227,-0.5236 -0.34914,-0.3348 -0.52372,-0.7419 -0.52372,-1.2219 6e-5,-0.4797 0.17458,-0.8947 0.52372,-1.2438 0.33486,-0.3347 0.74215,-0.5019 1.22227,-0.5019 l 5.25998,0 0,-17.8923 c 0,-0.4802 0.17457,-0.8947 0.52372,-1.2438 0.33486,-0.3347 0.74214,-0.5019 1.22227,-0.5019 0.47981,0 0.89487,0.1672 1.24407,0.5019 0.33486,0.3491 0.50203,0.7637 0.50203,1.2438 l 0,17.8923 1.74604,0 c 0.47981,0 0.89487,0.1672 1.24407,0.5019 0.33486,0.3491 0.50202,0.7637 0.50202,1.2438 0,0.4797 -0.16716,0.8873 -0.50202,1.2219 -0.34915,0.349 -0.76389,0.5236 -1.24407,0.5236 l -1.74604,0 0,1.3092 c 0,6.9823 -3.49209,10.4735 -10.47626,10.4735"
           inkscape:connector-curvature="0" />
        <path
           id="path3610-3-0-9"
           style="font-size:8.73411083px;font-style:normal;font-variant:normal;font-weight:normal;font-stretch:normal;text-indent:0;text-align:start;text-decoration:none;line-height:125%;letter-spacing:0px;word-spacing:0px;text-transform:none;direction:ltr;block-progression:tb;writing-mode:lr-tb;text-anchor:start;color:#000000;fill:#d40000;fill-opacity:1;fill-rule:nonzero;stroke:none;stroke-width:1px;marker:none;visibility:visible;font-family:Comfortaa;-inkscape-font-specification:Comfortaa"
           d="m 195.38305,1044.2222 c 0,-0.5964 0.21848,-1.1129 0.65475,-1.5492 0.42162,-0.4221 0.93121,-0.6328 1.52783,-0.6328 0.59656,0 1.11308,0.211 1.54957,0.6328 0.42161,0.4363 0.63295,0.9528 0.63295,1.5492 0,0.5964 -0.21107,1.1055 -0.63295,1.5274 -0.43644,0.4363 -0.95301,0.6546 -1.54957,0.6546 -0.59662,0 -1.10584,-0.2184 -1.52783,-0.6546 -0.43643,-0.4216 -0.65475,-0.931 -0.65475,-1.5274 m 3.92857,-6.9824 c 0,0.4797 -0.16717,0.8874 -0.50203,1.2219 -0.34915,0.3491 -0.76394,0.5236 -1.24407,0.5236 -0.47981,0 -0.88757,-0.1745 -1.22227,-0.5236 -0.34915,-0.3347 -0.52372,-0.7419 -0.52372,-1.2219 l 0,-20.9471 c 0,-0.4797 0.17457,-0.8947 0.52372,-1.2438 0.33486,-0.3347 0.74209,-0.5019 1.22227,-0.5019 0.47981,0 0.89482,0.1672 1.24407,0.5019 0.33486,0.3491 0.50203,0.7637 0.50203,1.2438 l 0,20.9471"
           inkscape:connector-curvature="0" />
        <path
           id="path3612-64-9-0"
           style="font-size:8.73411083px;font-style:normal;font-variant:normal;font-weight:normal;font-stretch:normal;text-indent:0;text-align:start;text-decoration:none;line-height:125%;letter-spacing:0px;word-spacing:0px;text-transform:none;direction:ltr;block-progression:tb;writing-mode:lr-tb;text-anchor:start;color:#000000;fill:#d40000;fill-opacity:1;fill-rule:nonzero;stroke:none;stroke-width:1px;marker:none;visibility:visible;font-family:Comfortaa;-inkscape-font-specification:Comfortaa"
           d="m 187.08927,1029.1228 -14.77593,9.6008 c -0.27614,0.1745 -0.58931,0.2618 -0.93851,0.2618 -0.47981,-10e-5 -0.88752,-0.1746 -1.22222,-0.5236 -0.34915,-0.3348 -0.52372,-0.7419 -0.52372,-1.2219 0,-0.4802 0.16717,-0.8874 0.50203,-1.2219 0.0873,-0.087 0.16717,-0.1603 0.24017,-0.2179 l 10.12706,-6.5897 -10.38897,-11.6955 c -0.32005,-0.349 -0.47981,-0.7563 -0.47981,-1.2219 0,-0.4796 0.17457,-0.8946 0.52372,-1.2437 0.33486,-0.3348 0.74203,-0.5019 1.22221,-0.5019 0.47981,0 0.90212,0.1745 1.26592,0.5236 l 10.8473,12.2192 3.60122,-2.3347 0,-8.6626 c 0,-0.4796 0.17457,-0.8946 0.52372,-1.2437 0.33486,-0.3348 0.74209,-0.5019 1.22227,-0.5019 0.47981,0 0.89482,0.1671 1.24402,0.5019 0.33486,0.349 0.50202,0.7637 0.50202,1.2437 l 0,31.4208 c 0,0.4797 -0.16716,0.8873 -0.50202,1.2219 -0.34915,0.349 -0.76389,0.5236 -1.24402,0.5236 -0.48034,0 -0.88757,-0.1746 -1.22227,-0.5236 -0.34915,-0.3348 -0.52372,-0.742 -0.52372,-1.2219 l 0,-18.5906"
           inkscape:connector-curvature="0" />
        <path
           id="path3614-4-5-4"
           style="font-size:8.73411083px;font-style:normal;font-variant:normal;font-weight:normal;font-stretch:normal;text-indent:0;text-align:start;text-decoration:none;line-height:125%;letter-spacing:0px;word-spacing:0px;text-transform:none;direction:ltr;block-progression:tb;writing-mode:lr-tb;text-anchor:start;color:#000000;fill:#d40000;fill-opacity:1;fill-rule:nonzero;stroke:none;stroke-width:1px;marker:none;visibility:visible;font-family:Comfortaa;-inkscape-font-specification:Comfortaa"
           d="m 143.08884,1026.7663 c 6e-5,-3.3749 1.19313,-6.2551 3.57937,-8.6408 2.38631,-2.3856 5.26728,-3.5784 8.64293,-3.5784 3.3757,0 6.25673,1.1928 8.64303,3.5784 2.38625,2.3857 3.57938,5.2659 3.57938,8.6408 0,3.3748 -1.19313,6.255 -3.57938,8.6407 -2.3863,2.3856 -5.26733,3.5784 -8.64303,3.5784 -3.37565,0 -6.25662,-1.1928 -8.64293,-3.5784 -2.38624,-2.3857 -3.57931,-5.2659 -3.57937,-8.6407 m 12.2223,8.7279 c 2.41545,0 4.4743,-0.851 6.17669,-2.5529 1.7024,-1.702 2.55363,-3.7603 2.55358,-6.175 5e-5,-2.4148 -0.85118,-4.4731 -2.55358,-6.1751 -1.70239,-1.702 -3.76124,-2.5529 -6.17669,-2.5529 -2.41529,0 -4.47419,0.8509 -6.17664,2.5529 -1.70235,1.702 -2.55352,3.7603 -2.55357,6.1751 5e-5,2.4147 0.85122,4.473 2.55357,6.175 1.70245,1.7019 3.76135,2.5529 6.17664,2.5529"
           inkscape:connector-curvature="0" />
        <path
           id="path3616-38-2-4"
           style="font-size:8.73411083px;font-style:normal;font-variant:normal;font-weight:normal;font-stretch:normal;text-indent:0;text-align:start;text-decoration:none;line-height:125%;letter-spacing:0px;word-spacing:0px;text-transform:none;direction:ltr;block-progression:tb;writing-mode:lr-tb;text-anchor:start;color:#000000;fill:#d40000;fill-opacity:1;fill-rule:nonzero;stroke:none;stroke-width:1px;marker:none;visibility:visible;font-family:Comfortaa;-inkscape-font-specification:Comfortaa"
           d="m 114.27898,1035.4942 c 2.41545,0 4.47429,-0.851 6.17669,-2.5529 1.7024,-1.702 2.55363,-3.7603 2.55363,-6.175 0,-2.4148 -0.85123,-4.4731 -2.55363,-6.1751 -1.7024,-1.702 -3.76124,-2.5529 -6.17669,-2.5529 -2.41529,0 -4.47424,0.8509 -6.17664,2.5529 -1.70235,1.702 -2.55357,3.7603 -2.55362,6.1751 5e-5,2.4147 0.85127,4.473 2.55362,6.175 1.7024,1.7019 3.76135,2.5529 6.17664,2.5529 m -8.73026,-17.2814 c 2.44449,-2.4438 5.35461,-3.6657 8.73026,-3.6657 3.3757,0 6.25668,1.1928 8.64298,3.5784 2.38625,2.3857 3.57943,5.2659 3.57943,8.6408 0,3.3748 -1.19318,6.255 -3.57943,8.6407 -2.3863,2.3856 -5.26728,3.5784 -8.64298,3.5784 -3.37565,0 -6.25663,-1.1928 -8.64293,-3.5784 -2.38624,-2.3857 -3.57937,-5.2659 -3.57942,-8.6407 l 0,-10.4736 c 5e-5,-0.4797 0.17457,-0.8947 0.52372,-1.2438 0.33486,-0.3347 0.74214,-0.5019 1.22227,-0.5019 0.47981,0 0.89482,0.1672 1.24407,0.5019 0.33486,0.3491 0.50203,0.7637 0.50203,1.2438 l 0,1.9201"
           inkscape:connector-curvature="0" />
        <path
           id="path3618-0-6-6"
           style="font-size:8.73411083px;font-style:normal;font-variant:normal;font-weight:normal;font-stretch:normal;text-indent:0;text-align:start;text-decoration:none;line-height:125%;letter-spacing:0px;word-spacing:0px;text-transform:none;direction:ltr;block-progression:tb;writing-mode:lr-tb;text-anchor:start;color:#000000;fill:#d40000;fill-opacity:1;fill-rule:nonzero;stroke:none;stroke-width:1px;marker:none;visibility:visible;font-family:Comfortaa;-inkscape-font-specification:Comfortaa"
           d="m 94.243028,1026.7663 c 1.324107,0.4944 2.248071,1.0109 2.771895,1.5492 1.033046,1.0182 1.549569,2.2474 1.549569,3.6875 0,1.4401 -0.538318,2.6984 -1.61506,3.7749 -2.095241,2.1383 -4.830687,3.2075 -8.206443,3.2075 -3.652163,0 -6.78045,-1.4619 -9.384966,-4.3858 -0.232763,-0.2761 -0.341739,-0.6182 -0.327456,-1.0255 0,-0.4802 0.174573,-0.8947 0.523718,-1.2438 0.334862,-0.3347 0.742039,-0.5019 1.222219,-0.5019 0.47981,0 0.865774,0.1529 1.156728,0.4586 0.290954,0.3057 0.502029,0.5235 0.632958,0.6546 1.702452,1.702 3.761297,2.5529 6.176693,2.5529 2.415343,0 4.343312,-0.7564 5.783746,-2.2692 0.349146,-0.4221 0.523718,-0.9238 0.523718,-1.5056 -0.04761,-0.6837 -0.39993,-1.1492 -1.069442,-1.3965 l -10.73822,-3.5566 c -1.324053,-0.4945 -2.248018,-1.0111 -2.771841,-1.5492 -1.033047,-1.0183 -1.54957,-2.2475 -1.549623,-3.6876 5.3e-5,-1.4402 0.538372,-2.6984 1.615061,-3.7749 2.095293,-2.1383 4.830739,-3.2075 8.206495,-3.2075 3.666658,0 6.794998,1.4619 9.384966,4.3858 0.217951,0.3056 0.327456,0.6473 0.327456,1.0255 0,0.4803 -0.167167,0.8874 -0.502028,1.2219 -0.349145,0.3491 -0.763834,0.5236 -1.244068,0.5236 -0.47981,0 -0.865721,-0.1528 -1.156675,-0.4585 -0.290954,-0.3057 -0.502028,-0.5236 -0.632957,-0.6546 -1.702453,-1.702 -3.761298,-2.5529 -6.176694,-2.5529 -2.415343,0 -4.343258,0.7563 -5.783799,2.2692 -0.349145,0.4215 -0.523717,0.9238 -0.523717,1.5056 0.04761,0.6837 0.399929,1.1492 1.069441,1.3965 l 10.738168,3.5566"
           inkscape:connector-curvature="0" />
        <path
           id="path3620-5-3-5"
           style="font-size:8.73411083px;font-style:normal;font-variant:normal;font-weight:normal;font-stretch:normal;text-indent:0;text-align:start;text-decoration:none;line-height:125%;letter-spacing:0px;word-spacing:0px;text-transform:none;direction:ltr;block-progression:tb;writing-mode:lr-tb;text-anchor:start;color:#000000;fill:#d40000;fill-opacity:1;fill-rule:nonzero;stroke:none;stroke-width:1px;marker:none;visibility:visible;font-family:Comfortaa;-inkscape-font-specification:Comfortaa"
           d="m 71.937263,1029.1228 -14.775977,9.6008 c -0.276142,0.1745 -0.589262,0.2618 -0.93846,0.2618 -0.47981,-10e-5 -0.887569,-0.1746 -1.222219,-0.5236 -0.349145,-0.3348 -0.523718,-0.7419 -0.523718,-1.2219 0,-0.4802 0.167167,-0.8874 0.502029,-1.2219 0.08729,-0.087 0.167166,-0.1603 0.240169,-0.2179 l 10.127058,-6.5897 -10.38897,-11.6955 c -0.320049,-0.349 -0.47981,-0.7563 -0.47981,-1.2219 0,-0.4796 0.174573,-0.8946 0.523718,-1.2437 0.334862,-0.3348 0.742039,-0.5019 1.222219,-0.5019 0.47981,0 0.902117,0.1745 1.265863,0.5236 l 10.847354,12.2192 3.60122,-2.3347 0,-8.6626 c 0,-0.4796 0.174572,-0.8946 0.523717,-1.2437 0.334862,-0.3348 0.742092,-0.5019 1.22222,-0.5019 0.479809,0 0.894869,0.1671 1.244067,0.5019 0.334862,0.349 0.502028,0.7637 0.502028,1.2437 l 0,31.4208 c 0,0.4797 -0.167166,0.8873 -0.502028,1.2219 -0.349145,0.349 -0.763887,0.5236 -1.244067,0.5236 -0.480339,0 -0.887569,-0.1746 -1.22222,-0.5236 -0.349145,-0.3348 -0.523717,-0.742 -0.523717,-1.2219 l 0,-18.5906"
           inkscape:connector-curvature="0" />
        <path
           id="path3622-6-0-5"
           style="font-size:8.73411083px;font-style:normal;font-variant:normal;font-weight:normal;font-stretch:normal;text-indent:0;text-align:start;text-decoration:none;line-height:125%;letter-spacing:0px;word-spacing:0px;text-transform:none;direction:ltr;block-progression:tb;writing-mode:lr-tb;text-anchor:start;color:#000000;fill:#d40000;fill-opacity:1;fill-rule:nonzero;stroke:none;stroke-width:1px;marker:none;visibility:visible;font-family:Comfortaa;-inkscape-font-specification:Comfortaa"
           d="m 31.58165,1028.5118 c 0.320579,1.6729 1.120438,3.1494 2.400849,4.4295 1.702399,1.7019 3.761297,2.5529 6.17664,2.5529 2.415396,0 4.474294,-0.851 6.17664,-2.5529 1.280463,-1.2801 2.080746,-2.7566 2.400848,-4.4295 l -17.154977,0 m 1.85523,-8.0297 c -0.47981,0 -0.887569,-0.1745 -1.222219,-0.5236 -0.349145,-0.3347 -0.523718,-0.7418 -0.523718,-1.2219 0,-0.4797 0.167167,-0.8946 0.502029,-1.2438 2.255371,-1.9637 4.910777,-2.9456 7.966326,-2.9456 3.375703,0 6.256679,1.1928 8.642926,3.5784 2.386301,2.3857 3.579478,5.2659 3.579478,8.6408 0,3.3748 -1.193177,6.255 -3.579478,8.6407 -2.386247,2.3856 -5.267223,3.5784 -8.642926,3.5784 -3.375651,0 -6.256627,-1.1928 -8.642927,-3.5784 -2.386248,-2.3857 -3.579372,-5.2659 -3.579372,-8.6407 0,-0.4803 0.174573,-0.8947 0.523718,-1.2437 0.334862,-0.3348 0.742145,-0.5019 1.222219,-0.5019 l 19.053797,0 c -0.320049,-1.673 -1.120385,-3.1494 -2.400848,-4.4295 -1.702347,-1.702 -3.761244,-2.5529 -6.17664,-2.5529 -2.182527,0 -4.059552,0.6909 -5.630969,2.0729 -0.32005,0.247 -0.683848,0.3707 -1.091343,0.3707"
           inkscape:connector-curvature="0" />
        <path
           id="path3624-0-7-8"
           style="font-size:8.73411083px;font-style:normal;font-variant:normal;font-weight:normal;font-stretch:normal;text-indent:0;text-align:start;text-decoration:none;line-height:125%;letter-spacing:0px;word-spacing:0px;text-transform:none;direction:ltr;block-progression:tb;writing-mode:lr-tb;text-anchor:start;color:#000000;fill:#d40000;fill-opacity:1;fill-rule:nonzero;stroke:none;stroke-width:1px;marker:none;visibility:visible;font-family:Comfortaa;-inkscape-font-specification:Comfortaa"
           d="m 12.222404,1035.4942 c 2.415343,0 4.474241,-0.851 6.17664,-2.5529 1.702347,-1.702 2.553626,-3.7603 2.553626,-6.175 0,-2.4148 -0.851279,-4.4731 -2.553626,-6.1751 -1.702399,-1.702 -3.761297,-2.5529 -6.17664,-2.5529 -2.4153959,0 -4.4742936,0.8509 -6.1766931,2.5529 -1.7023995,1.702 -2.5535728,3.7603 -2.5536257,6.1751 5.29e-5,2.4147 0.8512262,4.473 2.5536257,6.175 1.7023995,1.7019 3.7612972,2.5529 6.1766931,2.5529 m -8.7303188,-17.2814 c 2.4444914,-2.4438 5.3546154,-3.6657 8.7303188,-3.6657 3.375651,0 6.256626,1.1928 8.642927,3.5784 2.386248,2.3857 3.579424,5.2659 3.579424,8.6408 0,3.3748 -1.193176,6.255 -3.579424,8.6407 -2.386301,2.3856 -5.267276,3.5784 -8.642927,3.5784 -3.3757034,0 -6.256679,-1.1928 -8.6429796,-3.5784 C 1.1931767,1033.0213 5.2900764e-5,1030.1411 0,1026.7663 l 0,-10.4736 c 5.2900764e-5,-0.4797 0.17457252,-0.8947 0.52371756,-1.2438 0.33486184,-0.3347 0.74209194,-0.5019 1.22227214,-0.5019 0.4798099,0 0.8948693,0.1672 1.2440673,0.5019 0.3348618,0.3491 0.5020282,0.7637 0.5020282,1.2438 l 0,1.9201"
           inkscape:connector-curvature="0" />
      </g>
      <path
         inkscape:connector-curvature="0"
         id="path37292-07-1-0-3-9-6"
         d="m 226.97369,899.28565 c 0,-2.46618 1.99976,-4.46541 4.46658,-4.46541 2.46682,0 4.46657,1.99923 4.46657,4.46541 0,2.46618 -1.99975,4.46541 -4.46657,4.46541 -2.46682,0 -4.46658,-1.99923 -4.46658,-4.46541 z"
         style="color:#000000;fill:#d40000;fill-opacity:1;fill-rule:nonzero;stroke:none;stroke-width:2;marker:none;visibility:visible;display:inline;overflow:visible;enable-background:accumulate" />
      <g
         id="g7241-2-9-0"
         transform="matrix(0.17998787,0,0,0.17998787,106.27285,714.47624)">
        <path
           id="path3576-5-2-0-9"
           style="font-size:8.73411083px;font-style:normal;font-variant:normal;font-weight:normal;font-stretch:normal;text-indent:0;text-align:start;text-decoration:none;line-height:125%;letter-spacing:0px;word-spacing:0px;text-transform:none;direction:ltr;block-progression:tb;writing-mode:lr-tb;text-anchor:start;color:#000000;fill:#d40000;fill-opacity:1;fill-rule:nonzero;stroke:none;stroke-width:1px;marker:none;visibility:visible;font-family:Comfortaa;-inkscape-font-specification:Comfortaa"
           d="m 555.76781,1026.7663 c 0,2.4147 0.85117,4.473 2.55357,6.175 1.70245,1.7019 3.7613,2.5529 6.17669,2.5529 2.41535,0 4.47419,-0.851 6.17665,-2.5529 1.70239,-1.702 2.55357,-3.7603 2.55357,-6.175 0,-2.4148 -0.85118,-4.4731 -2.55357,-6.1751 -1.70246,-1.702 -3.7613,-2.5529 -6.17665,-2.5529 -2.41539,0 -4.47424,0.8509 -6.17669,2.5529 -1.7024,1.702 -2.55357,3.7603 -2.55357,6.1751 m 0,20.9907 c 0,0.4803 -0.16717,0.8873 -0.50203,1.2219 -0.34914,0.3491 -0.76389,0.5236 -1.24412,0.5236 -0.47981,0 -0.88757,-0.1745 -1.22222,-0.5236 -0.34914,-0.3347 -0.52372,-0.7419 -0.52372,-1.2219 l 0,-20.9907 c 6e-5,-3.3749 1.19318,-6.2551 3.57943,-8.6408 2.38625,-2.3856 5.26722,-3.5784 8.64298,-3.5784 3.3757,0 6.25668,1.1928 8.64292,3.5784 2.38625,2.3857 3.57938,5.2659 3.57938,8.6408 0,3.3748 -1.19313,6.255 -3.57938,8.6407 -2.38624,2.3856 -5.26722,3.5784 -8.64292,3.5784 -3.37576,0 -6.25673,-1.1928 -8.64298,-3.5784 -0.0317,-0.032 -0.0582,-0.058 -0.0873,-0.087 l 0,12.4373"
           inkscape:connector-curvature="0" />
        <path
           id="path3578-8-4-8-5"
           style="font-size:8.73411083px;font-style:normal;font-variant:normal;font-weight:normal;font-stretch:normal;text-indent:0;text-align:start;text-decoration:none;line-height:125%;letter-spacing:0px;word-spacing:0px;text-transform:none;direction:ltr;block-progression:tb;writing-mode:lr-tb;text-anchor:start;color:#000000;fill:#d40000;fill-opacity:1;fill-rule:nonzero;stroke:none;stroke-width:1px;marker:none;visibility:visible;font-family:Comfortaa;-inkscape-font-specification:Comfortaa"
           d="m 543.10892,1044.2222 c 0,-0.5964 0.21795,-1.1129 0.65475,-1.5492 0.42162,-0.4221 0.93127,-0.6328 1.52783,-0.6328 0.59656,0 1.11309,0.211 1.54957,0.6328 0.42162,0.4363 0.63296,0.9528 0.63296,1.5492 0,0.5964 -0.21108,1.1055 -0.63296,1.5274 -0.43643,0.4363 -0.95301,0.6546 -1.54957,0.6546 -0.59656,0 -1.10584,-0.2184 -1.52783,-0.6546 -0.43643,-0.4216 -0.65475,-0.931 -0.65475,-1.5274 m 3.92862,-6.9824 c 0,0.4797 -0.16716,0.8874 -0.50203,1.2219 -0.34914,0.3491 -0.76394,0.5236 -1.24406,0.5236 -0.47981,0 -0.88757,-0.1745 -1.22222,-0.5236 -0.34915,-0.3347 -0.52372,-0.7419 -0.52372,-1.2219 l 0,-20.9471 c 0,-0.4797 0.17457,-0.8947 0.52372,-1.2438 0.33486,-0.3347 0.74204,-0.5019 1.22222,-0.5019 0.47981,0 0.89481,0.1672 1.24406,0.5019 0.33487,0.3491 0.50203,0.7637 0.50203,1.2438 l 0,20.9471"
           inkscape:connector-curvature="0" />
        <path
           id="path3580-2-8-5-9"
           style="font-size:8.73411083px;font-style:normal;font-variant:normal;font-weight:normal;font-stretch:normal;text-indent:0;text-align:start;text-decoration:none;line-height:125%;letter-spacing:0px;word-spacing:0px;text-transform:none;direction:ltr;block-progression:tb;writing-mode:lr-tb;text-anchor:start;color:#000000;fill:#d40000;fill-opacity:1;fill-rule:nonzero;stroke:none;stroke-width:1px;marker:none;visibility:visible;font-family:Comfortaa;-inkscape-font-specification:Comfortaa"
           d="m 533.98581,1026.7663 c 1.32411,0.4944 2.24807,1.0109 2.77184,1.5492 1.0331,1.0182 1.54963,2.2474 1.54963,3.6875 0,1.4401 -0.53837,2.6984 -1.61506,3.7749 -2.09524,2.1383 -4.83074,3.2075 -8.20645,3.2075 -3.65216,0 -6.7805,-1.4619 -9.38501,-4.3858 -0.23277,-0.2761 -0.34174,-0.6182 -0.32746,-1.0255 0,-0.4802 0.17457,-0.8947 0.52372,-1.2438 0.33486,-0.3347 0.74209,-0.5019 1.22222,-0.5019 0.47981,0 0.86577,0.1529 1.15678,0.4586 0.29095,0.3057 0.50203,0.5235 0.63295,0.6546 1.7024,1.702 3.76125,2.5529 6.17665,2.5529 2.41534,0 4.34331,-0.7564 5.78374,-2.2692 0.34915,-0.4221 0.52372,-0.9238 0.52372,-1.5056 -0.0476,-0.6837 -0.40046,-1.1492 -1.0695,-1.3965 l -10.73822,-3.5566 c -1.32405,-0.4945 -2.24801,-1.0111 -2.77184,-1.5492 -1.03304,-1.0183 -1.54957,-2.2475 -1.54962,-3.6876 5e-5,-1.4402 0.53837,-2.6984 1.61511,-3.7749 2.09524,-2.1383 4.83074,-3.2075 8.20645,-3.2075 3.66671,0 6.79499,1.4619 9.38502,4.3858 0.21795,0.3056 0.32745,0.6473 0.32745,1.0255 0,0.4803 -0.16717,0.8874 -0.50203,1.2219 -0.34914,0.3491 -0.76388,0.5236 -1.24406,0.5236 -0.47981,0 -0.86573,-0.1528 -1.15673,-0.4585 -0.29096,-0.3057 -0.50203,-0.5236 -0.63296,-0.6546 -1.7024,-1.702 -3.7613,-2.5529 -6.17664,-2.5529 -2.4154,0 -4.34326,0.7563 -5.7838,2.2692 -0.34914,0.4215 -0.52372,0.9238 -0.52372,1.5056 0.0476,0.6837 0.39993,1.1492 1.06944,1.3965 l 10.73822,3.5566"
           inkscape:connector-curvature="0" />
        <path
           id="path3582-1-1-3-9"
           style="font-size:8.73411083px;font-style:normal;font-variant:normal;font-weight:normal;font-stretch:normal;text-indent:0;text-align:start;text-decoration:none;line-height:125%;letter-spacing:0px;word-spacing:0px;text-transform:none;direction:ltr;block-progression:tb;writing-mode:lr-tb;text-anchor:start;color:#000000;fill:#d40000;fill-opacity:1;fill-rule:nonzero;stroke:none;stroke-width:1px;marker:none;visibility:visible;font-family:Comfortaa;-inkscape-font-specification:Comfortaa"
           d="m 494.37229,1028.5118 c 0.32005,1.6729 1.12039,3.1494 2.40085,4.4295 1.7024,1.7019 3.7613,2.5529 6.17664,2.5529 2.4154,0 4.47424,-0.851 6.17664,-2.5529 1.28041,-1.2801 2.08075,-2.7566 2.4008,-4.4295 l -17.15493,0 m 1.85518,-8.0297 c -0.47981,0 -0.88757,-0.1745 -1.22227,-0.5236 -0.34915,-0.3347 -0.52372,-0.7418 -0.52372,-1.2219 5e-5,-0.4797 0.16717,-0.8946 0.50203,-1.2438 2.25537,-1.9637 4.91078,-2.9456 7.96638,-2.9456 3.3757,0 6.25668,1.1928 8.64292,3.5784 2.38625,2.3857 3.57943,5.2659 3.57943,8.6408 0,3.3748 -1.19318,6.255 -3.57943,8.6407 -2.38624,2.3856 -5.26722,3.5784 -8.64292,3.5784 -3.37571,0 -6.25668,-1.1928 -8.64298,-3.5784 -2.3862,-2.3857 -3.57937,-5.2659 -3.57943,-8.6407 6e-5,-0.4803 0.17458,-0.8947 0.52372,-1.2437 0.33486,-0.3348 0.74209,-0.5019 1.22222,-0.5019 l 19.05374,0 c -0.32005,-1.673 -1.12038,-3.1494 -2.40079,-4.4295 -1.7024,-1.702 -3.76125,-2.5529 -6.17664,-2.5529 -2.18258,0 -4.05955,0.6909 -5.63102,2.0729 -0.32005,0.247 -0.68385,0.3707 -1.09129,0.3707"
           inkscape:connector-curvature="0" />
        <path
           id="path3584-22-7-9-9"
           style="font-size:8.73411083px;font-style:normal;font-variant:normal;font-weight:normal;font-stretch:normal;text-indent:0;text-align:start;text-decoration:none;line-height:125%;letter-spacing:0px;word-spacing:0px;text-transform:none;direction:ltr;block-progression:tb;writing-mode:lr-tb;text-anchor:start;color:#000000;fill:#d40000;fill-opacity:1;fill-rule:nonzero;stroke:none;stroke-width:1px;marker:none;visibility:visible;font-family:Comfortaa;-inkscape-font-specification:Comfortaa"
           d="m 481.56068,1044.2222 c 0,-0.5964 0.21795,-1.1129 0.65475,-1.5492 0.42162,-0.4221 0.93122,-0.6328 1.52778,-0.6328 0.59661,0 1.11313,0.211 1.54962,0.6328 0.42162,0.4363 0.63296,0.9528 0.63296,1.5492 0,0.5964 -0.21108,1.1055 -0.63296,1.5274 -0.43643,0.4363 -0.95301,0.6546 -1.54962,0.6546 -0.59656,0 -1.10584,-0.2184 -1.52778,-0.6546 -0.43643,-0.4216 -0.65475,-0.931 -0.65475,-1.5274 m 3.92857,-6.9824 c 0,0.4797 -0.16717,0.8874 -0.50203,1.2219 -0.34914,0.3491 -0.76394,0.5236 -1.24412,0.5236 -0.47981,0 -0.88757,-0.1745 -1.22222,-0.5236 -0.34914,-0.3347 -0.52372,-0.7419 -0.52372,-1.2219 l 0,-20.9471 c 0,-0.4797 0.17458,-0.8947 0.52372,-1.2438 0.33486,-0.3347 0.74204,-0.5019 1.22222,-0.5019 0.48034,0 0.89487,0.1672 1.24412,0.5019 0.33486,0.3491 0.50203,0.7637 0.50203,1.2438 l 0,20.9471"
           inkscape:connector-curvature="0" />
        <path
           style="font-size:8.73411083px;font-style:normal;font-variant:normal;font-weight:normal;font-stretch:normal;text-indent:0;text-align:start;text-decoration:none;line-height:125%;letter-spacing:0px;word-spacing:0px;text-transform:none;direction:ltr;block-progression:tb;writing-mode:lr-tb;text-anchor:start;color:#000000;fill:#d40000;fill-opacity:1;fill-rule:nonzero;stroke:none;stroke-width:1px;marker:none;visibility:visible;font-family:Comfortaa;-inkscape-font-specification:Comfortaa"
           d="m 455.75389,1014.4857 c -0.47981,0 -0.80795,0.1613 -1.15721,0.4956 -0.33486,0.349 -0.49568,0.8421 -0.49568,1.3222 l 0,11.4037 c 6e-5,3.1275 1.08013,5.722 3.3063,7.9331 0.0545,0.055 0.11004,0.1116 0.16558,0.1655 0.54562,0.5273 1.05294,0.9267 1.65315,1.3222 0.61021,0.4173 1.15096,0.7134 1.81846,0.9916 0.0423,0.016 0.12168,-0.016 0.16558,0 1.29586,0.5178 2.62367,0.8264 4.13288,0.8264 0.78208,0 1.58961,-0.026 2.3144,-0.1656 1.4187,-0.2639 2.76719,-0.8617 3.96756,-1.6527 0.5498,-0.376 1.14985,-0.8333 1.65315,-1.3222 0.055,-0.054 0.11056,-0.11 0.16558,-0.1655 2.22617,-2.2111 3.30624,-4.8055 3.3063,-7.933 l 0,-11.4038 c -6e-5,-0.4797 -0.14654,-0.9731 -0.49568,-1.3222 -0.33486,-0.3347 -0.84239,-0.4955 -1.32252,-0.4955 -0.24017,0 -0.45389,0.081 -0.66126,0.1655 -0.20367,0.084 -0.32851,0.1629 -0.49568,0.3306 -0.34915,0.349 -0.49568,0.8424 -0.49568,1.3221 l 0,11.4038 c 0,2.1674 -0.78658,3.9265 -2.31441,5.4539 -1.15673,1.1565 -2.45883,1.8594 -3.96756,2.1486 -0.50203,0.096 -1.11112,0.1655 -1.65315,0.1655 -2.16803,0 -3.91307,-0.7719 -5.45539,-2.3138 -0.38194,-0.3818 -0.70543,-0.735 -0.99189,-1.1569 -0.28936,-0.422 -0.6338,-0.8603 -0.82657,-1.3222 -0.38194,-0.9237 -0.49568,-1.8911 -0.49568,-2.9749 l 0,-11.4037 c 0,-0.4797 -0.14654,-0.9731 -0.49568,-1.3222 -0.33486,-0.3348 -0.84229,-0.4955 -1.32252,-0.4955 z"
           id="path3586-0-4-8-6"
           inkscape:connector-curvature="0" />
        <path
           id="path3588-70-2-8-0"
           style="font-size:8.73411083px;font-style:normal;font-variant:normal;font-weight:normal;font-stretch:normal;text-indent:0;text-align:start;text-decoration:none;line-height:125%;letter-spacing:0px;word-spacing:0px;text-transform:none;direction:ltr;block-progression:tb;writing-mode:lr-tb;text-anchor:start;color:#000000;fill:#d40000;fill-opacity:1;fill-rule:nonzero;stroke:none;stroke-width:1px;marker:none;visibility:visible;font-family:Comfortaa;-inkscape-font-specification:Comfortaa"
           d="m 438.34594,1035.4942 c 2.41534,0 4.47424,-0.851 6.17664,-2.5529 1.7024,-1.702 2.55357,-3.7603 2.55357,-6.175 0,-2.4148 -0.85117,-4.4731 -2.55357,-6.1751 -1.7024,-1.702 -3.7613,-2.5529 -6.17664,-2.5529 -2.4154,0 -4.47424,0.8509 -6.17664,2.5529 -1.70245,1.702 -2.55363,3.7603 -2.55363,6.1751 0,2.4147 0.85118,4.473 2.55363,6.175 1.7024,1.7019 3.76124,2.5529 6.17664,2.5529 m -8.73027,-17.2814 c 2.4445,-2.4438 5.35457,-3.6657 8.73027,-3.6657 3.3757,0 6.25668,1.1928 8.64293,3.5784 2.38624,2.3857 3.57937,5.2659 3.57937,8.6408 0,3.3748 -1.19313,6.255 -3.57937,8.6407 -2.38625,2.3856 -5.26723,3.5784 -8.64293,3.5784 -3.3757,0 -6.25668,-1.1928 -8.64298,-3.5784 -2.38619,-2.3857 -3.57937,-5.2659 -3.57942,-8.6407 l 0,-10.4736 c 5e-5,-0.4797 0.17457,-0.8947 0.52371,-1.2438 0.33487,-0.3347 0.74204,-0.5019 1.22222,-0.5019 0.47981,0 0.89487,0.1672 1.24407,0.5019 0.33486,0.3491 0.50203,0.7637 0.50203,1.2438 l 0,1.9201"
           inkscape:connector-curvature="0" />
        <path
           id="path3590-7-3-7-7"
           style="font-size:8.73411083px;font-style:normal;font-variant:normal;font-weight:normal;font-stretch:normal;text-indent:0;text-align:start;text-decoration:none;line-height:125%;letter-spacing:0px;word-spacing:0px;text-transform:none;direction:ltr;block-progression:tb;writing-mode:lr-tb;text-anchor:start;color:#000000;fill:#d40000;fill-opacity:1;fill-rule:nonzero;stroke:none;stroke-width:1px;marker:none;visibility:visible;font-family:Comfortaa;-inkscape-font-specification:Comfortaa"
           d="m 412.32977,1018.0383 c -0.48034,0 -0.88757,-0.1746 -1.22222,-0.5236 -0.34915,-0.3348 -0.52372,-0.7419 -0.52372,-1.2219 0,-0.4797 0.17457,-0.8947 0.52372,-1.2438 0.33486,-0.3347 0.74204,-0.5019 1.22222,-0.5019 5.82019,0 8.73021,2.9094 8.73021,8.728 l 0,12.2191 1.7461,0 c 0.47981,0 0.89481,0.1672 1.24406,0.5019 0.33487,0.3491 0.50203,0.7637 0.50203,1.2438 0,0.4797 -0.16716,0.8873 -0.50203,1.2219 -0.34914,0.349 -0.76394,0.5236 -1.24406,0.5236 l -1.7461,0 0,8.728 c 0,0.4796 -0.16717,0.8872 -0.50203,1.2219 -0.34914,0.349 -0.76388,0.5235 -1.24401,0.5235 -0.47981,0 -0.88757,-0.1745 -1.22227,-0.5235 -0.34915,-0.3348 -0.52372,-0.742 -0.52372,-1.2219 l 0,-8.728 -3.51393,0 c -0.47981,-10e-5 -0.88757,-0.1746 -1.22222,-0.5236 -0.34915,-0.3348 -0.52372,-0.7419 -0.52372,-1.2219 0,-0.4797 0.17457,-0.8947 0.52372,-1.2438 0.33486,-0.3347 0.74209,-0.5019 1.22222,-0.5019 l 3.51393,0 0,-12.2191 c 0,-3.4911 -1.74599,-5.2368 -5.23813,-5.2368"
           inkscape:connector-curvature="0" />
        <path
           id="path3592-97-5-6-6"
           style="font-size:8.73411083px;font-style:normal;font-variant:normal;font-weight:normal;font-stretch:normal;text-indent:0;text-align:start;text-decoration:none;line-height:125%;letter-spacing:0px;word-spacing:0px;text-transform:none;direction:ltr;block-progression:tb;writing-mode:lr-tb;text-anchor:start;color:#000000;fill:#d40000;fill-opacity:1;fill-rule:nonzero;stroke:none;stroke-width:1px;marker:none;visibility:visible;font-family:Comfortaa;-inkscape-font-specification:Comfortaa"
           d="m 387.88507,1018.0383 c -0.47981,0 -0.88752,-0.1746 -1.22222,-0.5236 -0.34915,-0.3348 -0.52372,-0.7419 -0.52372,-1.2219 0,-0.4797 0.17457,-0.8947 0.52372,-1.2438 0.33486,-0.3347 0.74209,-0.5019 1.22222,-0.5019 l 17.46053,0 c 0.47981,0 0.89481,0.1672 1.24406,0.5019 0.33487,0.3491 0.50203,0.7637 0.50203,1.2438 0,0.4072 -0.11638,0.7637 -0.34914,1.0692 l -15.12512,18.1323 13.72833,0 c 0.47981,0 0.89481,0.1671 1.24406,0.5019 0.33487,0.349 0.50203,0.7636 0.50203,1.2437 0,0.4797 -0.16716,0.8874 -0.50203,1.2219 -0.34914,0.3491 -0.76394,0.5236 -1.24406,0.5236 l -17.46059,0 c -0.47981,0 -0.88751,-0.1745 -1.22222,-0.5236 -0.34914,-0.3347 -0.52372,-0.7419 -0.52372,-1.2219 0,-0.4363 0.13808,-0.8146 0.41475,-1.1346 l 15.08153,-18.0669 -13.75023,0"
           inkscape:connector-curvature="0" />
        <path
           id="path3594-9-4-9-1"
           style="font-size:8.73411083px;font-style:normal;font-variant:normal;font-weight:normal;font-stretch:normal;text-indent:0;text-align:start;text-decoration:none;line-height:125%;letter-spacing:0px;word-spacing:0px;text-transform:none;direction:ltr;block-progression:tb;writing-mode:lr-tb;text-anchor:start;color:#000000;fill:#d40000;fill-opacity:1;fill-rule:nonzero;stroke:none;stroke-width:1px;marker:none;visibility:visible;font-family:Comfortaa;-inkscape-font-specification:Comfortaa"
           d="m 371.82138,1035.4942 c 2.41545,0 4.47429,-0.851 6.17669,-2.5529 1.7024,-1.702 2.55363,-3.7603 2.55363,-6.175 0,-2.4148 -0.85123,-4.4731 -2.55363,-6.1751 -1.7024,-1.702 -3.76124,-2.5529 -6.17669,-2.5529 -2.41529,0 -4.47424,0.8509 -6.17664,2.5529 -1.70235,1.702 -2.55357,3.7603 -2.55357,6.1751 0,2.4147 0.85122,4.473 2.55357,6.175 1.7024,1.7019 3.76135,2.5529 6.17664,2.5529 m -8.73021,-17.2814 c 2.44443,-2.4438 5.35456,-3.6657 8.73021,-3.6657 3.3757,0 6.25668,1.1928 8.64298,3.5784 2.38625,2.3857 3.57942,5.2659 3.57942,8.6408 0,3.3748 -1.19317,6.255 -3.57942,8.6407 -2.3863,2.3856 -5.26728,3.5784 -8.64298,3.5784 -3.37565,0 -6.25663,-1.1928 -8.64293,-3.5784 -2.38625,-2.3857 -3.57937,-5.2659 -3.57942,-8.6407 l 0,-10.4736 c 5e-5,-0.4797 0.17457,-0.8947 0.52371,-1.2438 0.33487,-0.3347 0.74215,-0.5019 1.22228,-0.5019 0.47981,0 0.89487,0.1672 1.24406,0.5019 0.33487,0.3491 0.50203,0.7637 0.50203,1.2438 l 0,1.9201"
           inkscape:connector-curvature="0" />
        <path
           id="path3596-4-4-5-9"
           style="font-size:8.73411083px;font-style:normal;font-variant:normal;font-weight:normal;font-stretch:normal;text-indent:0;text-align:start;text-decoration:none;line-height:125%;letter-spacing:0px;word-spacing:0px;text-transform:none;direction:ltr;block-progression:tb;writing-mode:lr-tb;text-anchor:start;color:#000000;fill:#d40000;fill-opacity:1;fill-rule:nonzero;stroke:none;stroke-width:1px;marker:none;visibility:visible;font-family:Comfortaa;-inkscape-font-specification:Comfortaa"
           d="m 350.43233,1044.2222 c 0,-0.5964 0.21795,-1.1129 0.65475,-1.5492 0.42162,-0.4221 0.93121,-0.6328 1.52778,-0.6328 0.59661,0 1.11313,0.211 1.54962,0.6328 0.42162,0.4363 0.63296,0.9528 0.63296,1.5492 0,0.5964 -0.21108,1.1055 -0.63296,1.5274 -0.43643,0.4363 -0.95301,0.6546 -1.54962,0.6546 -0.59657,0 -1.10584,-0.2184 -1.52778,-0.6546 -0.43643,-0.4216 -0.65475,-0.931 -0.65475,-1.5274 m 3.92857,-6.9824 c 0,0.4797 -0.16717,0.8874 -0.50203,1.2219 -0.34914,0.3491 -0.76383,0.5236 -1.24401,0.5236 -0.47981,0 -0.88757,-0.1745 -1.22228,-0.5236 -0.34914,-0.3347 -0.52371,-0.7419 -0.52371,-1.2219 l 0,-20.9471 c 0,-0.4797 0.17457,-0.8947 0.52371,-1.2438 0.33487,-0.3347 0.7421,-0.5019 1.22228,-0.5019 0.48034,0 0.89487,0.1672 1.24401,0.5019 0.33486,0.3491 0.50203,0.7637 0.50203,1.2438 l 0,20.9471"
           inkscape:connector-curvature="0" />
        <path
           id="path3598-43-1-8-5"
           style="font-size:8.73411083px;font-style:normal;font-variant:normal;font-weight:normal;font-stretch:normal;text-indent:0;text-align:start;text-decoration:none;line-height:125%;letter-spacing:0px;word-spacing:0px;text-transform:none;direction:ltr;block-progression:tb;writing-mode:lr-tb;text-anchor:start;color:#000000;fill:#d40000;fill-opacity:1;fill-rule:nonzero;stroke:none;stroke-width:1px;marker:none;visibility:visible;font-family:Comfortaa;-inkscape-font-specification:Comfortaa"
           d="m 345.63063,1047.7134 c 0,0.4797 -0.16716,0.8873 -0.50203,1.2219 -0.34914,0.3491 -0.76388,0.5236 -1.24406,0.5236 -0.48034,0 -0.88757,-0.1745 -1.22222,-0.5236 -0.34915,-0.3348 -0.52372,-0.7419 -0.52372,-1.2219 l 0,-29.6751 -1.74604,0 c -0.47981,0 -0.88757,-0.1746 -1.22222,-0.5236 -0.34915,-0.3348 -0.52372,-0.7419 -0.52372,-1.2219 0,-0.4797 0.17457,-0.8947 0.52372,-1.2438 0.33486,-0.3347 0.74204,-0.5019 1.22222,-0.5019 l 3.49208,0 c 0.47981,0 0.89487,0.1672 1.24407,0.5019 0.33486,0.3491 0.50203,0.7637 0.50203,1.2438 l 0,31.4207"
           inkscape:connector-curvature="0" />
        <path
           id="path3600-73-7-4-5"
           style="font-size:8.73411083px;font-style:normal;font-variant:normal;font-weight:normal;font-stretch:normal;text-indent:0;text-align:start;text-decoration:none;line-height:125%;letter-spacing:0px;word-spacing:0px;text-transform:none;direction:ltr;block-progression:tb;writing-mode:lr-tb;text-anchor:start;color:#000000;fill:#d40000;fill-opacity:1;fill-rule:nonzero;stroke:none;stroke-width:1px;marker:none;visibility:visible;font-family:Comfortaa;-inkscape-font-specification:Comfortaa"
           d="m 314.35454,1028.5118 c 0.32005,1.6729 1.12038,3.1494 2.40079,4.4295 1.70246,1.7019 3.7613,2.5529 6.17664,2.5529 2.4154,0 4.47424,-0.851 6.1767,-2.5529 1.28046,-1.2801 2.08069,-2.7566 2.40079,-4.4295 l -17.15492,0 m 1.85517,-8.0297 c -0.48033,0 -0.88756,-0.1745 -1.22221,-0.5236 -0.34915,-0.3347 -0.52372,-0.7418 -0.52372,-1.2219 5e-5,-0.4797 0.16716,-0.8946 0.50203,-1.2438 2.25531,-1.9637 4.91077,-2.9456 7.96632,-2.9456 3.37576,0 6.25673,1.1928 8.64298,3.5784 2.3863,2.3857 3.57937,5.2659 3.57937,8.6408 0,3.3748 -1.19307,6.255 -3.57937,8.6407 -2.38625,2.3856 -5.26722,3.5784 -8.64298,3.5784 -3.3757,0 -6.25668,-1.1928 -8.64292,-3.5784 -2.38625,-2.3857 -3.57938,-5.2659 -3.57943,-8.6407 5e-5,-0.4803 0.17457,-0.8947 0.52372,-1.2437 0.33486,-0.3348 0.74209,-0.5019 1.22222,-0.5019 l 19.05379,0 c -0.32004,-1.673 -1.12033,-3.1494 -2.40079,-4.4295 -1.70245,-1.702 -3.7613,-2.5529 -6.17669,-2.5529 -2.18253,0 -4.0595,0.6909 -5.63097,2.0729 -0.32005,0.247 -0.6839,0.3707 -1.09129,0.3707"
           inkscape:connector-curvature="0" />
        <path
           id="path3602-8-3-1-4"
           style="font-size:8.73411083px;font-style:normal;font-variant:normal;font-weight:normal;font-stretch:normal;text-indent:0;text-align:start;text-decoration:none;line-height:125%;letter-spacing:0px;word-spacing:0px;text-transform:none;direction:ltr;block-progression:tb;writing-mode:lr-tb;text-anchor:start;color:#000000;fill:#d40000;fill-opacity:1;fill-rule:nonzero;stroke:none;stroke-width:1px;marker:none;visibility:visible;font-family:Comfortaa;-inkscape-font-specification:Comfortaa"
           d="m 281.89981,1035.4942 c 2.4154,0 4.4743,-0.851 6.17664,-2.5529 1.70246,-1.702 2.55363,-3.7603 2.55363,-6.175 0,-2.4148 -0.85117,-4.4731 -2.55363,-6.1751 -1.70234,-1.702 -3.76124,-2.5529 -6.17664,-2.5529 -2.41534,0 -4.47424,0.8509 -6.17664,2.5529 -1.70234,1.702 -2.55357,3.7603 -2.55357,6.1751 0,2.4147 0.85123,4.473 2.55357,6.175 1.7024,1.7019 3.7613,2.5529 6.17664,2.5529 m -8.73021,-17.2814 c 0.0317,-0.032 0.0582,-0.058 0.0873,-0.087 2.3863,-2.3856 5.26727,-3.5785 8.64292,-3.5785 3.37571,0 6.25668,1.1929 8.64293,3.5785 2.3863,2.3856 3.57942,5.2658 3.57942,8.6407 0,3.3748 -1.19312,6.255 -3.57942,8.6407 -2.38625,2.3856 -5.26722,3.5784 -8.64293,3.5784 -3.37565,0 -6.25662,-1.1928 -8.64292,-3.5784 -2.38625,-2.3857 -3.57943,-5.2659 -3.57943,-8.6407 l 0,-12.2192 c 0,-2.5457 0.91672,-4.7567 2.75005,-6.6333 2.56087,-2.5602 5.65281,-3.8403 9.27588,-3.8403 3.62307,0 6.70771,1.2801 9.25404,3.8403 0.94581,0.931 1.71695,1.942 2.31356,3.033 0.17457,0.2618 0.26186,0.5673 0.26186,0.9164 0,0.4797 -0.16717,0.8946 -0.50203,1.2438 -0.34914,0.3347 -0.76389,0.5019 -1.24407,0.5019 -0.47981,0 -0.89481,-0.1672 -1.24406,-0.5019 -0.14548,-0.1603 -0.26927,-0.3348 -0.37084,-0.5236 -0.43643,-0.7855 -0.99665,-1.5202 -1.68055,-2.2039 -1.87697,-1.8764 -4.13959,-2.8147 -6.78775,-2.8148 -2.64816,1e-4 -4.91078,0.9384 -6.7878,2.8148 -1.16398,1.3965 -1.74604,2.7857 -1.74604,4.1676 l 0,3.6658"
           inkscape:connector-curvature="0" />
        <path
           id="path3604-7-6-1-9"
           style="font-size:8.73411083px;font-style:normal;font-variant:normal;font-weight:normal;font-stretch:normal;text-indent:0;text-align:start;text-decoration:none;line-height:125%;letter-spacing:0px;word-spacing:0px;text-transform:none;direction:ltr;block-progression:tb;writing-mode:lr-tb;text-anchor:start;color:#000000;fill:#d40000;fill-opacity:1;fill-rule:nonzero;stroke:none;stroke-width:1px;marker:none;visibility:visible;font-family:Comfortaa;-inkscape-font-specification:Comfortaa"
           d="m 266.18538,1037.2398 c 0,0.4797 -0.16717,0.8874 -0.50203,1.2219 -0.34915,0.3491 -0.76389,0.5236 -1.24402,0.5236 -0.47981,0 -0.88757,-0.1745 -1.22227,-0.5236 -0.34914,-0.3347 -0.52372,-0.7419 -0.52372,-1.2219 l 0,-1.9201 c -2.44449,2.4438 -5.35456,3.6657 -8.73026,3.6657 -1.70235,0 -3.26657,-0.2909 -4.69251,-0.8728 -0.26186,-0.1015 -0.50203,-0.2549 -0.7203,-0.4585 -0.33486,-0.3491 -0.50203,-0.7637 -0.50203,-1.2438 6e-5,-0.4796 0.17458,-0.8946 0.52372,-1.2437 0.33486,-0.3348 0.74204,-0.5019 1.22222,-0.5019 0.27614,0 0.53107,0.058 0.76389,0.1745 1.0331,0.4364 2.16803,0.6546 3.4048,0.6546 2.41534,0 4.47424,-0.8509 6.17664,-2.5529 1.7024,-1.7019 2.55362,-3.7603 2.55362,-6.175 l 0,-10.4735 c 0,-0.4797 0.17458,-0.8947 0.52372,-1.2438 0.33486,-0.3348 0.74209,-0.5019 1.22227,-0.5019 0.47981,0 0.89482,0.1671 1.24402,0.5019 0.33486,0.3491 0.50202,0.7636 0.50202,1.2438 l 0,20.9471"
           inkscape:connector-curvature="0" />
        <path
           id="path3606-19-9-2-8"
           style="font-size:8.73411083px;font-style:normal;font-variant:normal;font-weight:normal;font-stretch:normal;text-indent:0;text-align:start;text-decoration:none;line-height:125%;letter-spacing:0px;word-spacing:0px;text-transform:none;direction:ltr;block-progression:tb;writing-mode:lr-tb;text-anchor:start;color:#000000;fill:#d40000;fill-opacity:1;fill-rule:nonzero;stroke:none;stroke-width:1px;marker:none;visibility:visible;font-family:Comfortaa;-inkscape-font-specification:Comfortaa"
           d="m 233.01046,1035.4942 c 2.41534,0 4.47419,-0.851 6.17664,-2.5529 1.7024,-1.702 2.55357,-3.7603 2.55357,-6.175 0,-2.4148 -0.85117,-4.4731 -2.55357,-6.1751 -1.70245,-1.702 -3.7613,-2.5529 -6.17664,-2.5529 -2.41539,0 -4.47424,0.8509 -6.17669,2.5529 -1.7024,1.702 -2.55357,3.7603 -2.55357,6.1751 0,2.4147 0.85117,4.473 2.55357,6.175 1.70245,1.7019 3.7613,2.5529 6.17669,2.5529 m -8.73026,-17.2814 c 2.44449,-2.4438 5.3545,-3.6657 8.73026,-3.6657 3.3757,0 6.25668,1.1928 8.64293,3.5784 2.38625,2.3857 3.57937,5.2659 3.57937,8.6408 0,3.3748 -1.19312,6.255 -3.57937,8.6407 -2.38625,2.3856 -5.26723,3.5784 -8.64293,3.5784 -3.37576,0 -6.25673,-1.1928 -8.64303,-3.5784 -2.3862,-2.3857 -3.57932,-5.2659 -3.57937,-8.6407 l 0,-10.4736 c 5e-5,-0.4797 0.17457,-0.8947 0.52371,-1.2438 0.33487,-0.3347 0.7421,-0.5019 1.22222,-0.5019 0.47981,0 0.89493,0.1672 1.24412,0.5019 0.33487,0.3491 0.50203,0.7637 0.50203,1.2438 l 0,1.9201"
           inkscape:connector-curvature="0" />
        <path
           id="path3608-9-5-3-3"
           style="font-size:8.73411083px;font-style:normal;font-variant:normal;font-weight:normal;font-stretch:normal;text-indent:0;text-align:start;text-decoration:none;line-height:125%;letter-spacing:0px;word-spacing:0px;text-transform:none;direction:ltr;block-progression:tb;writing-mode:lr-tb;text-anchor:start;color:#000000;fill:#d40000;fill-opacity:1;fill-rule:nonzero;stroke:none;stroke-width:1px;marker:none;visibility:visible;font-family:Comfortaa;-inkscape-font-specification:Comfortaa"
           d="m 204.54985,1049.4589 c -0.48034,0 -0.88757,-0.1745 -1.22227,-0.5235 -0.34915,-0.3348 -0.52372,-0.742 -0.52372,-1.2219 0,-0.4797 0.17457,-0.8947 0.52372,-1.2438 0.33486,-0.3348 0.74209,-0.5019 1.22227,-0.5019 4.65611,0 6.98417,-2.3275 6.98417,-6.9823 l 0,-1.3092 -5.25998,0 c -0.47981,0 -0.88756,-0.1746 -1.22227,-0.5236 -0.34914,-0.3348 -0.52372,-0.7419 -0.52372,-1.2219 6e-5,-0.4797 0.17458,-0.8947 0.52372,-1.2438 0.33486,-0.3347 0.74215,-0.5019 1.22227,-0.5019 l 5.25998,0 0,-17.8923 c 0,-0.4802 0.17457,-0.8947 0.52372,-1.2438 0.33486,-0.3347 0.74214,-0.5019 1.22227,-0.5019 0.47981,0 0.89487,0.1672 1.24407,0.5019 0.33486,0.3491 0.50203,0.7637 0.50203,1.2438 l 0,17.8923 1.74604,0 c 0.47981,0 0.89487,0.1672 1.24407,0.5019 0.33486,0.3491 0.50202,0.7637 0.50202,1.2438 0,0.4797 -0.16716,0.8873 -0.50202,1.2219 -0.34915,0.349 -0.76389,0.5236 -1.24407,0.5236 l -1.74604,0 0,1.3092 c 0,6.9823 -3.49209,10.4735 -10.47626,10.4735"
           inkscape:connector-curvature="0" />
        <path
           id="path3610-3-6-2-5"
           style="font-size:8.73411083px;font-style:normal;font-variant:normal;font-weight:normal;font-stretch:normal;text-indent:0;text-align:start;text-decoration:none;line-height:125%;letter-spacing:0px;word-spacing:0px;text-transform:none;direction:ltr;block-progression:tb;writing-mode:lr-tb;text-anchor:start;color:#000000;fill:#d40000;fill-opacity:1;fill-rule:nonzero;stroke:none;stroke-width:1px;marker:none;visibility:visible;font-family:Comfortaa;-inkscape-font-specification:Comfortaa"
           d="m 195.38305,1044.2222 c 0,-0.5964 0.21848,-1.1129 0.65475,-1.5492 0.42162,-0.4221 0.93121,-0.6328 1.52783,-0.6328 0.59656,0 1.11308,0.211 1.54957,0.6328 0.42161,0.4363 0.63295,0.9528 0.63295,1.5492 0,0.5964 -0.21107,1.1055 -0.63295,1.5274 -0.43644,0.4363 -0.95301,0.6546 -1.54957,0.6546 -0.59662,0 -1.10584,-0.2184 -1.52783,-0.6546 -0.43643,-0.4216 -0.65475,-0.931 -0.65475,-1.5274 m 3.92857,-6.9824 c 0,0.4797 -0.16717,0.8874 -0.50203,1.2219 -0.34915,0.3491 -0.76394,0.5236 -1.24407,0.5236 -0.47981,0 -0.88757,-0.1745 -1.22227,-0.5236 -0.34915,-0.3347 -0.52372,-0.7419 -0.52372,-1.2219 l 0,-20.9471 c 0,-0.4797 0.17457,-0.8947 0.52372,-1.2438 0.33486,-0.3347 0.74209,-0.5019 1.22227,-0.5019 0.47981,0 0.89482,0.1672 1.24407,0.5019 0.33486,0.3491 0.50203,0.7637 0.50203,1.2438 l 0,20.9471"
           inkscape:connector-curvature="0" />
        <path
           id="path3612-64-7-1-7"
           style="font-size:8.73411083px;font-style:normal;font-variant:normal;font-weight:normal;font-stretch:normal;text-indent:0;text-align:start;text-decoration:none;line-height:125%;letter-spacing:0px;word-spacing:0px;text-transform:none;direction:ltr;block-progression:tb;writing-mode:lr-tb;text-anchor:start;color:#000000;fill:#d40000;fill-opacity:1;fill-rule:nonzero;stroke:none;stroke-width:1px;marker:none;visibility:visible;font-family:Comfortaa;-inkscape-font-specification:Comfortaa"
           d="m 187.08927,1029.1228 -14.77593,9.6008 c -0.27614,0.1745 -0.58931,0.2618 -0.93851,0.2618 -0.47981,-10e-5 -0.88752,-0.1746 -1.22222,-0.5236 -0.34915,-0.3348 -0.52372,-0.7419 -0.52372,-1.2219 0,-0.4802 0.16717,-0.8874 0.50203,-1.2219 0.0873,-0.087 0.16717,-0.1603 0.24017,-0.2179 l 10.12706,-6.5897 -10.38897,-11.6955 c -0.32005,-0.349 -0.47981,-0.7563 -0.47981,-1.2219 0,-0.4796 0.17457,-0.8946 0.52372,-1.2437 0.33486,-0.3348 0.74203,-0.5019 1.22221,-0.5019 0.47981,0 0.90212,0.1745 1.26592,0.5236 l 10.8473,12.2192 3.60122,-2.3347 0,-8.6626 c 0,-0.4796 0.17457,-0.8946 0.52372,-1.2437 0.33486,-0.3348 0.74209,-0.5019 1.22227,-0.5019 0.47981,0 0.89482,0.1671 1.24402,0.5019 0.33486,0.349 0.50202,0.7637 0.50202,1.2437 l 0,31.4208 c 0,0.4797 -0.16716,0.8873 -0.50202,1.2219 -0.34915,0.349 -0.76389,0.5236 -1.24402,0.5236 -0.48034,0 -0.88757,-0.1746 -1.22227,-0.5236 -0.34915,-0.3348 -0.52372,-0.742 -0.52372,-1.2219 l 0,-18.5906"
           inkscape:connector-curvature="0" />
        <path
           id="path3614-4-2-5-8"
           style="font-size:8.73411083px;font-style:normal;font-variant:normal;font-weight:normal;font-stretch:normal;text-indent:0;text-align:start;text-decoration:none;line-height:125%;letter-spacing:0px;word-spacing:0px;text-transform:none;direction:ltr;block-progression:tb;writing-mode:lr-tb;text-anchor:start;color:#000000;fill:#d40000;fill-opacity:1;fill-rule:nonzero;stroke:none;stroke-width:1px;marker:none;visibility:visible;font-family:Comfortaa;-inkscape-font-specification:Comfortaa"
           d="m 143.08884,1026.7663 c 6e-5,-3.3749 1.19313,-6.2551 3.57937,-8.6408 2.38631,-2.3856 5.26728,-3.5784 8.64293,-3.5784 3.3757,0 6.25673,1.1928 8.64303,3.5784 2.38625,2.3857 3.57938,5.2659 3.57938,8.6408 0,3.3748 -1.19313,6.255 -3.57938,8.6407 -2.3863,2.3856 -5.26733,3.5784 -8.64303,3.5784 -3.37565,0 -6.25662,-1.1928 -8.64293,-3.5784 -2.38624,-2.3857 -3.57931,-5.2659 -3.57937,-8.6407 m 12.2223,8.7279 c 2.41545,0 4.4743,-0.851 6.17669,-2.5529 1.7024,-1.702 2.55363,-3.7603 2.55358,-6.175 5e-5,-2.4148 -0.85118,-4.4731 -2.55358,-6.1751 -1.70239,-1.702 -3.76124,-2.5529 -6.17669,-2.5529 -2.41529,0 -4.47419,0.8509 -6.17664,2.5529 -1.70235,1.702 -2.55352,3.7603 -2.55357,6.1751 5e-5,2.4147 0.85122,4.473 2.55357,6.175 1.70245,1.7019 3.76135,2.5529 6.17664,2.5529"
           inkscape:connector-curvature="0" />
        <path
           id="path3616-38-9-3-6"
           style="font-size:8.73411083px;font-style:normal;font-variant:normal;font-weight:normal;font-stretch:normal;text-indent:0;text-align:start;text-decoration:none;line-height:125%;letter-spacing:0px;word-spacing:0px;text-transform:none;direction:ltr;block-progression:tb;writing-mode:lr-tb;text-anchor:start;color:#000000;fill:#d40000;fill-opacity:1;fill-rule:nonzero;stroke:none;stroke-width:1px;marker:none;visibility:visible;font-family:Comfortaa;-inkscape-font-specification:Comfortaa"
           d="m 114.27898,1035.4942 c 2.41545,0 4.47429,-0.851 6.17669,-2.5529 1.7024,-1.702 2.55363,-3.7603 2.55363,-6.175 0,-2.4148 -0.85123,-4.4731 -2.55363,-6.1751 -1.7024,-1.702 -3.76124,-2.5529 -6.17669,-2.5529 -2.41529,0 -4.47424,0.8509 -6.17664,2.5529 -1.70235,1.702 -2.55357,3.7603 -2.55362,6.1751 5e-5,2.4147 0.85127,4.473 2.55362,6.175 1.7024,1.7019 3.76135,2.5529 6.17664,2.5529 m -8.73026,-17.2814 c 2.44449,-2.4438 5.35461,-3.6657 8.73026,-3.6657 3.3757,0 6.25668,1.1928 8.64298,3.5784 2.38625,2.3857 3.57943,5.2659 3.57943,8.6408 0,3.3748 -1.19318,6.255 -3.57943,8.6407 -2.3863,2.3856 -5.26728,3.5784 -8.64298,3.5784 -3.37565,0 -6.25663,-1.1928 -8.64293,-3.5784 -2.38624,-2.3857 -3.57937,-5.2659 -3.57942,-8.6407 l 0,-10.4736 c 5e-5,-0.4797 0.17457,-0.8947 0.52372,-1.2438 0.33486,-0.3347 0.74214,-0.5019 1.22227,-0.5019 0.47981,0 0.89482,0.1672 1.24407,0.5019 0.33486,0.3491 0.50203,0.7637 0.50203,1.2438 l 0,1.9201"
           inkscape:connector-curvature="0" />
        <path
           id="path3618-0-5-2-8"
           style="font-size:8.73411083px;font-style:normal;font-variant:normal;font-weight:normal;font-stretch:normal;text-indent:0;text-align:start;text-decoration:none;line-height:125%;letter-spacing:0px;word-spacing:0px;text-transform:none;direction:ltr;block-progression:tb;writing-mode:lr-tb;text-anchor:start;color:#000000;fill:#d40000;fill-opacity:1;fill-rule:nonzero;stroke:none;stroke-width:1px;marker:none;visibility:visible;font-family:Comfortaa;-inkscape-font-specification:Comfortaa"
           d="m 94.243028,1026.7663 c 1.324107,0.4944 2.248071,1.0109 2.771895,1.5492 1.033046,1.0182 1.549569,2.2474 1.549569,3.6875 0,1.4401 -0.538318,2.6984 -1.61506,3.7749 -2.095241,2.1383 -4.830687,3.2075 -8.206443,3.2075 -3.652163,0 -6.78045,-1.4619 -9.384966,-4.3858 -0.232763,-0.2761 -0.341739,-0.6182 -0.327456,-1.0255 0,-0.4802 0.174573,-0.8947 0.523718,-1.2438 0.334862,-0.3347 0.742039,-0.5019 1.222219,-0.5019 0.47981,0 0.865774,0.1529 1.156728,0.4586 0.290954,0.3057 0.502029,0.5235 0.632958,0.6546 1.702452,1.702 3.761297,2.5529 6.176693,2.5529 2.415343,0 4.343312,-0.7564 5.783746,-2.2692 0.349146,-0.4221 0.523718,-0.9238 0.523718,-1.5056 -0.04761,-0.6837 -0.39993,-1.1492 -1.069442,-1.3965 l -10.73822,-3.5566 c -1.324053,-0.4945 -2.248018,-1.0111 -2.771841,-1.5492 -1.033047,-1.0183 -1.54957,-2.2475 -1.549623,-3.6876 5.3e-5,-1.4402 0.538372,-2.6984 1.615061,-3.7749 2.095293,-2.1383 4.830739,-3.2075 8.206495,-3.2075 3.666658,0 6.794998,1.4619 9.384966,4.3858 0.217951,0.3056 0.327456,0.6473 0.327456,1.0255 0,0.4803 -0.167167,0.8874 -0.502028,1.2219 -0.349145,0.3491 -0.763834,0.5236 -1.244068,0.5236 -0.47981,0 -0.865721,-0.1528 -1.156675,-0.4585 -0.290954,-0.3057 -0.502028,-0.5236 -0.632957,-0.6546 -1.702453,-1.702 -3.761298,-2.5529 -6.176694,-2.5529 -2.415343,0 -4.343258,0.7563 -5.783799,2.2692 -0.349145,0.4215 -0.523717,0.9238 -0.523717,1.5056 0.04761,0.6837 0.399929,1.1492 1.069441,1.3965 l 10.738168,3.5566"
           inkscape:connector-curvature="0" />
        <path
           id="path3620-5-8-5-1"
           style="font-size:8.73411083px;font-style:normal;font-variant:normal;font-weight:normal;font-stretch:normal;text-indent:0;text-align:start;text-decoration:none;line-height:125%;letter-spacing:0px;word-spacing:0px;text-transform:none;direction:ltr;block-progression:tb;writing-mode:lr-tb;text-anchor:start;color:#000000;fill:#d40000;fill-opacity:1;fill-rule:nonzero;stroke:none;stroke-width:1px;marker:none;visibility:visible;font-family:Comfortaa;-inkscape-font-specification:Comfortaa"
           d="m 71.937263,1029.1228 -14.775977,9.6008 c -0.276142,0.1745 -0.589262,0.2618 -0.93846,0.2618 -0.47981,-10e-5 -0.887569,-0.1746 -1.222219,-0.5236 -0.349145,-0.3348 -0.523718,-0.7419 -0.523718,-1.2219 0,-0.4802 0.167167,-0.8874 0.502029,-1.2219 0.08729,-0.087 0.167166,-0.1603 0.240169,-0.2179 l 10.127058,-6.5897 -10.38897,-11.6955 c -0.320049,-0.349 -0.47981,-0.7563 -0.47981,-1.2219 0,-0.4796 0.174573,-0.8946 0.523718,-1.2437 0.334862,-0.3348 0.742039,-0.5019 1.222219,-0.5019 0.47981,0 0.902117,0.1745 1.265863,0.5236 l 10.847354,12.2192 3.60122,-2.3347 0,-8.6626 c 0,-0.4796 0.174572,-0.8946 0.523717,-1.2437 0.334862,-0.3348 0.742092,-0.5019 1.22222,-0.5019 0.479809,0 0.894869,0.1671 1.244067,0.5019 0.334862,0.349 0.502028,0.7637 0.502028,1.2437 l 0,31.4208 c 0,0.4797 -0.167166,0.8873 -0.502028,1.2219 -0.349145,0.349 -0.763887,0.5236 -1.244067,0.5236 -0.480339,0 -0.887569,-0.1746 -1.22222,-0.5236 -0.349145,-0.3348 -0.523717,-0.742 -0.523717,-1.2219 l 0,-18.5906"
           inkscape:connector-curvature="0" />
        <path
           id="path3622-6-6-3-2"
           style="font-size:8.73411083px;font-style:normal;font-variant:normal;font-weight:normal;font-stretch:normal;text-indent:0;text-align:start;text-decoration:none;line-height:125%;letter-spacing:0px;word-spacing:0px;text-transform:none;direction:ltr;block-progression:tb;writing-mode:lr-tb;text-anchor:start;color:#000000;fill:#d40000;fill-opacity:1;fill-rule:nonzero;stroke:none;stroke-width:1px;marker:none;visibility:visible;font-family:Comfortaa;-inkscape-font-specification:Comfortaa"
           d="m 31.58165,1028.5118 c 0.320579,1.6729 1.120438,3.1494 2.400849,4.4295 1.702399,1.7019 3.761297,2.5529 6.17664,2.5529 2.415396,0 4.474294,-0.851 6.17664,-2.5529 1.280463,-1.2801 2.080746,-2.7566 2.400848,-4.4295 l -17.154977,0 m 1.85523,-8.0297 c -0.47981,0 -0.887569,-0.1745 -1.222219,-0.5236 -0.349145,-0.3347 -0.523718,-0.7418 -0.523718,-1.2219 0,-0.4797 0.167167,-0.8946 0.502029,-1.2438 2.255371,-1.9637 4.910777,-2.9456 7.966326,-2.9456 3.375703,0 6.256679,1.1928 8.642926,3.5784 2.386301,2.3857 3.579478,5.2659 3.579478,8.6408 0,3.3748 -1.193177,6.255 -3.579478,8.6407 -2.386247,2.3856 -5.267223,3.5784 -8.642926,3.5784 -3.375651,0 -6.256627,-1.1928 -8.642927,-3.5784 -2.386248,-2.3857 -3.579372,-5.2659 -3.579372,-8.6407 0,-0.4803 0.174573,-0.8947 0.523718,-1.2437 0.334862,-0.3348 0.742145,-0.5019 1.222219,-0.5019 l 19.053797,0 c -0.320049,-1.673 -1.120385,-3.1494 -2.400848,-4.4295 -1.702347,-1.702 -3.761244,-2.5529 -6.17664,-2.5529 -2.182527,0 -4.059552,0.6909 -5.630969,2.0729 -0.32005,0.247 -0.683848,0.3707 -1.091343,0.3707"
           inkscape:connector-curvature="0" />
        <path
           id="path3624-0-1-7-5"
           style="font-size:8.73411083px;font-style:normal;font-variant:normal;font-weight:normal;font-stretch:normal;text-indent:0;text-align:start;text-decoration:none;line-height:125%;letter-spacing:0px;word-spacing:0px;text-transform:none;direction:ltr;block-progression:tb;writing-mode:lr-tb;text-anchor:start;color:#000000;fill:#d40000;fill-opacity:1;fill-rule:nonzero;stroke:none;stroke-width:1px;marker:none;visibility:visible;font-family:Comfortaa;-inkscape-font-specification:Comfortaa"
           d="m 12.222404,1035.4942 c 2.415343,0 4.474241,-0.851 6.17664,-2.5529 1.702347,-1.702 2.553626,-3.7603 2.553626,-6.175 0,-2.4148 -0.851279,-4.4731 -2.553626,-6.1751 -1.702399,-1.702 -3.761297,-2.5529 -6.17664,-2.5529 -2.4153959,0 -4.4742936,0.8509 -6.1766931,2.5529 -1.7023995,1.702 -2.5535728,3.7603 -2.5536257,6.1751 5.29e-5,2.4147 0.8512262,4.473 2.5536257,6.175 1.7023995,1.7019 3.7612972,2.5529 6.1766931,2.5529 m -8.7303188,-17.2814 c 2.4444914,-2.4438 5.3546154,-3.6657 8.7303188,-3.6657 3.375651,0 6.256626,1.1928 8.642927,3.5784 2.386248,2.3857 3.579424,5.2659 3.579424,8.6408 0,3.3748 -1.193176,6.255 -3.579424,8.6407 -2.386301,2.3856 -5.267276,3.5784 -8.642927,3.5784 -3.3757034,0 -6.256679,-1.1928 -8.6429796,-3.5784 C 1.1931767,1033.0213 5.2900764e-5,1030.1411 0,1026.7663 l 0,-10.4736 c 5.2900764e-5,-0.4797 0.17457252,-0.8947 0.52371756,-1.2438 0.33486184,-0.3347 0.74209194,-0.5019 1.22227214,-0.5019 0.4798099,0 0.8948693,0.1672 1.2440673,0.5019 0.3348618,0.3491 0.5020282,0.7637 0.5020282,1.2438 l 0,1.9201"
           inkscape:connector-curvature="0" />
      </g>
    </g>
  </g>
</svg>
