<?xml version="1.0" encoding="UTF-8" standalone="no"?>
<!-- Created with Inkscape (http://www.inkscape.org/) -->

<svg
   xmlns:dc="http://purl.org/dc/elements/1.1/"
   xmlns:cc="http://creativecommons.org/ns#"
   xmlns:rdf="http://www.w3.org/1999/02/22-rdf-syntax-ns#"
   xmlns:svg="http://www.w3.org/2000/svg"
   xmlns="http://www.w3.org/2000/svg"
   xmlns:sodipodi="http://sodipodi.sourceforge.net/DTD/sodipodi-0.dtd"
   xmlns:inkscape="http://www.inkscape.org/namespaces/inkscape"
   width="244.26486"
   height="110.07497"
   id="svg2"
   sodipodi:version="0.32"
   inkscape:version="0.48.4 r9939"
   sodipodi:docname="iune.svg"
   inkscape:output_extension="org.inkscape.output.svg.inkscape"
   version="1.1"
   inkscape:export-filename="/home/koxta/proiektuak/iunetrecet/manuala/iune_txikia.png"
   inkscape:export-xdpi="90"
   inkscape:export-ydpi="90">
  <defs
     id="defs4" />
  <sodipodi:namedview
     id="base"
     pagecolor="#ffffff"
     bordercolor="#666666"
     borderopacity="1.0"
     inkscape:pageopacity="0.0"
     inkscape:pageshadow="2"
     inkscape:zoom="1.3265214"
     inkscape:cx="184.59802"
     inkscape:cy="-16.527328"
     inkscape:document-units="mm"
     inkscape:current-layer="layer1"
     inkscape:window-width="698"
     inkscape:window-height="1029"
     inkscape:window-x="0"
     inkscape:window-y="19"
     showgrid="false"
     showguides="true"
     inkscape:guide-bbox="true"
     units="px"
     inkscape:snap-page="true"
     inkscape:snap-to-guides="true"
     inkscape:window-maximized="0"
     borderlayer="true"
     fit-margin-top="0"
     fit-margin-left="0"
     fit-margin-right="0"
     fit-margin-bottom="0"
     inkscape:showpageshadow="false"
     showborder="true" />
  <metadata
     id="metadata7">
    <rdf:RDF>
      <cc:Work
         rdf:about="">
        <dc:format>image/svg+xml</dc:format>
        <dc:type
           rdf:resource="http://purl.org/dc/dcmitype/StillImage" />
        <dc:title />
      </cc:Work>
    </rdf:RDF>
  </metadata>
  <g
     inkscape:label="Capa 1"
     inkscape:groupmode="layer"
     id="layer1"
     transform="translate(-27.631361,-848.38807)">
    <g
       id="g5948"
       transform="matrix(0.98630295,0,0,0.98630295,2.0513226,12.374268)">
      <path
         d="m 247.46985,923.21033 c 3.90139,-0.74613 7.34481,-2.61157 10.3303,-5.59616 3.96922,-3.96826 5.95385,-8.76744 5.95392,-14.39763 -7e-5,-5.63018 -1.9847,-10.42941 -5.95392,-14.39752 -2.98549,-2.98474 -6.42891,-4.85018 -10.3303,-5.59631 l 0,39.98762 M 228.743,918.88601 c -2e-5,1.11915 -0.40712,2.06894 -1.2213,2.84896 -0.78029,0.81404 -1.73022,1.22106 -2.84973,1.22106 -1.11954,0 -2.08644,-0.39009 -2.90064,-1.17009 -4.57993,-5.2572 -6.8699,-11.44696 -6.8699,-18.5694 0,-7.86863 2.78189,-14.58409 8.34567,-20.14639 5.56375,-5.5623 12.28098,-8.34353 20.1517,-8.34353 7.87067,0 14.5879,2.78123 20.1517,8.34353 5.56372,5.5623 8.3456,12.27776 8.34565,20.14639 -5e-5,7.86858 -2.78193,14.58404 -8.34565,20.1465 -5.5638,5.56232 -12.28103,8.34337 -20.1517,8.34337 -1.11957,0 -2.08644,-0.40701 -2.90064,-1.2209 -0.7803,-0.78015 -1.17042,-1.72981 -1.17042,-2.84896 l 0,-44.41384 c -3.90146,0.74613 -7.34487,2.61157 -10.33028,5.59631 -3.96931,3.96811 -5.95394,8.76734 -5.95394,14.39752 0,5.08756 1.61147,9.46261 4.83438,13.12579 0.57672,0.74614 0.86508,1.59402 0.8651,2.54368"
         style="font-size:226.59182739px;font-style:normal;font-variant:normal;font-weight:normal;font-stretch:normal;text-indent:0;text-align:start;text-decoration:none;line-height:125%;letter-spacing:0px;word-spacing:0px;text-transform:none;direction:ltr;block-progression:tb;writing-mode:lr-tb;text-anchor:start;color:#000000;fill:#ffffff;fill-opacity:1;fill-rule:nonzero;stroke:none;stroke-width:1px;marker:none;visibility:visible;font-family:Comfortaa;-inkscape-font-specification:Comfortaa"
         id="path37252-6-1-3-3-6-1"
         inkscape:connector-curvature="0" />
      <path
         inkscape:connector-curvature="0"
         id="path37254-7-6-8-2-0-4"
         d="m 202.68616,931.71319 c 0.97354,0 1.81875,-0.31751 2.56139,-0.93304 0.10291,-0.0886 0.18466,-0.20207 0.28219,-0.30383 0.40708,-0.39006 0.72985,-0.80547 0.93339,-1.28039 0.19508,-0.47491 0.30391,-1.00285 0.30391,-1.56243 l 0,-26.45366 c 0,-7.29212 -2.59264,-13.53897 -7.74933,-18.72813 -0.12894,-0.12894 -0.26038,-0.24396 -0.39072,-0.36895 l 0,0.0226 c -0.63609,-0.61472 -1.30741,-1.19815 -1.97532,-1.7361 -0.33396,-0.26899 -0.65661,-0.53151 -0.99851,-0.78131 -0.34189,-0.24961 -0.69207,-0.48555 -1.04194,-0.71598 -0.6997,-0.46119 -1.41744,-0.87451 -2.14896,-1.25881 -0.36576,-0.19205 -0.73333,-0.36959 -1.10704,-0.54247 -0.35594,-0.16394 -0.72236,-0.33073 -1.08534,-0.47748 -0.0567,-0.0226 -0.11671,-0.0421 -0.17366,-0.0645 -0.34055,-0.13549 -0.6951,-0.27091 -1.04194,-0.39055 -0.32887,-0.11291 -0.66407,-0.22625 -0.99849,-0.32559 -0.0576,-0.0178 -0.11584,-0.0257 -0.17366,-0.0434 -0.3507,-0.10154 -0.70688,-0.19562 -1.06364,-0.28221 -0.30629,-0.0741 -0.60091,-0.15325 -0.91168,-0.2169 -0.53096,-0.10791 -1.084,-0.18432 -1.62801,-0.26043 -0.0295,0 -0.0574,-0.0178 -0.0869,-0.0226 -0.79916,-0.10964 -1.60383,-0.19835 -2.43117,-0.23865 -0.0441,0 -0.086,0 -0.13015,0 -0.44057,-0.0193 -0.87558,-0.0226 -1.32412,-0.0226 -0.52705,0 -1.04699,0.0172 -1.56288,0.0434 -0.79665,0.0421 -1.57386,0.11118 -2.34434,0.21706 -0.461,0.0629 -0.91589,0.13067 -1.36753,0.21689 -0.0524,0.0172 -0.0996,0.0338 -0.15204,0.0435 -0.31881,0.0629 -0.64099,0.12101 -0.95511,0.19527 -0.0508,0.0172 -0.10119,0.0307 -0.15204,0.0434 -0.19628,0.0484 -0.39164,0.1 -0.58609,0.15153 -0.55828,0.14997 -1.10683,0.31172 -1.6497,0.49911 -0.34685,0.11929 -0.70138,0.25575 -1.04194,0.39057 -0.0421,0.0172 -0.0884,0.0257 -0.13015,0.0434 -0.0155,0 -0.0284,0.0172 -0.0433,0.021 -0.35139,0.14187 -0.69729,0.29721 -1.04194,0.45573 -0.0155,0 -0.0288,0.0172 -0.0433,0.0226 -0.0796,0.0371 -0.15962,0.0709 -0.23877,0.10792 -0.28932,0.13704 -0.58367,0.28512 -0.86827,0.43411 -0.73153,0.38412 -1.44926,0.79758 -2.14898,1.25864 -0.34983,0.23042 -0.70001,0.46633 -1.04194,0.71613 -0.3419,0.24964 -0.66453,0.51232 -0.99851,0.78115 -0.6679,0.53796 -1.31749,1.12139 -1.9536,1.73611 l 0,-0.0434 c -0.1379,0.13221 -0.27602,0.2551 -0.41242,0.39056 -5.15671,5.1893 -7.72763,11.436 -7.72761,18.72811 l 0,26.45367 c 2e-5,0.41975 0.0374,0.82161 0.15204,1.19363 0.19085,0.62005 0.5548,1.16171 1.06366,1.64919 0.19077,0.199 0.37502,0.39219 0.58607,0.54264 0.005,0 0.0172,0 0.0219,0 0.10326,0.0726 0.21751,0.15636 0.32561,0.2169 0.005,0 0.0172,0 0.0219,0 0.56719,0.31801 1.1888,0.47748 1.88847,0.47748 0.13997,0 0.27726,-0.0172 0.41244,-0.0226 0.40391,-0.0388 0.79426,-0.12894 1.15047,-0.28219 0.35732,-0.14998 0.68288,-0.36768 0.99851,-0.62924 0.10291,-0.0886 0.18464,-0.20206 0.28219,-0.3038 0.40709,-0.39009 0.72984,-0.80548 0.93339,-1.2804 0.20355,-0.47491 0.30388,-1.00287 0.30389,-1.56242 l 0,-26.45367 c 0,-0.31591 0.009,-0.62294 0.0219,-0.93321 0.0279,-0.6202 0.0686,-1.2254 0.15204,-1.82288 0.0843,-0.59745 0.20682,-1.18298 0.34731,-1.75771 0.13912,-0.57474 0.30443,-1.14074 0.49924,-1.69275 0.19481,-0.55199 0.42246,-1.09849 0.67294,-1.62757 0.8766,-1.85207 2.08828,-3.57028 3.64672,-5.14319 0.67428,-0.66777 1.38002,-1.25863 2.10556,-1.80111 0.005,0 0.0172,0 0.0219,0 0.47914,-0.35766 0.95288,-0.71694 1.45435,-1.01995 2.77349,-1.68951 5.91746,-2.51742 9.39906,-2.51742 2.20413,0 4.25968,0.34284 6.18642,1.01996 0.007,0 0.0172,0 0.0219,0 0.26975,0.0952 0.53884,0.21706 0.80315,0.32558 0.007,0 0.0172,0 0.0219,0 0.2642,0.10808 0.5227,0.22511 0.78145,0.3472 0.005,0 0.0172,0 0.0219,0 0.25878,0.12256 0.50645,0.25478 0.75975,0.39056 0.005,0 0.0172,0 0.0219,0 0.25339,0.1355 0.4901,0.28463 0.73804,0.43412 0.005,0 0.0172,0 0.0219,0 0.24818,0.14997 0.49531,0.33573 0.73803,0.4991 0.005,0 0.0172,0 0.0219,0 0.9902,0.66778 1.92288,1.43166 2.82188,2.32196 2.00372,2.02235 3.44302,4.28707 4.31966,6.77076 0.0974,0.27594 0.19869,0.54297 0.28217,0.82468 0.16704,0.56328 0.30112,1.14994 0.41244,1.73612 0.22264,1.17219 0.3473,2.38227 0.3473,3.64575 l 0,26.45367 c 0,0.41958 0.0374,0.82144 0.15205,1.19346 0.19084,0.62004 0.55478,1.1617 1.06363,1.64936 0.19078,0.19898 0.37506,0.39217 0.58611,0.54247 0.005,0 0.0172,0 0.0219,0 0.10326,0.0726 0.2175,0.15635 0.3256,0.21705 0.005,0 0.0172,0 0.0219,0 0.56719,0.31801 1.18877,0.47733 1.88849,0.47733 z"
         style="font-size:226.59182739px;font-style:normal;font-variant:normal;font-weight:normal;font-stretch:normal;text-indent:0;text-align:start;text-decoration:none;line-height:125%;letter-spacing:0px;word-spacing:0px;text-transform:none;direction:ltr;block-progression:tb;writing-mode:lr-tb;text-anchor:start;color:#000000;fill:#ffffff;fill-opacity:1;fill-rule:nonzero;stroke:none;stroke-width:1px;marker:none;visibility:visible;font-family:Comfortaa;-inkscape-font-specification:Comfortaa" />
      <path
         inkscape:connector-curvature="0"
         id="path37256-2-8-4-2-6-1"
         d="m 119.22354,931.71319 c 0.91173,0 1.81328,-0.0484 2.69164,-0.13067 0.40737,-0.0371 0.81535,-0.0759 1.21559,-0.13066 0.0293,0 0.0576,-0.0178 0.0869,-0.0226 0.81234,-0.11463 1.60506,-0.27028 2.38777,-0.45572 0.22492,-0.0531 0.45045,-0.11447 0.67291,-0.17351 0.23724,-0.0629 0.4819,-0.12429 0.71632,-0.19529 0.40577,-0.12101 0.79643,-0.24882 1.19388,-0.39072 0.79487,-0.28382 1.58287,-0.61165 2.34432,-0.97643 0.38072,-0.18254 0.75636,-0.36154 1.12878,-0.56425 0.37237,-0.2027 0.74301,-0.42813 1.10703,-0.65116 1.82019,-1.11478 3.53304,-2.47985 5.14451,-4.10146 5.19054,-5.15528 7.771,-11.371 7.77103,-18.66293 l 0,-26.4537 c -2e-5,-0.41958 -0.0374,-0.81677 -0.15204,-1.19348 -0.19083,-0.62794 -0.55478,-1.20573 -1.06364,-1.71434 -0.19078,-0.19076 -0.37504,-0.37685 -0.58608,-0.52086 -0.005,0 -0.0172,0 -0.0219,0 -0.10636,-0.0695 -0.21501,-0.13704 -0.32559,-0.19529 -0.005,0 -0.0172,0 -0.0219,0 -0.11015,-0.0564 -0.21108,-0.10654 -0.32559,-0.1517 -0.48006,-0.20027 -0.99581,-0.30381 -1.5629,-0.30381 -0.13997,0 -0.27724,0.0172 -0.41241,0.021 -0.81302,0.0741 -1.55094,0.3501 -2.1707,0.86807 -0.0986,0.0822 -0.16669,0.18833 -0.26047,0.28219 -0.40711,0.40702 -0.72985,0.84049 -0.93338,1.32378 -0.20355,0.48328 -0.30391,1.02448 -0.30391,1.5842 l 0,26.45355 c 0,0.31591 -0.009,0.62327 -0.0219,0.93319 -0.0562,1.24009 -0.21829,2.4339 -0.49924,3.58061 -0.13928,0.57338 -0.30448,1.14262 -0.49927,1.69268 -0.19481,0.55006 -0.42244,1.07915 -0.67291,1.60599 -0.87662,1.84365 -2.08829,3.54171 -3.64675,5.09964 -0.44949,0.44942 -0.91691,0.86548 -1.38922,1.25879 -0.24082,0.20043 -0.49127,0.39993 -0.73802,0.58585 -0.47914,0.3609 -0.95288,0.69244 -1.45436,0.9982 -0.50648,0.30896 -1.03359,0.59358 -1.5629,0.84643 -0.52089,0.24996 -1.06258,0.47764 -1.60631,0.67276 -0.27602,0.0984 -0.5648,0.19773 -0.84654,0.28207 -1.68568,0.50554 -3.48773,0.75951 -5.3833,0.75951 -2.21152,0 -4.27583,-0.35347 -6.20814,-1.04158 -0.82535,-0.29493 -1.61488,-0.64211 -2.38774,-1.06348 -0.005,0 -0.0172,0 -0.0219,0 -0.25209,-0.13704 -0.49151,-0.30446 -0.73804,-0.45571 -0.005,0 -0.0172,0 -0.0219,0 -0.24651,-0.1517 -0.4971,-0.31238 -0.73802,-0.47733 -0.005,0 -0.0172,0 -0.0219,0 -0.99018,-0.67407 -1.92286,-1.46665 -2.82189,-2.36551 -1.3358,-1.33538 -2.42112,-2.77318 -3.25601,-4.31852 -0.41744,-0.77257 -0.77141,-1.56195 -1.06363,-2.38711 -0.0983,-0.27495 -0.1979,-0.56538 -0.28219,-0.84628 -0.16704,-0.5618 -0.30111,-1.12925 -0.41241,-1.7143 -0.22479,-1.1701 -0.34732,-2.38244 -0.34734,-3.6459 l 0,-26.45355 c 2e-5,-0.27995 -0.0172,-0.56393 -0.0652,-0.82468 -0.15273,-0.78225 -0.5398,-1.47277 -1.150449,-2.0833 -0.190777,-0.19077 -0.375037,-0.37669 -0.586085,-0.52087 -0.0052,0 -0.01724,0 -0.02189,0 -0.10636,-0.0693 -0.215014,-0.13704 -0.325597,-0.19528 -0.0052,0 -0.01724,0 -0.02189,0 -0.575604,-0.29832 -1.196097,-0.45572 -1.888508,-0.45572 -0.139975,0 -0.277244,0.0172 -0.412409,0.0226 -0.813011,0.0741 -1.550931,0.34994 -2.170682,0.86807 -0.0986,0.0822 -0.166695,0.18834 -0.260489,0.28203 -0.407099,0.40702 -0.729835,0.84049 -0.933402,1.32378 -0.20355,0.48328 -0.30386,1.02448 -0.303877,1.58421 l 0,26.45369 c 3.4e-5,7.29193 2.602191,13.50749 7.792718,18.66276 0.64461,0.64875 1.29736,1.25542 1.97532,1.82304 0.678,0.56747 1.37248,1.09768 2.08385,1.58405 0.35568,0.24333 0.72132,0.47153 1.08534,0.69455 0.36406,0.22301 0.73468,0.44829 1.10705,0.651 0.3724,0.20269 0.74802,0.38185 1.12875,0.56424 0.38074,0.18239 0.76141,0.35863 1.15046,0.52086 0.38911,0.16221 0.79645,0.31381 1.19389,0.45571 0.39743,0.14187 0.78809,0.26899 1.19388,0.39057 0.26266,0.0791 0.53697,0.1467 0.80315,0.21706 0.14756,0.0388 0.28538,0.0936 0.43413,0.13067 0.0424,0.0172 0.0877,0.0172 0.13015,0.0226 0.37002,0.0871 0.7521,0.16704 1.12874,0.23865 0.73218,0.14032 1.47855,0.24594 2.23581,0.3256 0.11808,0.0172 0.22867,0.0322 0.34728,0.0434 0.0155,0.001 0.029,-0.002 0.0433,0 0.42224,0.0371 0.85076,0.0677 1.28071,0.087 0.007,3.1e-4 0.0155,-3.1e-4 0.0219,0 0.43732,0.0193 0.87884,0.0434 1.32411,0.0434 z"
         style="font-size:226.59182739px;font-style:normal;font-variant:normal;font-weight:normal;font-stretch:normal;text-indent:0;text-align:start;text-decoration:none;line-height:125%;letter-spacing:0px;word-spacing:0px;text-transform:none;direction:ltr;block-progression:tb;writing-mode:lr-tb;text-anchor:start;color:#000000;fill:#ffffff;fill-opacity:1;fill-rule:nonzero;stroke:none;stroke-width:1px;marker:none;visibility:visible;font-family:Comfortaa;-inkscape-font-specification:Comfortaa" />
      <path
         d="m 52.059335,883.22271 c -3.901408,0.7463 -7.344829,2.61174 -10.330314,5.59631 -3.969223,3.96828 -5.953852,8.76749 -5.953904,14.39752 5.2e-5,5.63019 1.984681,10.42937 5.953904,14.39763 2.985485,2.98474 6.428906,4.85003 10.330314,5.59616 l 0,-39.98762 m 18.726835,4.32447 c 1.7e-5,-1.11928 0.407117,-2.06896 1.221317,-2.84911 0.780275,-0.81387 1.730192,-1.22089 2.849716,-1.22089 1.119576,0 2.086439,0.39007 2.900638,1.17009 4.579943,5.25703 6.869897,11.4468 6.869897,18.56927 0,7.86874 -2.781884,14.5842 -8.345668,20.1465 -5.563733,5.56232 -12.280984,8.34353 -20.151684,8.34337 -7.870667,1.6e-4 -14.587918,-2.78105 -20.151719,-8.34337 -5.563715,-5.5623 -8.345599,-12.27776 -8.345668,-20.1465 6.9e-5,-7.86863 2.781953,-14.58409 8.345668,-20.14639 5.563801,-5.5623 12.281052,-8.34337 20.151719,-8.34353 1.119559,1.6e-4 2.086438,0.40702 2.900621,1.22104 0.780309,0.78017 1.170446,1.72985 1.170429,2.84896 l 0,44.41371 c 3.901442,-0.74613 7.344863,-2.61142 10.330297,-5.59616 3.969292,-3.96826 5.953904,-8.76744 5.953904,-14.39763 0,-5.08738 -1.611437,-9.46267 -4.834362,-13.12567 -0.576725,-0.74615 -0.865088,-1.59403 -0.865105,-2.54369"
         style="font-size:226.59182739px;font-style:normal;font-variant:normal;font-weight:normal;font-stretch:normal;text-indent:0;text-align:start;text-decoration:none;line-height:125%;letter-spacing:0px;word-spacing:0px;text-transform:none;direction:ltr;block-progression:tb;writing-mode:lr-tb;text-anchor:start;color:#000000;fill:#ffffff;fill-opacity:1;fill-rule:nonzero;stroke:none;stroke-width:1px;marker:none;visibility:visible;font-family:Comfortaa;-inkscape-font-specification:Comfortaa"
         id="path37258-8-6-9-6-9-9"
         inkscape:connector-curvature="0" />
      <path
         inkscape:connector-curvature="0"
         id="path37292-0-7-4-5-7-4-7"
         d="m 48.430758,856.08572 c 0,-4.25131 3.447248,-7.69765 7.699628,-7.69765 4.25238,0 7.69961,3.44634 7.69961,7.69765 0,4.25126 -3.44723,7.69761 -7.69961,7.69761 -4.25238,0 -7.699628,-3.44635 -7.699628,-7.69761 z"
         style="color:#000000;fill:#d40000;fill-opacity:1;fill-rule:nonzero;stroke:none;stroke-width:2;marker:none;visibility:visible;display:inline;overflow:visible;enable-background:accumulate" />
      <path
         inkscape:connector-curvature="0"
         d="m 99.458909,856.32964 c 0,-0.74921 -0.264092,-1.38783 -0.792293,-1.91591 -0.528217,-0.52805 -1.167013,-0.79209 -1.916433,-0.79209 -0.749407,0 -1.388201,0.26404 -1.916421,0.79209 -0.528198,0.52808 -0.792292,1.1667 -0.792292,1.91591 0,0.74923 0.264094,1.38786 0.792292,1.91594 0.52822,0.52807 1.167014,0.79208 1.916421,0.79208 0.74942,0 1.388216,-0.26401 1.916433,-0.79208 0.528201,-0.52808 0.792293,-1.16671 0.792293,-1.91594 m 0,-6.51276 c 0,-0.14902 0.05187,-0.2753 0.155764,-0.37912 0.108327,-0.10831 0.237011,-0.16245 0.386007,-0.16245 0.14887,0 0.27539,0.0541 0.37922,0.16245 0.10833,0.10385 0.16249,0.23019 0.16249,0.37912 l 0,6.51276 c -1e-5,1.04712 -0.3702,1.94076 -1.11058,2.68097 -0.740379,0.74017 -1.634253,1.11026 -2.681646,1.11026 -1.047374,0 -1.941251,-0.37009 -2.681627,-1.11026 -0.740378,-0.74021 -1.110569,-1.63385 -1.110569,-2.68097 0,-1.0471 0.370191,-1.94073 1.110569,-2.68094 0.740376,-0.74018 1.634253,-1.11027 2.681627,-1.11027 1.047393,0 1.941267,0.37009 2.681646,1.11027 0.0098,0.01 0.01806,0.018 0.02709,0.027 l 0,-3.8589"
         style="font-size:8.73411083px;font-style:normal;font-variant:normal;font-weight:normal;font-stretch:normal;text-indent:0;text-align:start;text-decoration:none;line-height:125%;letter-spacing:0px;word-spacing:0px;text-transform:none;direction:ltr;block-progression:tb;writing-mode:lr-tb;text-anchor:start;color:#000000;fill:#d40000;fill-opacity:1;fill-rule:nonzero;stroke:none;stroke-width:1px;marker:none;visibility:visible;font-family:Comfortaa;-inkscape-font-specification:Comfortaa"
         id="path3576-5-9-1" />
      <path
         inkscape:connector-curvature="0"
         d="m 103.38656,850.91362 c 0,0.18504 -0.0676,0.3453 -0.20314,0.48067 -0.13082,0.13096 -0.28895,0.19634 -0.47404,0.19634 -0.1851,0 -0.34536,-0.0655 -0.48078,-0.19634 -0.13082,-0.13537 -0.19639,-0.29563 -0.19639,-0.48067 0,-0.18505 0.0655,-0.343 0.19639,-0.47391 0.13541,-0.13537 0.29568,-0.2031 0.48078,-0.2031 0.18509,0 0.34311,0.0678 0.47404,0.2031 0.13541,0.13081 0.20314,0.28886 0.20314,0.47391 m -1.21892,2.16642 c 0,-0.14884 0.0519,-0.27533 0.15576,-0.37912 0.10833,-0.10831 0.23703,-0.16246 0.38599,-0.16246 0.14887,0 0.27539,0.0542 0.37922,0.16246 0.10833,0.10385 0.16249,0.23019 0.16249,0.37912 l 0,6.49923 c 0,0.14883 -0.0542,0.27759 -0.16249,0.38591 -0.1039,0.10385 -0.23023,0.15572 -0.37922,0.15572 -0.14887,0 -0.27763,-0.0519 -0.38599,-0.15572 -0.1039,-0.10832 -0.15576,-0.23695 -0.15576,-0.38591 l 0,-6.49923"
         style="font-size:8.73411083px;font-style:normal;font-variant:normal;font-weight:normal;font-stretch:normal;text-indent:0;text-align:start;text-decoration:none;line-height:125%;letter-spacing:0px;word-spacing:0px;text-transform:none;direction:ltr;block-progression:tb;writing-mode:lr-tb;text-anchor:start;color:#000000;fill:#d40000;fill-opacity:1;fill-rule:nonzero;stroke:none;stroke-width:1px;marker:none;visibility:visible;font-family:Comfortaa;-inkscape-font-specification:Comfortaa"
         id="path3578-8-0-7" />
      <path
         inkscape:connector-curvature="0"
         d="m 106.21718,856.32964 c -0.41083,-0.1534 -0.69751,-0.31365 -0.86002,-0.48067 -0.32053,-0.31592 -0.4808,-0.6973 -0.4808,-1.14412 0,-0.44681 0.16704,-0.83723 0.50111,-1.17123 0.65008,-0.66345 1.49882,-0.99519 2.5462,-0.99519 1.13315,0 2.10378,0.45359 2.91187,1.36078 0.0722,0.0857 0.10603,0.19181 0.1016,0.31818 0,0.14899 -0.0542,0.2776 -0.16249,0.38591 -0.1039,0.10385 -0.23025,0.15573 -0.37922,0.15573 -0.14887,0 -0.26862,-0.0474 -0.35891,-0.14229 -0.0903,-0.0949 -0.15576,-0.16243 -0.19638,-0.2031 -0.5282,-0.52808 -1.167,-0.79209 -1.91642,-0.79209 -0.74941,0 -1.3476,0.23469 -1.79452,0.70406 -0.10833,0.13097 -0.16249,0.28663 -0.16249,0.46714 0.0148,0.21213 0.12425,0.35656 0.33183,0.43329 l 3.33173,1.1035 c 0.41082,0.15343 0.69749,0.31372 0.86002,0.48067 0.32052,0.31595 0.48078,0.69733 0.4808,1.14415 -2e-5,0.44685 -0.16704,0.83723 -0.50112,1.17123 -0.65009,0.66345 -1.49883,0.99519 -2.5462,0.99519 -1.13767,0 -2.10828,-0.45358 -2.91188,-1.36078 -0.0676,-0.0948 -0.1016,-0.20083 -0.1016,-0.31818 0,-0.14902 0.0519,-0.27533 0.15577,-0.37912 0.10832,-0.10831 0.237,-0.16245 0.38599,-0.16245 0.14887,0 0.26861,0.0474 0.35889,0.14226 0.0903,0.0948 0.15577,0.16245 0.19639,0.2031 0.5282,0.52808 1.16702,0.79208 1.91642,0.79208 0.74942,0 1.34758,-0.23465 1.79453,-0.70406 0.10833,-0.13078 0.1625,-0.28663 0.1625,-0.46714 -0.0148,-0.21213 -0.12409,-0.35656 -0.33182,-0.43329 l -3.33173,-1.1035"
         style="font-size:8.73411083px;font-style:normal;font-variant:normal;font-weight:normal;font-stretch:normal;text-indent:0;text-align:start;text-decoration:none;line-height:125%;letter-spacing:0px;word-spacing:0px;text-transform:none;direction:ltr;block-progression:tb;writing-mode:lr-tb;text-anchor:start;color:#000000;fill:#d40000;fill-opacity:1;fill-rule:nonzero;stroke:none;stroke-width:1px;marker:none;visibility:visible;font-family:Comfortaa;-inkscape-font-specification:Comfortaa"
         id="path3580-2-3-9" />
      <path
         inkscape:connector-curvature="0"
         d="m 118.50801,855.78806 c -0.0993,-0.51905 -0.34762,-0.97716 -0.74491,-1.37433 -0.5282,-0.52805 -1.16701,-0.79209 -1.91641,-0.79209 -0.74943,0 -1.38822,0.26404 -1.91642,0.79209 -0.39727,0.39717 -0.64559,0.85528 -0.74489,1.37433 l 5.32263,0 m -0.5756,2.49137 c 0.14887,0 0.27538,0.0541 0.37923,0.16245 0.10833,0.10385 0.16249,0.23016 0.16249,0.37912 -1e-5,0.14884 -0.0519,0.27757 -0.15576,0.38591 -0.69977,0.60928 -1.52366,0.91393 -2.47172,0.91393 -1.04737,0 -1.94125,-0.37009 -2.68163,-1.11026 -0.74037,-0.74021 -1.11058,-1.63385 -1.11058,-2.68097 0,-1.0471 0.37021,-1.94073 1.11058,-2.68094 0.74038,-0.74018 1.63426,-1.11027 2.68163,-1.11027 1.04738,0 1.94125,0.37009 2.68165,1.11027 0.74036,0.74021 1.11056,1.63384 1.11058,2.68094 -2e-5,0.14902 -0.0542,0.27759 -0.16249,0.38588 -0.1039,0.10388 -0.23025,0.15572 -0.37922,0.15572 l -5.91178,0 c 0.0993,0.51908 0.34762,0.97716 0.74489,1.37434 0.52821,0.52807 1.167,0.79208 1.91642,0.79208 0.67719,0 1.25955,-0.21436 1.74713,-0.64316 0.0993,-0.0766 0.21218,-0.11501 0.33859,-0.11501"
         style="font-size:8.73411083px;font-style:normal;font-variant:normal;font-weight:normal;font-stretch:normal;text-indent:0;text-align:start;text-decoration:none;line-height:125%;letter-spacing:0px;word-spacing:0px;text-transform:none;direction:ltr;block-progression:tb;writing-mode:lr-tb;text-anchor:start;color:#000000;fill:#d40000;fill-opacity:1;fill-rule:nonzero;stroke:none;stroke-width:1px;marker:none;visibility:visible;font-family:Comfortaa;-inkscape-font-specification:Comfortaa"
         id="path3582-1-5-6" />
      <path
         inkscape:connector-curvature="0"
         d="m 122.48305,850.91362 c 0,0.18504 -0.0676,0.3453 -0.20315,0.48067 -0.13081,0.13096 -0.28892,0.19634 -0.47402,0.19634 -0.18511,0 -0.34537,-0.0655 -0.4808,-0.19634 -0.13081,-0.13537 -0.19638,-0.29563 -0.19638,-0.48067 0,-0.18505 0.0655,-0.343 0.19638,-0.47391 0.13541,-0.13537 0.29569,-0.2031 0.4808,-0.2031 0.1851,0 0.34311,0.0678 0.47402,0.2031 0.13541,0.13081 0.20315,0.28886 0.20315,0.47391 m -1.21891,2.16642 c 0,-0.14884 0.0519,-0.27533 0.15576,-0.37912 0.10833,-0.10831 0.23703,-0.16246 0.38602,-0.16246 0.14887,0 0.27538,0.0542 0.37921,0.16246 0.10833,0.10385 0.1625,0.23019 0.1625,0.37912 l 0,6.49923 c 0,0.14883 -0.0542,0.27759 -0.1625,0.38591 -0.10389,0.10385 -0.23023,0.15572 -0.37921,0.15572 -0.14904,0 -0.27765,-0.0519 -0.38602,-0.15572 -0.10389,-0.10832 -0.15576,-0.23695 -0.15576,-0.38591 l 0,-6.49923"
         style="font-size:8.73411083px;font-style:normal;font-variant:normal;font-weight:normal;font-stretch:normal;text-indent:0;text-align:start;text-decoration:none;line-height:125%;letter-spacing:0px;word-spacing:0px;text-transform:none;direction:ltr;block-progression:tb;writing-mode:lr-tb;text-anchor:start;color:#000000;fill:#d40000;fill-opacity:1;fill-rule:nonzero;stroke:none;stroke-width:1px;marker:none;visibility:visible;font-family:Comfortaa;-inkscape-font-specification:Comfortaa"
         id="path3584-22-6-0" />
      <path
         inkscape:connector-curvature="0"
         id="path3586-0-8-1"
         d="m 130.49009,860.13992 c 0.14887,0 0.25068,-0.05 0.35905,-0.15377 0.10389,-0.10828 0.15379,-0.26127 0.15379,-0.41023 l 0,-3.53821 c -2e-5,-0.97037 -0.33513,-1.77536 -1.02584,-2.4614 -0.0169,-0.0171 -0.0341,-0.0346 -0.0514,-0.0514 -0.16928,-0.1636 -0.32669,-0.28752 -0.51292,-0.41023 -0.18933,-0.12948 -0.3571,-0.22135 -0.56421,-0.30767 -0.0131,-0.005 -0.0377,0.005 -0.0514,0 -0.40207,-0.16065 -0.81404,-0.2564 -1.2823,-0.2564 -0.24266,0 -0.49321,0.008 -0.71809,0.0514 -0.44018,0.0819 -0.85857,0.26736 -1.23101,0.51278 -0.17059,0.11666 -0.35676,0.25855 -0.51292,0.41024 -0.0171,0.0168 -0.0343,0.0341 -0.0514,0.0513 -0.69072,0.68603 -1.02583,1.49099 -1.02585,2.46136 l 0,3.53824 c 2e-5,0.14883 0.0455,0.30192 0.1538,0.41024 0.10389,0.10384 0.26137,0.15373 0.41033,0.15373 0.0745,0 0.14083,-0.0251 0.20517,-0.0514 0.0632,-0.0261 0.10193,-0.0505 0.1538,-0.10257 0.10833,-0.10828 0.15379,-0.26137 0.15379,-0.41021 l 0,-3.53824 c 0,-0.67247 0.24405,-1.21827 0.71809,-1.69217 0.3589,-0.35883 0.7629,-0.57692 1.23101,-0.66664 0.15576,-0.0298 0.34474,-0.0514 0.51292,-0.0514 0.67267,0 1.2141,0.23949 1.69264,0.7179 0.1185,0.11846 0.21887,0.22804 0.30775,0.35894 0.0898,0.13094 0.19665,0.26693 0.25646,0.41024 0.1185,0.2866 0.15379,0.58675 0.15379,0.92302 l 0,3.53821 c 0,0.14884 0.0455,0.30192 0.15379,0.41024 0.1039,0.10388 0.26134,0.15374 0.41034,0.15374 z"
         style="font-size:8.73411083px;font-style:normal;font-variant:normal;font-weight:normal;font-stretch:normal;text-indent:0;text-align:start;text-decoration:none;line-height:125%;letter-spacing:0px;word-spacing:0px;text-transform:none;direction:ltr;block-progression:tb;writing-mode:lr-tb;text-anchor:start;color:#000000;fill:#d40000;fill-opacity:1;fill-rule:nonzero;stroke:none;stroke-width:1px;marker:none;visibility:visible;font-family:Comfortaa;-inkscape-font-specification:Comfortaa" />
      <path
         inkscape:connector-curvature="0"
         d="m 135.89123,853.62164 c -0.7494,0 -1.38822,0.26404 -1.91642,0.79209 -0.5282,0.52808 -0.79229,1.1667 -0.79229,1.91591 0,0.74923 0.26409,1.38786 0.79229,1.91594 0.5282,0.52807 1.16702,0.79208 1.91642,0.79208 0.74942,0 1.38822,-0.26401 1.91642,-0.79208 0.52821,-0.52808 0.79231,-1.16671 0.79231,-1.91594 0,-0.74921 -0.2641,-1.38783 -0.79231,-1.91591 -0.5282,-0.52805 -1.167,-0.79209 -1.91642,-0.79209 m 2.70873,5.36188 c -0.75845,0.75823 -1.66136,1.13735 -2.70873,1.13735 -1.04737,0 -1.94125,-0.37009 -2.68163,-1.11026 -0.74038,-0.74021 -1.11057,-1.63385 -1.11057,-2.68097 0,-1.0471 0.37019,-1.94073 1.11057,-2.68094 0.74038,-0.74018 1.63426,-1.11027 2.68163,-1.11027 1.04737,0 1.94125,0.37009 2.68165,1.11027 0.74036,0.74021 1.11056,1.63384 1.11058,2.68094 l 0,3.24963 c -2e-5,0.14883 -0.0542,0.27759 -0.16249,0.38591 -0.1039,0.10385 -0.23024,0.15572 -0.37922,0.15572 -0.14887,0 -0.27765,-0.0519 -0.386,-0.15572 -0.10389,-0.10832 -0.15576,-0.23695 -0.15576,-0.38591 l 0,-0.59575"
         style="font-size:8.73411083px;font-style:normal;font-variant:normal;font-weight:normal;font-stretch:normal;text-indent:0;text-align:start;text-decoration:none;line-height:125%;letter-spacing:0px;word-spacing:0px;text-transform:none;direction:ltr;block-progression:tb;writing-mode:lr-tb;text-anchor:start;color:#000000;fill:#d40000;fill-opacity:1;fill-rule:nonzero;stroke:none;stroke-width:1px;marker:none;visibility:visible;font-family:Comfortaa;-inkscape-font-specification:Comfortaa"
         id="path3588-70-8-0" />
      <path
         inkscape:connector-curvature="0"
         d="m 143.96323,859.03766 c 0.14904,0 0.27539,0.0542 0.37922,0.16246 0.10833,0.10388 0.16249,0.23019 0.16249,0.37912 0,0.14883 -0.0542,0.27759 -0.16249,0.38591 -0.1039,0.10384 -0.23023,0.15572 -0.37922,0.15572 -1.80582,0 -2.70871,-0.90269 -2.70871,-2.70802 l 0,-3.79121 -0.54176,0 c -0.14887,0 -0.27763,-0.0519 -0.38599,-0.15572 -0.1039,-0.10832 -0.15577,-0.23695 -0.15577,-0.38591 0,-0.14884 0.0519,-0.2753 0.15577,-0.37912 0.10833,-0.10828 0.23702,-0.16246 0.38599,-0.16246 l 0.54176,0 0,-2.70802 c 0,-0.14881 0.0519,-0.27527 0.15577,-0.37912 0.10832,-0.10828 0.237,-0.16242 0.38597,-0.16242 0.14887,0 0.27539,0.0541 0.37923,0.16242 0.10833,0.10388 0.1625,0.23022 0.1625,0.37912 l 0,2.70802 1.09026,0 c 0.14887,3e-5 0.27539,0.0542 0.37922,0.16246 0.10833,0.10388 0.16249,0.23019 0.16249,0.37912 0,0.14883 -0.0542,0.27759 -0.16249,0.38591 -0.1039,0.10385 -0.23025,0.15572 -0.37922,0.15572 l -1.09026,0 0,3.79121 c 0,1.08318 0.54172,1.62481 1.62523,1.62481"
         style="font-size:8.73411083px;font-style:normal;font-variant:normal;font-weight:normal;font-stretch:normal;text-indent:0;text-align:start;text-decoration:none;line-height:125%;letter-spacing:0px;word-spacing:0px;text-transform:none;direction:ltr;block-progression:tb;writing-mode:lr-tb;text-anchor:start;color:#000000;fill:#d40000;fill-opacity:1;fill-rule:nonzero;stroke:none;stroke-width:1px;marker:none;visibility:visible;font-family:Comfortaa;-inkscape-font-specification:Comfortaa"
         id="path3590-7-1-7" />
      <path
         inkscape:connector-curvature="0"
         d="m 151.54765,859.03766 c 0.14887,0 0.27537,0.0542 0.37922,0.16246 0.10833,0.10388 0.1625,0.23019 0.1625,0.37912 0,0.14883 -0.0542,0.27759 -0.1625,0.38591 -0.1039,0.10384 -0.23025,0.15572 -0.37922,0.15572 l -5.41745,0 c -0.14887,0 -0.27763,-0.0519 -0.38599,-0.15572 -0.1039,-0.10832 -0.15577,-0.23695 -0.15577,-0.38591 0,-0.12635 0.0361,-0.23696 0.10833,-0.33174 l 4.69285,-5.62589 -4.25947,0 c -0.14887,0 -0.27763,-0.0518 -0.38599,-0.15572 -0.1039,-0.10829 -0.15577,-0.23692 -0.15577,-0.38588 0,-0.14884 0.0519,-0.27533 0.15577,-0.37912 0.10832,-0.10831 0.23702,-0.16246 0.38599,-0.16246 l 5.41747,0 c 0.14887,0 0.27537,0.0542 0.37922,0.16246 0.10833,0.10385 0.16249,0.23019 0.16249,0.37912 0,0.13537 -0.0428,0.25274 -0.12868,0.35203 l -4.67933,5.60559 4.26627,0"
         style="font-size:8.73411083px;font-style:normal;font-variant:normal;font-weight:normal;font-stretch:normal;text-indent:0;text-align:start;text-decoration:none;line-height:125%;letter-spacing:0px;word-spacing:0px;text-transform:none;direction:ltr;block-progression:tb;writing-mode:lr-tb;text-anchor:start;color:#000000;fill:#d40000;fill-opacity:1;fill-rule:nonzero;stroke:none;stroke-width:1px;marker:none;visibility:visible;font-family:Comfortaa;-inkscape-font-specification:Comfortaa"
         id="path3592-97-53-2" />
      <path
         inkscape:connector-curvature="0"
         d="m 156.53171,853.62164 c -0.74943,0 -1.38823,0.26404 -1.91643,0.79209 -0.5282,0.52808 -0.79231,1.1667 -0.79231,1.91591 0,0.74923 0.26411,1.38786 0.79231,1.91594 0.5282,0.52807 1.167,0.79208 1.91643,0.79208 0.74939,0 1.38822,-0.26401 1.91642,-0.79208 0.52819,-0.52808 0.79229,-1.16671 0.79229,-1.91594 0,-0.74921 -0.2641,-1.38783 -0.79229,-1.91591 -0.5282,-0.52805 -1.16703,-0.79209 -1.91642,-0.79209 m 2.70871,5.36188 c -0.75843,0.75823 -1.66135,1.13735 -2.70871,1.13735 -1.04737,0 -1.94125,-0.37009 -2.68164,-1.11026 -0.74038,-0.74021 -1.11058,-1.63385 -1.11058,-2.68097 0,-1.0471 0.3702,-1.94073 1.11058,-2.68094 0.74039,-0.74018 1.63427,-1.11027 2.68164,-1.11027 1.04736,0 1.94124,0.37009 2.68163,1.11027 0.74038,0.74021 1.11057,1.63384 1.11059,2.68094 l 0,3.24963 c -2e-5,0.14883 -0.0542,0.27759 -0.1625,0.38591 -0.1039,0.10385 -0.23026,0.15572 -0.37923,0.15572 -0.14887,0 -0.27765,-0.0519 -0.38599,-0.15572 -0.1039,-0.10832 -0.15577,-0.23695 -0.15577,-0.38591 l 0,-0.59575"
         style="font-size:8.73411083px;font-style:normal;font-variant:normal;font-weight:normal;font-stretch:normal;text-indent:0;text-align:start;text-decoration:none;line-height:125%;letter-spacing:0px;word-spacing:0px;text-transform:none;direction:ltr;block-progression:tb;writing-mode:lr-tb;text-anchor:start;color:#000000;fill:#d40000;fill-opacity:1;fill-rule:nonzero;stroke:none;stroke-width:1px;marker:none;visibility:visible;font-family:Comfortaa;-inkscape-font-specification:Comfortaa"
         id="path3594-9-1-5" />
      <path
         inkscape:connector-curvature="0"
         d="m 163.16806,850.91362 c 0,0.18504 -0.0676,0.3453 -0.20314,0.48067 -0.13082,0.13096 -0.28893,0.19634 -0.47403,0.19634 -0.18511,0 -0.34537,-0.0655 -0.48079,-0.19634 -0.13082,-0.13537 -0.19639,-0.29563 -0.19639,-0.48067 0,-0.18505 0.0655,-0.343 0.19639,-0.47391 0.13541,-0.13537 0.29568,-0.2031 0.48079,-0.2031 0.1851,0 0.34311,0.0678 0.47403,0.2031 0.13541,0.13081 0.20314,0.28886 0.20314,0.47391 m -1.21891,2.16642 c 0,-0.14884 0.0519,-0.27533 0.15577,-0.37912 0.10832,-0.10831 0.23699,-0.16246 0.38597,-0.16246 0.14887,0 0.27539,0.0542 0.37924,0.16246 0.10833,0.10385 0.16249,0.23019 0.16249,0.37912 l 0,6.49923 c 0,0.14883 -0.0542,0.27759 -0.16249,0.38591 -0.1039,0.10385 -0.23025,0.15572 -0.37924,0.15572 -0.14903,0 -0.27765,-0.0519 -0.38597,-0.15572 -0.1039,-0.10832 -0.15577,-0.23695 -0.15577,-0.38591 l 0,-6.49923"
         style="font-size:8.73411083px;font-style:normal;font-variant:normal;font-weight:normal;font-stretch:normal;text-indent:0;text-align:start;text-decoration:none;line-height:125%;letter-spacing:0px;word-spacing:0px;text-transform:none;direction:ltr;block-progression:tb;writing-mode:lr-tb;text-anchor:start;color:#000000;fill:#d40000;fill-opacity:1;fill-rule:nonzero;stroke:none;stroke-width:1px;marker:none;visibility:visible;font-family:Comfortaa;-inkscape-font-specification:Comfortaa"
         id="path3596-4-8-3" />
      <path
         inkscape:connector-curvature="0"
         d="m 164.65788,849.83041 c 0,-0.14884 0.0519,-0.2753 0.15577,-0.37912 0.10832,-0.10831 0.237,-0.16245 0.38599,-0.16245 0.14903,0 0.27538,0.0541 0.37921,0.16245 0.10834,0.10388 0.1625,0.23019 0.1625,0.37912 l 0,9.20725 0.54174,0 c 0.14887,0 0.27539,0.0542 0.37922,0.16246 0.10833,0.10388 0.16249,0.23019 0.16249,0.37912 0,0.14883 -0.0542,0.27759 -0.16249,0.38591 -0.1039,0.10384 -0.23024,0.15572 -0.37922,0.15572 l -1.08348,0 c -0.14887,0 -0.27765,-0.0519 -0.386,-0.15572 -0.1039,-0.10832 -0.15576,-0.23695 -0.15576,-0.38591 l 0,-9.74886"
         style="font-size:8.73411083px;font-style:normal;font-variant:normal;font-weight:normal;font-stretch:normal;text-indent:0;text-align:start;text-decoration:none;line-height:125%;letter-spacing:0px;word-spacing:0px;text-transform:none;direction:ltr;block-progression:tb;writing-mode:lr-tb;text-anchor:start;color:#000000;fill:#d40000;fill-opacity:1;fill-rule:nonzero;stroke:none;stroke-width:1px;marker:none;visibility:visible;font-family:Comfortaa;-inkscape-font-specification:Comfortaa"
         id="path3598-43-2-2" />
      <path
         inkscape:connector-curvature="0"
         d="m 174.36187,855.78806 c -0.0993,-0.51905 -0.34762,-0.97716 -0.74489,-1.37433 -0.52822,-0.52805 -1.16701,-0.79209 -1.91642,-0.79209 -0.74942,0 -1.38821,0.26404 -1.91643,0.79209 -0.39729,0.39717 -0.64558,0.85528 -0.74489,1.37433 l 5.32263,0 m -0.5756,2.49137 c 0.14903,0 0.27538,0.0541 0.37921,0.16245 0.10833,0.10385 0.1625,0.23016 0.1625,0.37912 -2e-5,0.14884 -0.0519,0.27757 -0.15577,0.38591 -0.69975,0.60928 -1.52366,0.91393 -2.4717,0.91393 -1.04739,0 -1.94126,-0.37009 -2.68164,-1.11026 -0.7404,-0.74021 -1.11057,-1.63385 -1.11057,-2.68097 0,-1.0471 0.37017,-1.94073 1.11057,-2.68094 0.74038,-0.74018 1.63425,-1.11027 2.68164,-1.11027 1.04738,0 1.94126,0.37009 2.68163,1.11027 0.74038,0.74021 1.11057,1.63384 1.11059,2.68094 -2e-5,0.14902 -0.0542,0.27759 -0.1625,0.38588 -0.1039,0.10388 -0.23025,0.15572 -0.37922,0.15572 l -5.91179,0 c 0.0993,0.51908 0.34761,0.97716 0.74489,1.37434 0.52822,0.52807 1.16701,0.79208 1.91643,0.79208 0.67718,0 1.25954,-0.21436 1.74712,-0.64316 0.0993,-0.0766 0.21219,-0.11501 0.33859,-0.11501"
         style="font-size:8.73411083px;font-style:normal;font-variant:normal;font-weight:normal;font-stretch:normal;text-indent:0;text-align:start;text-decoration:none;line-height:125%;letter-spacing:0px;word-spacing:0px;text-transform:none;direction:ltr;block-progression:tb;writing-mode:lr-tb;text-anchor:start;color:#000000;fill:#d40000;fill-opacity:1;fill-rule:nonzero;stroke:none;stroke-width:1px;marker:none;visibility:visible;font-family:Comfortaa;-inkscape-font-specification:Comfortaa"
         id="path3600-73-9-9" />
      <path
         inkscape:connector-curvature="0"
         d="m 184.43155,853.62164 c -0.74942,0 -1.38823,0.26404 -1.91641,0.79209 -0.52822,0.52808 -0.79231,1.1667 -0.79231,1.91591 0,0.74923 0.26409,1.38786 0.79231,1.91594 0.52818,0.52807 1.16699,0.79208 1.91641,0.79208 0.74941,0 1.38822,-0.26401 1.91642,-0.79208 0.52819,-0.52808 0.7923,-1.16671 0.7923,-1.91594 0,-0.74921 -0.26411,-1.38783 -0.7923,-1.91591 -0.5282,-0.52805 -1.16701,-0.79209 -1.91642,-0.79209 m 2.70872,5.36188 c -0.01,0.01 -0.0181,0.018 -0.0271,0.027 -0.7404,0.74018 -1.63427,1.1103 -2.68163,1.1103 -1.04738,0 -1.94125,-0.37012 -2.68163,-1.1103 -0.74039,-0.74017 -1.11058,-1.63381 -1.11058,-2.68094 0,-1.04709 0.37019,-1.94073 1.11058,-2.68093 0.74038,-0.74018 1.63425,-1.11027 2.68163,-1.11027 1.04736,0 1.94123,0.37009 2.68163,1.11027 0.74038,0.7402 1.11058,1.63384 1.11058,2.68093 l 0,3.79124 c 0,0.78985 -0.28443,1.47585 -0.85325,2.0581 -0.79456,0.79435 -1.75389,1.19153 -2.87802,1.19153 -1.12412,0 -2.08119,-0.39718 -2.87123,-1.19153 -0.29346,-0.28886 -0.53272,-0.60254 -0.71783,-0.94104 -0.0542,-0.0812 -0.0812,-0.17602 -0.0812,-0.28433 0,-0.14884 0.0519,-0.27757 0.15577,-0.38591 0.10833,-0.10385 0.23701,-0.15573 0.38599,-0.15573 0.14887,0 0.27764,0.0519 0.386,0.15573 0.0451,0.0497 0.0835,0.10388 0.11506,0.16245 0.13541,0.24372 0.30923,0.47167 0.52142,0.6838 0.58236,0.58219 1.28438,0.87332 2.10603,0.87335 0.82164,-3e-5 1.52366,-0.29116 2.10604,-0.87335 0.36114,-0.43329 0.54174,-0.86431 0.54174,-1.29307 l 0,-1.13738"
         style="font-size:8.73411083px;font-style:normal;font-variant:normal;font-weight:normal;font-stretch:normal;text-indent:0;text-align:start;text-decoration:none;line-height:125%;letter-spacing:0px;word-spacing:0px;text-transform:none;direction:ltr;block-progression:tb;writing-mode:lr-tb;text-anchor:start;color:#000000;fill:#d40000;fill-opacity:1;fill-rule:nonzero;stroke:none;stroke-width:1px;marker:none;visibility:visible;font-family:Comfortaa;-inkscape-font-specification:Comfortaa"
         id="path3602-8-9-4" />
      <path
         inkscape:connector-curvature="0"
         d="m 189.30725,853.08004 c 0,-0.14884 0.0519,-0.27533 0.15576,-0.37912 0.10833,-0.10831 0.23701,-0.16246 0.38598,-0.16246 0.14887,0 0.27539,0.0542 0.37924,0.16246 0.10832,0.10385 0.16249,0.23019 0.16249,0.37912 l 0,0.59575 c 0.75845,-0.75824 1.66135,-1.13736 2.70873,-1.13736 0.52818,0 1.01351,0.0903 1.45593,0.27081 0.0812,0.0315 0.15577,0.0791 0.22349,0.14225 0.1039,0.10832 0.15576,0.23696 0.15576,0.38592 -1e-5,0.1488 -0.0542,0.27756 -0.16249,0.38588 -0.1039,0.10388 -0.23023,0.15572 -0.37922,0.15572 -0.0857,0 -0.16477,-0.018 -0.23701,-0.0541 -0.32054,-0.1354 -0.67267,-0.2031 -1.0564,-0.2031 -0.7494,0 -1.38822,0.26401 -1.91642,0.79208 -0.5282,0.52805 -0.7923,1.16671 -0.7923,1.91591 l 0,3.2496 c 0,0.14884 -0.0542,0.2776 -0.1625,0.38591 -0.1039,0.10388 -0.23025,0.15573 -0.37923,0.15573 -0.14887,0 -0.27764,-0.0518 -0.38598,-0.15573 -0.1039,-0.10831 -0.15576,-0.23692 -0.15576,-0.38591 l 0,-6.49923"
         style="font-size:8.73411083px;font-style:normal;font-variant:normal;font-weight:normal;font-stretch:normal;text-indent:0;text-align:start;text-decoration:none;line-height:125%;letter-spacing:0px;word-spacing:0px;text-transform:none;direction:ltr;block-progression:tb;writing-mode:lr-tb;text-anchor:start;color:#000000;fill:#d40000;fill-opacity:1;fill-rule:nonzero;stroke:none;stroke-width:1px;marker:none;visibility:visible;font-family:Comfortaa;-inkscape-font-specification:Comfortaa"
         id="path3604-7-0-7" />
      <path
         inkscape:connector-curvature="0"
         d="m 199.60039,853.62164 c -0.74941,0 -1.3882,0.26404 -1.91642,0.79209 -0.5282,0.52808 -0.79229,1.1667 -0.79229,1.91591 0,0.74923 0.26409,1.38786 0.79229,1.91594 0.52822,0.52807 1.16701,0.79208 1.91642,0.79208 0.74942,0 1.38821,-0.26401 1.91643,-0.79208 0.5282,-0.52808 0.79229,-1.16671 0.79229,-1.91594 0,-0.74921 -0.26409,-1.38783 -0.79229,-1.91591 -0.52822,-0.52805 -1.16701,-0.79209 -1.91643,-0.79209 m 2.70872,5.36188 c -0.75845,0.75823 -1.66133,1.13735 -2.70872,1.13735 -1.04738,0 -1.94126,-0.37009 -2.68163,-1.11026 -0.74038,-0.74021 -1.11057,-1.63385 -1.11057,-2.68097 0,-1.0471 0.37019,-1.94073 1.11057,-2.68094 0.74037,-0.74018 1.63425,-1.11027 2.68163,-1.11027 1.04739,0 1.94126,0.37009 2.68166,1.11027 0.74036,0.74021 1.11055,1.63384 1.11056,2.68094 l 0,3.24963 c -1e-5,0.14883 -0.0542,0.27759 -0.16249,0.38591 -0.1039,0.10385 -0.23025,0.15572 -0.37921,0.15572 -0.14887,0 -0.27767,-0.0519 -0.38602,-0.15572 -0.1039,-0.10832 -0.15576,-0.23695 -0.15576,-0.38591 l 0,-0.59575"
         style="font-size:8.73411083px;font-style:normal;font-variant:normal;font-weight:normal;font-stretch:normal;text-indent:0;text-align:start;text-decoration:none;line-height:125%;letter-spacing:0px;word-spacing:0px;text-transform:none;direction:ltr;block-progression:tb;writing-mode:lr-tb;text-anchor:start;color:#000000;fill:#d40000;fill-opacity:1;fill-rule:nonzero;stroke:none;stroke-width:1px;marker:none;visibility:visible;font-family:Comfortaa;-inkscape-font-specification:Comfortaa"
         id="path3606-19-1-3" />
      <path
         inkscape:connector-curvature="0"
         d="m 208.43082,849.28884 c 0.14903,0 0.27539,0.0541 0.37923,0.16242 0.10833,0.10388 0.1625,0.23022 0.1625,0.37912 0,0.14883 -0.0542,0.2776 -0.1625,0.38591 -0.10389,0.10388 -0.23024,0.15572 -0.37923,0.15572 -1.44464,0 -2.16697,0.72215 -2.16697,2.16639 l 0,0.40621 1.63201,0 c 0.14887,0 0.27538,0.0542 0.37923,0.16245 0.10833,0.10388 0.16249,0.23019 0.16249,0.37912 -1e-5,0.14884 -0.0542,0.2776 -0.16249,0.38591 -0.1039,0.10385 -0.23027,0.15573 -0.37923,0.15573 l -1.63201,0 0,5.55142 c 0,0.14899 -0.0542,0.27759 -0.16249,0.38591 -0.1039,0.10384 -0.23027,0.15572 -0.37923,0.15572 -0.14887,0 -0.27765,-0.0519 -0.386,-0.15572 -0.1039,-0.10832 -0.15576,-0.23695 -0.15576,-0.38591 l 0,-5.55142 -0.54175,0 c -0.14887,0 -0.27765,-0.0519 -0.38599,-0.15573 -0.1039,-0.10831 -0.15576,-0.23695 -0.15576,-0.38591 0,-0.14884 0.0519,-0.2753 0.15576,-0.37912 0.10833,-0.10828 0.23701,-0.16245 0.38599,-0.16245 l 0.54175,0 0,-0.40621 c 0,-2.16639 1.08348,-3.2496 3.25045,-3.2496"
         style="font-size:8.73411083px;font-style:normal;font-variant:normal;font-weight:normal;font-stretch:normal;text-indent:0;text-align:start;text-decoration:none;line-height:125%;letter-spacing:0px;word-spacing:0px;text-transform:none;direction:ltr;block-progression:tb;writing-mode:lr-tb;text-anchor:start;color:#000000;fill:#d40000;fill-opacity:1;fill-rule:nonzero;stroke:none;stroke-width:1px;marker:none;visibility:visible;font-family:Comfortaa;-inkscape-font-specification:Comfortaa"
         id="path3608-9-9-9" />
      <path
         inkscape:connector-curvature="0"
         d="m 211.27499,850.91362 c 0,0.18504 -0.0678,0.3453 -0.20315,0.48067 -0.13081,0.13096 -0.28892,0.19634 -0.47404,0.19634 -0.18509,0 -0.34535,-0.0655 -0.48078,-0.19634 -0.13081,-0.13537 -0.19638,-0.29563 -0.19638,-0.48067 0,-0.18505 0.0655,-0.343 0.19638,-0.47391 0.13542,-0.13537 0.29569,-0.2031 0.48078,-0.2031 0.18512,0 0.34311,0.0678 0.47404,0.2031 0.13541,0.13081 0.20315,0.28886 0.20315,0.47391 m -1.21891,2.16642 c 0,-0.14884 0.0519,-0.27533 0.15576,-0.37912 0.10833,-0.10831 0.23703,-0.16246 0.386,-0.16246 0.14887,0 0.27538,0.0542 0.37923,0.16246 0.10833,0.10385 0.16249,0.23019 0.16249,0.37912 l 0,6.49923 c 0,0.14883 -0.0542,0.27759 -0.16249,0.38591 -0.1039,0.10385 -0.23025,0.15572 -0.37923,0.15572 -0.14887,0 -0.27764,-0.0519 -0.386,-0.15572 -0.10389,-0.10832 -0.15576,-0.23695 -0.15576,-0.38591 l 0,-6.49923"
         style="font-size:8.73411083px;font-style:normal;font-variant:normal;font-weight:normal;font-stretch:normal;text-indent:0;text-align:start;text-decoration:none;line-height:125%;letter-spacing:0px;word-spacing:0px;text-transform:none;direction:ltr;block-progression:tb;writing-mode:lr-tb;text-anchor:start;color:#000000;fill:#d40000;fill-opacity:1;fill-rule:nonzero;stroke:none;stroke-width:1px;marker:none;visibility:visible;font-family:Comfortaa;-inkscape-font-specification:Comfortaa"
         id="path3610-3-0-9" />
      <path
         inkscape:connector-curvature="0"
         d="m 213.84829,855.59849 4.58451,-2.97883 c 0.0857,-0.0541 0.18284,-0.0812 0.29119,-0.0812 0.14887,3e-5 0.27537,0.0542 0.37921,0.16246 0.10833,0.10388 0.1625,0.23019 0.1625,0.37912 0,0.14899 -0.0519,0.27533 -0.15577,0.37911 -0.0271,0.027 -0.0519,0.0497 -0.0745,0.0676 l -3.14211,2.04458 3.22337,3.62875 c 0.0993,0.10828 0.14887,0.23465 0.14887,0.37911 0,0.14881 -0.0542,0.27757 -0.16249,0.38588 -0.1039,0.10388 -0.23023,0.15573 -0.37922,0.15573 -0.14887,0 -0.2799,-0.0541 -0.39277,-0.16246 l -3.36558,-3.79123 -1.11735,0.72438 0,2.68773 c 0,0.14881 -0.0542,0.27757 -0.16249,0.38589 -0.1039,0.10387 -0.23025,0.15572 -0.37923,0.15572 -0.14887,0 -0.27764,-0.0519 -0.38598,-0.15572 -0.1039,-0.10829 -0.15576,-0.23696 -0.15576,-0.38589 l 0,-9.74888 c 0,-0.14884 0.0519,-0.27531 0.15576,-0.37912 0.10833,-0.10828 0.23701,-0.16246 0.38598,-0.16246 0.14903,0 0.27538,0.0542 0.37923,0.16246 0.10833,0.10388 0.16249,0.23022 0.16249,0.37912 l 0,5.76808"
         style="font-size:8.73411083px;font-style:normal;font-variant:normal;font-weight:normal;font-stretch:normal;text-indent:0;text-align:start;text-decoration:none;line-height:125%;letter-spacing:0px;word-spacing:0px;text-transform:none;direction:ltr;block-progression:tb;writing-mode:lr-tb;text-anchor:start;color:#000000;fill:#d40000;fill-opacity:1;fill-rule:nonzero;stroke:none;stroke-width:1px;marker:none;visibility:visible;font-family:Comfortaa;-inkscape-font-specification:Comfortaa"
         id="path3612-64-9-0" />
      <path
         inkscape:connector-curvature="0"
         d="m 227.50024,856.32964 c -2e-5,1.04712 -0.37019,1.94076 -1.11056,2.68097 -0.7404,0.74017 -1.63427,1.11026 -2.68163,1.11026 -1.04738,0 -1.94127,-0.37009 -2.68166,-1.11026 -0.74038,-0.74021 -1.11057,-1.63385 -1.11057,-2.68097 0,-1.0471 0.37019,-1.94073 1.11057,-2.68094 0.74039,-0.74018 1.63428,-1.11027 2.68166,-1.11027 1.04736,0 1.94123,0.37009 2.68163,1.11027 0.74037,0.74021 1.11054,1.63384 1.11056,2.68094 m -3.79219,-2.708 c -0.74944,0 -1.38824,0.26404 -1.91644,0.79209 -0.5282,0.52808 -0.79231,1.1667 -0.79229,1.91591 -2e-5,0.74923 0.26409,1.38786 0.79229,1.91594 0.5282,0.52807 1.167,0.79208 1.91644,0.79208 0.74939,0 1.3882,-0.26401 1.91641,-0.79208 0.52819,-0.52808 0.79228,-1.16671 0.7923,-1.91594 -2e-5,-0.74921 -0.26411,-1.38783 -0.7923,-1.91591 -0.52821,-0.52805 -1.16702,-0.79209 -1.91641,-0.79209"
         style="font-size:8.73411083px;font-style:normal;font-variant:normal;font-weight:normal;font-stretch:normal;text-indent:0;text-align:start;text-decoration:none;line-height:125%;letter-spacing:0px;word-spacing:0px;text-transform:none;direction:ltr;block-progression:tb;writing-mode:lr-tb;text-anchor:start;color:#000000;fill:#d40000;fill-opacity:1;fill-rule:nonzero;stroke:none;stroke-width:1px;marker:none;visibility:visible;font-family:Comfortaa;-inkscape-font-specification:Comfortaa"
         id="path3614-4-5-4" />
      <path
         inkscape:connector-curvature="0"
         d="m 236.43904,853.62164 c -0.74944,0 -1.38823,0.26404 -1.91643,0.79209 -0.52821,0.52808 -0.79232,1.1667 -0.79232,1.91591 0,0.74923 0.26411,1.38786 0.79232,1.91594 0.5282,0.52807 1.16699,0.79208 1.91643,0.79208 0.74939,0 1.38821,-0.26401 1.91642,-0.79208 0.52818,-0.52808 0.79229,-1.16671 0.7923,-1.91594 -1e-5,-0.74921 -0.26412,-1.38783 -0.7923,-1.91591 -0.52821,-0.52805 -1.16703,-0.79209 -1.91642,-0.79209 m 2.70872,5.36188 c -0.75844,0.75823 -1.66136,1.13735 -2.70872,1.13735 -1.04738,0 -1.94125,-0.37009 -2.68165,-1.11026 -0.74038,-0.74021 -1.11058,-1.63385 -1.11058,-2.68097 0,-1.0471 0.3702,-1.94073 1.11058,-2.68094 0.7404,-0.74018 1.63427,-1.11027 2.68165,-1.11027 1.04736,0 1.94123,0.37009 2.68163,1.11027 0.74037,0.74021 1.11056,1.63384 1.11058,2.68094 l 0,3.24963 c -2e-5,0.14883 -0.0542,0.27759 -0.16249,0.38591 -0.1039,0.10385 -0.23027,0.15572 -0.37924,0.15572 -0.14887,0 -0.27763,-0.0519 -0.38599,-0.15572 -0.1039,-0.10832 -0.15577,-0.23695 -0.15577,-0.38591 l 0,-0.59575"
         style="font-size:8.73411083px;font-style:normal;font-variant:normal;font-weight:normal;font-stretch:normal;text-indent:0;text-align:start;text-decoration:none;line-height:125%;letter-spacing:0px;word-spacing:0px;text-transform:none;direction:ltr;block-progression:tb;writing-mode:lr-tb;text-anchor:start;color:#000000;fill:#d40000;fill-opacity:1;fill-rule:nonzero;stroke:none;stroke-width:1px;marker:none;visibility:visible;font-family:Comfortaa;-inkscape-font-specification:Comfortaa"
         id="path3616-38-2-4" />
      <path
         inkscape:connector-curvature="0"
         d="m 242.65557,856.32964 c -0.41083,-0.1534 -0.69751,-0.31365 -0.86004,-0.48067 -0.32052,-0.31592 -0.48078,-0.6973 -0.48078,-1.14412 0,-0.44681 0.16702,-0.83723 0.5011,-1.17123 0.65009,-0.66345 1.49881,-0.99519 2.54621,-0.99519 1.13315,0 2.10376,0.45359 2.91186,1.36078 0.0722,0.0857 0.10603,0.19181 0.1016,0.31818 0,0.14899 -0.0542,0.2776 -0.1625,0.38591 -0.1039,0.10385 -0.23023,0.15573 -0.37921,0.15573 -0.14887,0 -0.26863,-0.0474 -0.3589,-0.14229 -0.0903,-0.0949 -0.15576,-0.16243 -0.19639,-0.2031 -0.52822,-0.52808 -1.16701,-0.79209 -1.91643,-0.79209 -0.74941,0 -1.3476,0.23469 -1.79452,0.70406 -0.10833,0.13097 -0.16249,0.28663 -0.16249,0.46714 0.0148,0.21213 0.12409,0.35656 0.33181,0.43329 l 3.33174,1.1035 c 0.41081,0.15343 0.69749,0.31372 0.86001,0.48067 0.32052,0.31595 0.48079,0.69733 0.4808,1.14415 -1e-5,0.44685 -0.16704,0.83723 -0.5011,1.17123 -0.6501,0.66345 -1.49883,0.99519 -2.54622,0.99519 -1.13765,0 -2.10827,-0.45358 -2.91186,-1.36078 -0.0676,-0.0948 -0.1016,-0.20083 -0.1016,-0.31818 0,-0.14902 0.0519,-0.27533 0.15576,-0.37912 0.10833,-0.10831 0.237,-0.16245 0.386,-0.16245 0.14887,0 0.26861,0.0474 0.35888,0.14226 0.0903,0.0948 0.15576,0.16245 0.19639,0.2031 0.52821,0.52808 1.16701,0.79208 1.91643,0.79208 0.74941,0 1.34758,-0.23465 1.79453,-0.70406 0.10833,-0.13078 0.1625,-0.28663 0.1625,-0.46714 -0.0148,-0.21213 -0.12409,-0.35656 -0.33182,-0.43329 l -3.33172,-1.1035"
         style="font-size:8.73411083px;font-style:normal;font-variant:normal;font-weight:normal;font-stretch:normal;text-indent:0;text-align:start;text-decoration:none;line-height:125%;letter-spacing:0px;word-spacing:0px;text-transform:none;direction:ltr;block-progression:tb;writing-mode:lr-tb;text-anchor:start;color:#000000;fill:#d40000;fill-opacity:1;fill-rule:nonzero;stroke:none;stroke-width:1px;marker:none;visibility:visible;font-family:Comfortaa;-inkscape-font-specification:Comfortaa"
         id="path3618-0-6-6" />
      <path
         inkscape:connector-curvature="0"
         d="m 249.57634,855.59849 4.58453,-2.97883 c 0.0857,-0.0541 0.18283,-0.0812 0.29117,-0.0812 0.14887,3e-5 0.27539,0.0542 0.37922,0.16246 0.10833,0.10388 0.16249,0.23019 0.16249,0.37912 0,0.14899 -0.0519,0.27533 -0.15576,0.37911 -0.0271,0.027 -0.0519,0.0497 -0.0745,0.0676 l -3.14211,2.04458 3.22337,3.62875 c 0.0993,0.10828 0.14887,0.23465 0.14887,0.37911 0,0.14881 -0.0542,0.27757 -0.16249,0.38588 -0.1039,0.10388 -0.23023,0.15573 -0.37922,0.15573 -0.14887,0 -0.27989,-0.0541 -0.39275,-0.16246 l -3.3656,-3.79123 -1.11734,0.72438 0,2.68773 c 0,0.14881 -0.0542,0.27757 -0.1625,0.38589 -0.10389,0.10387 -0.23024,0.15572 -0.37921,0.15572 -0.14887,0 -0.27765,-0.0519 -0.386,-0.15572 -0.10389,-0.10829 -0.15576,-0.23696 -0.15576,-0.38589 l 0,-9.74888 c 0,-0.14884 0.0519,-0.27531 0.15576,-0.37912 0.10833,-0.10828 0.23701,-0.16246 0.386,-0.16246 0.14903,0 0.27538,0.0542 0.37921,0.16246 0.10833,0.10388 0.1625,0.23022 0.1625,0.37912 l 0,5.76808"
         style="font-size:8.73411083px;font-style:normal;font-variant:normal;font-weight:normal;font-stretch:normal;text-indent:0;text-align:start;text-decoration:none;line-height:125%;letter-spacing:0px;word-spacing:0px;text-transform:none;direction:ltr;block-progression:tb;writing-mode:lr-tb;text-anchor:start;color:#000000;fill:#d40000;fill-opacity:1;fill-rule:nonzero;stroke:none;stroke-width:1px;marker:none;visibility:visible;font-family:Comfortaa;-inkscape-font-specification:Comfortaa"
         id="path3620-5-3-5" />
      <path
         inkscape:connector-curvature="0"
         d="m 262.09743,855.78806 c -0.0995,-0.51905 -0.34764,-0.97716 -0.74491,-1.37433 -0.5282,-0.52805 -1.16702,-0.79209 -1.91642,-0.79209 -0.74942,0 -1.38823,0.26404 -1.91642,0.79209 -0.39729,0.39717 -0.64559,0.85528 -0.74491,1.37433 l 5.32266,0 m -0.57562,2.49137 c 0.14887,0 0.27538,0.0541 0.37921,0.16245 0.10833,0.10385 0.16249,0.23016 0.16249,0.37912 0,0.14884 -0.0519,0.27757 -0.15576,0.38591 -0.69977,0.60928 -1.52366,0.91393 -2.4717,0.91393 -1.04737,0 -1.94125,-0.37009 -2.68163,-1.11026 -0.74039,-0.74021 -1.1106,-1.63385 -1.1106,-2.68097 0,-1.0471 0.37021,-1.94073 1.1106,-2.68094 0.74038,-0.74018 1.63426,-1.11027 2.68163,-1.11027 1.04736,0 1.94124,0.37009 2.68163,1.11027 0.74038,0.74021 1.11057,1.63384 1.11057,2.68094 0,0.14902 -0.0542,0.27759 -0.1625,0.38588 -0.10389,0.10388 -0.23026,0.15572 -0.37921,0.15572 l -5.9118,0 c 0.0993,0.51908 0.34762,0.97716 0.74491,1.37434 0.52818,0.52807 1.16699,0.79208 1.91642,0.79208 0.67717,0 1.25955,-0.21436 1.74711,-0.64316 0.0993,-0.0766 0.21218,-0.11501 0.33861,-0.11501"
         style="font-size:8.73411083px;font-style:normal;font-variant:normal;font-weight:normal;font-stretch:normal;text-indent:0;text-align:start;text-decoration:none;line-height:125%;letter-spacing:0px;word-spacing:0px;text-transform:none;direction:ltr;block-progression:tb;writing-mode:lr-tb;text-anchor:start;color:#000000;fill:#d40000;fill-opacity:1;fill-rule:nonzero;stroke:none;stroke-width:1px;marker:none;visibility:visible;font-family:Comfortaa;-inkscape-font-specification:Comfortaa"
         id="path3622-6-0-5" />
      <path
         inkscape:connector-curvature="0"
         d="m 268.10399,853.62164 c -0.7494,0 -1.38822,0.26404 -1.91642,0.79209 -0.52818,0.52808 -0.79231,1.1667 -0.79231,1.91591 0,0.74923 0.26413,1.38786 0.79231,1.91594 0.5282,0.52807 1.16702,0.79208 1.91642,0.79208 0.74942,0 1.38823,-0.26401 1.91644,-0.79208 0.5282,-0.52808 0.79229,-1.16671 0.79231,-1.91594 -2e-5,-0.74921 -0.26411,-1.38783 -0.79231,-1.91591 -0.52821,-0.52805 -1.16702,-0.79209 -1.91644,-0.79209 m 2.70875,5.36188 c -0.75845,0.75823 -1.66137,1.13735 -2.70875,1.13735 -1.04736,0 -1.94123,-0.37009 -2.68163,-1.11026 -0.74038,-0.74021 -1.11058,-1.63385 -1.11058,-2.68097 0,-1.0471 0.3702,-1.94073 1.11058,-2.68094 0.7404,-0.74018 1.63427,-1.11027 2.68163,-1.11027 1.04738,0 1.94125,0.37009 2.68165,1.11027 0.74037,0.74021 1.11056,1.63384 1.11058,2.68094 l 0,3.24963 c -2e-5,0.14883 -0.0542,0.27759 -0.16249,0.38591 -0.1039,0.10385 -0.23025,0.15572 -0.37924,0.15572 -0.14887,0 -0.27765,-0.0519 -0.38599,-0.15572 -0.1039,-0.10832 -0.15576,-0.23695 -0.15576,-0.38591 l 0,-0.59575"
         style="font-size:8.73411083px;font-style:normal;font-variant:normal;font-weight:normal;font-stretch:normal;text-indent:0;text-align:start;text-decoration:none;line-height:125%;letter-spacing:0px;word-spacing:0px;text-transform:none;direction:ltr;block-progression:tb;writing-mode:lr-tb;text-anchor:start;color:#000000;fill:#d40000;fill-opacity:1;fill-rule:nonzero;stroke:none;stroke-width:1px;marker:none;visibility:visible;font-family:Comfortaa;-inkscape-font-specification:Comfortaa"
         id="path3624-0-7-8" />
      <path
         inkscape:connector-curvature="0"
         id="path37292-07-1-0-3-9-6"
         d="m 235.69917,950.76543 c 0,-4.25128 3.44725,-7.69761 7.69963,-7.69761 4.25238,0 7.69961,3.44633 7.69961,7.69761 0,4.25128 -3.44723,7.69761 -7.69961,7.69761 -4.25238,0 -7.69963,-3.44633 -7.69963,-7.69761 z"
         style="color:#000000;fill:#d40000;fill-opacity:1;fill-rule:nonzero;stroke:none;stroke-width:2;marker:none;visibility:visible;display:inline;overflow:visible;enable-background:accumulate" />
      <path
         inkscape:connector-curvature="0"
         d="m 200.06867,950.75866 c 0,0.74921 0.26409,1.38783 0.7923,1.91591 0.52821,0.52805 1.16701,0.79209 1.91643,0.79209 0.74941,0 1.3882,-0.26404 1.91642,-0.79209 0.5282,-0.52808 0.79229,-1.1667 0.79229,-1.91591 0,-0.74923 -0.26409,-1.38786 -0.79229,-1.91594 -0.52822,-0.52807 -1.16701,-0.79208 -1.91642,-0.79208 -0.74942,0 -1.38822,0.26401 -1.91643,0.79208 -0.52821,0.52808 -0.7923,1.16671 -0.7923,1.91594 m 0,6.51276 c 0,0.14902 -0.0519,0.2753 -0.15576,0.37912 -0.10833,0.10831 -0.23701,0.16245 -0.38601,0.16245 -0.14887,0 -0.27539,-0.0541 -0.37922,-0.16245 -0.10833,-0.10385 -0.16249,-0.23019 -0.16249,-0.37912 l 0,-6.51276 c 2e-5,-1.04712 0.3702,-1.94076 1.11058,-2.68097 0.74038,-0.74017 1.63425,-1.11026 2.68165,-1.11026 1.04737,0 1.94125,0.37009 2.68162,1.11026 0.74038,0.74021 1.11057,1.63385 1.11057,2.68097 0,1.0471 -0.37019,1.94073 -1.11057,2.68094 -0.74037,0.74018 -1.63425,1.11027 -2.68162,1.11027 -1.0474,0 -1.94127,-0.37009 -2.68165,-1.11027 -0.01,-0.01 -0.0181,-0.018 -0.0271,-0.027 l 0,3.8589"
         style="font-size:8.73411083px;font-style:normal;font-variant:normal;font-weight:normal;font-stretch:normal;text-indent:0;text-align:start;text-decoration:none;line-height:125%;letter-spacing:0px;word-spacing:0px;text-transform:none;direction:ltr;block-progression:tb;writing-mode:lr-tb;text-anchor:start;color:#000000;fill:#d40000;fill-opacity:1;fill-rule:nonzero;stroke:none;stroke-width:1px;marker:none;visibility:visible;font-family:Comfortaa;-inkscape-font-specification:Comfortaa"
         id="path3576-5-2-0-9" />
      <path
         inkscape:connector-curvature="0"
         d="m 196.14102,956.17468 c 0,-0.18504 0.0676,-0.3453 0.20314,-0.48067 0.13082,-0.13096 0.28895,-0.19634 0.47404,-0.19634 0.1851,0 0.34536,0.0655 0.48079,0.19634 0.13081,0.13537 0.19638,0.29563 0.19638,0.48067 0,0.18505 -0.0655,0.343 -0.19638,0.47391 -0.13542,0.13537 -0.29569,0.2031 -0.48079,0.2031 -0.18509,0 -0.34311,-0.0678 -0.47404,-0.2031 -0.13541,-0.13081 -0.20314,-0.28886 -0.20314,-0.47391 m 1.21892,-2.16642 c 0,0.14884 -0.0519,0.27533 -0.15576,0.37912 -0.10833,0.10831 -0.23703,0.16246 -0.38599,0.16246 -0.14887,0 -0.27539,-0.0542 -0.37922,-0.16246 -0.10833,-0.10385 -0.16249,-0.23019 -0.16249,-0.37912 l 0,-6.49923 c 0,-0.14883 0.0542,-0.27759 0.16249,-0.38591 0.1039,-0.10385 0.23023,-0.15572 0.37922,-0.15572 0.14887,0 0.27763,0.0519 0.38599,0.15572 0.1039,0.10832 0.15576,0.23695 0.15576,0.38591 l 0,6.49923"
         style="font-size:8.73411083px;font-style:normal;font-variant:normal;font-weight:normal;font-stretch:normal;text-indent:0;text-align:start;text-decoration:none;line-height:125%;letter-spacing:0px;word-spacing:0px;text-transform:none;direction:ltr;block-progression:tb;writing-mode:lr-tb;text-anchor:start;color:#000000;fill:#d40000;fill-opacity:1;fill-rule:nonzero;stroke:none;stroke-width:1px;marker:none;visibility:visible;font-family:Comfortaa;-inkscape-font-specification:Comfortaa"
         id="path3578-8-4-8-5" />
      <path
         inkscape:connector-curvature="0"
         d="m 193.3104,950.75866 c 0.41083,0.1534 0.69751,0.31365 0.86002,0.48067 0.32053,0.31592 0.4808,0.6973 0.4808,1.14412 0,0.44681 -0.16704,0.83723 -0.5011,1.17123 -0.65009,0.66345 -1.49883,0.99519 -2.54621,0.99519 -1.13315,0 -2.10377,-0.45359 -2.91187,-1.36078 -0.0722,-0.0857 -0.10603,-0.19181 -0.1016,-0.31818 0,-0.14899 0.0542,-0.2776 0.16249,-0.38591 0.1039,-0.10385 0.23025,-0.15573 0.37922,-0.15573 0.14887,0 0.26862,0.0474 0.35891,0.14229 0.0903,0.0949 0.15576,0.16243 0.19638,0.2031 0.52821,0.52808 1.167,0.79209 1.91643,0.79209 0.7494,0 1.34759,-0.23469 1.79451,-0.70406 0.10833,-0.13097 0.16249,-0.28663 0.16249,-0.46714 -0.0148,-0.21213 -0.12425,-0.35656 -0.33183,-0.43329 l -3.33173,-1.1035 c -0.41081,-0.15343 -0.69749,-0.31372 -0.86002,-0.48067 -0.32052,-0.31595 -0.48078,-0.69733 -0.4808,-1.14415 2e-5,-0.44685 0.16704,-0.83723 0.50112,-1.17123 0.65009,-0.66345 1.49883,-0.99519 2.54621,-0.99519 1.13766,0 2.10827,0.45358 2.91187,1.36078 0.0676,0.0948 0.1016,0.20083 0.1016,0.31818 0,0.14902 -0.0519,0.27533 -0.15576,0.37912 -0.10833,0.10831 -0.23701,0.16245 -0.386,0.16245 -0.14887,0 -0.26861,-0.0474 -0.35889,-0.14226 -0.0903,-0.0949 -0.15577,-0.16245 -0.19639,-0.2031 -0.5282,-0.52808 -1.16701,-0.79208 -1.91642,-0.79208 -0.74942,0 -1.34758,0.23465 -1.79453,0.70406 -0.10833,0.13078 -0.16249,0.28663 -0.16249,0.46714 0.0148,0.21213 0.12408,0.35656 0.33181,0.43329 l 3.33173,1.1035"
         style="font-size:8.73411083px;font-style:normal;font-variant:normal;font-weight:normal;font-stretch:normal;text-indent:0;text-align:start;text-decoration:none;line-height:125%;letter-spacing:0px;word-spacing:0px;text-transform:none;direction:ltr;block-progression:tb;writing-mode:lr-tb;text-anchor:start;color:#000000;fill:#d40000;fill-opacity:1;fill-rule:nonzero;stroke:none;stroke-width:1px;marker:none;visibility:visible;font-family:Comfortaa;-inkscape-font-specification:Comfortaa"
         id="path3580-2-8-5-9" />
      <path
         inkscape:connector-curvature="0"
         d="m 181.01957,951.30024 c 0.0993,0.51905 0.34762,0.97716 0.74491,1.37433 0.5282,0.52805 1.16701,0.79209 1.91642,0.79209 0.74942,0 1.38821,-0.26404 1.91641,-0.79209 0.39727,-0.39717 0.64559,-0.85528 0.7449,-1.37433 l -5.32264,0 m 0.5756,-2.49137 c -0.14887,0 -0.27538,-0.0541 -0.37923,-0.16245 -0.10833,-0.10385 -0.16249,-0.23016 -0.16249,-0.37912 1e-5,-0.14884 0.0519,-0.27757 0.15576,-0.38591 0.69977,-0.60928 1.52366,-0.91393 2.47172,-0.91393 1.04737,0 1.94125,0.37009 2.68163,1.11026 0.74037,0.74021 1.11058,1.63385 1.11058,2.68097 0,1.0471 -0.37021,1.94073 -1.11058,2.68094 -0.74038,0.74018 -1.63426,1.11027 -2.68163,1.11027 -1.04738,0 -1.94125,-0.37009 -2.68165,-1.11027 -0.74036,-0.74021 -1.11056,-1.63384 -1.11058,-2.68094 2e-5,-0.14902 0.0542,-0.27759 0.16249,-0.38588 0.1039,-0.10388 0.23025,-0.15572 0.37922,-0.15572 l 5.91178,0 c -0.0993,-0.51908 -0.34762,-0.97716 -0.74489,-1.37434 -0.5282,-0.52807 -1.167,-0.79208 -1.91642,-0.79208 -0.67719,0 -1.25955,0.21436 -1.74713,0.64316 -0.0993,0.0766 -0.21218,0.11501 -0.33859,0.11501"
         style="font-size:8.73411083px;font-style:normal;font-variant:normal;font-weight:normal;font-stretch:normal;text-indent:0;text-align:start;text-decoration:none;line-height:125%;letter-spacing:0px;word-spacing:0px;text-transform:none;direction:ltr;block-progression:tb;writing-mode:lr-tb;text-anchor:start;color:#000000;fill:#d40000;fill-opacity:1;fill-rule:nonzero;stroke:none;stroke-width:1px;marker:none;visibility:visible;font-family:Comfortaa;-inkscape-font-specification:Comfortaa"
         id="path3582-1-1-3-9" />
      <path
         inkscape:connector-curvature="0"
         d="m 177.04453,956.17468 c 0,-0.18504 0.0676,-0.3453 0.20315,-0.48067 0.13081,-0.13096 0.28893,-0.19634 0.47402,-0.19634 0.18511,0 0.34537,0.0655 0.4808,0.19634 0.13081,0.13537 0.19639,0.29563 0.19639,0.48067 0,0.18505 -0.0655,0.343 -0.19639,0.47391 -0.13541,0.13537 -0.29569,0.2031 -0.4808,0.2031 -0.18509,0 -0.34311,-0.0678 -0.47402,-0.2031 -0.13541,-0.13081 -0.20315,-0.28886 -0.20315,-0.47391 m 1.21891,-2.16642 c 0,0.14884 -0.0519,0.27533 -0.15576,0.37912 -0.10833,0.10831 -0.23703,0.16246 -0.38601,0.16246 -0.14887,0 -0.27539,-0.0542 -0.37922,-0.16246 -0.10833,-0.10385 -0.1625,-0.23019 -0.1625,-0.37912 l 0,-6.49923 c 0,-0.14883 0.0542,-0.27759 0.1625,-0.38591 0.1039,-0.10385 0.23023,-0.15572 0.37922,-0.15572 0.14903,0 0.27765,0.0519 0.38601,0.15572 0.10389,0.10832 0.15576,0.23695 0.15576,0.38591 l 0,6.49923"
         style="font-size:8.73411083px;font-style:normal;font-variant:normal;font-weight:normal;font-stretch:normal;text-indent:0;text-align:start;text-decoration:none;line-height:125%;letter-spacing:0px;word-spacing:0px;text-transform:none;direction:ltr;block-progression:tb;writing-mode:lr-tb;text-anchor:start;color:#000000;fill:#d40000;fill-opacity:1;fill-rule:nonzero;stroke:none;stroke-width:1px;marker:none;visibility:visible;font-family:Comfortaa;-inkscape-font-specification:Comfortaa"
         id="path3584-22-7-9-9" />
      <path
         inkscape:connector-curvature="0"
         id="path3586-0-4-8-6"
         d="m 169.03749,946.94838 c -0.14887,0 -0.25068,0.05 -0.35904,0.15377 -0.1039,0.10828 -0.1538,0.26127 -0.1538,0.41023 l 0,3.53821 c 2e-5,0.97037 0.33513,1.77536 1.02584,2.4614 0.0169,0.0171 0.0341,0.0346 0.0514,0.0514 0.16929,0.1636 0.32669,0.28752 0.51292,0.41023 0.18933,0.12948 0.3571,0.22135 0.56421,0.30767 0.0131,0.005 0.0377,-0.005 0.0514,0 0.40207,0.16065 0.81405,0.2564 1.28231,0.2564 0.24265,0 0.4932,-0.008 0.71808,-0.0514 0.44018,-0.0819 0.85857,-0.26736 1.23101,-0.51278 0.17059,-0.11666 0.35676,-0.25855 0.51292,-0.41024 0.0171,-0.0168 0.0343,-0.0341 0.0514,-0.0513 0.69071,-0.68603 1.02582,-1.49099 1.02584,-2.46136 l 0,-3.53824 c -2e-5,-0.14883 -0.0455,-0.30192 -0.1538,-0.41024 -0.10389,-0.10384 -0.26136,-0.15373 -0.41033,-0.15373 -0.0745,0 -0.14083,0.0251 -0.20517,0.0514 -0.0632,0.0261 -0.10193,0.0505 -0.1538,0.10257 -0.10833,0.10828 -0.15379,0.26137 -0.15379,0.41021 l 0,3.53824 c 0,0.67247 -0.24405,1.21827 -0.71809,1.69217 -0.3589,0.35883 -0.7629,0.57692 -1.23101,0.66664 -0.15576,0.0298 -0.34474,0.0514 -0.51292,0.0514 -0.67267,0 -1.2141,-0.23949 -1.69263,-0.7179 -0.11851,-0.11846 -0.21888,-0.22804 -0.30776,-0.35894 -0.0898,-0.13094 -0.19665,-0.26693 -0.25646,-0.41024 -0.1185,-0.2866 -0.15379,-0.58675 -0.15379,-0.92302 l 0,-3.53821 c 0,-0.14884 -0.0455,-0.30192 -0.15379,-0.41024 -0.1039,-0.10388 -0.26134,-0.15374 -0.41034,-0.15374 z"
         style="font-size:8.73411083px;font-style:normal;font-variant:normal;font-weight:normal;font-stretch:normal;text-indent:0;text-align:start;text-decoration:none;line-height:125%;letter-spacing:0px;word-spacing:0px;text-transform:none;direction:ltr;block-progression:tb;writing-mode:lr-tb;text-anchor:start;color:#000000;fill:#d40000;fill-opacity:1;fill-rule:nonzero;stroke:none;stroke-width:1px;marker:none;visibility:visible;font-family:Comfortaa;-inkscape-font-specification:Comfortaa" />
      <path
         inkscape:connector-curvature="0"
         d="m 163.63635,953.46666 c 0.74941,0 1.38822,-0.26404 1.91642,-0.79209 0.5282,-0.52808 0.79229,-1.1667 0.79229,-1.91591 0,-0.74923 -0.26409,-1.38786 -0.79229,-1.91594 -0.5282,-0.52807 -1.16701,-0.79208 -1.91642,-0.79208 -0.74942,0 -1.38822,0.26401 -1.91642,0.79208 -0.52821,0.52808 -0.79231,1.16671 -0.79231,1.91594 0,0.74921 0.2641,1.38783 0.79231,1.91591 0.5282,0.52805 1.167,0.79209 1.91642,0.79209 m -2.70873,-5.36188 c 0.75845,-0.75823 1.66136,-1.13735 2.70873,-1.13735 1.04737,0 1.94125,0.37009 2.68163,1.11026 0.74038,0.74021 1.11057,1.63385 1.11057,2.68097 0,1.0471 -0.37019,1.94073 -1.11057,2.68094 -0.74038,0.74018 -1.63426,1.11027 -2.68163,1.11027 -1.04737,0 -1.94125,-0.37009 -2.68164,-1.11027 -0.74036,-0.74021 -1.11057,-1.63384 -1.11059,-2.68094 l 0,-3.24963 c 2e-5,-0.14883 0.0542,-0.27759 0.16249,-0.38591 0.1039,-0.10385 0.23024,-0.15572 0.37922,-0.15572 0.14887,0 0.27765,0.0519 0.386,0.15572 0.10389,0.10832 0.15576,0.23695 0.15576,0.38591 l 0,0.59575"
         style="font-size:8.73411083px;font-style:normal;font-variant:normal;font-weight:normal;font-stretch:normal;text-indent:0;text-align:start;text-decoration:none;line-height:125%;letter-spacing:0px;word-spacing:0px;text-transform:none;direction:ltr;block-progression:tb;writing-mode:lr-tb;text-anchor:start;color:#000000;fill:#d40000;fill-opacity:1;fill-rule:nonzero;stroke:none;stroke-width:1px;marker:none;visibility:visible;font-family:Comfortaa;-inkscape-font-specification:Comfortaa"
         id="path3588-70-2-8-0" />
      <path
         inkscape:connector-curvature="0"
         d="m 155.56435,948.05064 c -0.14903,0 -0.27539,-0.0542 -0.37922,-0.16246 -0.10833,-0.10388 -0.16249,-0.23019 -0.16249,-0.37912 0,-0.14883 0.0542,-0.27759 0.16249,-0.38591 0.1039,-0.10384 0.23023,-0.15572 0.37922,-0.15572 1.80582,0 2.70871,0.90269 2.70871,2.70802 l 0,3.79121 0.54176,0 c 0.14887,0 0.27763,0.0519 0.38599,0.15572 0.1039,0.10832 0.15577,0.23695 0.15577,0.38591 0,0.14884 -0.0519,0.2753 -0.15577,0.37912 -0.10832,0.10828 -0.23702,0.16246 -0.38599,0.16246 l -0.54176,0 0,2.70802 c 0,0.14881 -0.0519,0.27527 -0.15576,0.37912 -0.10833,0.10828 -0.23701,0.16242 -0.38598,0.16242 -0.14887,0 -0.27539,-0.0541 -0.37923,-0.16242 -0.10833,-0.10388 -0.1625,-0.23022 -0.1625,-0.37912 l 0,-2.70802 -1.09026,0 c -0.14887,-3e-5 -0.27538,-0.0542 -0.37922,-0.16246 -0.10833,-0.10388 -0.16249,-0.23019 -0.16249,-0.37912 0,-0.14883 0.0542,-0.27759 0.16249,-0.38591 0.1039,-0.10385 0.23025,-0.15572 0.37922,-0.15572 l 1.09026,0 0,-3.79121 c 0,-1.08318 -0.54172,-1.62481 -1.62522,-1.62481"
         style="font-size:8.73411083px;font-style:normal;font-variant:normal;font-weight:normal;font-stretch:normal;text-indent:0;text-align:start;text-decoration:none;line-height:125%;letter-spacing:0px;word-spacing:0px;text-transform:none;direction:ltr;block-progression:tb;writing-mode:lr-tb;text-anchor:start;color:#000000;fill:#d40000;fill-opacity:1;fill-rule:nonzero;stroke:none;stroke-width:1px;marker:none;visibility:visible;font-family:Comfortaa;-inkscape-font-specification:Comfortaa"
         id="path3590-7-3-7-7" />
      <path
         inkscape:connector-curvature="0"
         d="m 147.97993,948.05064 c -0.14887,0 -0.27537,-0.0542 -0.37922,-0.16246 -0.10833,-0.10388 -0.16249,-0.23019 -0.16249,-0.37912 0,-0.14883 0.0542,-0.27759 0.16249,-0.38591 0.1039,-0.10384 0.23025,-0.15572 0.37922,-0.15572 l 5.41745,0 c 0.14887,0 0.27763,0.0519 0.38599,0.15572 0.1039,0.10832 0.15577,0.23695 0.15577,0.38591 0,0.12635 -0.0361,0.23696 -0.10833,0.33174 l -4.69285,5.62589 4.25947,0 c 0.14887,0 0.27763,0.0518 0.38599,0.15572 0.1039,0.10829 0.15577,0.23692 0.15577,0.38588 0,0.14884 -0.0519,0.27533 -0.15577,0.37912 -0.10832,0.10831 -0.23702,0.16246 -0.38599,0.16246 l -5.41747,0 c -0.14887,0 -0.27537,-0.0542 -0.37922,-0.16246 -0.10833,-0.10385 -0.16249,-0.23019 -0.16249,-0.37912 0,-0.13537 0.0428,-0.25274 0.12868,-0.35203 l 4.67933,-5.60559 -4.26627,0"
         style="font-size:8.73411083px;font-style:normal;font-variant:normal;font-weight:normal;font-stretch:normal;text-indent:0;text-align:start;text-decoration:none;line-height:125%;letter-spacing:0px;word-spacing:0px;text-transform:none;direction:ltr;block-progression:tb;writing-mode:lr-tb;text-anchor:start;color:#000000;fill:#d40000;fill-opacity:1;fill-rule:nonzero;stroke:none;stroke-width:1px;marker:none;visibility:visible;font-family:Comfortaa;-inkscape-font-specification:Comfortaa"
         id="path3592-97-5-6-6" />
      <path
         inkscape:connector-curvature="0"
         d="m 142.99587,953.46666 c 0.74944,0 1.38823,-0.26404 1.91643,-0.79209 0.5282,-0.52808 0.79231,-1.1667 0.79231,-1.91591 0,-0.74923 -0.26411,-1.38786 -0.79231,-1.91594 -0.5282,-0.52807 -1.16699,-0.79208 -1.91643,-0.79208 -0.74939,0 -1.38822,0.26401 -1.91642,0.79208 -0.52819,0.52808 -0.79229,1.16671 -0.79229,1.91594 0,0.74921 0.2641,1.38783 0.79229,1.91591 0.5282,0.52805 1.16703,0.79209 1.91642,0.79209 m -2.70871,-5.36188 c 0.75843,-0.75823 1.66135,-1.13735 2.70871,-1.13735 1.04737,0 1.94125,0.37009 2.68164,1.11026 0.74038,0.74021 1.11058,1.63385 1.11058,2.68097 0,1.0471 -0.3702,1.94073 -1.11058,2.68094 -0.74039,0.74018 -1.63427,1.11027 -2.68164,1.11027 -1.04736,0 -1.94124,-0.37009 -2.68163,-1.11027 -0.74038,-0.74021 -1.11057,-1.63384 -1.11058,-2.68094 l 0,-3.24963 c 10e-6,-0.14883 0.0542,-0.27759 0.16249,-0.38591 0.1039,-0.10385 0.23026,-0.15572 0.37923,-0.15572 0.14887,0 0.27765,0.0519 0.38599,0.15572 0.1039,0.10832 0.15577,0.23695 0.15577,0.38591 l 0,0.59575"
         style="font-size:8.73411083px;font-style:normal;font-variant:normal;font-weight:normal;font-stretch:normal;text-indent:0;text-align:start;text-decoration:none;line-height:125%;letter-spacing:0px;word-spacing:0px;text-transform:none;direction:ltr;block-progression:tb;writing-mode:lr-tb;text-anchor:start;color:#000000;fill:#d40000;fill-opacity:1;fill-rule:nonzero;stroke:none;stroke-width:1px;marker:none;visibility:visible;font-family:Comfortaa;-inkscape-font-specification:Comfortaa"
         id="path3594-9-4-9-1" />
      <path
         inkscape:connector-curvature="0"
         d="m 136.35952,956.17468 c 0,-0.18504 0.0676,-0.3453 0.20314,-0.48067 0.13082,-0.13096 0.28893,-0.19634 0.47403,-0.19634 0.18511,0 0.34537,0.0655 0.4808,0.19634 0.13081,0.13537 0.19638,0.29563 0.19638,0.48067 0,0.18505 -0.0655,0.343 -0.19638,0.47391 -0.13542,0.13537 -0.29569,0.2031 -0.4808,0.2031 -0.1851,0 -0.34311,-0.0678 -0.47403,-0.2031 -0.13541,-0.13081 -0.20314,-0.28886 -0.20314,-0.47391 m 1.21891,-2.16642 c 0,0.14884 -0.0519,0.27533 -0.15577,0.37912 -0.10832,0.10831 -0.23699,0.16246 -0.38597,0.16246 -0.14887,0 -0.27539,-0.0542 -0.37924,-0.16246 -0.10833,-0.10385 -0.16249,-0.23019 -0.16249,-0.37912 l 0,-6.49923 c 0,-0.14883 0.0542,-0.27759 0.16249,-0.38591 0.1039,-0.10385 0.23025,-0.15572 0.37924,-0.15572 0.14903,0 0.27765,0.0519 0.38597,0.15572 0.1039,0.10832 0.15577,0.23695 0.15577,0.38591 l 0,6.49923"
         style="font-size:8.73411083px;font-style:normal;font-variant:normal;font-weight:normal;font-stretch:normal;text-indent:0;text-align:start;text-decoration:none;line-height:125%;letter-spacing:0px;word-spacing:0px;text-transform:none;direction:ltr;block-progression:tb;writing-mode:lr-tb;text-anchor:start;color:#000000;fill:#d40000;fill-opacity:1;fill-rule:nonzero;stroke:none;stroke-width:1px;marker:none;visibility:visible;font-family:Comfortaa;-inkscape-font-specification:Comfortaa"
         id="path3596-4-4-5-9" />
      <path
         inkscape:connector-curvature="0"
         d="m 134.8697,957.25789 c 0,0.14884 -0.0519,0.2753 -0.15576,0.37912 -0.10833,0.10831 -0.23701,0.16245 -0.386,0.16245 -0.14903,0 -0.27538,-0.0541 -0.37921,-0.16245 -0.10833,-0.10388 -0.1625,-0.23019 -0.1625,-0.37912 l 0,-9.20725 -0.54174,0 c -0.14887,0 -0.27538,-0.0542 -0.37922,-0.16246 -0.10833,-0.10388 -0.16249,-0.23019 -0.16249,-0.37912 0,-0.14883 0.0542,-0.27759 0.16249,-0.38591 0.1039,-0.10384 0.23024,-0.15572 0.37922,-0.15572 l 1.08348,0 c 0.14887,0 0.27765,0.0519 0.386,0.15572 0.1039,0.10832 0.15576,0.23695 0.15576,0.38591 l 0,9.74886"
         style="font-size:8.73411083px;font-style:normal;font-variant:normal;font-weight:normal;font-stretch:normal;text-indent:0;text-align:start;text-decoration:none;line-height:125%;letter-spacing:0px;word-spacing:0px;text-transform:none;direction:ltr;block-progression:tb;writing-mode:lr-tb;text-anchor:start;color:#000000;fill:#d40000;fill-opacity:1;fill-rule:nonzero;stroke:none;stroke-width:1px;marker:none;visibility:visible;font-family:Comfortaa;-inkscape-font-specification:Comfortaa"
         id="path3598-43-1-8-5" />
      <path
         inkscape:connector-curvature="0"
         d="m 125.16571,951.30024 c 0.0993,0.51905 0.34762,0.97716 0.74489,1.37433 0.52822,0.52805 1.16701,0.79209 1.91642,0.79209 0.74942,0 1.38821,-0.26404 1.91643,-0.79209 0.39729,-0.39717 0.64558,-0.85528 0.74489,-1.37433 l -5.32263,0 m 0.5756,-2.49137 c -0.14903,0 -0.27538,-0.0541 -0.37921,-0.16245 -0.10833,-0.10385 -0.1625,-0.23016 -0.1625,-0.37912 2e-5,-0.14884 0.0519,-0.27757 0.15577,-0.38591 0.69975,-0.60928 1.52366,-0.91393 2.4717,-0.91393 1.04739,0 1.94126,0.37009 2.68164,1.11026 0.7404,0.74021 1.11057,1.63385 1.11057,2.68097 0,1.0471 -0.37017,1.94073 -1.11057,2.68094 -0.74038,0.74018 -1.63425,1.11027 -2.68164,1.11027 -1.04738,0 -1.94125,-0.37009 -2.68163,-1.11027 -0.74038,-0.74021 -1.11057,-1.63384 -1.11058,-2.68094 1e-5,-0.14902 0.0542,-0.27759 0.16249,-0.38588 0.1039,-0.10388 0.23025,-0.15572 0.37922,-0.15572 l 5.91179,0 c -0.0993,-0.51908 -0.3476,-0.97716 -0.74489,-1.37434 -0.52822,-0.52807 -1.16701,-0.79208 -1.91643,-0.79208 -0.67717,0 -1.25954,0.21436 -1.74712,0.64316 -0.0993,0.0766 -0.21219,0.11501 -0.33859,0.11501"
         style="font-size:8.73411083px;font-style:normal;font-variant:normal;font-weight:normal;font-stretch:normal;text-indent:0;text-align:start;text-decoration:none;line-height:125%;letter-spacing:0px;word-spacing:0px;text-transform:none;direction:ltr;block-progression:tb;writing-mode:lr-tb;text-anchor:start;color:#000000;fill:#d40000;fill-opacity:1;fill-rule:nonzero;stroke:none;stroke-width:1px;marker:none;visibility:visible;font-family:Comfortaa;-inkscape-font-specification:Comfortaa"
         id="path3600-73-7-4-5" />
      <path
         inkscape:connector-curvature="0"
         d="m 115.09603,953.46666 c 0.74942,0 1.38823,-0.26404 1.91641,-0.79209 0.52822,-0.52808 0.79231,-1.1667 0.79231,-1.91591 0,-0.74923 -0.26409,-1.38786 -0.79231,-1.91594 -0.52818,-0.52807 -1.16699,-0.79208 -1.91641,-0.79208 -0.74941,0 -1.38822,0.26401 -1.91642,0.79208 -0.52818,0.52808 -0.79229,1.16671 -0.79229,1.91594 0,0.74921 0.26411,1.38783 0.79229,1.91591 0.5282,0.52805 1.16701,0.79209 1.91642,0.79209 m -2.70871,-5.36188 c 0.01,-0.01 0.0181,-0.018 0.0271,-0.027 0.7404,-0.74018 1.63427,-1.1103 2.68163,-1.1103 1.04738,0 1.94125,0.37012 2.68163,1.1103 0.74039,0.74017 1.11058,1.63381 1.11058,2.68094 0,1.04709 -0.37019,1.94073 -1.11058,2.68093 -0.74038,0.74018 -1.63425,1.11027 -2.68163,1.11027 -1.04736,0 -1.94123,-0.37009 -2.68163,-1.11027 -0.74038,-0.7402 -1.11058,-1.63384 -1.11058,-2.68093 l 0,-3.79124 c 0,-0.78985 0.28443,-1.47585 0.85325,-2.0581 0.79456,-0.79435 1.75389,-1.19153 2.87802,-1.19153 1.12412,0 2.08119,0.39718 2.87123,1.19153 0.29346,0.28886 0.53272,0.60254 0.71783,0.94104 0.0542,0.0812 0.0812,0.17602 0.0812,0.28433 0,0.14884 -0.0519,0.27757 -0.15577,0.38591 -0.10832,0.10385 -0.23701,0.15573 -0.38599,0.15573 -0.14887,0 -0.27764,-0.0519 -0.386,-0.15573 -0.0451,-0.0497 -0.0835,-0.10388 -0.11506,-0.16245 -0.13541,-0.24372 -0.30923,-0.47167 -0.52142,-0.6838 -0.58236,-0.58219 -1.28438,-0.87332 -2.10602,-0.87335 -0.82165,3e-5 -1.52367,0.29116 -2.10605,0.87335 -0.36114,0.43329 -0.54174,0.86431 -0.54174,1.29307 l 0,1.13738"
         style="font-size:8.73411083px;font-style:normal;font-variant:normal;font-weight:normal;font-stretch:normal;text-indent:0;text-align:start;text-decoration:none;line-height:125%;letter-spacing:0px;word-spacing:0px;text-transform:none;direction:ltr;block-progression:tb;writing-mode:lr-tb;text-anchor:start;color:#000000;fill:#d40000;fill-opacity:1;fill-rule:nonzero;stroke:none;stroke-width:1px;marker:none;visibility:visible;font-family:Comfortaa;-inkscape-font-specification:Comfortaa"
         id="path3602-8-3-1-4" />
      <path
         inkscape:connector-curvature="0"
         d="m 110.22033,954.00826 c 0,0.14884 -0.0519,0.27533 -0.15576,0.37912 -0.10833,0.10831 -0.23701,0.16246 -0.38598,0.16246 -0.14887,0 -0.27539,-0.0542 -0.37924,-0.16246 -0.10832,-0.10385 -0.16249,-0.23019 -0.16249,-0.37912 l 0,-0.59575 c -0.75845,0.75824 -1.66135,1.13736 -2.70872,1.13736 -0.52819,0 -1.01352,-0.0903 -1.45594,-0.27081 -0.0812,-0.0315 -0.15577,-0.0791 -0.22349,-0.14225 -0.1039,-0.10832 -0.15576,-0.23696 -0.15576,-0.38592 1e-5,-0.1488 0.0542,-0.27756 0.16249,-0.38588 0.1039,-0.10388 0.23023,-0.15572 0.37922,-0.15572 0.0857,0 0.16477,0.018 0.23701,0.0541 0.32054,0.1354 0.67267,0.2031 1.0564,0.2031 0.7494,0 1.38822,-0.26401 1.91642,-0.79208 0.5282,-0.52805 0.79231,-1.16671 0.79231,-1.91591 l 0,-3.2496 c 0,-0.14884 0.0542,-0.2776 0.16249,-0.38591 0.1039,-0.10388 0.23025,-0.15573 0.37923,-0.15573 0.14887,0 0.27764,0.0518 0.38598,0.15573 0.1039,0.10831 0.15576,0.23692 0.15576,0.38591 l 0,6.49923"
         style="font-size:8.73411083px;font-style:normal;font-variant:normal;font-weight:normal;font-stretch:normal;text-indent:0;text-align:start;text-decoration:none;line-height:125%;letter-spacing:0px;word-spacing:0px;text-transform:none;direction:ltr;block-progression:tb;writing-mode:lr-tb;text-anchor:start;color:#000000;fill:#d40000;fill-opacity:1;fill-rule:nonzero;stroke:none;stroke-width:1px;marker:none;visibility:visible;font-family:Comfortaa;-inkscape-font-specification:Comfortaa"
         id="path3604-7-6-1-9" />
      <path
         inkscape:connector-curvature="0"
         d="m 99.927195,953.46666 c 0.749405,0 1.388205,-0.26404 1.916415,-0.79209 0.5282,-0.52808 0.7923,-1.1667 0.7923,-1.91591 0,-0.74923 -0.2641,-1.38786 -0.7923,-1.91594 -0.52821,-0.52807 -1.16701,-0.79208 -1.916415,-0.79208 -0.74942,0 -1.388216,0.26401 -1.916433,0.79208 -0.528202,0.52808 -0.792293,1.16671 -0.792293,1.91594 0,0.74921 0.264091,1.38783 0.792293,1.91591 0.528217,0.52805 1.167013,0.79209 1.916433,0.79209 m -2.708726,-5.36188 c 0.758449,-0.75823 1.661333,-1.13735 2.708726,-1.13735 1.047375,0 1.941255,0.37009 2.681625,1.11026 0.74038,0.74021 1.11057,1.63385 1.11057,2.68097 0,1.0471 -0.37019,1.94073 -1.11057,2.68094 -0.74037,0.74018 -1.63425,1.11027 -2.681625,1.11027 -1.047393,0 -1.941267,-0.37009 -2.681661,-1.11027 -0.740363,-0.74021 -1.110551,-1.63384 -1.110566,-2.68094 l 0,-3.24963 c 1.5e-5,-0.14883 0.05416,-0.27759 0.16249,-0.38591 0.1039,-0.10385 0.230251,-0.15572 0.379217,-0.15572 0.14887,0 0.277669,0.0519 0.386011,0.15572 0.1039,0.10832 0.155765,0.23695 0.155765,0.38591 l 0,0.59575"
         style="font-size:8.73411083px;font-style:normal;font-variant:normal;font-weight:normal;font-stretch:normal;text-indent:0;text-align:start;text-decoration:none;line-height:125%;letter-spacing:0px;word-spacing:0px;text-transform:none;direction:ltr;block-progression:tb;writing-mode:lr-tb;text-anchor:start;color:#000000;fill:#d40000;fill-opacity:1;fill-rule:nonzero;stroke:none;stroke-width:1px;marker:none;visibility:visible;font-family:Comfortaa;-inkscape-font-specification:Comfortaa"
         id="path3606-19-9-2-8" />
      <path
         inkscape:connector-curvature="0"
         d="m 91.096761,957.79946 c -0.149035,0 -0.275385,-0.0541 -0.379232,-0.16242 -0.108331,-0.10388 -0.162494,-0.23022 -0.162494,-0.37912 0,-0.14883 0.05416,-0.2776 0.162494,-0.38591 0.103896,-0.10388 0.230247,-0.15572 0.379232,-0.15572 1.444645,0 2.166968,-0.72215 2.166968,-2.16639 l 0,-0.40621 -1.632006,0 c -0.14887,0 -0.275382,-0.0542 -0.379232,-0.16245 -0.108327,-0.10388 -0.162494,-0.23019 -0.162494,-0.37912 1.8e-5,-0.14884 0.05417,-0.2776 0.162494,-0.38591 0.103896,-0.10385 0.230266,-0.15573 0.379232,-0.15573 l 1.632006,0 0,-5.55142 c 0,-0.14899 0.05416,-0.27759 0.162494,-0.38591 0.103897,-0.10384 0.230263,-0.15572 0.379232,-0.15572 0.14887,0 0.27765,0.0519 0.385996,0.15572 0.103897,0.10832 0.155764,0.23695 0.155764,0.38591 l 0,5.55142 0.541742,0 c 0.14887,0 0.27765,0.0519 0.385996,0.15573 0.103896,0.10831 0.155761,0.23695 0.155761,0.38591 0,0.14884 -0.05186,0.2753 -0.155761,0.37912 -0.108331,0.10828 -0.237011,0.16245 -0.385996,0.16245 l -0.541742,0 0,0.40621 c 0,2.16639 -1.083486,3.2496 -3.250454,3.2496"
         style="font-size:8.73411083px;font-style:normal;font-variant:normal;font-weight:normal;font-stretch:normal;text-indent:0;text-align:start;text-decoration:none;line-height:125%;letter-spacing:0px;word-spacing:0px;text-transform:none;direction:ltr;block-progression:tb;writing-mode:lr-tb;text-anchor:start;color:#000000;fill:#d40000;fill-opacity:1;fill-rule:nonzero;stroke:none;stroke-width:1px;marker:none;visibility:visible;font-family:Comfortaa;-inkscape-font-specification:Comfortaa"
         id="path3608-9-5-3-3" />
      <path
         inkscape:connector-curvature="0"
         d="m 88.25259,956.17468 c 0,-0.18504 0.06779,-0.3453 0.203149,-0.48067 0.130815,-0.13096 0.288925,-0.19634 0.474037,-0.19634 0.185094,0 0.345354,0.0655 0.480783,0.19634 0.130813,0.13537 0.196385,0.29563 0.196385,0.48067 0,0.18505 -0.06549,0.343 -0.196385,0.47391 -0.135413,0.13537 -0.295689,0.2031 -0.480783,0.2031 -0.185112,0 -0.343107,-0.0678 -0.474037,-0.2031 -0.135411,-0.13081 -0.203149,-0.28886 -0.203149,-0.47391 m 1.218912,-2.16642 c 0,0.14884 -0.05187,0.27533 -0.155764,0.37912 -0.10833,0.10831 -0.237026,0.16246 -0.385996,0.16246 -0.14887,0 -0.275385,-0.0542 -0.379232,-0.16246 -0.10833,-0.10385 -0.162494,-0.23019 -0.162494,-0.37912 l 0,-6.49923 c 0,-0.14883 0.05416,-0.27759 0.162494,-0.38591 0.103897,-0.10385 0.230247,-0.15572 0.379232,-0.15572 0.14887,0 0.277635,0.0519 0.385996,0.15572 0.103897,0.10832 0.155764,0.23695 0.155764,0.38591 l 0,6.49923"
         style="font-size:8.73411083px;font-style:normal;font-variant:normal;font-weight:normal;font-stretch:normal;text-indent:0;text-align:start;text-decoration:none;line-height:125%;letter-spacing:0px;word-spacing:0px;text-transform:none;direction:ltr;block-progression:tb;writing-mode:lr-tb;text-anchor:start;color:#000000;fill:#d40000;fill-opacity:1;fill-rule:nonzero;stroke:none;stroke-width:1px;marker:none;visibility:visible;font-family:Comfortaa;-inkscape-font-specification:Comfortaa"
         id="path3610-3-6-2-5" />
      <path
         inkscape:connector-curvature="0"
         d="m 85.679291,951.48981 -4.584508,2.97883 c -0.08568,0.0541 -0.182844,0.0812 -0.29119,0.0812 -0.14887,-3e-5 -0.27537,-0.0542 -0.379217,-0.16246 -0.10833,-0.10388 -0.162493,-0.23019 -0.162493,-0.37912 0,-0.14899 0.05187,-0.27533 0.155764,-0.37911 0.02709,-0.027 0.05187,-0.0497 0.07452,-0.0676 l 3.142109,-2.04458 -3.223371,-3.62875 c -0.0993,-0.10828 -0.14887,-0.23465 -0.14887,-0.37911 0,-0.14881 0.05416,-0.27757 0.162493,-0.38588 0.103897,-0.10388 0.230229,-0.15573 0.379214,-0.15573 0.14887,0 0.279899,0.0541 0.392775,0.16246 l 3.365577,3.79123 1.117345,-0.72438 0,-2.68773 c 0,-0.14881 0.05416,-0.27757 0.162494,-0.38589 0.103897,-0.10387 0.230248,-0.15572 0.379232,-0.15572 0.14887,0 0.277635,0.0519 0.385981,0.15572 0.103896,0.10829 0.155761,0.23696 0.155761,0.38589 l 0,9.74888 c 0,0.14884 -0.05187,0.27531 -0.155761,0.37912 -0.108331,0.10828 -0.237011,0.16246 -0.385981,0.16246 -0.149034,0 -0.275385,-0.0542 -0.379232,-0.16246 -0.10833,-0.10388 -0.162494,-0.23022 -0.162494,-0.37912 l 0,-5.76808"
         style="font-size:8.73411083px;font-style:normal;font-variant:normal;font-weight:normal;font-stretch:normal;text-indent:0;text-align:start;text-decoration:none;line-height:125%;letter-spacing:0px;word-spacing:0px;text-transform:none;direction:ltr;block-progression:tb;writing-mode:lr-tb;text-anchor:start;color:#000000;fill:#d40000;fill-opacity:1;fill-rule:nonzero;stroke:none;stroke-width:1px;marker:none;visibility:visible;font-family:Comfortaa;-inkscape-font-specification:Comfortaa"
         id="path3612-64-7-1-7" />
      <path
         inkscape:connector-curvature="0"
         d="m 72.027338,950.75866 c 1.9e-5,-1.04712 0.370191,-1.94076 1.110566,-2.68097 0.740397,-0.74017 1.634272,-1.11026 2.68163,-1.11026 1.047374,0 1.941267,0.37009 2.681661,1.11026 0.740379,0.74021 1.110569,1.63385 1.110569,2.68097 0,1.0471 -0.37019,1.94073 -1.110569,2.68094 -0.740394,0.74018 -1.634287,1.11027 -2.681661,1.11027 -1.047358,0 -1.941233,-0.37009 -2.68163,-1.11027 -0.740375,-0.74021 -1.110547,-1.63384 -1.110566,-2.68094 m 3.792196,2.708 c 0.749438,0 1.388235,-0.26404 1.916433,-0.79209 0.528201,-0.52808 0.792311,-1.1667 0.792296,-1.91591 1.5e-5,-0.74923 -0.264095,-1.38786 -0.792296,-1.91594 -0.528198,-0.52807 -1.166995,-0.79208 -1.916433,-0.79208 -0.749389,0 -1.388201,0.26401 -1.916417,0.79208 -0.528186,0.52808 -0.792278,1.16671 -0.792293,1.91594 1.5e-5,0.74921 0.264107,1.38783 0.792293,1.91591 0.528216,0.52805 1.167028,0.79209 1.916417,0.79209"
         style="font-size:8.73411083px;font-style:normal;font-variant:normal;font-weight:normal;font-stretch:normal;text-indent:0;text-align:start;text-decoration:none;line-height:125%;letter-spacing:0px;word-spacing:0px;text-transform:none;direction:ltr;block-progression:tb;writing-mode:lr-tb;text-anchor:start;color:#000000;fill:#d40000;fill-opacity:1;fill-rule:nonzero;stroke:none;stroke-width:1px;marker:none;visibility:visible;font-family:Comfortaa;-inkscape-font-specification:Comfortaa"
         id="path3614-4-2-5-8" />
      <path
         inkscape:connector-curvature="0"
         d="m 63.088542,953.46666 c 0.749439,0 1.388232,-0.26404 1.916434,-0.79209 0.528201,-0.52808 0.792311,-1.1667 0.792311,-1.91591 0,-0.74923 -0.26411,-1.38786 -0.792311,-1.91594 -0.528202,-0.52807 -1.166995,-0.79208 -1.916434,-0.79208 -0.749388,0 -1.388216,0.26401 -1.916417,0.79208 -0.528186,0.52808 -0.792293,1.16671 -0.792308,1.91594 1.5e-5,0.74921 0.264122,1.38783 0.792308,1.91591 0.528201,0.52805 1.167029,0.79209 1.916417,0.79209 m -2.708725,-5.36188 c 0.758448,-0.75823 1.661367,-1.13735 2.708725,-1.13735 1.047374,0 1.941252,0.37009 2.681646,1.11026 0.740378,0.74021 1.110585,1.63385 1.110585,2.68097 0,1.0471 -0.370207,1.94073 -1.110585,2.68094 -0.740394,0.74018 -1.634272,1.11027 -2.681646,1.11027 -1.047358,0 -1.941236,-0.37009 -2.68163,-1.11027 -0.740375,-0.74021 -1.110566,-1.63384 -1.110581,-2.68094 l 0,-3.24963 c 1.5e-5,-0.14883 0.05416,-0.27759 0.162494,-0.38591 0.103896,-0.10385 0.230262,-0.15572 0.379232,-0.15572 0.14887,0 0.277634,0.0519 0.385996,0.15572 0.103896,0.10832 0.155764,0.23695 0.155764,0.38591 l 0,0.59575"
         style="font-size:8.73411083px;font-style:normal;font-variant:normal;font-weight:normal;font-stretch:normal;text-indent:0;text-align:start;text-decoration:none;line-height:125%;letter-spacing:0px;word-spacing:0px;text-transform:none;direction:ltr;block-progression:tb;writing-mode:lr-tb;text-anchor:start;color:#000000;fill:#d40000;fill-opacity:1;fill-rule:nonzero;stroke:none;stroke-width:1px;marker:none;visibility:visible;font-family:Comfortaa;-inkscape-font-specification:Comfortaa"
         id="path3616-38-9-3-6" />
      <path
         inkscape:connector-curvature="0"
         d="m 56.872015,950.75866 c 0.410829,0.1534 0.697506,0.31365 0.860032,0.48067 0.320522,0.31592 0.480783,0.6973 0.480783,1.14412 0,0.44681 -0.167023,0.83723 -0.501103,1.17123 -0.650087,0.66345 -1.49881,0.99519 -2.546201,0.99519 -1.133152,0 -2.103761,-0.45359 -2.911861,-1.36078 -0.07222,-0.0857 -0.106031,-0.19181 -0.101599,-0.31818 0,-0.14899 0.05416,-0.2776 0.162493,-0.38591 0.103897,-0.10385 0.230232,-0.15573 0.379216,-0.15573 0.14887,0 0.268623,0.0474 0.358897,0.14229 0.09027,0.0949 0.155764,0.16243 0.196387,0.2031 0.528217,0.52808 1.167012,0.79209 1.916434,0.79209 0.749405,0 1.347593,-0.23469 1.794515,-0.70406 0.108329,-0.13097 0.162493,-0.28663 0.162493,-0.46714 -0.01477,-0.21213 -0.124086,-0.35656 -0.331814,-0.43329 l -3.331733,-1.1035 c -0.410812,-0.15343 -0.697489,-0.31372 -0.860015,-0.48067 -0.320522,-0.31595 -0.480783,-0.69733 -0.4808,-1.14415 1.7e-5,-0.44685 0.16704,-0.83723 0.501103,-1.17123 0.650104,-0.66345 1.498827,-0.99519 2.546218,-0.99519 1.137649,0 2.108275,0.45358 2.91186,1.36078 0.06762,0.0948 0.1016,0.20083 0.1016,0.31818 0,0.14902 -0.05187,0.27533 -0.155764,0.37912 -0.108329,0.10831 -0.236994,0.16245 -0.385995,0.16245 -0.14887,0 -0.268606,-0.0474 -0.35888,-0.14226 -0.09027,-0.0949 -0.155764,-0.16245 -0.196387,-0.2031 -0.528217,-0.52808 -1.167012,-0.79208 -1.916434,-0.79208 -0.749405,0 -1.347577,0.23465 -1.794531,0.70406 -0.108329,0.13078 -0.162493,0.28663 -0.162493,0.46714 0.01477,0.21213 0.124085,0.35656 0.331814,0.43329 l 3.331716,1.1035"
         style="font-size:8.73411083px;font-style:normal;font-variant:normal;font-weight:normal;font-stretch:normal;text-indent:0;text-align:start;text-decoration:none;line-height:125%;letter-spacing:0px;word-spacing:0px;text-transform:none;direction:ltr;block-progression:tb;writing-mode:lr-tb;text-anchor:start;color:#000000;fill:#d40000;fill-opacity:1;fill-rule:nonzero;stroke:none;stroke-width:1px;marker:none;visibility:visible;font-family:Comfortaa;-inkscape-font-specification:Comfortaa"
         id="path3618-0-5-2-8" />
      <path
         inkscape:connector-curvature="0"
         d="m 49.951236,951.48981 -4.584522,2.97883 c -0.08568,0.0541 -0.182829,0.0812 -0.291174,0.0812 -0.14887,-3e-5 -0.275385,-0.0542 -0.379217,-0.16246 -0.108328,-0.10388 -0.162493,-0.23019 -0.162493,-0.37912 0,-0.14899 0.05187,-0.27533 0.155764,-0.37911 0.02708,-0.027 0.05187,-0.0497 0.07452,-0.0676 l 3.142108,-2.04458 -3.223371,-3.62875 c -0.0993,-0.10828 -0.14887,-0.23465 -0.14887,-0.37911 0,-0.14881 0.05416,-0.27757 0.162493,-0.38588 0.103897,-0.10388 0.230232,-0.15573 0.379216,-0.15573 0.14887,0 0.279899,0.0541 0.392758,0.16246 l 3.365593,3.79123 1.117346,-0.72438 0,-2.68773 c 0,-0.14881 0.05416,-0.27757 0.162493,-0.38589 0.103897,-0.10387 0.230248,-0.15572 0.379216,-0.15572 0.14887,0 0.27765,0.0519 0.385995,0.15572 0.103898,0.10829 0.155764,0.23696 0.155764,0.38589 l 0,9.74888 c 0,0.14884 -0.05187,0.27531 -0.155764,0.37912 -0.108328,0.10828 -0.23701,0.16246 -0.385995,0.16246 -0.149034,0 -0.275384,-0.0542 -0.379216,-0.16246 -0.108329,-0.10388 -0.162493,-0.23022 -0.162493,-0.37912 l 0,-5.76808"
         style="font-size:8.73411083px;font-style:normal;font-variant:normal;font-weight:normal;font-stretch:normal;text-indent:0;text-align:start;text-decoration:none;line-height:125%;letter-spacing:0px;word-spacing:0px;text-transform:none;direction:ltr;block-progression:tb;writing-mode:lr-tb;text-anchor:start;color:#000000;fill:#d40000;fill-opacity:1;fill-rule:nonzero;stroke:none;stroke-width:1px;marker:none;visibility:visible;font-family:Comfortaa;-inkscape-font-specification:Comfortaa"
         id="path3620-5-8-5-1" />
      <path
         inkscape:connector-curvature="0"
         d="m 37.430156,951.30024 c 0.09947,0.51905 0.347637,0.97716 0.744908,1.37433 0.528201,0.52805 1.167012,0.79209 1.916418,0.79209 0.749421,0 1.388233,-0.26404 1.916417,-0.79209 0.397288,-0.39717 0.64559,-0.85528 0.744908,-1.37433 l -5.322651,0 m 0.57562,-2.49137 c -0.14887,0 -0.275385,-0.0541 -0.379217,-0.16245 -0.108328,-0.10385 -0.162493,-0.23016 -0.162493,-0.37912 0,-0.14884 0.05187,-0.27757 0.155764,-0.38591 0.699771,-0.60928 1.52366,-0.91393 2.471701,-0.91393 1.047375,0 1.941251,0.37009 2.681629,1.11026 0.740394,0.74021 1.110599,1.63385 1.110599,2.68097 0,1.0471 -0.370205,1.94073 -1.110599,2.68094 -0.740378,0.74018 -1.634254,1.11027 -2.681629,1.11027 -1.047359,0 -1.941235,-0.37009 -2.681629,-1.11027 -0.740378,-0.74021 -1.110567,-1.63384 -1.110567,-2.68094 0,-0.14902 0.05416,-0.27759 0.162493,-0.38588 0.103898,-0.10388 0.230265,-0.15572 0.379217,-0.15572 l 5.911795,0 c -0.0993,-0.51908 -0.34762,-0.97716 -0.744908,-1.37434 -0.528185,-0.52807 -1.166996,-0.79208 -1.916417,-0.79208 -0.67717,0 -1.259552,0.21436 -1.747113,0.64316 -0.0993,0.0766 -0.212177,0.11501 -0.33861,0.11501"
         style="font-size:8.73411083px;font-style:normal;font-variant:normal;font-weight:normal;font-stretch:normal;text-indent:0;text-align:start;text-decoration:none;line-height:125%;letter-spacing:0px;word-spacing:0px;text-transform:none;direction:ltr;block-progression:tb;writing-mode:lr-tb;text-anchor:start;color:#000000;fill:#d40000;fill-opacity:1;fill-rule:nonzero;stroke:none;stroke-width:1px;marker:none;visibility:visible;font-family:Comfortaa;-inkscape-font-specification:Comfortaa"
         id="path3622-6-6-3-2" />
      <path
         inkscape:connector-curvature="0"
         d="m 31.423589,953.46666 c 0.749406,0 1.388217,-0.26404 1.916418,-0.79209 0.528185,-0.52808 0.79231,-1.1667 0.79231,-1.91591 0,-0.74923 -0.264125,-1.38786 -0.79231,-1.91594 -0.528201,-0.52807 -1.167012,-0.79208 -1.916418,-0.79208 -0.749421,0 -1.388232,0.26401 -1.916434,0.79208 -0.528201,0.52808 -0.792293,1.16671 -0.79231,1.91594 1.7e-5,0.74921 0.264109,1.38783 0.79231,1.91591 0.528202,0.52805 1.167013,0.79209 1.916434,0.79209 m -2.708744,-5.36188 c 0.758449,-0.75823 1.66137,-1.13735 2.708744,-1.13735 1.047359,0 1.941235,0.37009 2.681629,1.11026 0.740378,0.74021 1.110583,1.63385 1.110583,2.68097 0,1.0471 -0.370205,1.94073 -1.110583,2.68094 -0.740394,0.74018 -1.63427,1.11027 -2.681629,1.11027 -1.047374,0 -1.941251,-0.37009 -2.681645,-1.11027 -0.740378,-0.74021 -1.110567,-1.63384 -1.110583,-2.68094 l 0,-3.24963 c 1.6e-5,-0.14883 0.05416,-0.27759 0.162493,-0.38591 0.103897,-0.10385 0.230248,-0.15572 0.379233,-0.15572 0.14887,0 0.27765,0.0519 0.385995,0.15572 0.103897,0.10832 0.155763,0.23695 0.155763,0.38591 l 0,0.59575"
         style="font-size:8.73411083px;font-style:normal;font-variant:normal;font-weight:normal;font-stretch:normal;text-indent:0;text-align:start;text-decoration:none;line-height:125%;letter-spacing:0px;word-spacing:0px;text-transform:none;direction:ltr;block-progression:tb;writing-mode:lr-tb;text-anchor:start;color:#000000;fill:#d40000;fill-opacity:1;fill-rule:nonzero;stroke:none;stroke-width:1px;marker:none;visibility:visible;font-family:Comfortaa;-inkscape-font-specification:Comfortaa"
         id="path3624-0-1-7-5" />
    </g>
  </g>
</svg>
