<?xml version="1.0" encoding="UTF-8" standalone="no"?>
<!-- Generator: Adobe Illustrator 15.0.0, SVG Export Plug-In . SVG Version: 6.00 Build 0)  -->

<svg
   xmlns:dc="http://purl.org/dc/elements/1.1/"
   xmlns:cc="http://creativecommons.org/ns#"
   xmlns:rdf="http://www.w3.org/1999/02/22-rdf-syntax-ns#"
   xmlns:svg="http://www.w3.org/2000/svg"
   xmlns="http://www.w3.org/2000/svg"
   xmlns:sodipodi="http://sodipodi.sourceforge.net/DTD/sodipodi-0.dtd"
   xmlns:inkscape="http://www.inkscape.org/namespaces/inkscape"
   version="1.1"
   id="Icons"
   x="0px"
   y="0px"
   width="100px"
   height="100px"
   viewBox="0 0 100 100"
   style="enable-background:new 0 0 100 100;"
   xml:space="preserve"
   inkscape:version="0.48.4 r9939"
   sodipodi:docname="languages.svg"><metadata
     id="metadata36535"><rdf:RDF><cc:Work
         rdf:about=""><dc:format>image/svg+xml</dc:format><dc:type
           rdf:resource="http://purl.org/dc/dcmitype/StillImage" /><dc:title></dc:title></cc:Work></rdf:RDF></metadata><defs
     id="defs36533" /><sodipodi:namedview
     pagecolor="#ffffff"
     bordercolor="#666666"
     borderopacity="1"
     objecttolerance="10"
     gridtolerance="10"
     guidetolerance="10"
     inkscape:pageopacity="0"
     inkscape:pageshadow="2"
     inkscape:window-width="1398"
     inkscape:window-height="1029"
     id="namedview36531"
     showgrid="false"
     inkscape:zoom="6.6169295"
     inkscape:cx="31.713573"
     inkscape:cy="50"
     inkscape:window-x="0"
     inkscape:window-y="19"
     inkscape:window-maximized="0"
     inkscape:current-layer="Icons" /><g
     id="g4086"><path
       d="m 17.712082,62.492406 c -0.04514,0 -0.157989,-0.02257 -0.270838,-0.04514 -0.135419,-0.02257 -0.338548,-0.06771 -0.677096,-0.11285 -0.315977,-0.06771 -0.767375,-0.135419 -1.33162,-0.248268 l 0,-18.687827 -5.5747505,0 -3.4080458,0 0,2.663241 c -0.02257,0.789944 0.3611182,1.241342 1.128492,1.4219 0.04514,0 0.157989,0.02257 0.2708381,0.04514 0.1354189,0.02257 0.3385479,0.06771 0.6770952,0.112849 0.3159774,0.06771 0.7673751,0.135419 1.3316205,0.248268 l 0,14.196429 c -0.5642454,0.112849 -1.0156431,0.180559 -1.3316205,0.248268 -0.3385473,0.04514 -0.5416763,0.09028 -0.6770952,0.11285 -0.1128491,0.02257 -0.2256984,0.04514 -0.2708381,0.04514 -0.7673738,0.180559 -1.1510618,0.631957 -1.128492,1.4219 l 0,2.640671 3.4080458,0 5.5747505,0 3.408046,0 0,-2.640671 c 0,-0.789943 -0.361119,-1.241341 -1.128492,-1.4219 M 16.267612,36.64994 c 0,-0.496536 -0.09028,-0.947934 -0.293408,-1.39933 -0.203128,-0.428826 -0.451397,-0.812514 -0.789944,-1.128492 -0.315978,-0.315977 -0.699666,-0.564246 -1.128492,-0.744805 -0.428827,-0.180558 -0.902794,-0.293408 -1.39933,-0.293408 -0.473967,0 -0.947934,0.11285 -1.376761,0.293408 -0.428826,0.180559 -0.789944,0.428828 -1.105922,0.744805 -0.3159772,0.315978 -0.5642459,0.699666 -0.7673743,1.151062 -0.1805585,0.428826 -0.2708381,0.880224 -0.2708381,1.39933 0,0.473966 0.09028,0.925364 0.2708381,1.35419 0.2031284,0.406257 0.4513971,0.789945 0.7673743,1.105922 0.315978,0.293408 0.677096,0.564247 1.105922,0.744805 0.428827,0.180559 0.902794,0.270838 1.376761,0.293408 0.496536,0 0.970503,-0.112849 1.39933,-0.293408 0.428826,-0.180558 0.812514,-0.428827 1.128492,-0.744805 0.338547,-0.315977 0.586816,-0.699665 0.789944,-1.105922 0.203128,-0.428826 0.293408,-0.880224 0.293408,-1.37676"
       style="font-size:45.13967896px;font-style:normal;font-variant:normal;font-weight:bold;font-stretch:normal;text-indent:0;text-align:start;text-decoration:none;line-height:125%;letter-spacing:0px;word-spacing:0px;text-transform:none;direction:ltr;block-progression:tb;writing-mode:lr-tb;text-anchor:start;color:#000000;fill:#ffffff;fill-opacity:1;fill-rule:nonzero;stroke:none;stroke-width:1px;marker:none;visibility:visible;font-family:Aleo;-inkscape-font-specification:Aleo Bold"
       id="path4074"
       inkscape:connector-curvature="0" /><path
       d="m 39.81007,62.808384 c -0.270837,-0.04514 -1.941009,-0.180559 -4.965364,-0.428827 l 0,-28.505707 -4.581678,0 -9.930729,8.46369 1.737878,2.414972 c 0.135419,0.180559 0.315978,0.315978 0.564246,0.451397 0.248268,0.135419 0.519106,0.180559 0.812514,0.180559 0.203128,0 0.406257,-0.02257 0.609386,-0.09028 0.203128,-0.04514 0.406257,-0.157989 0.586815,-0.338548 l 4.694527,-3.927152 c -0.02257,0.812513 -0.04514,1.602459 -0.06771,2.324693 l 0,18.981235 c -3.475751,0.270838 -5.394191,0.428827 -5.687599,0.473967 -0.609385,0.135419 -0.902794,0.519107 -0.902794,1.151062 l 0,2.595531 8.847377,0 0.338548,0 8.847377,0 0,-2.595531 c 0,-0.631955 -0.293408,-1.015643 -0.902794,-1.151062"
       style="font-size:45.13967896px;font-style:normal;font-variant:normal;font-weight:bold;font-stretch:normal;text-indent:0;text-align:start;text-decoration:none;line-height:125%;letter-spacing:0px;word-spacing:0px;text-transform:none;direction:ltr;block-progression:tb;writing-mode:lr-tb;text-anchor:start;color:#000000;fill:#ffffff;fill-opacity:1;fill-rule:nonzero;stroke:none;stroke-width:1px;marker:none;visibility:visible;font-family:Aleo;-inkscape-font-specification:Aleo Bold"
       id="path4076"
       inkscape:connector-curvature="0" /><path
       d="m 53.5946,66.916095 c 1.692737,0 3.227489,-0.225699 4.626818,-0.677095 1.399328,-0.451397 2.572962,-1.083353 3.566034,-1.918437 0.993072,-0.812513 1.783018,-1.828158 2.324694,-3.001788 0.541675,-1.173631 0.812514,-2.482684 0.812514,-3.927152 0,-1.918435 -0.473968,-3.543467 -1.4219,-4.875086 -0.925363,-1.331619 -2.414975,-2.324694 -4.401119,-2.979219 1.579887,-0.654524 2.753521,-1.57989 3.566035,-2.821229 0.789943,-1.218771 1.173632,-2.685813 1.196201,-4.401119 0,-1.21877 -0.270838,-2.369834 -0.767374,-3.453186 -0.496536,-1.060781 -1.196203,-1.986146 -2.098995,-2.77609 -0.902793,-0.789943 -1.986147,-1.39933 -3.250057,-1.850727 -1.26391,-0.451396 -2.640673,-0.654525 -4.130281,-0.654525 -1.512177,0 -2.88894,0.203129 -4.15285,0.654525 -1.26391,0.451397 -2.324695,1.060784 -3.227487,1.850727 -0.902793,0.789944 -1.625029,1.715309 -2.121565,2.79866 -0.496536,1.060782 -0.744805,2.211846 -0.744805,3.453186 0,1.715306 0.383688,3.182348 1.173632,4.401118 0.789943,1.21877 1.986147,2.144136 3.588604,2.82123 -2.008713,0.631955 -3.475756,1.62503 -4.423688,2.956649 -0.947933,1.331619 -1.4219,2.956651 -1.4219,4.897655 0,1.444469 0.270838,2.753522 0.812514,3.927152 0.541676,1.173631 1.331622,2.166706 2.324694,3.001789 0.993071,0.812514 2.166706,1.46704 3.566034,1.918437 1.399329,0.451396 2.934081,0.654525 4.604247,0.654525 m 0.02257,-4.333409 c -0.925362,0 -1.737878,-0.13542 -2.414973,-0.406257 C 50.502533,61.905591 49.915716,61.544473 49.44175,61.070506 48.967784,60.61911 48.606666,60.054863 48.380967,59.400338 48.1327,58.768383 48.01985,58.068717 48.01985,57.301343 c 0,-1.783015 0.496538,-3.137208 1.489609,-4.062571 0.993072,-0.902793 2.347266,-1.37676 4.107711,-1.37676 1.737876,0 3.114639,0.473967 4.107711,1.37676 0.993072,0.925363 1.489609,2.279556 1.489609,4.062571 0,0.767374 -0.135419,1.46704 -0.361117,2.098995 -0.248268,0.654525 -0.609386,1.218772 -1.083352,1.670168 -0.473966,0.473967 -1.060783,0.835085 -1.737878,1.105923 -0.699664,0.270837 -1.51218,0.406257 -2.414973,0.406257 m 0,-15.076653 c -0.902792,0 -1.670168,-0.157989 -2.279554,-0.428827 -0.631954,-0.293408 -1.128492,-0.677096 -1.489609,-1.151062 -0.383687,-0.473966 -0.654525,-1.015643 -0.812514,-1.625028 -0.157989,-0.609385 -0.225699,-1.241342 -0.225699,-1.873297 0,-0.631955 0.09028,-1.218772 0.270839,-1.760447 0.180558,-0.564246 0.473967,-1.060783 0.880223,-1.48961 0.406257,-0.428826 0.902794,-0.767375 1.512179,-1.015643 0.586816,-0.270837 1.309052,-0.383687 2.144135,-0.383687 0.812514,-0.02257 1.53475,0.11285 2.144135,0.383687 0.586815,0.248268 1.083353,0.586817 1.489609,1.015643 0.383687,0.428827 0.677096,0.925364 0.880224,1.48961 0.180559,0.541675 0.293408,1.128492 0.293408,1.760447 0,0.631955 -0.09028,1.263912 -0.248268,1.873297 -0.157989,0.609385 -0.428827,1.151062 -0.789945,1.625028 -0.383686,0.473966 -0.880224,0.857654 -1.489609,1.151062 -0.631955,0.270838 -1.376761,0.406257 -2.279554,0.428827"
       style="font-size:45.13967896px;font-style:normal;font-variant:normal;font-weight:bold;font-stretch:normal;text-indent:0;text-align:start;text-decoration:none;line-height:125%;letter-spacing:0px;word-spacing:0px;text-transform:none;direction:ltr;block-progression:tb;writing-mode:lr-tb;text-anchor:start;color:#000000;fill:#ffffff;fill-opacity:1;fill-rule:nonzero;stroke:none;stroke-width:1px;marker:none;visibility:visible;font-family:Aleo;-inkscape-font-specification:Aleo Bold"
       id="path4078"
       inkscape:connector-curvature="0" /><path
       d="m 92.421776,62.492406 c -0.06771,0 -0.157989,-0.02257 -0.270838,-0.04514 -0.135419,-0.02257 -0.361118,-0.06771 -0.677095,-0.11285 -0.315977,-0.06771 -0.767375,-0.135419 -1.33162,-0.248268 l 0,-10.246707 c 0,-1.309049 -0.18056,-2.482683 -0.519107,-3.566035 -0.338547,-1.083351 -0.835084,-2.008716 -1.489609,-2.77609 -0.654525,-0.767374 -1.467041,-1.37676 -2.437543,-1.805587 -0.970502,-0.428826 -2.098996,-0.631955 -3.362906,-0.631955 -0.789944,0 -1.51218,0.06771 -2.166705,0.225698 -0.654524,0.135419 -1.286481,0.361118 -1.873296,0.654525 -0.564246,0.270838 -1.128493,0.609386 -1.647598,1.015643 -0.519106,0.383687 -0.993074,0.812515 -1.46704,1.309051 l -0.383687,-1.828157 c -0.225698,-0.677095 -0.699666,-1.015643 -1.4219,-1.015643 l -3.408046,0 -3.408046,0 0,2.640671 c -0.02257,0.789944 0.361118,1.263911 1.128492,1.4219 0.04514,0 0.157989,0.02257 0.270838,0.04514 0.135419,0.02257 0.338548,0.06771 0.677096,0.112849 0.315977,0.06771 0.767375,0.135419 1.33162,0.248268 l 0,14.196429 c -0.564245,0.112849 -1.015643,0.180559 -1.33162,0.248268 -0.338548,0.04514 -0.541677,0.09028 -0.677096,0.11285 -0.112849,0.02257 -0.225698,0.04514 -0.270838,0.04514 -0.767374,0.180559 -1.151062,0.631957 -1.128492,1.4219 l 0,2.640671 3.408046,0 5.57475,0 3.408046,0 0,-2.640671 c 0,-0.789943 -0.361118,-1.241341 -1.128492,-1.4219 -0.06771,0 -0.157989,-0.02257 -0.270838,-0.04514 -0.135419,-0.02257 -0.361118,-0.06771 -0.677095,-0.11285 -0.315978,-0.06771 -0.767375,-0.135419 -1.331621,-0.248268 l 0,-12.255423 c 0.744804,-0.767373 1.55732,-1.35419 2.392403,-1.783017 0.835084,-0.451396 1.737879,-0.654525 2.708381,-0.654525 1.309049,0 2.279555,0.383688 2.934079,1.151062 0.654525,0.767373 0.993073,1.873298 0.993073,3.295196 l 0,14.715535 5.574751,0 3.408045,0 0,-2.640671 c 0,-0.789943 -0.361118,-1.241341 -1.128492,-1.4219"
       style="font-size:45.13967896px;font-style:normal;font-variant:normal;font-weight:bold;font-stretch:normal;text-indent:0;text-align:start;text-decoration:none;line-height:125%;letter-spacing:0px;word-spacing:0px;text-transform:none;direction:ltr;block-progression:tb;writing-mode:lr-tb;text-anchor:start;color:#000000;fill:#ffffff;fill-opacity:1;fill-rule:nonzero;stroke:none;stroke-width:1px;marker:none;visibility:visible;font-family:Aleo;-inkscape-font-specification:Aleo Bold"
       id="path4080"
       inkscape:connector-curvature="0" /></g></svg>