<?xml version="1.0" encoding="UTF-8" standalone="no"?>
<!-- Created with Inkscape (http://www.inkscape.org/) -->

<svg
   xmlns:dc="http://purl.org/dc/elements/1.1/"
   xmlns:cc="http://creativecommons.org/ns#"
   xmlns:rdf="http://www.w3.org/1999/02/22-rdf-syntax-ns#"
   xmlns:svg="http://www.w3.org/2000/svg"
   xmlns="http://www.w3.org/2000/svg"
   xmlns:xlink="http://www.w3.org/1999/xlink"
   xmlns:sodipodi="http://sodipodi.sourceforge.net/DTD/sodipodi-0.dtd"
   xmlns:inkscape="http://www.inkscape.org/namespaces/inkscape"
   viewBox="0 0 230 230"
   id="svg2"
   sodipodi:version="0.32"
   inkscape:version="0.48.4 r9939"
   sodipodi:docname="link.svg"
   inkscape:output_extension="org.inkscape.output.svg.inkscape"
   version="1.1"
   inkscape:export-filename="/home/koxta/proiektuak/iunetrecet/manuala/iune_txikia.png"
   inkscape:export-xdpi="90"
   inkscape:export-ydpi="90"
   width="100%"
   height="100%">
  <defs
     id="defs4">
    <linearGradient
       y2="-6.90141277e-9"
       y1="-6.90141277e-9"
       xlink:href="#linearGradient867"
       x2="0.99999994"
       x1="-2.72724066e-10"
       id="linearGradient627" />
    <radialGradient
       xlink:href="#linearGradient867"
       r="0.70922399"
       id="radialGradient579"
       fy="0.218748"
       fx="0.44680801"
       cy="0.218748"
       cx="0.44680801" />
    <radialGradient
       xlink:href="#linearGradient31"
       r="0.63067198"
       id="radialGradient866"
       fy="0.41891199"
       fx="0.44164401"
       cy="0.41891199"
       cx="0.44164401" />
    <linearGradient
       y2="6.65686173e-10"
       y1="6.65686173e-10"
       xlink:href="#linearGradient867"
       x2="1"
       x1="-9.31266397e-10"
       id="linearGradient575" />
    <linearGradient
       y2="1.16325751e-7"
       y1="1.16325751e-7"
       xlink:href="#linearGradient583"
       x2="1"
       x1="-4.81893969e-11"
       id="linearGradient34" />
    <linearGradient
       id="linearGradient31">
      <stop
         style="stop-color:#004500;stop-opacity:0.7608;"
         offset="0"
         id="stop32" />
      <stop
         style="stop-color:#002700;stop-opacity:0.2078;"
         offset="1"
         id="stop33" />
    </linearGradient>
    <linearGradient
       id="linearGradient867">
      <stop
         style="stop-color:#ff9200;stop-opacity:1;"
         offset="0"
         id="stop868" />
      <stop
         style="stop-color:#ede500;stop-opacity:1;"
         offset="1"
         id="stop869" />
    </linearGradient>
    <linearGradient
       id="linearGradient583">
      <stop
         style="stop-color:#ffffff;stop-opacity:1;"
         offset="0"
         id="stop584" />
      <stop
         style="stop-color:#72afff;stop-opacity:1;"
         offset="1"
         id="stop585" />
    </linearGradient>
  </defs>
  <sodipodi:namedview
     id="base"
     pagecolor="#ffffff"
     bordercolor="#666666"
     borderopacity="1.0"
     inkscape:pageopacity="0.0"
     inkscape:pageshadow="2"
     inkscape:zoom="2.2507991"
     inkscape:cx="101.33109"
     inkscape:cy="117.80374"
     inkscape:document-units="mm"
     inkscape:current-layer="layer1"
     inkscape:window-width="1398"
     inkscape:window-height="1029"
     inkscape:window-x="0"
     inkscape:window-y="19"
     showgrid="false"
     showguides="true"
     inkscape:guide-bbox="true"
     units="px"
     inkscape:snap-page="true"
     inkscape:snap-to-guides="true"
     inkscape:window-maximized="0"
     borderlayer="true"
     fit-margin-top="0"
     fit-margin-left="0"
     fit-margin-right="0"
     fit-margin-bottom="0" />
  <metadata
     id="metadata7">
    <rdf:RDF>
      <cc:Work
         rdf:about="">
        <dc:format>image/svg+xml</dc:format>
        <dc:type
           rdf:resource="http://purl.org/dc/dcmitype/StillImage" />
        <dc:title></dc:title>
      </cc:Work>
    </rdf:RDF>
  </metadata>
  <g
     inkscape:label="Capa 1"
     inkscape:groupmode="layer"
     id="layer1"
     transform="translate(-27.490189,-711.72953)">
    <path
       style="font-size:12px;fill:#ffffff;fill-opacity:1;fill-rule:evenodd;stroke:none"
       d="m 143.09956,721.38578 -8.28125,0.0625 0.59375,87.21875 8.25,-0.0625 -0.5625,-87.21875 z m 45.125,67.6875 -24.40625,0.1875 -0.1875,6.8125 17.5,-0.125 0.0625,13.5 7.21875,0 -0.1875,-20.375 z m -71.125,0.46875 -23.812496,0.125 0.125,20.34375 7.031246,-0.0625 -0.125,-13.5 17.0625,-0.0937 -0.28125,-6.8125 z m 131,35.21875 -84.5625,0.53125 0.0625,7.75 84.5625,-0.5 -0.0625,-7.78125 z m -130.59375,0.625 -80.687496,0.53125 0.0625,7.75 80.656246,-0.53125 -0.0313,-7.75 z m 70.9375,23.78125 -7.21875,0.0937 0.125,12.6875 -17.28125,-0.34375 0.0625,6.84375 24.40625,-0.125 -0.0937,-19.15625 z m -94.781246,0.8125 0.1875,18.90625 23.531246,-0.1875 -0.0313,-6.71875 -16.65625,0.53125 -0.0313,-12.53125 -6.999996,0 z m 50.437496,4.5625 -8.28125,0.0625 0.53125,77.46875 8.25,-0.0625 -0.5,-77.46875 z"
       id="path625"
       inkscape:connector-curvature="0" />
  </g>
</svg>
