<?xml version="1.0" encoding="UTF-8" standalone="no"?>
<!-- Created with Inkscape (http://www.inkscape.org/) -->

<svg
   xmlns:dc="http://purl.org/dc/elements/1.1/"
   xmlns:cc="http://creativecommons.org/ns#"
   xmlns:rdf="http://www.w3.org/1999/02/22-rdf-syntax-ns#"
   xmlns:svg="http://www.w3.org/2000/svg"
   xmlns="http://www.w3.org/2000/svg"
   xmlns:sodipodi="http://sodipodi.sourceforge.net/DTD/sodipodi-0.dtd"
   xmlns:inkscape="http://www.inkscape.org/namespaces/inkscape"
   viewBox="0 0 230 230"
   id="svg2"
   sodipodi:version="0.32"
   inkscape:version="0.48.4 r9939"
   sodipodi:docname="photos.svg"
   inkscape:output_extension="org.inkscape.output.svg.inkscape"
   version="1.1"
   inkscape:export-filename="/home/koxta/proiektuak/iunetrecet/manuala/iune_txikia.png"
   inkscape:export-xdpi="90"
   inkscape:export-ydpi="90">
  <defs
     id="defs4" />
  <sodipodi:namedview
     id="base"
     pagecolor="#ffffff"
     bordercolor="#666666"
     borderopacity="1.0"
     inkscape:pageopacity="0.0"
     inkscape:pageshadow="2"
     inkscape:zoom="1.3525929"
     inkscape:cx="111.54968"
     inkscape:cy="120.02517"
     inkscape:document-units="mm"
     inkscape:current-layer="layer1"
     inkscape:window-width="698"
     inkscape:window-height="1029"
     inkscape:window-x="0"
     inkscape:window-y="19"
     showgrid="false"
     showguides="true"
     inkscape:guide-bbox="true"
     units="px"
     inkscape:snap-page="true"
     inkscape:snap-to-guides="true"
     inkscape:window-maximized="0"
     borderlayer="true"
     fit-margin-top="0"
     fit-margin-left="0"
     fit-margin-right="0"
     fit-margin-bottom="0" />
  <metadata
     id="metadata7">
    <rdf:RDF>
      <cc:Work
         rdf:about="">
        <dc:format>image/svg+xml</dc:format>
        <dc:type
           rdf:resource="http://purl.org/dc/dcmitype/StillImage" />
        <dc:title />
      </cc:Work>
    </rdf:RDF>
  </metadata>
  <g
     inkscape:label="Capa 1"
     inkscape:groupmode="layer"
     id="layer1"
     transform="translate(-27.490189,-711.72953)">
    <path
       style="font-size:medium;font-style:normal;font-variant:normal;font-weight:normal;font-stretch:normal;text-indent:0;text-align:start;text-decoration:none;line-height:normal;letter-spacing:normal;word-spacing:normal;text-transform:none;direction:ltr;block-progression:tb;writing-mode:lr-tb;text-anchor:start;baseline-shift:baseline;color:#000000;fill:#ffffff;fill-opacity:1;stroke:none;stroke-width:1.77165353;marker:none;visibility:visible;display:inline;overflow:visible;enable-background:accumulate;font-family:Sans;-inkscape-font-specification:Sans"
       d="m 70.283024,777.0057 0,1.30882 0,78.76187 0,1.35554 0,25.10098 0,1.35554 1.308812,0 150.231844,0 1.30881,0 0,-1.35554 0,-25.10098 0,-1.35554 0,-78.76187 0,-1.30882 -1.30881,0 -150.231844,0 -1.308812,0 z m 2.664352,2.61761 147.567504,0 0,77.45308 -41.64797,0 0,-55.67085 0,-1.30881 -1.30879,0 -23.55846,0 -1.35554,0 0,1.30881 0,55.67085 -19.95925,0 0,-53.33372 0,-1.30879 -1.3088,0 -37.861789,0 -1.308811,0 0,1.30879 0,53.33372 -19.258094,0 0,-77.45308 z m 82.361084,23.09102 20.8941,0 0,54.36206 -20.8941,0 0,-54.36206 z m -60.485384,2.3839 35.197454,0 0,51.97816 -35.197454,0 0,-51.97816 z m -21.8757,54.64251 19.258094,0 0,11.54552 0,1.35554 1.308811,0 37.861789,0 1.3088,0 0,-1.35554 0,-11.54552 19.95925,0 0,0.18697 1.35554,0 23.55846,0 1.30879,0 0,-0.18697 41.64797,0 0,22.48336 -147.567504,0 0,-22.48336 z m 21.8757,0 35.197454,0 0,10.2367 -35.197454,0 0,-10.2367 z"
       id="rect6403-1-4"
       inkscape:connector-curvature="0" />
  </g>
</svg>
