<?xml version="1.0" encoding="UTF-8" standalone="no"?>
<!-- Created with Inkscape (http://www.inkscape.org/) -->

<svg
   xmlns:dc="http://purl.org/dc/elements/1.1/"
   xmlns:cc="http://creativecommons.org/ns#"
   xmlns:rdf="http://www.w3.org/1999/02/22-rdf-syntax-ns#"
   xmlns:svg="http://www.w3.org/2000/svg"
   xmlns="http://www.w3.org/2000/svg"
   xmlns:sodipodi="http://sodipodi.sourceforge.net/DTD/sodipodi-0.dtd"
   xmlns:inkscape="http://www.inkscape.org/namespaces/inkscape"
   width="238.43513"
   height="238.43509"
   id="svg2"
   sodipodi:version="0.32"
   inkscape:version="0.48.4 r9939"
   sodipodi:docname="posters.svg"
   inkscape:output_extension="org.inkscape.output.svg.inkscape"
   version="1.1"
   inkscape:export-filename="/home/koxta/proiektuak/iunetrecet/manuala/iune_txikia.png"
   inkscape:export-xdpi="90"
   inkscape:export-ydpi="90">
  <defs
     id="defs4" />
  <sodipodi:namedview
     id="base"
     pagecolor="#ffffff"
     bordercolor="#666666"
     borderopacity="1.0"
     inkscape:pageopacity="0.0"
     inkscape:pageshadow="2"
     inkscape:zoom="0.95642763"
     inkscape:cx="111.54968"
     inkscape:cy="120.02517"
     inkscape:document-units="mm"
     inkscape:current-layer="layer1"
     inkscape:window-width="698"
     inkscape:window-height="1029"
     inkscape:window-x="0"
     inkscape:window-y="19"
     showgrid="false"
     showguides="true"
     inkscape:guide-bbox="true"
     units="px"
     inkscape:snap-page="true"
     inkscape:snap-to-guides="true"
     inkscape:window-maximized="0"
     borderlayer="true"
     fit-margin-top="0"
     fit-margin-left="0"
     fit-margin-right="0"
     fit-margin-bottom="0" />
  <metadata
     id="metadata7">
    <rdf:RDF>
      <cc:Work
         rdf:about="">
        <dc:format>image/svg+xml</dc:format>
        <dc:type
           rdf:resource="http://purl.org/dc/dcmitype/StillImage" />
        <dc:title></dc:title>
      </cc:Work>
    </rdf:RDF>
  </metadata>
  <g
     inkscape:label="Capa 1"
     inkscape:groupmode="layer"
     id="layer1"
     transform="translate(-27.490189,-711.72953)">
    <path
       style="font-size:medium;font-style:normal;font-variant:normal;font-weight:normal;font-stretch:normal;text-indent:0;text-align:start;text-decoration:none;line-height:normal;letter-spacing:normal;word-spacing:normal;text-transform:none;direction:ltr;block-progression:tb;writing-mode:lr-tb;text-anchor:start;baseline-shift:baseline;color:#000000;fill:#ffffff;fill-opacity:1;stroke:none;stroke-width:1.77165353;marker:none;visibility:visible;display:inline;overflow:visible;enable-background:accumulate;font-family:Sans;-inkscape-font-specification:Sans"
       d="m 92.205475,754.24806 0,1.3088 0,148.64259 0,1.35554 1.355556,0 12.480359,0 28.04578,0 65.81409,0 1.30879,0 0,-1.35554 0,-148.64259 0,-1.3088 -1.30879,0 -65.81409,0 -28.04578,0 -12.480359,0 -1.355556,0 z m 2.664351,2.66435 11.171564,0 0,145.97825 -11.171564,0 0,-145.97825 z m 13.789174,0 22.76382,0 0,25.14771 -7.89956,0 -1.35554,0 0,1.35554 0,49.03335 -7.66586,0 -1.35554,0 0,1.35556 0,37.4411 0,1.3088 1.35554,0 16.92096,0 0,30.33619 -22.76382,0 0,-145.97825 z m 25.42817,0 64.45853,0 0,145.97825 -64.45853,0 0,-30.33619 48.65942,0 1.30879,0 0,-1.3088 0,-37.4411 0,-1.35556 -1.30879,0 -34.35608,0 0,-49.03335 0,-1.35554 -1.3088,0 -12.99454,0 0,-25.14771 z m -9.2551,27.81206 6.59075,0 0,47.72454 -6.59075,0 0,-47.72454 z m 9.2551,0 11.63899,0 0,47.72454 -11.63899,0 0,-47.72454 z m -18.27649,50.38889 6.35704,0 0,5.46893 0,1.30881 1.35554,0 7.89956,0 0,28.04576 -15.61214,0 0,-34.8235 z m 9.02139,0 6.59075,0 0,4.16013 -6.59075,0 0,-4.16013 z m 9.2551,0 11.63899,0 0,4.16013 -11.63899,0 0,-4.16013 z m 14.30334,0 33.04727,0 0,34.8235 -47.35061,0 0,-28.04576 12.99454,0 1.3088,0 0,-1.30881 0,-5.46893 z"
       id="rect6403-1"
       inkscape:connector-curvature="0" />
  </g>
</svg>
