<?xml version="1.0" encoding="UTF-8" standalone="no"?>
<!-- Created with Inkscape (http://www.inkscape.org/) -->

<svg
   xmlns:dc="http://purl.org/dc/elements/1.1/"
   xmlns:cc="http://creativecommons.org/ns#"
   xmlns:rdf="http://www.w3.org/1999/02/22-rdf-syntax-ns#"
   xmlns:svg="http://www.w3.org/2000/svg"
   xmlns="http://www.w3.org/2000/svg"
   xmlns:sodipodi="http://sodipodi.sourceforge.net/DTD/sodipodi-0.dtd"
   xmlns:inkscape="http://www.inkscape.org/namespaces/inkscape"
   width="238.43513"
   height="238.43509"
   id="svg2"
   sodipodi:version="0.32"
   inkscape:version="0.48.4 r9939"
   sodipodi:docname="poster.svg"
   inkscape:output_extension="org.inkscape.output.svg.inkscape"
   version="1.1"
   inkscape:export-filename="/home/koxta/proiektuak/iunetrecet/manuala/iune_txikia.png"
   inkscape:export-xdpi="90"
   inkscape:export-ydpi="90">
  <defs
     id="defs4" />
  <sodipodi:namedview
     id="base"
     pagecolor="#ffffff"
     bordercolor="#666666"
     borderopacity="1.0"
     inkscape:pageopacity="0.0"
     inkscape:pageshadow="2"
     inkscape:zoom="0.40138602"
     inkscape:cx="111.54968"
     inkscape:cy="120.02517"
     inkscape:document-units="mm"
     inkscape:current-layer="layer1"
     inkscape:window-width="1398"
     inkscape:window-height="1029"
     inkscape:window-x="0"
     inkscape:window-y="19"
     showgrid="false"
     showguides="true"
     inkscape:guide-bbox="true"
     units="px"
     inkscape:snap-page="true"
     inkscape:snap-to-guides="true"
     inkscape:window-maximized="0"
     borderlayer="true"
     fit-margin-top="0"
     fit-margin-left="0"
     fit-margin-right="0"
     fit-margin-bottom="0" />
  <metadata
     id="metadata7">
    <rdf:RDF>
      <cc:Work
         rdf:about="">
        <dc:format>image/svg+xml</dc:format>
        <dc:type
           rdf:resource="http://purl.org/dc/dcmitype/StillImage" />
        <dc:title></dc:title>
      </cc:Work>
    </rdf:RDF>
  </metadata>
  <g
     inkscape:label="Capa 1"
     inkscape:groupmode="layer"
     id="layer1"
     transform="translate(-27.490189,-711.72953)">
    <g
       id="g7465"
       transform="matrix(1.6593909,0,0,1.6593909,-1258.4957,-669.08037)">
      <path
         transform="matrix(1.0166667,0,0,1.0166667,662.41881,305.52377)"
         d="m 252.04343,588.62842 c 0,39.02796 -31.63842,70.66638 -70.66639,70.66638 -39.02796,0 -70.66638,-31.63842 -70.66638,-70.66638 0,-39.02797 31.63842,-70.66638 70.66638,-70.66638 39.02797,0 70.66639,31.63841 70.66639,70.66638 z"
         sodipodi:ry="70.666382"
         sodipodi:rx="70.666382"
         sodipodi:cy="588.62842"
         sodipodi:cx="181.37704"
         id="path6369-5"
         style="color:#000000;fill:#d40000;fill-opacity:1;fill-rule:nonzero;stroke:none;stroke-width:0.5;marker:none;visibility:visible;display:inline;overflow:visible;enable-background:accumulate"
         sodipodi:type="arc" />
      <path
         inkscape:connector-curvature="0"
         id="rect6403-1-4-3"
         d="m 813.97406,858.37157 0,0.8169 0,89.5766 0,0.78872 0.78872,0 15.3238,0 0.78872,0 47.99954,0 0.78872,0 0,-0.78872 0,-89.5766 0,-0.8169 -0.78872,0 -47.99954,0 -0.78872,0 -15.3238,0 -0.78872,0 z m 1.60562,1.60562 13.71817,0 0,87.97098 -13.71817,0 0,-87.97098 z m 15.29562,0 47.18264,0 0,87.97098 -47.18264,0 0,-87.97098 z m 5.18305,11.18299 0,0.78873 0,14.0562 0,0.78872 0.81689,0 34.81657,0 0.78872,0 0,-0.78872 0,-14.0562 0,-0.78873 -0.78872,0 -34.81657,0 -0.81689,0 z m 1.60562,1.57745 33.23911,0 0,12.47875 -33.23911,0 0,-12.47875 z m -4.76052,33.35179 0,0.78873 0,22.56316 0,0.81689 0.8169,0 41.12636,0 0.78872,0 0,-0.81689 0,-22.56316 0,-0.78873 -0.78872,0 -41.12636,0 -0.8169,0 z m 1.60562,1.57745 39.54891,0 0,20.98571 -39.54891,0 0,-20.98571 z"
         style="font-size:medium;font-style:normal;font-variant:normal;font-weight:normal;font-stretch:normal;text-indent:0;text-align:start;text-decoration:none;line-height:normal;letter-spacing:normal;word-spacing:normal;text-transform:none;direction:ltr;block-progression:tb;writing-mode:lr-tb;text-anchor:start;baseline-shift:baseline;color:#000000;fill:#ffffff;fill-opacity:1;stroke:none;stroke-width:1.77165353;marker:none;visibility:visible;display:inline;overflow:visible;enable-background:accumulate;font-family:Sans;-inkscape-font-specification:Sans" />
    </g>
  </g>
</svg>
