<?xml version="1.0" encoding="UTF-8" standalone="no"?>
<!-- Created with Inkscape (http://www.inkscape.org/) -->

<svg
   xmlns:dc="http://purl.org/dc/elements/1.1/"
   xmlns:cc="http://creativecommons.org/ns#"
   xmlns:rdf="http://www.w3.org/1999/02/22-rdf-syntax-ns#"
   xmlns:svg="http://www.w3.org/2000/svg"
   xmlns="http://www.w3.org/2000/svg"
   xmlns:sodipodi="http://sodipodi.sourceforge.net/DTD/sodipodi-0.dtd"
   xmlns:inkscape="http://www.inkscape.org/namespaces/inkscape"
   width="238.43513"
   height="238.43509"
   id="svg2"
   sodipodi:version="0.32"
   inkscape:version="0.48.4 r9939"
   sodipodi:docname="projects.svg"
   inkscape:output_extension="org.inkscape.output.svg.inkscape"
   version="1.1"
   inkscape:export-filename="/home/koxta/proiektuak/iunetrecet/manuala/iune_txikia.png"
   inkscape:export-xdpi="90"
   inkscape:export-ydpi="90">
  <defs
     id="defs4" />
  <sodipodi:namedview
     id="base"
     pagecolor="#ffffff"
     bordercolor="#666666"
     borderopacity="1.0"
     inkscape:pageopacity="0.0"
     inkscape:pageshadow="2"
     inkscape:zoom="0.95642763"
     inkscape:cx="111.54968"
     inkscape:cy="120.02517"
     inkscape:document-units="mm"
     inkscape:current-layer="layer1"
     inkscape:window-width="698"
     inkscape:window-height="1029"
     inkscape:window-x="0"
     inkscape:window-y="19"
     showgrid="false"
     showguides="true"
     inkscape:guide-bbox="true"
     units="px"
     inkscape:snap-page="true"
     inkscape:snap-to-guides="true"
     inkscape:window-maximized="0"
     borderlayer="true"
     fit-margin-top="0"
     fit-margin-left="0"
     fit-margin-right="0"
     fit-margin-bottom="0" />
  <metadata
     id="metadata7">
    <rdf:RDF>
      <cc:Work
         rdf:about="">
        <dc:format>image/svg+xml</dc:format>
        <dc:type
           rdf:resource="http://purl.org/dc/dcmitype/StillImage" />
        <dc:title />
      </cc:Work>
    </rdf:RDF>
  </metadata>
  <g
     inkscape:label="Capa 1"
     inkscape:groupmode="layer"
     id="layer1"
     transform="translate(-27.490189,-711.72953)">
    <path
       style="font-size:medium;font-style:normal;font-variant:normal;font-weight:normal;font-stretch:normal;text-indent:0;text-align:start;text-decoration:none;line-height:normal;letter-spacing:normal;word-spacing:normal;text-transform:none;direction:ltr;block-progression:tb;writing-mode:lr-tb;text-anchor:start;baseline-shift:baseline;color:#000000;fill:#ffffff;fill-opacity:1;stroke:none;stroke-width:1.77165353;marker:none;visibility:visible;display:inline;overflow:visible;enable-background:accumulate;font-family:Sans;-inkscape-font-specification:Sans"
       d="m 92.205448,755.2936 0,1.35556 0,148.64259 0,1.3088 1.308795,0 25.428177,0 1.30879,0 79.65,0 1.3088,0 0,-1.3088 0,-148.64259 0,-1.35556 -1.3088,0 -79.65,0 -1.30879,0 -25.428177,0 -1.308795,0 z m 2.664351,2.66435 22.763811,0 0,145.97825 -22.763811,0 0,-145.97825 z m 25.381411,0 78.29445,0 0,145.97825 -78.29445,0 0,-145.97825 z m 8.60071,18.55696 0,1.30881 0,23.32473 0,1.30879 1.35554,0 57.7743,0 1.30879,0 0,-1.30879 0,-23.32473 0,-1.30881 -1.30879,0 -57.7743,0 -1.35554,0 z m 2.66435,2.6176 55.15668,0 0,20.70713 -55.15668,0 0,-20.70713 z m -7.89956,55.34366 0,1.30881 0,37.4411 0,1.35554 1.35555,0 68.24471,0 1.30879,0 0,-1.35554 0,-37.4411 0,-1.30881 -1.30879,0 -68.24471,0 -1.35555,0 z m 2.66435,2.6176 65.6271,0 0,34.8235 -65.6271,0 0,-34.8235 z"
       id="rect6403-1-4-3"
       inkscape:connector-curvature="0" />
  </g>
</svg>
