<?xml version="1.0" encoding="UTF-8" standalone="no"?>
<!-- Generator: Adobe Illustrator 15.0.0, SVG Export Plug-In . SVG Version: 6.00 Build 0)  -->

<svg
   xmlns:dc="http://purl.org/dc/elements/1.1/"
   xmlns:cc="http://creativecommons.org/ns#"
   xmlns:rdf="http://www.w3.org/1999/02/22-rdf-syntax-ns#"
   xmlns:svg="http://www.w3.org/2000/svg"
   xmlns="http://www.w3.org/2000/svg"
   xmlns:sodipodi="http://sodipodi.sourceforge.net/DTD/sodipodi-0.dtd"
   xmlns:inkscape="http://www.inkscape.org/namespaces/inkscape"
   version="1.1"
   id="Icons"
   x="0px"
   y="0px"
   width="100px"
   height="100px"
   viewBox="0 0 100 100"
   style="enable-background:new 0 0 100 100;"
   xml:space="preserve"
   inkscape:version="0.48.4 r9939"
   sodipodi:docname="transifex.svg"><metadata
     id="metadata36535"><rdf:RDF><cc:Work
         rdf:about=""><dc:format>image/svg+xml</dc:format><dc:type
           rdf:resource="http://purl.org/dc/dcmitype/StillImage" /><dc:title></dc:title></cc:Work></rdf:RDF></metadata><defs
     id="defs36533" /><sodipodi:namedview
     pagecolor="#ffffff"
     bordercolor="#666666"
     borderopacity="1"
     objecttolerance="10"
     gridtolerance="10"
     guidetolerance="10"
     inkscape:pageopacity="0"
     inkscape:pageshadow="2"
     inkscape:window-width="1398"
     inkscape:window-height="1029"
     id="namedview36531"
     showgrid="false"
     inkscape:zoom="6.6169295"
     inkscape:cx="31.713573"
     inkscape:cy="50"
     inkscape:window-x="0"
     inkscape:window-y="19"
     inkscape:window-maximized="0"
     inkscape:current-layer="Icons" /><path
     inkscape:connector-curvature="0"
     style="fill:#ffffff;stroke:none"
     d="m 32.40513,21.890372 c -2.645393,1.521484 -5.248458,3.078977 -8.257558,4.236754 l 0,7.907923 8.257558,0 c -0.710659,-4.522939 -0.400338,-8.362402 0,-12.144675 z m -15.52791,14.407021 0,4.524689 30.078897,0 c 4.060556,5.396632 8.060644,10.835916 11.959577,16.340297 l 4.534971,-6.385981 C 60.024364,45.826625 56.930993,41.081673 54.16477,36.297393 l -37.28755,0 z m 58.0497,0.287935 c -8.807163,12.875999 -18.501332,25.308291 -28.81404,37.431513 0,0 -5.288577,1.063371 -10.170266,-0.143968 -2.341301,-0.579047 -4.524689,-5.655858 -4.524689,-5.655858 l 0,-25.276556 -7.198369,0 -0.709554,25.842142 c 0.839774,4.165771 2.88131,7.777365 9.32703,9.327027 l 18.222157,0 c 8.574378,-15.083118 19.792523,-28.273694 30.932419,-41.5243 -2.354168,0.462819 -4.71052,0.280807 -7.064688,0 z m -7.630271,19.651546 -4.64809,6.252296 c 3.500725,5.082213 6.903482,10.231467 10.159984,15.47649 3.210825,-0.452515 6.730413,-0.29347 10.314237,0 C 77.268794,69.880815 72.006834,62.822309 67.296651,56.236874 z"
     id="path3848" /></svg>