<?xml version="1.0" encoding="UTF-8" standalone="no"?>
<!-- Created with Inkscape (http://www.inkscape.org/) -->

<svg
   xmlns:dc="http://purl.org/dc/elements/1.1/"
   xmlns:cc="http://creativecommons.org/ns#"
   xmlns:rdf="http://www.w3.org/1999/02/22-rdf-syntax-ns#"
   xmlns:svg="http://www.w3.org/2000/svg"
   xmlns="http://www.w3.org/2000/svg"
   xmlns:sodipodi="http://sodipodi.sourceforge.net/DTD/sodipodi-0.dtd"
   xmlns:inkscape="http://www.inkscape.org/namespaces/inkscape"
   width="238.43513"
   height="238.43509"
   id="svg2"
   sodipodi:version="0.32"
   inkscape:version="0.48.4 r9939"
   sodipodi:docname="webbackground.svg"
   inkscape:output_extension="org.inkscape.output.svg.inkscape"
   version="1.1"
   inkscape:export-filename="/home/koxta/proiektuak/iunetrecet/manuala/iune_txikia.png"
   inkscape:export-xdpi="90"
   inkscape:export-ydpi="90">
  <defs
     id="defs4" />
  <sodipodi:namedview
     id="base"
     pagecolor="#ffffff"
     bordercolor="#666666"
     borderopacity="1.0"
     inkscape:pageopacity="0.0"
     inkscape:pageshadow="2"
     inkscape:zoom="1.3358628"
     inkscape:cx="82.5421"
     inkscape:cy="114.03653"
     inkscape:document-units="mm"
     inkscape:current-layer="layer1"
     inkscape:window-width="1398"
     inkscape:window-height="1029"
     inkscape:window-x="0"
     inkscape:window-y="19"
     showgrid="false"
     showguides="true"
     inkscape:guide-bbox="true"
     units="px"
     inkscape:snap-page="true"
     inkscape:snap-to-guides="true"
     inkscape:window-maximized="0"
     borderlayer="true"
     fit-margin-top="0"
     fit-margin-left="0"
     fit-margin-right="0"
     fit-margin-bottom="0" />
  <metadata
     id="metadata7">
    <rdf:RDF>
      <cc:Work
         rdf:about="">
        <dc:format>image/svg+xml</dc:format>
        <dc:type
           rdf:resource="http://purl.org/dc/dcmitype/StillImage" />
        <dc:title />
        <cc:license
           rdf:resource="http://creativecommons.org/licenses/by/3.0/" />
      </cc:Work>
      <cc:License
         rdf:about="http://creativecommons.org/licenses/by/3.0/">
        <cc:permits
           rdf:resource="http://creativecommons.org/ns#Reproduction" />
        <cc:permits
           rdf:resource="http://creativecommons.org/ns#Distribution" />
        <cc:requires
           rdf:resource="http://creativecommons.org/ns#Notice" />
        <cc:requires
           rdf:resource="http://creativecommons.org/ns#Attribution" />
        <cc:permits
           rdf:resource="http://creativecommons.org/ns#DerivativeWorks" />
      </cc:License>
    </rdf:RDF>
  </metadata>
  <g
     inkscape:label="Capa 1"
     inkscape:groupmode="layer"
     id="layer1"
     transform="translate(-27.490189,-711.72953)">
    <path
       sodipodi:type="arc"
       style="color:#000000;fill:none;fill-opacity:1;fill-rule:nonzero;stroke:#d40000;stroke-width:5.43439198000000001;stroke-miterlimit:4;stroke-dasharray:none;marker:none;visibility:visible;display:inline;overflow:visible;enable-background:accumulate"
       id="path3212"
       sodipodi:cx="119.21754"
       sodipodi:cy="119.21754"
       sodipodi:rx="119.21754"
       sodipodi:ry="119.21754"
       d="m 238.43507,119.21754 a 119.21754,119.21754 0 1 1 -238.43507,0 119.21754,119.21754 0 1 1 238.43507,0 z"
       transform="matrix(0.97802313,0,0,0.97802313,30.110248,714.34957)" />
    <path
       style="font-size:medium;font-style:normal;font-variant:normal;font-weight:normal;font-stretch:normal;text-indent:0;text-align:start;text-decoration:none;line-height:normal;letter-spacing:normal;word-spacing:normal;text-transform:none;direction:ltr;block-progression:tb;writing-mode:lr-tb;text-anchor:start;baseline-shift:baseline;color:#000000;fill:#d40000;fill-opacity:1;stroke:none;stroke-width:1.77165353000000003;marker:none;visibility:visible;display:inline;overflow:visible;enable-background:accumulate;font-family:Sans;-inkscape-font-specification:Sans"
       d="m 70.28303,777.00572 0,1.30879 0,25.14772 0,1.3088 0,78.80862 0,1.3088 1.35554,0 150.18512,0 1.30881,0 0,-1.3088 0,-78.80862 0,-1.3088 0,-25.14772 0,-1.30879 -1.30881,0 -150.18512,0 -1.35554,0 z m 2.664352,2.6176 147.567508,0 0,22.5301 -147.567508,0 0,-22.5301 z m 0,25.14771 147.567508,0 0,77.45308 -147.567508,0 0,-77.45308 z m 102.086608,3.31875 0,1.30881 0,67.54356 0,1.35554 1.30881,0 37.86179,0 1.35554,0 0,-1.35554 0,-67.54356 0,-1.30881 -1.35554,0 -37.86179,0 -1.30881,0 z m 2.66435,2.66435 35.19744,0 0,64.87921 -35.19744,0 0,-64.87921 z m -96.430723,4.39383 0,1.30881 0,23.32473 0,1.3088 1.308812,0 57.821031,0 1.30881,0 0,-1.3088 0,-23.32473 0,-1.30881 -1.30881,0 -57.821031,0 -1.308812,0 z m 2.664352,2.61761 55.109951,0 0,20.66038 -55.109951,0 0,-20.66038 z"
       id="rect6403"
       inkscape:connector-curvature="0" />
  </g>
</svg>
