<?xml version="1.0" encoding="UTF-8" standalone="no"?>
<!-- Created with Inkscape (http://www.inkscape.org/) -->

<svg
   xmlns:dc="http://purl.org/dc/elements/1.1/"
   xmlns:cc="http://creativecommons.org/ns#"
   xmlns:rdf="http://www.w3.org/1999/02/22-rdf-syntax-ns#"
   xmlns:svg="http://www.w3.org/2000/svg"
   xmlns="http://www.w3.org/2000/svg"
   xmlns:sodipodi="http://sodipodi.sourceforge.net/DTD/sodipodi-0.dtd"
   xmlns:inkscape="http://www.inkscape.org/namespaces/inkscape"
   width="100"
   height="100"
   id="svg2"
   sodipodi:version="0.32"
   inkscape:version="0.48.4 r9939"
   sodipodi:docname="203 dokumentu berria"
   inkscape:output_extension="org.inkscape.output.svg.inkscape"
   version="1.1">
  <defs
     id="defs4" />
  <sodipodi:namedview
     id="base"
     pagecolor="#ffffff"
     bordercolor="#666666"
     borderopacity="1.0"
     inkscape:pageopacity="0.0"
     inkscape:pageshadow="2"
     inkscape:zoom="1.1648437"
     inkscape:cx="-33.742455"
     inkscape:cy="125.95573"
     inkscape:document-units="px"
     inkscape:current-layer="layer1"
     inkscape:window-width="1398"
     inkscape:window-height="1029"
     inkscape:window-x="0"
     inkscape:window-y="19"
     showgrid="false"
     inkscape:window-maximized="0" />
  <metadata
     id="metadata7">
    <rdf:RDF>
      <cc:Work
         rdf:about="">
        <dc:format>image/svg+xml</dc:format>
        <dc:type
           rdf:resource="http://purl.org/dc/dcmitype/StillImage" />
        <dc:title></dc:title>
      </cc:Work>
    </rdf:RDF>
  </metadata>
  <g
     inkscape:label="Capa 1"
     inkscape:groupmode="layer"
     id="layer1"
     transform="translate(0,-952.3622)">
    <path
       style="font-size:28px;font-style:normal;font-variant:normal;font-weight:normal;font-stretch:normal;text-indent:0;text-align:start;text-decoration:none;line-height:125%;letter-spacing:0px;word-spacing:0px;text-transform:none;direction:ltr;block-progression:tb;writing-mode:lr-tb;text-anchor:start;baseline-shift:baseline;color:#000000;fill:#000000;fill-opacity:1;stroke:none;stroke-width:3.7441175;marker:none;visibility:visible;display:inline;overflow:visible;enable-background:accumulate;font-family:iuneweb;-inkscape-font-specification:iuneweb"
       d="m 1.84375,964.39345 0,1.875 -1.84375,0 0,11.71875 0,1.1875 1.0625,0.53125 48.3125,22.78125 0.8125,0.375 L 51,1002.4872 98.90625,979.70595 100,979.1747 l 0,-1.1875 0,-11.71875 0,-1.875 -1.875,0 -96.28125,0 z m 1.875,3.75 92.53125,0 0,8.65625 -46.09375,21.90625 -46.4375,-21.90625 0,-8.65625 z M 100,988.45595 l -2.6875,1.25 -47.15625,22.21875 -47.5,-22.3125 -0.78125,1.6875 -1.875,0 0,47.1563 0,1.875 1.84375,0 96.28125,0 1.875,0 0,-1.875 0,-47.0313 0,-2.96875 z m -96.28125,5.8125 45.65625,21.43755 0.8125,0.375 0.78125,-0.375 45.28125,-21.3438 0,42.2188 -92.53125,0 0,-42.31255 z"
       id="path54211"
       inkscape:connector-curvature="0" />
  </g>
</svg>
