<?xml version="1.0" encoding="UTF-8" standalone="no"?>
<!-- Created with Inkscape (http://www.inkscape.org/) -->

<svg
   xmlns:dc="http://purl.org/dc/elements/1.1/"
   xmlns:cc="http://creativecommons.org/ns#"
   xmlns:rdf="http://www.w3.org/1999/02/22-rdf-syntax-ns#"
   xmlns:svg="http://www.w3.org/2000/svg"
   xmlns="http://www.w3.org/2000/svg"
   xmlns:sodipodi="http://sodipodi.sourceforge.net/DTD/sodipodi-0.dtd"
   xmlns:inkscape="http://www.inkscape.org/namespaces/inkscape"
   width="100"
   height="100"
   id="svg2"
   sodipodi:version="0.32"
   inkscape:version="0.48.4 r9939"
   sodipodi:docname="flickr.svg"
   inkscape:output_extension="org.inkscape.output.svg.inkscape"
   version="1.1">
  <defs
     id="defs4" />
  <sodipodi:namedview
     id="base"
     pagecolor="#ffffff"
     bordercolor="#666666"
     borderopacity="1.0"
     inkscape:pageopacity="0.0"
     inkscape:pageshadow="2"
     inkscape:zoom="1.1648438"
     inkscape:cx="-33.742455"
     inkscape:cy="125.95573"
     inkscape:document-units="px"
     inkscape:current-layer="layer1"
     inkscape:window-width="1398"
     inkscape:window-height="1029"
     inkscape:window-x="0"
     inkscape:window-y="19"
     showgrid="false"
     inkscape:window-maximized="0" />
  <metadata
     id="metadata7">
    <rdf:RDF>
      <cc:Work
         rdf:about="">
        <dc:format>image/svg+xml</dc:format>
        <dc:type
           rdf:resource="http://purl.org/dc/dcmitype/StillImage" />
        <dc:title></dc:title>
      </cc:Work>
    </rdf:RDF>
  </metadata>
  <g
     inkscape:label="Capa 1"
     inkscape:groupmode="layer"
     id="layer1"
     transform="translate(0,-952.3622)">
    <path
       style="font-size:28px;font-style:normal;font-variant:normal;font-weight:normal;font-stretch:normal;text-indent:0;text-align:start;text-decoration:none;line-height:125%;letter-spacing:0px;word-spacing:0px;text-transform:none;direction:ltr;block-progression:tb;writing-mode:lr-tb;text-anchor:start;baseline-shift:baseline;color:#000000;fill:#000000;fill-opacity:1;stroke:none;stroke-width:2.98283601;marker:none;visibility:visible;display:inline;overflow:visible;enable-background:accumulate;font-family:iuneweb;-inkscape-font-specification:iuneweb"
       d="m 25.375,963.625 -0.46875,0.6875 c -1.139714,1.70967 -1.682475,4.01401 -1.84375,6.40625 -0.137623,2.0414 0.09864,4.09176 0.65625,5.9375 -2.437974,2.52627 -3.762331,6.32048 -4.3125,10.375 -0.509399,3.75406 -0.216178,7.61838 0.59375,11.0625 -6.643566,-0.0236 -13.3489239,-0.12285 -18.71875,1.65625 -0.018617,0.006 -0.043915,-0.006 -0.0625,0 -0.069479,0.0232 -0.1497208,0.0386 -0.21875,0.0625 l 0.75,2.875 c 0.056847,-0.01 0.1608534,-0.021 0.21875,-0.031 0.8316129,-0.1498 2.149298,-0.1742 3.15625,-0.3124 -1.3011847,0.3338 -2.5691707,0.6864 -3.78125,1.125 -0.048762,0.018 -0.1076414,0.013 -0.15625,0.031 l 0.84375,2.8438 c 0.059381,-0.014 0.1280167,-0.017 0.1875,-0.031 0.00904,-0 0.022206,0 0.03125,0 6.1542122,-1.4772 12.902238,-2.3954 20.15625,-2.8125 3.367428,5.6827 9.586794,8.2935 16.78125,9.625 -0.71402,0.9688 -1.22172,2.1066 -1.59375,3.375 -1.54294,0.439 -2.508541,0.8225 -4.03125,0.75 l -0.03125,0 c -1.362526,-0.04 -2.302414,-0.5108 -3.25,-1.2812 -0.947586,-0.7705 -1.82861,-1.8877 -2.8125,-3.0313 -0.98389,-1.1436 -2.079926,-2.3493 -3.59375,-3.1563 -1.513824,-0.8069 -3.450326,-1.1068 -5.65625,-0.5624 l -1.5,0.375 0.4375,1.5 c 0.422755,1.4796 1.493446,2.3626 2.34375,2.9062 0.850304,0.5436 1.4984,0.9043 1.90625,1.4062 0.955961,1.1766 1.161029,3.0474 2.46875,5.1876 2.50902,4.077 7.388757,5.6083 13.125,4.9374 -0.01722,1.3162 -0.06392,2.6705 -0.03125,3.7813 0.04767,1.6207 -0.04347,2.9112 -0.4375,3.75 -0.244736,0.4895 -0.535894,0.6474 -1.21875,1.0625 -0.682856,0.4151 -1.793622,1.2618 -2.09375,2.6875 l -0.25,1.2187 1.15625,0.4688 c 1.821884,0.7539 3.832696,0.7286 5.625,0.1562 0.425903,-0.136 0.788381,-0.4222 1.1875,-0.625 -0.167121,0.5167 -0.26685,1.092 -0.15625,1.7188 l 0.1875,1.0938 1.09375,0.125 c 2.490431,0.3112 4.5783,-0.2871 6,-1.625 0.976255,-0.9188 1.545523,-2.1177 1.96875,-3.4063 0.313596,1.0005 0.72612,1.9413 1.375,2.75 1.35675,1.6909 3.658199,2.5938 6.5,2.3125 l 1.03125,-0.125 0.25,-1 c 0.172844,-0.6914 0.09771,-1.3649 -0.09375,-1.9375 0.331323,0.1869 0.5888,0.4737 0.9375,0.625 1.014089,0.4399 2.119162,0.7269 3.25,0.6563 1.130838,-0.071 2.326883,-0.5512 3.15625,-1.5313 l 0.71875,-0.8437 -0.59375,-0.9376 c -0.651096,-1.0129 -1.543137,-1.5235 -2.09375,-1.875 -0.550613,-0.3514 -0.769175,-0.5071 -1,-0.9687 l -0.03125,0 c -0.538951,-1.0462 -0.647058,-3.5751 -0.5,-6.4063 0.146527,-2.8209 0.442365,-5.9358 0.0625,-8.6874 -0.0013,-0.011 0.0014,-0.02 0,-0.031 -0.23197,-1.9178 -0.92238,-3.2804 -1.625,-4.25 -0.18507,-0.2554 -0.269885,-0.411 -0.4375,-0.625 7.46119,-1.0472 13.299726,-4.0642 16.5625,-9.5937 7.32707,0.2691 14.433757,1.746 20.5625,2.7187 l 0.6875,-2.9063 c -1.304013,-0.4139 -2.675214,-0.749 -4.0625,-1.0624 1.197633,0.1728 2.56179,0.354 3.625,0.5 l 0.75,-2.87505 c -0.106226,-0.0425 -0.236072,-0.0533 -0.34375,-0.0937 -0.01744,-0.002 -0.04501,0.002 -0.0625,0 -5.593563,-2.08007 -13.004077,-1.60004 -19.5,-1.875 0.843307,-3.9421 1.06355,-8.06721 0.40625,-11.875 -0.699417,-4.05178 -2.244458,-7.66743 -4.71875,-10.15625 0.990316,-3.89669 0.116416,-8.33402 -1.21875,-11.3125 l -1.375,0.59375 -0.03125,-1.46875 c -2.710008,0.10297 -4.884535,0.56918 -7.3125,1.625 -1.128812,0.5017 -2.101451,1.22135 -3,1.8125 -0.898549,0.59115 -1.712498,0.98545 -2.125,1.03125 -0.564849,0.0596 -1.572108,-0.0928 -2.75,-0.375 -1.168977,-0.28012 -2.521446,-0.65619 -3.96875,-0.71875 -0.01104,-4.8e-4 -0.0202,4.4e-4 -0.03125,0 -5.688135,-0.28592 -10.084649,0.32992 -14.28125,1.4375 -3.32073,-2.18835 -6.961502,-4.60868 -12.5625,-4.8125 L 25.375,963.625 z m 1.6875,3.125 c 4.44385,0.41828 7.333713,2.35757 10.59375,4.5 l 0.5625,0.375 0.65625,-0.15625 c 4.144549,-1.15664 8.304736,-1.72849 14.03125,-1.4375 l 0.03125,0 c 1.025092,0.0411 2.198474,0.30434 3.40625,0.59375 1.207776,0.28941 2.426199,0.6084 3.75,0.46875 1.376738,-0.15287 2.447396,-0.84862 3.4375,-1.5 0.981444,-0.64569 1.903354,-1.29657 2.5625,-1.59375 0.01005,-0.004 0.02122,0.004 0.03125,0 1.745666,-0.75635 3.235416,-1.09189 5.03125,-1.25 0.949936,2.63747 1.570542,6.48706 0.6875,9.0625 l -0.3125,0.9375 0.75,0.65625 c 2.094034,1.80095 3.662793,5.14891 4.34375,9.09375 0.680957,3.94484 0.501059,8.44945 -0.625,12.4375 l -0.5,1.7813 0.0625,0 c -0.04706,0.2531 -0.228584,0.4628 -0.21875,0.7187 7.9e-4,0.021 -0.0011,0.042 0,0.063 -2.94603,5.5316 -8.700561,8.3061 -17.125,8.9688 l -2.15625,0.1874 0.9375,1.9376 c 0.618713,1.2992 1.432992,2.1044 1.96875,2.8437 0.535758,0.7393 0.923895,1.4311 1.09375,2.875 l 0,0.031 c 0.309534,2.2112 0.05737,5.2469 -0.09375,8.1562 -0.151119,2.9093 -0.307149,5.6721 0.84375,7.9062 l -0.03125,0 c 0.381083,0.7621 0.908602,1.2359 1.40625,1.625 -0.328987,-0.066 -0.620042,-0.036 -0.96875,-0.1874 -1.351515,-0.5864 -2.476568,-1.9103 -2.59375,-2.4376 l -0.03125,0 c -0.448795,-1.9176 -0.121961,-4.809 0.03125,-7.6562 0.153211,-2.8472 0.213977,-5.864 -1.75,-8.0312 l -2.75,-3.0313 0.15625,4.0937 c 0.09292,2.3712 -0.192216,5.4071 -0.34375,8.4376 -0.151534,3.0304 -0.210978,6.0696 0.59375,8.6562 l 0.03125,0.031 c 0.318952,0.9569 0.751888,1.4744 1.125,1.9688 -0.848367,-0.1775 -1.485218,-0.4988 -1.9375,-1.0625 -0.736917,-0.9184 -1.20725,-2.5414 -1.40625,-4.625 -0.398,-4.1673 0.236968,-9.7758 -0.6875,-14.3437 l -0.25,-1.2813 -1.3125,0.094 c -0.742584,0.05 -1.534718,0.4946 -1.90625,1.0938 -0.371532,0.5992 -0.428703,1.1814 -0.4375,1.6562 -0.01759,0.9498 0.15625,1.8458 0.15625,1.9063 0,4.1726 0.350463,8.9534 -0.28125,12.2813 -0.315857,1.6639 -0.853446,2.897 -1.59375,3.5937 -0.427397,0.4022 -1.004461,0.6164 -1.71875,0.75 0.35942,-0.4422 0.82955,-0.9258 1.125,-1.8125 0.0096,-0.029 0.02202,-0.033 0.03125,-0.063 l -0.03125,0 c 0.909765,-2.6634 0.81222,-5.6732 0.625,-8.6563 -0.188568,-3.0045 -0.47296,-6.0115 -0.15625,-8.5 l 0.4375,-3.4374 -2.78125,2.0624 c -1.289185,0.948 -1.840718,2.4474 -2.03125,3.9063 -0.190532,1.4589 -0.08854,2.999 0.03125,4.5625 0.239569,3.1271 0.461168,6.3154 -0.28125,7.9062 -0.375406,0.8135 -1.272572,1.5343 -2.4375,1.9063 -0.311606,0.1 -0.638674,0.1128 -0.96875,0.1563 0.474894,-0.3698 0.981758,-0.8386 1.34375,-1.5626 l 0,-0.031 c 0.790584,-1.647 0.801349,-3.4106 0.75,-5.1562 -0.05135,-1.7457 -0.210079,-3.5022 -0.03125,-5.1563 l 0.21875,-2 -1.96875,0.375 c -5.80944,1.1245 -9.777276,-0.1499 -11.78125,-3.4063 l 0.03125,0 c -0.864703,-1.4151 -1.100374,-3.4635 -2.65625,-5.4374 0.471993,0.4323 0.950375,0.715 1.4375,1.2812 0.929611,1.0805 1.892321,2.3532 3.1875,3.4062 1.288291,1.0475 2.97946,1.8697 5.03125,1.9376 0.01097,3e-4 0.02026,-4e-4 0.03125,0 2.372382,0.1052 3.731408,-0.5735 5.5625,-1.0313 l 0.90625,-0.25 0.1875,-0.9063 c 0.434014,-2.17 1.412663,-3.5931 2.84375,-4.6874 l 2.8125,-2.1563 -3.53125,-0.5 c -8.367852,-1.1676 -14.78794,-3.603 -17.75,-9.4375 l -0.4375,-0.875 -0.03125,0 c -0.201304,-0.39713 -0.444392,-0.74096 -0.75,-1.03125 l -0.09375,-0.25 c -1.052119,-3.248 -1.38591,-7.66075 -0.84375,-11.65625 0.54216,-3.9955 1.997119,-7.52879 3.96875,-9.21875 L 27.125,977.5 26.71875,976.53125 c -0.572113,-1.43023 -0.824435,-3.59381 -0.6875,-5.625 0.111414,-1.65263 0.540123,-3.09693 1.03125,-4.15625 z m -4.8125,45.625 c 0.0675,0.033 0.152067,0.027 0.21875,0.063 0.28501,0.1519 0.56588,0.5292 0.84375,0.75 -0.37717,-0.3749 -0.695957,-0.5716 -1.0625,-0.8125 z"
       id="path54225"
       inkscape:connector-curvature="0" />
  </g>
</svg>
