<?xml version="1.0" encoding="UTF-8" standalone="no"?>
<!-- Created with Inkscape (http://www.inkscape.org/) -->

<svg
   xmlns:dc="http://purl.org/dc/elements/1.1/"
   xmlns:cc="http://creativecommons.org/ns#"
   xmlns:rdf="http://www.w3.org/1999/02/22-rdf-syntax-ns#"
   xmlns:svg="http://www.w3.org/2000/svg"
   xmlns="http://www.w3.org/2000/svg"
   xmlns:sodipodi="http://sodipodi.sourceforge.net/DTD/sodipodi-0.dtd"
   xmlns:inkscape="http://www.inkscape.org/namespaces/inkscape"
   width="244.26486"
   height="110.07497"
   id="svg2"
   sodipodi:version="0.32"
   inkscape:version="0.48.4 r9939"
   sodipodi:docname="iune.svg"
   inkscape:output_extension="org.inkscape.output.svg.inkscape"
   version="1.1"
   inkscape:export-filename="/home/koxta/proiektuak/iunetrecet/manuala/iune_txikia.png"
   inkscape:export-xdpi="90"
   inkscape:export-ydpi="90">
  <defs
     id="defs4" />
  <sodipodi:namedview
     id="base"
     pagecolor="#ffffff"
     bordercolor="#666666"
     borderopacity="1.0"
     inkscape:pageopacity="0.0"
     inkscape:pageshadow="2"
     inkscape:zoom="1.5718696"
     inkscape:cx="48.454411"
     inkscape:cy="-16.527328"
     inkscape:document-units="mm"
     inkscape:current-layer="g9609"
     inkscape:window-width="1398"
     inkscape:window-height="1029"
     inkscape:window-x="0"
     inkscape:window-y="19"
     showgrid="false"
     showguides="true"
     inkscape:guide-bbox="true"
     units="px"
     inkscape:snap-page="true"
     inkscape:snap-to-guides="true"
     inkscape:window-maximized="0"
     borderlayer="false"
     fit-margin-top="0"
     fit-margin-left="0"
     fit-margin-right="0"
     fit-margin-bottom="0"
     inkscape:showpageshadow="false"
     showborder="true" />
  <metadata
     id="metadata7">
    <rdf:RDF>
      <cc:Work
         rdf:about="">
        <dc:format>image/svg+xml</dc:format>
        <dc:type
           rdf:resource="http://purl.org/dc/dcmitype/StillImage" />
        <dc:title></dc:title>
      </cc:Work>
    </rdf:RDF>
  </metadata>
  <g
     inkscape:label="Capa 1"
     inkscape:groupmode="layer"
     id="layer1"
     transform="translate(-27.631361,-848.38807)">
    <g
       transform="matrix(1.7238307,0,0,1.7238307,-155.56504,-599.45078)"
       id="g9609">
      <path
         d="m 233.8019,883.30084 c 2.26321,-0.43283 4.26075,-1.51498 5.99264,-3.24635 2.30256,-2.302 3.45385,-5.08602 3.45389,-8.35211 -4e-5,-3.26609 -1.15133,-6.05014 -3.45389,-8.35205 -1.73189,-1.73146 -3.72943,-2.81361 -5.99264,-3.24644 l 0,23.19695 m -10.86351,-2.50855 c -1e-5,0.64922 -0.23617,1.2002 -0.70848,1.65269 -0.45265,0.47223 -1.00371,0.70834 -1.65314,0.70834 -0.64945,0 -1.21035,-0.22629 -1.68267,-0.67877 -2.65683,-3.04972 -3.98525,-6.64042 -3.98525,-10.77217 0,-4.56462 1.61378,-8.46028 4.84135,-11.68699 3.22755,-3.22671 7.12424,-4.84011 11.69007,-4.84011 4.5658,0 8.46249,1.6134 11.69007,4.84011 3.22753,3.22671 4.84131,7.12237 4.84134,11.68699 -3e-5,4.56459 -1.61381,8.46025 -4.84134,11.68705 -3.22758,3.22672 -7.12427,4.84002 -11.69007,4.84002 -0.64947,0 -1.21035,-0.23611 -1.68267,-0.70825 -0.45266,-0.45257 -0.67897,-1.00347 -0.67897,-1.65269 l 0,-25.76462 c -2.26325,0.43283 -4.26078,1.51498 -5.99263,3.24644 -2.30261,2.30191 -3.4539,5.08596 -3.4539,8.35205 0,2.95131 0.93482,5.48929 2.80444,7.61431 0.33456,0.43284 0.50184,0.9247 0.50185,1.4756"
         style="font-size:226.59182739px;font-style:normal;font-variant:normal;font-weight:normal;font-stretch:normal;text-indent:0;text-align:start;text-decoration:none;line-height:125%;letter-spacing:0px;word-spacing:0px;text-transform:none;direction:ltr;block-progression:tb;writing-mode:lr-tb;text-anchor:start;color:#000000;fill:#000000;fill-opacity:1;fill-rule:nonzero;stroke:none;stroke-width:1px;marker:none;visibility:visible;font-family:Comfortaa;-inkscape-font-specification:Comfortaa"
         id="path37252-6-1-3-3-6-1"
         inkscape:connector-curvature="0" />
      <path
         inkscape:connector-curvature="0"
         id="path37254-7-6-8-2-0-4"
         d="m 207.82273,888.23338 c 0.56475,0 1.05506,-0.18419 1.48587,-0.54126 0.0597,-0.0514 0.10712,-0.11722 0.1637,-0.17625 0.23615,-0.22628 0.42339,-0.46726 0.54146,-0.74276 0.11317,-0.2755 0.1763,-0.58176 0.1763,-0.90637 l 0,-15.34586 c 0,-4.23018 -1.504,-7.854 -4.49541,-10.86425 -0.0748,-0.0748 -0.15105,-0.14152 -0.22666,-0.21403 l 0,0.0131 c -0.369,-0.3566 -0.75843,-0.69505 -1.14589,-1.00712 -0.19373,-0.15604 -0.3809,-0.30833 -0.57924,-0.45324 -0.19833,-0.1448 -0.40147,-0.28167 -0.60443,-0.41534 -0.4059,-0.26754 -0.82226,-0.50731 -1.24662,-0.73024 -0.21218,-0.11141 -0.42541,-0.2144 -0.6422,-0.31469 -0.20648,-0.0951 -0.41904,-0.19186 -0.62961,-0.27699 -0.0329,-0.0131 -0.0677,-0.0244 -0.10074,-0.0374 -0.19755,-0.0786 -0.40323,-0.15716 -0.60443,-0.22656 -0.19078,-0.0655 -0.38523,-0.13125 -0.57923,-0.18888 -0.0334,-0.0103 -0.0672,-0.0149 -0.10074,-0.0252 -0.20344,-0.0589 -0.41006,-0.11348 -0.61702,-0.16371 -0.17768,-0.043 -0.34859,-0.0889 -0.52887,-0.12582 -0.30801,-0.0626 -0.62883,-0.10693 -0.94441,-0.15108 -0.0171,0 -0.0333,-0.0103 -0.0504,-0.0131 -0.4636,-0.0636 -0.93039,-0.11506 -1.41033,-0.13844 -0.0256,0 -0.0499,0 -0.0755,0 -0.25558,-0.0112 -0.50793,-0.0131 -0.76813,-0.0131 -0.30574,0 -0.60736,0.01 -0.90663,0.0252 -0.46214,0.0244 -0.913,0.0645 -1.35996,0.12592 -0.26743,0.0365 -0.53131,0.0758 -0.79331,0.12582 -0.0304,0.01 -0.0578,0.0196 -0.0882,0.0252 -0.18494,0.0365 -0.37184,0.0702 -0.55406,0.11328 -0.0295,0.01 -0.0587,0.0178 -0.0882,0.0252 -0.11386,0.0281 -0.22719,0.058 -0.33999,0.0879 -0.32386,0.087 -0.64208,0.18083 -0.957,0.28954 -0.20121,0.0692 -0.40687,0.14836 -0.60443,0.22657 -0.0244,0.01 -0.0513,0.0149 -0.0755,0.0252 -0.009,0 -0.0165,0.01 -0.0251,0.0122 -0.20384,0.0823 -0.4045,0.17241 -0.60443,0.26437 -0.009,0 -0.0167,0.01 -0.0251,0.0131 -0.0462,0.0215 -0.0926,0.0411 -0.13851,0.0626 -0.16784,0.0795 -0.33859,0.1654 -0.50369,0.25183 -0.42436,0.22283 -0.84072,0.46268 -1.24663,0.73014 -0.20294,0.13367 -0.40608,0.27052 -0.60443,0.41543 -0.19834,0.14482 -0.3855,0.2972 -0.57924,0.45315 -0.38745,0.31207 -0.76428,0.65052 -1.13329,1.00712 l 0,-0.0252 c -0.08,0.0767 -0.16012,0.14799 -0.23925,0.22657 -2.99142,3.01033 -4.48282,6.63406 -4.48281,10.86424 l 0,15.34586 c 1e-5,0.2435 0.0217,0.47662 0.0882,0.69243 0.11071,0.35969 0.32184,0.67391 0.61703,0.9567 0.11067,0.11544 0.21755,0.22751 0.33998,0.31479 0.003,0 0.01,0 0.0127,0 0.0599,0.0421 0.12618,0.0907 0.18889,0.12582 0.003,0 0.01,0 0.0127,0 0.32903,0.18448 0.68963,0.27699 1.09551,0.27699 0.0812,0 0.16084,-0.01 0.23926,-0.0131 0.23431,-0.0225 0.46075,-0.0748 0.66739,-0.1637 0.20728,-0.087 0.39614,-0.21329 0.57924,-0.36502 0.0597,-0.0514 0.10711,-0.11722 0.1637,-0.17624 0.23615,-0.22629 0.42338,-0.46726 0.54146,-0.74276 0.11808,-0.2755 0.17628,-0.58177 0.17629,-0.90637 l 0,-15.34586 c 0,-0.18326 0.005,-0.36137 0.0127,-0.54136 0.0162,-0.35978 0.0398,-0.71086 0.0882,-1.05746 0.0489,-0.34658 0.11998,-0.68625 0.20148,-1.01965 0.0807,-0.33341 0.1766,-0.66175 0.28961,-0.98197 0.11301,-0.32021 0.24507,-0.63724 0.39037,-0.94416 0.50852,-1.07439 1.21142,-2.07113 2.11548,-2.98358 0.39115,-0.38738 0.80055,-0.73014 1.22144,-1.04483 0.003,0 0.01,0 0.0127,0 0.27795,-0.20748 0.55277,-0.4159 0.84367,-0.59168 1.60891,-0.98009 3.43274,-1.46036 5.45243,-1.46036 1.27862,0 2.47105,0.19888 3.58876,0.59168 0.004,0 0.01,0 0.0127,0 0.15648,0.0552 0.31258,0.12592 0.46591,0.18887 0.004,0 0.01,0 0.0127,0 0.15326,0.0627 0.30322,0.13059 0.45332,0.20141 0.003,0 0.01,0 0.0127,0 0.15012,0.0711 0.29379,0.1478 0.44073,0.22657 0.003,0 0.01,0 0.0127,0 0.14699,0.0786 0.28431,0.16511 0.42814,0.25183 0.003,0 0.01,0 0.0127,0 0.14397,0.087 0.28733,0.19476 0.42813,0.28953 0.003,0 0.01,0 0.0127,0 0.57442,0.38738 1.11547,0.83051 1.63698,1.34698 1.16237,1.17317 1.99731,2.48694 2.50585,3.92774 0.0565,0.16007 0.11526,0.31498 0.16369,0.4784 0.0969,0.32676 0.17468,0.66708 0.23926,1.00713 0.12915,0.67999 0.20147,1.38196 0.20147,2.11491 l 0,15.34586 c 0,0.2434 0.0217,0.47652 0.0882,0.69233 0.11071,0.35969 0.32183,0.67391 0.61702,0.9568 0.11067,0.11543 0.21757,0.2275 0.34,0.31469 0.003,0 0.01,0 0.0127,0 0.0599,0.0421 0.12617,0.0907 0.18888,0.12591 0.003,0 0.01,0 0.0127,0 0.32903,0.18448 0.68961,0.2769 1.09552,0.2769 z"
         style="font-size:226.59182739px;font-style:normal;font-variant:normal;font-weight:normal;font-stretch:normal;text-indent:0;text-align:start;text-decoration:none;line-height:125%;letter-spacing:0px;word-spacing:0px;text-transform:none;direction:ltr;block-progression:tb;writing-mode:lr-tb;text-anchor:start;color:#000000;fill:#000000;fill-opacity:1;fill-rule:nonzero;stroke:none;stroke-width:1px;marker:none;visibility:visible;font-family:Comfortaa;-inkscape-font-specification:Comfortaa" />
      <path
         inkscape:connector-curvature="0"
         id="path37256-2-8-4-2-6-1"
         d="m 159.40578,888.23338 c 0.5289,0 1.05189,-0.0281 1.56143,-0.0758 0.23632,-0.0215 0.47299,-0.044 0.70517,-0.0758 0.017,0 0.0334,-0.0103 0.0504,-0.0131 0.47124,-0.0665 0.9311,-0.15679 1.38515,-0.26437 0.13048,-0.0308 0.26131,-0.0664 0.39036,-0.10065 0.13762,-0.0365 0.27955,-0.0721 0.41554,-0.11329 0.23539,-0.0702 0.46201,-0.14434 0.69257,-0.22666 0.46111,-0.16464 0.91823,-0.35482 1.35995,-0.56643 0.22086,-0.10589 0.43877,-0.20973 0.65481,-0.32732 0.21601,-0.11759 0.43102,-0.24836 0.64219,-0.37774 1.0559,-0.64669 2.04953,-1.43857 2.98435,-2.37927 3.01105,-2.9906 4.50798,-6.59636 4.508,-10.82643 l 0,-15.34588 c -1e-5,-0.2434 -0.0217,-0.47381 -0.0882,-0.69234 -0.1107,-0.36427 -0.32183,-0.69945 -0.61702,-0.9945 -0.11067,-0.11066 -0.21756,-0.21861 -0.33999,-0.30215 -0.003,0 -0.01,0 -0.0127,0 -0.0617,-0.0403 -0.12473,-0.0795 -0.18888,-0.11329 -0.003,0 -0.01,0 -0.0127,0 -0.0639,-0.0327 -0.12245,-0.0618 -0.18888,-0.088 -0.27848,-0.11618 -0.57767,-0.17624 -0.90664,-0.17624 -0.0812,0 -0.16083,0.01 -0.23924,0.0122 -0.47164,0.043 -0.89971,0.20309 -1.25923,0.50357 -0.0572,0.0477 -0.0967,0.10925 -0.1511,0.1637 -0.23617,0.23611 -0.42339,0.48757 -0.54146,0.76793 -0.11808,0.28035 -0.1763,0.5943 -0.1763,0.919 l 0,15.34579 c 0,0.18326 -0.005,0.36156 -0.0127,0.54135 -0.0326,0.71938 -0.12663,1.41191 -0.28961,2.07712 -0.0808,0.33262 -0.17663,0.66284 -0.28963,0.98193 -0.11301,0.31909 -0.24506,0.62602 -0.39036,0.93164 -0.50853,1.06951 -1.21142,2.05456 -2.11549,2.95832 -0.26075,0.26071 -0.5319,0.50207 -0.80589,0.73023 -0.1397,0.11627 -0.28499,0.232 -0.42813,0.33985 -0.27795,0.20936 -0.55277,0.40169 -0.84368,0.57906 -0.29381,0.17923 -0.59959,0.34434 -0.90664,0.49102 -0.30217,0.145 -0.61641,0.27708 -0.93183,0.39027 -0.16012,0.0571 -0.32764,0.1147 -0.49108,0.16363 -0.97787,0.29326 -2.02324,0.44059 -3.12287,0.44059 -1.28291,0 -2.48042,-0.20505 -3.60136,-0.60422 -0.47879,-0.17109 -0.9368,-0.37249 -1.38514,-0.61693 -0.003,0 -0.01,0 -0.0127,0 -0.14624,-0.0795 -0.28513,-0.17662 -0.42814,-0.26436 -0.003,0 -0.01,0 -0.0127,0 -0.143,-0.088 -0.28837,-0.18121 -0.42813,-0.2769 -0.003,0 -0.01,0 -0.0127,0 -0.57441,-0.39103 -1.11546,-0.85081 -1.63699,-1.37224 -0.7749,-0.77466 -1.4045,-1.60873 -1.88882,-2.50519 -0.24216,-0.44817 -0.4475,-0.90609 -0.61702,-1.38477 -0.057,-0.1595 -0.1148,-0.32798 -0.1637,-0.49093 -0.0969,-0.3259 -0.17467,-0.65508 -0.23924,-0.99447 -0.1304,-0.67878 -0.20148,-1.38206 -0.20149,-2.115 l 0,-15.34579 c 1e-5,-0.1624 -0.01,-0.32714 -0.0378,-0.4784 -0.0886,-0.45379 -0.31314,-0.85436 -0.66738,-1.20853 -0.11067,-0.11067 -0.21756,-0.21852 -0.33999,-0.30216 -0.003,0 -0.01,0 -0.0127,0 -0.0617,-0.0402 -0.12473,-0.0795 -0.18888,-0.11328 -0.003,0 -0.01,0 -0.0127,0 -0.33391,-0.17306 -0.69386,-0.26437 -1.09553,-0.26437 -0.0812,0 -0.16083,0.01 -0.23924,0.0131 -0.47163,0.043 -0.8997,0.203 -1.25922,0.50357 -0.0572,0.0477 -0.0967,0.10926 -0.15111,0.16361 -0.23616,0.23611 -0.42338,0.48757 -0.54147,0.76793 -0.11808,0.28035 -0.17627,0.5943 -0.17628,0.919 l 0,15.34588 c 2e-5,4.23007 1.50954,7.83574 4.52058,10.82633 0.37394,0.37634 0.7526,0.72827 1.14589,1.05755 0.39331,0.32919 0.79618,0.63677 1.20885,0.91891 0.20633,0.14116 0.41844,0.27354 0.62961,0.40291 0.21119,0.12937 0.42619,0.26006 0.6422,0.37765 0.21603,0.11758 0.43393,0.22151 0.65479,0.32732 0.22087,0.1058 0.4417,0.20804 0.66739,0.30215 0.22572,0.0941 0.46202,0.18204 0.69258,0.26436 0.23055,0.0823 0.45717,0.15604 0.69257,0.22657 0.15237,0.0459 0.3115,0.0851 0.46591,0.12592 0.0856,0.0225 0.16555,0.0543 0.25184,0.0758 0.0246,0.01 0.0509,0.01 0.0755,0.0131 0.21465,0.0505 0.4363,0.0969 0.65479,0.13844 0.42474,0.0814 0.85771,0.14267 1.297,0.18888 0.0685,0.01 0.13265,0.0187 0.20146,0.0252 0.009,7.2e-4 0.0168,-9e-4 0.0251,0 0.24494,0.0215 0.49353,0.0393 0.74294,0.0505 0.004,1.8e-4 0.009,-1.8e-4 0.0127,0 0.25369,0.0112 0.50982,0.0252 0.76812,0.0252 z"
         style="font-size:226.59182739px;font-style:normal;font-variant:normal;font-weight:normal;font-stretch:normal;text-indent:0;text-align:start;text-decoration:none;line-height:125%;letter-spacing:0px;word-spacing:0px;text-transform:none;direction:ltr;block-progression:tb;writing-mode:lr-tb;text-anchor:start;color:#000000;fill:#000000;fill-opacity:1;fill-rule:nonzero;stroke:none;stroke-width:1px;marker:none;visibility:visible;font-family:Comfortaa;-inkscape-font-specification:Comfortaa" />
      <path
         d="m 120.4436,860.10389 c -2.26322,0.43293 -4.26076,1.51508 -5.99265,3.24644 -2.30256,2.30201 -3.45385,5.08605 -3.45388,8.35205 3e-5,3.26609 1.15132,6.05011 3.45388,8.35211 1.73189,1.73146 3.72943,2.81352 5.99265,3.24635 l 0,-23.19695 m 10.8635,2.50864 c 1e-5,-0.6493 0.23617,-1.20021 0.70849,-1.65278 0.45264,-0.47213 1.00369,-0.70824 1.65313,-0.70824 0.64947,0 1.21035,0.22628 1.68267,0.67877 2.65684,3.04962 3.98525,6.64033 3.98525,10.7721 0,4.56468 -1.61378,8.46034 -4.84135,11.68705 -3.22754,3.22672 -7.12424,4.84011 -11.69006,4.84002 -4.5658,9e-5 -8.4625,-1.6133 -11.69008,-4.84002 -3.22753,-3.22671 -4.84131,-7.12237 -4.84135,-11.68705 4e-5,-4.56462 1.61382,-8.46028 4.84135,-11.68699 3.22758,-3.22671 7.12428,-4.84002 11.69008,-4.84011 0.64946,9e-5 1.21035,0.23611 1.68266,0.70833 0.45266,0.45258 0.67898,1.00349 0.67897,1.65269 l 0,25.76454 c 2.26324,-0.43283 4.26078,-1.51489 5.99264,-3.24635 2.3026,-2.302 3.45388,-5.08602 3.45388,-8.35211 0,-2.95121 -0.9348,-5.48933 -2.80443,-7.61425 -0.33456,-0.43284 -0.50184,-0.9247 -0.50185,-1.4756"
         style="font-size:226.59182739px;font-style:normal;font-variant:normal;font-weight:normal;font-stretch:normal;text-indent:0;text-align:start;text-decoration:none;line-height:125%;letter-spacing:0px;word-spacing:0px;text-transform:none;direction:ltr;block-progression:tb;writing-mode:lr-tb;text-anchor:start;color:#000000;fill:#000000;fill-opacity:1;fill-rule:nonzero;stroke:none;stroke-width:1px;marker:none;visibility:visible;font-family:Comfortaa;-inkscape-font-specification:Comfortaa"
         id="path37258-8-6-9-6-9-9"
         inkscape:connector-curvature="0" />
      <path
         inkscape:connector-curvature="0"
         id="path37292-0-7-4-5-7-4-7"
         d="m 118.33865,844.36163 c 0,-2.4662 1.99976,-4.46543 4.46658,-4.46543 2.46682,0 4.46657,1.99923 4.46657,4.46543 0,2.46617 -1.99975,4.46541 -4.46657,4.46541 -2.46682,0 -4.46658,-1.99924 -4.46658,-4.46541 z"
         style="color:#000000;fill:#d40000;fill-opacity:1;fill-rule:nonzero;stroke:none;stroke-width:2;marker:none;visibility:visible;display:inline;overflow:visible;enable-background:accumulate" />
      <g
         style="font-size:9.6847496px;font-style:normal;font-variant:normal;font-weight:normal;font-stretch:normal;text-indent:0;text-align:start;text-decoration:none;line-height:125%;letter-spacing:0px;word-spacing:0px;text-transform:none;direction:ltr;block-progression:tb;writing-mode:lr-tb;text-anchor:start;baseline-shift:baseline;color:#000000;fill:#d40000;fill-opacity:1;fill-rule:nonzero;stroke:none;stroke-width:1px;marker:none;visibility:visible;display:inline;overflow:visible;enable-background:accumulate;font-family:Comfortaa;-inkscape-font-specification:Comfortaa"
         id="text3227">
        <path
           d="m 144.07346,840.28396 c -1e-5,-0.10403 0.0362,-0.1923 0.10876,-0.26481 0.0757,-0.0757 0.16551,-0.11349 0.26955,-0.1135 0.10403,10e-6 0.1923,0.0378 0.26481,0.1135 0.0757,0.0725 0.1135,0.16078 0.1135,0.26481 l 0,6.43128 0.37831,0 c 0.10403,0 0.1923,0.0378 0.26481,0.11349 0.0757,0.0725 0.1135,0.16079 0.1135,0.26482 0,0.10404 -0.0378,0.19389 -0.1135,0.26955 -0.0725,0.0725 -0.16078,0.10876 -0.26481,0.10876 l -0.75662,0 c -0.10404,0 -0.19389,-0.0362 -0.26955,-0.10876 -0.0725,-0.0757 -0.10877,-0.16551 -0.10876,-0.26955 l 0,-6.80959"
           style="marker:none"
           id="path4069" />
        <path
           d="m 147.57283,841.04058 c 0,0.12927 -0.0473,0.24118 -0.14187,0.33575 -0.0914,0.0914 -0.20177,0.13715 -0.33102,0.13714 -0.12926,10e-6 -0.24117,-0.0457 -0.33575,-0.13714 -0.0914,-0.0946 -0.13714,-0.20648 -0.13714,-0.33575 0,-0.12925 0.0457,-0.23959 0.13714,-0.33102 0.0946,-0.0946 0.20649,-0.14186 0.33575,-0.14186 0.12925,0 0.23959,0.0473 0.33102,0.14186 0.0946,0.0914 0.14187,0.20177 0.14187,0.33102 m -0.8512,1.51325 c 0,-0.10403 0.0362,-0.19231 0.10876,-0.26482 0.0757,-0.0757 0.16551,-0.11349 0.26955,-0.11349 0.10403,0 0.19231,0.0378 0.26482,0.11349 0.0757,0.0725 0.11349,0.16079 0.11349,0.26482 l 0,4.53972 c 0,0.10404 -0.0378,0.19389 -0.11349,0.26955 -0.0725,0.0725 -0.16079,0.10876 -0.26482,0.10876 -0.10404,0 -0.19389,-0.0362 -0.26955,-0.10876 -0.0725,-0.0757 -0.10876,-0.16551 -0.10876,-0.26955 l 0,-4.53972"
           style="marker:none"
           id="path4071" />
        <path
           d="m 151.26136,846.71524 c 0.52332,0 0.96941,-0.18442 1.33827,-0.55328 0.36885,-0.36885 0.55327,-0.81494 0.55328,-1.33827 -1e-5,-0.52333 -0.18443,-0.96942 -0.55328,-1.33827 -0.36886,-0.36885 -0.81495,-0.55328 -1.33827,-0.55328 -0.52334,0 -0.96943,0.18443 -1.33828,0.55328 -0.36885,0.36885 -0.55328,0.81494 -0.55328,1.33827 0,0.52333 0.18443,0.96942 0.55328,1.33827 0.36885,0.36886 0.81494,0.55328 1.33828,0.55328 m -1.89156,-3.74527 c 0.006,-0.006 0.0126,-0.0126 0.0189,-0.0189 0.51702,-0.51702 1.14123,-0.77553 1.87264,-0.77553 0.73139,0 1.3556,0.25851 1.87263,0.77553 0.51702,0.51703 0.77553,1.14124 0.77554,1.87264 -1e-5,0.7314 -0.25852,1.35561 -0.77554,1.87264 -0.51703,0.51702 -1.14124,0.77553 -1.87263,0.77553 -0.73141,0 -1.35562,-0.25851 -1.87264,-0.77553 -0.51703,-0.51703 -0.77554,-1.14124 -0.77554,-1.87264 l 0,-4.54919 c 0,-0.10402 0.0363,-0.1923 0.10877,-0.26481 0.0757,-0.0757 0.16551,-0.11349 0.26954,-0.1135 0.10404,10e-6 0.19231,0.0378 0.26482,0.1135 0.0757,0.0725 0.11349,0.16079 0.11349,0.26481 l 0,2.69547"
           style="marker:none"
           id="path4073" />
        <path
           d="m 154.66615,842.55383 c 0,-0.10403 0.0363,-0.19231 0.10876,-0.26482 0.0757,-0.0757 0.16551,-0.11349 0.26955,-0.11349 0.10404,0 0.19231,0.0378 0.26482,0.11349 0.0757,0.0725 0.11349,0.16079 0.11349,0.26482 l 0,0.41614 c 0.52963,-0.52963 1.16015,-0.79445 1.89155,-0.79445 0.36885,0 0.70776,0.063 1.01671,0.18915 0.0567,0.0221 0.10876,0.0552 0.15606,0.0993 0.0725,0.0757 0.10876,0.16551 0.10876,0.26954 0,0.10404 -0.0378,0.19389 -0.11349,0.26955 -0.0725,0.0725 -0.16079,0.10877 -0.26482,0.10876 -0.0599,10e-6 -0.11507,-0.0126 -0.16551,-0.0378 -0.22384,-0.0946 -0.46974,-0.14186 -0.73771,-0.14186 -0.52333,0 -0.96942,0.18443 -1.33827,0.55328 -0.36885,0.36885 -0.55328,0.81494 -0.55328,1.33827 l 0,2.26986 c 0,0.10404 -0.0378,0.19389 -0.11349,0.26955 -0.0725,0.0725 -0.16078,0.10876 -0.26482,0.10876 -0.10404,0 -0.19388,-0.0362 -0.26955,-0.10876 -0.0725,-0.0757 -0.10876,-0.16551 -0.10876,-0.26955 l 0,-4.53972"
           style="marker:none"
           id="path4075" />
        <path
           d="m 163.7125,844.44538 c -0.0694,-0.36255 -0.24275,-0.68253 -0.52018,-0.95996 -0.36885,-0.36885 -0.81494,-0.55328 -1.33827,-0.55328 -0.52333,0 -0.96942,0.18443 -1.33827,0.55328 -0.27743,0.27743 -0.45082,0.59741 -0.52018,0.95996 l 3.7169,0 m -0.40195,1.74023 c 0.10403,0 0.1923,0.0378 0.26481,0.11349 0.0757,0.0725 0.11349,0.16078 0.1135,0.26482 -1e-5,0.10403 -0.0363,0.19388 -0.10877,0.26954 -0.48865,0.4256 -1.064,0.6384 -1.72604,0.6384 -0.7314,0 -1.35561,-0.25851 -1.87264,-0.77553 -0.51702,-0.51703 -0.77553,-1.14124 -0.77553,-1.87264 0,-0.7314 0.25851,-1.35561 0.77553,-1.87264 0.51703,-0.51702 1.14124,-0.77553 1.87264,-0.77553 0.7314,0 1.35561,0.25851 1.87264,0.77553 0.51702,0.51703 0.77553,1.14124 0.77553,1.87264 0,0.10404 -0.0378,0.19389 -0.11349,0.26955 -0.0725,0.0725 -0.16079,0.10876 -0.26482,0.10876 l -4.12831,0 c 0.0694,0.36255 0.24275,0.68254 0.52018,0.95996 0.36885,0.36886 0.81494,0.55328 1.33827,0.55328 0.47289,0 0.87957,-0.14975 1.22005,-0.44924 0.0694,-0.0536 0.14817,-0.0804 0.23645,-0.0804"
           style="marker:none"
           id="path4077" />
        <path
           d="m 170.74435,842.93214 c -0.52333,0 -0.96943,0.18443 -1.33828,0.55328 -0.36885,0.36885 -0.55328,0.81494 -0.55328,1.33827 0,0.52333 0.18443,0.96942 0.55328,1.33827 0.36885,0.36886 0.81495,0.55328 1.33828,0.55328 0.52332,0 0.96941,-0.18442 1.33827,-0.55328 0.36885,-0.36885 0.55328,-0.81494 0.55328,-1.33827 0,-0.52333 -0.18443,-0.96942 -0.55328,-1.33827 -0.36886,-0.36885 -0.81495,-0.55328 -1.33827,-0.55328 m 1.89155,3.74527 c -0.006,0.006 -0.0126,0.0126 -0.0189,0.0189 -0.51702,0.51702 -1.14124,0.77553 -1.87263,0.77553 -0.73141,0 -1.35562,-0.25851 -1.87264,-0.77553 -0.51702,-0.51703 -0.77554,-1.14124 -0.77554,-1.87264 0,-0.7314 0.25852,-1.35561 0.77554,-1.87264 0.51702,-0.51702 1.14123,-0.77553 1.87264,-0.77553 0.73139,0 1.35561,0.25851 1.87263,0.77553 0.51702,0.51703 0.77554,1.14124 0.77554,1.87264 l 0,2.64817 c 0,0.55171 -0.19862,1.0309 -0.59584,1.43758 -0.55486,0.55486 -1.22478,0.83228 -2.00977,0.83229 -0.785,-10e-6 -1.45335,-0.27743 -2.00505,-0.83229 -0.20492,-0.20176 -0.372,-0.42087 -0.50126,-0.65731 -0.0378,-0.0567 -0.0567,-0.12295 -0.0567,-0.19861 0,-0.10404 0.0363,-0.19389 0.10877,-0.26955 0.0757,-0.0725 0.16551,-0.10877 0.26954,-0.10877 0.10404,0 0.19389,0.0363 0.26955,0.10877 0.0315,0.0347 0.0583,0.0725 0.0804,0.11349 0.0946,0.17024 0.21595,0.32945 0.36413,0.47762 0.40668,0.40668 0.8969,0.61002 1.47068,0.61002 0.57376,0 1.06399,-0.20334 1.47068,-0.61002 0.2522,-0.30265 0.37831,-0.60372 0.37831,-0.90322 l 0,-0.79445"
           style="marker:none"
           id="path4079" />
        <path
           d="m 174.14914,842.55383 c 0,-0.10403 0.0363,-0.19231 0.10877,-0.26482 0.0757,-0.0757 0.16551,-0.11349 0.26954,-0.11349 0.10404,0 0.19231,0.0378 0.26482,0.11349 0.0757,0.0725 0.11349,0.16079 0.11349,0.26482 l 0,0.41614 c 0.52964,-0.52963 1.16015,-0.79445 1.89156,-0.79445 0.36885,0 0.70775,0.063 1.01671,0.18915 0.0567,0.0221 0.10876,0.0552 0.15605,0.0993 0.0725,0.0757 0.10876,0.16551 0.10876,0.26954 0,0.10404 -0.0378,0.19389 -0.11349,0.26955 -0.0725,0.0725 -0.16079,0.10877 -0.26482,0.10876 -0.0599,10e-6 -0.11507,-0.0126 -0.16551,-0.0378 -0.22384,-0.0946 -0.46974,-0.14186 -0.7377,-0.14186 -0.52334,0 -0.96943,0.18443 -1.33828,0.55328 -0.36885,0.36885 -0.55328,0.81494 -0.55328,1.33827 l 0,2.26986 c 0,0.10404 -0.0378,0.19389 -0.11349,0.26955 -0.0725,0.0725 -0.16078,0.10876 -0.26482,0.10876 -0.10403,0 -0.19388,-0.0362 -0.26954,-0.10876 -0.0725,-0.0757 -0.10877,-0.16551 -0.10877,-0.26955 l 0,-4.53972"
           style="marker:none"
           id="path4081" />
        <path
           d="m 181.33704,842.93214 c -0.52333,0 -0.96942,0.18443 -1.33827,0.55328 -0.36886,0.36885 -0.55328,0.81494 -0.55328,1.33827 0,0.52333 0.18442,0.96942 0.55328,1.33827 0.36885,0.36886 0.81494,0.55328 1.33827,0.55328 0.52333,0 0.96942,-0.18442 1.33828,-0.55328 0.36884,-0.36885 0.55327,-0.81494 0.55328,-1.33827 -1e-5,-0.52333 -0.18444,-0.96942 -0.55328,-1.33827 -0.36886,-0.36885 -0.81495,-0.55328 -1.33828,-0.55328 m 1.89156,3.74527 c -0.52964,0.52964 -1.16016,0.79445 -1.89156,0.79445 -0.7314,0 -1.35561,-0.25851 -1.87263,-0.77553 -0.51703,-0.51703 -0.77554,-1.14124 -0.77554,-1.87264 0,-0.7314 0.25851,-1.35561 0.77554,-1.87264 0.51702,-0.51702 1.14123,-0.77553 1.87263,-0.77553 0.7314,0 1.35561,0.25851 1.87264,0.77553 0.51702,0.51703 0.77553,1.14124 0.77554,1.87264 l 0,2.26986 c -1e-5,0.10404 -0.0378,0.19389 -0.1135,0.26955 -0.0725,0.0725 -0.16078,0.10876 -0.26481,0.10876 -0.10404,0 -0.19389,-0.0362 -0.26955,-0.10876 -0.0725,-0.0757 -0.10877,-0.16551 -0.10876,-0.26955 l 0,-0.41614"
           style="marker:none"
           id="path4083" />
        <path
           d="m 185.49846,844.82369 c 0,0.52333 0.18442,0.96942 0.55328,1.33827 0.36885,0.36886 0.81494,0.55328 1.33827,0.55328 0.52333,0 0.96942,-0.18442 1.33827,-0.55328 0.36885,-0.36885 0.55328,-0.81494 0.55328,-1.33827 0,-0.52333 -0.18443,-0.96942 -0.55328,-1.33827 -0.36885,-0.36885 -0.81494,-0.55328 -1.33827,-0.55328 -0.52333,0 -0.96942,0.18443 -1.33827,0.55328 -0.36886,0.36885 -0.55328,0.81494 -0.55328,1.33827 m 0,4.53973 c 0,0.10403 -0.0378,0.1923 -0.1135,0.26481 -0.0725,0.0757 -0.16078,0.11349 -0.26481,0.1135 -0.10404,-10e-6 -0.19389,-0.0378 -0.26955,-0.1135 -0.0725,-0.0725 -0.10876,-0.16078 -0.10876,-0.26481 l 0,-4.53973 c 0,-0.7314 0.25851,-1.35561 0.77553,-1.87264 0.51703,-0.51702 1.14124,-0.77553 1.87264,-0.77553 0.7314,0 1.35561,0.25851 1.87264,0.77553 0.51702,0.51703 0.77553,1.14124 0.77553,1.87264 0,0.7314 -0.25851,1.35561 -0.77553,1.87264 -0.51703,0.51702 -1.14124,0.77553 -1.87264,0.77553 -0.7314,0 -1.35561,-0.25851 -1.87264,-0.77553 -0.006,-0.006 -0.0126,-0.0126 -0.0189,-0.0189 l 0,2.68601"
           style="marker:none"
           id="path4085" />
        <path
           d="m 190.79481,840.28396 c 0,-0.10403 0.0362,-0.1923 0.10876,-0.26481 0.0757,-0.0757 0.16551,-0.11349 0.26955,-0.1135 0.10403,10e-6 0.1923,0.0378 0.26481,0.1135 0.0757,0.0725 0.1135,0.16078 0.1135,0.26481 l 0,2.57724 c 0.47288,-0.45712 1.04035,-0.68568 1.7024,-0.68568 0.6778,0 1.2563,0.24117 1.73549,0.72351 0.48235,0.4792 0.72352,1.0577 0.72352,1.7355 l 0,2.45902 c 0,0.10404 -0.0378,0.19389 -0.11349,0.26955 -0.0725,0.0725 -0.16079,0.10876 -0.26482,0.10876 -0.10404,0 -0.19389,-0.0362 -0.26954,-0.10876 -0.0725,-0.0757 -0.10877,-0.16551 -0.10877,-0.26955 l 0,-2.45902 c 0,-0.46973 -0.16709,-0.87011 -0.50126,-1.20113 -0.33102,-0.33417 -0.7314,-0.50126 -1.20113,-0.50126 -0.46974,0 -0.8717,0.16709 -1.20587,0.50126 -0.33102,0.33102 -0.49653,0.7314 -0.49653,1.20113 l 0,2.45902 c 0,0.10404 -0.0378,0.19389 -0.1135,0.26955 -0.0725,0.0725 -0.16078,0.10876 -0.26481,0.10876 -0.10404,0 -0.19389,-0.0362 -0.26955,-0.10876 -0.0725,-0.0757 -0.10876,-0.16551 -0.10876,-0.26955 l 0,-6.80959"
           style="marker:none"
           id="path4087" />
        <path
           d="m 197.69897,841.04058 c 0,0.12927 -0.0473,0.24118 -0.14186,0.33575 -0.0914,0.0914 -0.20177,0.13715 -0.33103,0.13714 -0.12925,10e-6 -0.24117,-0.0457 -0.33575,-0.13714 -0.0914,-0.0946 -0.13714,-0.20648 -0.13713,-0.33575 -1e-5,-0.12925 0.0457,-0.23959 0.13713,-0.33102 0.0946,-0.0946 0.2065,-0.14186 0.33575,-0.14186 0.12926,0 0.2396,0.0473 0.33103,0.14186 0.0946,0.0914 0.14186,0.20177 0.14186,0.33102 m -0.8512,1.51325 c 0,-0.10403 0.0363,-0.19231 0.10877,-0.26482 0.0757,-0.0757 0.16551,-0.11349 0.26954,-0.11349 0.10404,0 0.19231,0.0378 0.26482,0.11349 0.0757,0.0725 0.11349,0.16079 0.11349,0.26482 l 0,4.53972 c 0,0.10404 -0.0378,0.19389 -0.11349,0.26955 -0.0725,0.0725 -0.16078,0.10876 -0.26482,0.10876 -0.10403,0 -0.19388,-0.0362 -0.26954,-0.10876 -0.0725,-0.0757 -0.10877,-0.16551 -0.10877,-0.26955 l 0,-4.53972"
           style="marker:none"
           id="path4089" />
        <path
           d="m 202.85345,846.17615 c 0.10403,0 0.19231,0.0378 0.26482,0.11349 0.0757,0.0725 0.11349,0.16079 0.11349,0.26482 0,0.10404 -0.0394,0.19704 -0.11822,0.279 -0.48865,0.4256 -1.064,0.6384 -1.72604,0.6384 -0.7314,0 -1.35561,-0.25851 -1.87264,-0.77553 -0.51702,-0.51703 -0.77553,-1.14124 -0.77553,-1.87264 0,-0.7314 0.25851,-1.35561 0.77553,-1.87264 0.51703,-0.51702 1.14124,-0.77553 1.87264,-0.77553 0.66204,0 1.23739,0.2128 1.72604,0.63839 0.0883,0.0788 0.13241,0.17655 0.13241,0.2932 0,0.10403 -0.0378,0.19388 -0.11349,0.26954 -0.0725,0.0725 -0.16079,0.10877 -0.26482,0.10877 -0.0914,0 -0.17182,-0.0284 -0.24117,-0.0851 -0.3531,-0.31211 -0.76609,-0.46816 -1.23897,-0.46816 -0.52333,0 -0.96942,0.18443 -1.33827,0.55328 -0.36886,0.36885 -0.55328,0.81494 -0.55328,1.33827 0,0.52333 0.18442,0.96942 0.55328,1.33827 0.36885,0.36886 0.81494,0.55328 1.33827,0.55328 0.47288,0 0.8843,-0.15447 1.23424,-0.46343 0.0662,-0.0504 0.14344,-0.0757 0.23171,-0.0757"
           style="marker:none"
           id="path4091" />
        <path
           d="m 211.41273,844.82369 c 0,-0.52333 -0.18443,-0.96942 -0.55328,-1.33827 -0.36886,-0.36885 -0.81495,-0.55328 -1.33827,-0.55328 -0.52333,0 -0.96942,0.18443 -1.33828,0.55328 -0.36885,0.36885 -0.55328,0.81494 -0.55327,1.33827 -1e-5,0.52333 0.18442,0.96942 0.55327,1.33827 0.36886,0.36886 0.81495,0.55328 1.33828,0.55328 0.52332,0 0.96941,-0.18442 1.33827,-0.55328 0.36885,-0.36885 0.55328,-0.81494 0.55328,-1.33827 m 0,-4.54919 c 0,-0.10402 0.0362,-0.1923 0.10876,-0.26481 0.0757,-0.0757 0.16551,-0.11349 0.26955,-0.1135 0.10403,10e-6 0.1923,0.0378 0.26482,0.1135 0.0757,0.0725 0.11349,0.16079 0.11349,0.26481 l 0,4.54919 c 0,0.7314 -0.25852,1.35561 -0.77553,1.87264 -0.51703,0.51702 -1.14125,0.77553 -1.87264,0.77553 -0.7314,0 -1.35562,-0.25851 -1.87264,-0.77553 -0.51702,-0.51703 -0.77554,-1.14124 -0.77554,-1.87264 0,-0.7314 0.25852,-1.35561 0.77554,-1.87264 0.51702,-0.51702 1.14124,-0.77553 1.87264,-0.77553 0.73139,0 1.35561,0.25851 1.87264,0.77553 0.006,0.006 0.0126,0.0126 0.0189,0.0189 l 0,-2.69547"
           style="marker:none"
           id="path4093" />
        <path
           d="m 217.4326,844.44538 c -0.0694,-0.36255 -0.24276,-0.68253 -0.52018,-0.95996 -0.36886,-0.36885 -0.81495,-0.55328 -1.33827,-0.55328 -0.52334,0 -0.96943,0.18443 -1.33828,0.55328 -0.27743,0.27743 -0.45082,0.59741 -0.52018,0.95996 l 3.71691,0 m -0.40196,1.74023 c 0.10403,0 0.1923,0.0378 0.26482,0.11349 0.0757,0.0725 0.11349,0.16078 0.11349,0.26482 0,0.10403 -0.0363,0.19388 -0.10876,0.26954 -0.48866,0.4256 -1.06401,0.6384 -1.72604,0.6384 -0.73141,0 -1.35562,-0.25851 -1.87264,-0.77553 -0.51703,-0.51703 -0.77554,-1.14124 -0.77554,-1.87264 0,-0.7314 0.25851,-1.35561 0.77554,-1.87264 0.51702,-0.51702 1.14123,-0.77553 1.87264,-0.77553 0.73139,0 1.3556,0.25851 1.87263,0.77553 0.51702,0.51703 0.77553,1.14124 0.77554,1.87264 -1e-5,0.10404 -0.0378,0.19389 -0.11349,0.26955 -0.0725,0.0725 -0.16079,0.10876 -0.26482,0.10876 l -4.12832,0 c 0.0694,0.36255 0.24275,0.68254 0.52018,0.95996 0.36885,0.36886 0.81494,0.55328 1.33828,0.55328 0.47288,0 0.87956,-0.14975 1.22005,-0.44924 0.0694,-0.0536 0.14816,-0.0804 0.23644,-0.0804"
           style="marker:none"
           id="path4095" />
        <path
           d="m 219.91526,844.82369 c -0.28689,-0.10719 -0.48707,-0.2191 -0.60057,-0.33575 -0.22383,-0.22068 -0.33575,-0.48707 -0.33575,-0.79918 0,-0.3121 0.11665,-0.5848 0.34994,-0.8181 0.45397,-0.46342 1.04666,-0.69514 1.77806,-0.69514 0.7913,0 1.4691,0.31684 2.03342,0.9505 0.0504,0.0599 0.0741,0.13399 0.0709,0.22226 0,0.10404 -0.0378,0.19389 -0.11349,0.26954 -0.0725,0.0725 -0.16079,0.10877 -0.26482,0.10877 -0.10404,0 -0.18758,-0.0331 -0.25063,-0.0993 -0.0631,-0.0662 -0.10877,-0.11349 -0.13714,-0.14186 -0.36885,-0.36885 -0.81494,-0.55328 -1.33827,-0.55328 -0.52333,0 -0.94105,0.16394 -1.25315,0.4918 -0.0757,0.0914 -0.1135,0.20019 -0.1135,0.32629 0.009,0.14818 0.0867,0.24906 0.23172,0.30265 l 2.32661,0.77081 c 0.28688,0.10719 0.48707,0.21911 0.60057,0.33575 0.22382,0.22068 0.33574,0.48708 0.33575,0.79918 -1e-5,0.31211 -0.11665,0.58481 -0.34994,0.8181 -0.45398,0.46343 -1.04666,0.69514 -1.77806,0.69514 -0.79445,0 -1.47226,-0.31683 -2.03342,-0.9505 -0.0473,-0.0662 -0.0709,-0.14029 -0.0709,-0.22226 0,-0.10403 0.0362,-0.19231 0.10876,-0.26482 0.0757,-0.0757 0.16551,-0.11349 0.26955,-0.11349 0.10403,0 0.18758,0.0331 0.25063,0.0993 0.0631,0.0662 0.10876,0.11349 0.13714,0.14186 0.36885,0.36886 0.81494,0.55328 1.33827,0.55328 0.52333,0 0.94104,-0.16393 1.25315,-0.4918 0.0757,-0.0914 0.11349,-0.20019 0.1135,-0.32629 -0.009,-0.14817 -0.0867,-0.24906 -0.23172,-0.30265 l -2.32661,-0.77081"
           style="marker:none"
           id="path4097" />
        <path
           d="m 225.22106,841.04058 c 0,0.12927 -0.0473,0.24118 -0.14186,0.33575 -0.0914,0.0914 -0.20177,0.13715 -0.33103,0.13714 -0.12925,10e-6 -0.24117,-0.0457 -0.33575,-0.13714 -0.0914,-0.0946 -0.13713,-0.20648 -0.13713,-0.33575 0,-0.12925 0.0457,-0.23959 0.13713,-0.33102 0.0946,-0.0946 0.2065,-0.14186 0.33575,-0.14186 0.12926,0 0.2396,0.0473 0.33103,0.14186 0.0946,0.0914 0.14186,0.20177 0.14186,0.33102 m -0.8512,1.51325 c 0,-0.10403 0.0363,-0.19231 0.10877,-0.26482 0.0757,-0.0757 0.16551,-0.11349 0.26954,-0.11349 0.10404,0 0.19231,0.0378 0.26482,0.11349 0.0757,0.0725 0.11349,0.16079 0.1135,0.26482 l 0,4.53972 c -1e-5,0.10404 -0.0378,0.19389 -0.1135,0.26955 -0.0725,0.0725 -0.16078,0.10876 -0.26482,0.10876 -0.10403,0 -0.19388,-0.0362 -0.26954,-0.10876 -0.0725,-0.0757 -0.10877,-0.16551 -0.10877,-0.26955 l 0,-4.53972"
           style="marker:none"
           id="path4099" />
        <path
           d="m 228.90959,842.93214 c -0.52333,0 -0.96942,0.18443 -1.33827,0.55328 -0.36885,0.36885 -0.55328,0.81494 -0.55328,1.33827 0,0.52333 0.18443,0.96942 0.55328,1.33827 0.36885,0.36886 0.81494,0.55328 1.33827,0.55328 0.52333,0 0.96942,-0.18442 1.33828,-0.55328 0.36885,-0.36885 0.55327,-0.81494 0.55328,-1.33827 -1e-5,-0.52333 -0.18443,-0.96942 -0.55328,-1.33827 -0.36886,-0.36885 -0.81495,-0.55328 -1.33828,-0.55328 m 1.89156,3.74527 c -0.006,0.006 -0.0126,0.0126 -0.0189,0.0189 -0.51703,0.51702 -1.14124,0.77553 -1.87264,0.77553 -0.7314,0 -1.35561,-0.25851 -1.87263,-0.77553 -0.51703,-0.51703 -0.77554,-1.14124 -0.77554,-1.87264 0,-0.7314 0.25851,-1.35561 0.77554,-1.87264 0.51702,-0.51702 1.14123,-0.77553 1.87263,-0.77553 0.7314,0 1.35561,0.25851 1.87264,0.77553 0.51702,0.51703 0.77553,1.14124 0.77554,1.87264 l 0,2.64817 c -1e-5,0.55171 -0.19862,1.0309 -0.59584,1.43758 -0.55486,0.55486 -1.22479,0.83228 -2.00978,0.83229 -0.78499,-10e-6 -1.45334,-0.27743 -2.00504,-0.83229 -0.20492,-0.20176 -0.37201,-0.42087 -0.50126,-0.65731 -0.0378,-0.0567 -0.0567,-0.12295 -0.0567,-0.19861 0,-0.10404 0.0362,-0.19389 0.10876,-0.26955 0.0757,-0.0725 0.16551,-0.10877 0.26955,-0.10877 0.10404,0 0.19388,0.0363 0.26955,0.10877 0.0315,0.0347 0.0583,0.0725 0.0804,0.11349 0.0946,0.17024 0.21595,0.32945 0.36412,0.47762 0.40668,0.40668 0.89691,0.61002 1.47068,0.61002 0.57377,0 1.064,-0.20334 1.47069,-0.61002 0.2522,-0.30265 0.3783,-0.60372 0.37831,-0.90322 l 0,-0.79445"
           style="marker:none"
           id="path4101" />
        <path
           d="m 232.31438,842.55383 c 0,-0.10403 0.0363,-0.19231 0.10877,-0.26482 0.0757,-0.0757 0.16551,-0.11349 0.26954,-0.11349 0.10404,0 0.19231,0.0378 0.26482,0.11349 0.0757,0.0725 0.11349,0.16079 0.11349,0.26482 l 0,0.30737 c 0.47289,-0.45712 1.04036,-0.68568 1.7024,-0.68568 0.67781,0 1.2563,0.24117 1.7355,0.72351 0.48234,0.4792 0.72352,1.0577 0.72352,1.7355 l 0,2.45902 c 0,0.10404 -0.0378,0.19389 -0.11349,0.26955 -0.0725,0.0725 -0.16079,0.10876 -0.26482,0.10876 -0.10404,0 -0.19389,-0.0362 -0.26955,-0.10876 -0.0725,-0.0757 -0.10876,-0.16551 -0.10876,-0.26955 l 0,-2.45902 c 0,-0.46973 -0.16709,-0.87011 -0.50126,-1.20113 -0.33103,-0.33417 -0.73141,-0.50126 -1.20114,-0.50126 -0.46974,0 -0.87169,0.16709 -1.20586,0.50126 -0.33103,0.33102 -0.49654,0.7314 -0.49654,1.20113 l 0,2.45902 c 0,0.10404 -0.0378,0.19389 -0.11349,0.26955 -0.0725,0.0725 -0.16078,0.10876 -0.26482,0.10876 -0.10403,0 -0.19388,-0.0362 -0.26954,-0.10876 -0.0725,-0.0757 -0.10877,-0.16551 -0.10877,-0.26955 l 0,-4.53972"
           style="marker:none"
           id="path4103" />
        <path
           d="m 242.49567,844.44538 c -0.0694,-0.36255 -0.24276,-0.68253 -0.52018,-0.95996 -0.36886,-0.36885 -0.81495,-0.55328 -1.33827,-0.55328 -0.52333,0 -0.96943,0.18443 -1.33828,0.55328 -0.27743,0.27743 -0.45082,0.59741 -0.52017,0.95996 l 3.7169,0 m -0.40196,1.74023 c 0.10403,0 0.19231,0.0378 0.26482,0.11349 0.0757,0.0725 0.11349,0.16078 0.11349,0.26482 0,0.10403 -0.0363,0.19388 -0.10876,0.26954 -0.48866,0.4256 -1.064,0.6384 -1.72604,0.6384 -0.73141,0 -1.35562,-0.25851 -1.87264,-0.77553 -0.51702,-0.51703 -0.77554,-1.14124 -0.77554,-1.87264 0,-0.7314 0.25852,-1.35561 0.77554,-1.87264 0.51702,-0.51702 1.14123,-0.77553 1.87264,-0.77553 0.73139,0 1.35561,0.25851 1.87263,0.77553 0.51702,0.51703 0.77554,1.14124 0.77554,1.87264 0,0.10404 -0.0378,0.19389 -0.11349,0.26955 -0.0725,0.0725 -0.16079,0.10876 -0.26482,0.10876 l -4.12831,0 c 0.0693,0.36255 0.24274,0.68254 0.52017,0.95996 0.36885,0.36886 0.81495,0.55328 1.33828,0.55328 0.47288,0 0.87957,-0.14975 1.22005,-0.44924 0.0694,-0.0536 0.14817,-0.0804 0.23644,-0.0804"
           style="marker:none"
           id="path4105" />
        <path
           d="m 244.04201,842.55383 c 0,-0.10403 0.0363,-0.19231 0.10877,-0.26482 0.0757,-0.0757 0.16551,-0.11349 0.26954,-0.11349 0.10404,0 0.19231,0.0378 0.26482,0.11349 0.0757,0.0725 0.11349,0.16079 0.1135,0.26482 l 0,0.41614 c 0.52963,-0.52963 1.16015,-0.79445 1.89155,-0.79445 0.36885,0 0.70775,0.063 1.01671,0.18915 0.0567,0.0221 0.10876,0.0552 0.15605,0.0993 0.0725,0.0757 0.10876,0.16551 0.10877,0.26954 -1e-5,0.10404 -0.0378,0.19389 -0.1135,0.26955 -0.0725,0.0725 -0.16078,0.10877 -0.26482,0.10876 -0.0599,10e-6 -0.11507,-0.0126 -0.16551,-0.0378 -0.22383,-0.0946 -0.46974,-0.14186 -0.7377,-0.14186 -0.52333,0 -0.96942,0.18443 -1.33828,0.55328 -0.36885,0.36885 -0.55328,0.81494 -0.55327,1.33827 l 0,2.26986 c -1e-5,0.10404 -0.0378,0.19389 -0.1135,0.26955 -0.0725,0.0725 -0.16078,0.10876 -0.26482,0.10876 -0.10403,0 -0.19388,-0.0362 -0.26954,-0.10876 -0.0725,-0.0757 -0.10877,-0.16551 -0.10877,-0.26955 l 0,-4.53972"
           style="marker:none"
           id="path4107" />
      </g>
      <path
         inkscape:connector-curvature="0"
         id="path37292-07-1-0-3-9-6"
         d="m 226.97369,899.28565 c 0,-2.46618 1.99976,-4.46541 4.46658,-4.46541 2.46682,0 4.46657,1.99923 4.46657,4.46541 0,2.46618 -1.99975,4.46541 -4.46657,4.46541 -2.46682,0 -4.46658,-1.99923 -4.46658,-4.46541 z"
         style="color:#000000;fill:#d40000;fill-opacity:1;fill-rule:nonzero;stroke:none;stroke-width:2;marker:none;visibility:visible;display:inline;overflow:visible;enable-background:accumulate" />
      <g
         transform="scale(-1,-1)"
         style="font-size:9.6847496px;font-style:normal;font-variant:normal;font-weight:normal;font-stretch:normal;text-indent:0;text-align:start;text-decoration:none;line-height:125%;letter-spacing:0px;word-spacing:0px;text-transform:none;direction:ltr;block-progression:tb;writing-mode:lr-tb;text-anchor:start;baseline-shift:baseline;color:#000000;fill:#d40000;fill-opacity:1;fill-rule:nonzero;stroke:none;stroke-width:1px;marker:none;visibility:visible;display:inline;overflow:visible;enable-background:accumulate;font-family:Comfortaa;-inkscape-font-specification:Comfortaa"
         id="text3227-1">
        <path
           d="m -210.17111,-903.36325 c 0,-0.10403 0.0362,-0.1923 0.10876,-0.26482 0.0757,-0.0757 0.16551,-0.11349 0.26955,-0.11349 0.10403,0 0.1923,0.0378 0.26482,0.11349 0.0757,0.0725 0.11349,0.16079 0.11349,0.26482 l 0,6.43127 0.37831,0 c 0.10403,10e-6 0.19231,0.0378 0.26482,0.1135 0.0757,0.0725 0.11349,0.16078 0.11349,0.26482 0,0.10403 -0.0378,0.19388 -0.11349,0.26954 -0.0725,0.0725 -0.16079,0.10877 -0.26482,0.10877 l -0.75662,0 c -0.10404,0 -0.19389,-0.0363 -0.26955,-0.10877 -0.0725,-0.0757 -0.10876,-0.16551 -0.10876,-0.26954 l 0,-6.80959"
           style="marker:none"
           id="path4028" />
        <path
           d="m -206.67174,-902.60663 c 0,0.12926 -0.0473,0.24118 -0.14187,0.33575 -0.0914,0.0914 -0.20176,0.13714 -0.33102,0.13714 -0.12926,0 -0.24117,-0.0457 -0.33575,-0.13714 -0.0914,-0.0946 -0.13714,-0.20649 -0.13714,-0.33575 0,-0.12925 0.0457,-0.23959 0.13714,-0.33102 0.0946,-0.0946 0.20649,-0.14186 0.33575,-0.14187 0.12926,10e-6 0.2396,0.0473 0.33102,0.14187 0.0946,0.0914 0.14187,0.20177 0.14187,0.33102 m -0.8512,1.51324 c 0,-0.10403 0.0362,-0.1923 0.10877,-0.26482 0.0757,-0.0757 0.16551,-0.11349 0.26954,-0.11349 0.10404,0 0.19231,0.0378 0.26482,0.11349 0.0757,0.0725 0.11349,0.16079 0.11349,0.26482 l 0,4.53973 c 0,0.10403 -0.0378,0.19388 -0.11349,0.26954 -0.0725,0.0725 -0.16078,0.10877 -0.26482,0.10877 -0.10403,0 -0.19388,-0.0363 -0.26954,-0.10877 -0.0725,-0.0757 -0.10877,-0.16551 -0.10877,-0.26954 l 0,-4.53973"
           style="marker:none"
           id="path4030" />
        <path
           d="m -202.98321,-896.93198 c 0.52332,10e-6 0.96941,-0.18442 1.33827,-0.55327 0.36885,-0.36886 0.55328,-0.81495 0.55328,-1.33828 0,-0.52332 -0.18443,-0.96941 -0.55328,-1.33827 -0.36886,-0.36885 -0.81495,-0.55328 -1.33827,-0.55328 -0.52333,0 -0.96943,0.18443 -1.33828,0.55328 -0.36885,0.36886 -0.55328,0.81495 -0.55328,1.33827 0,0.52333 0.18443,0.96942 0.55328,1.33828 0.36885,0.36885 0.81495,0.55328 1.33828,0.55327 m -1.89156,-3.74527 c 0.006,-0.006 0.0126,-0.0126 0.0189,-0.0189 0.51702,-0.51702 1.14123,-0.77554 1.87264,-0.77554 0.73139,0 1.35561,0.25852 1.87263,0.77554 0.51702,0.51702 0.77554,1.14124 0.77554,1.87263 0,0.7314 -0.25852,1.35562 -0.77554,1.87264 -0.51702,0.51702 -1.14124,0.77554 -1.87263,0.77554 -0.73141,0 -1.35562,-0.25852 -1.87264,-0.77554 -0.51702,-0.51702 -0.77554,-1.14124 -0.77554,-1.87264 l 0,-4.54918 c 0,-0.10403 0.0363,-0.1923 0.10877,-0.26482 0.0757,-0.0756 0.16551,-0.11348 0.26954,-0.11349 0.10404,1e-5 0.19231,0.0378 0.26482,0.11349 0.0757,0.0725 0.11349,0.16079 0.11349,0.26482 l 0,2.69546"
           style="marker:none"
           id="path4032" />
        <path
           d="m -199.57842,-901.09339 c 0,-0.10403 0.0363,-0.1923 0.10877,-0.26482 0.0757,-0.0757 0.16551,-0.11349 0.26954,-0.11349 0.10404,0 0.19231,0.0378 0.26482,0.11349 0.0757,0.0725 0.11349,0.16079 0.11349,0.26482 l 0,0.41614 c 0.52964,-0.52963 1.16015,-0.79445 1.89156,-0.79445 0.36885,0 0.70775,0.0631 1.01671,0.18915 0.0567,0.0221 0.10876,0.0552 0.15605,0.0993 0.0725,0.0757 0.10876,0.16552 0.10876,0.26955 0,0.10404 -0.0378,0.19389 -0.11349,0.26954 -0.0725,0.0725 -0.16079,0.10877 -0.26482,0.10877 -0.0599,0 -0.11507,-0.0126 -0.16551,-0.0378 -0.22384,-0.0946 -0.46974,-0.14187 -0.7377,-0.14187 -0.52334,0 -0.96943,0.18443 -1.33828,0.55328 -0.36885,0.36886 -0.55328,0.81495 -0.55328,1.33827 l 0,2.26987 c 0,0.10403 -0.0378,0.19388 -0.11349,0.26954 -0.0725,0.0725 -0.16078,0.10877 -0.26482,0.10877 -0.10403,0 -0.19388,-0.0363 -0.26954,-0.10877 -0.0725,-0.0757 -0.10877,-0.16551 -0.10877,-0.26954 l 0,-4.53973"
           style="marker:none"
           id="path4034" />
        <path
           d="m -190.53207,-899.20184 c -0.0694,-0.36254 -0.24275,-0.68253 -0.52017,-0.95996 -0.36886,-0.36885 -0.81495,-0.55328 -1.33828,-0.55328 -0.52333,0 -0.96942,0.18443 -1.33827,0.55328 -0.27743,0.27743 -0.45082,0.59742 -0.52018,0.95996 l 3.7169,0 m -0.40195,1.74023 c 0.10403,0 0.1923,0.0378 0.26482,0.11349 0.0756,0.0725 0.11348,0.16079 0.11349,0.26482 -1e-5,0.10404 -0.0363,0.19389 -0.10877,0.26955 -0.48865,0.4256 -1.064,0.6384 -1.72604,0.6384 -0.7314,0 -1.35561,-0.25852 -1.87263,-0.77554 -0.51703,-0.51702 -0.77554,-1.14124 -0.77554,-1.87264 0,-0.73139 0.25851,-1.35561 0.77554,-1.87263 0.51702,-0.51702 1.14123,-0.77554 1.87263,-0.77554 0.7314,0 1.35561,0.25852 1.87264,0.77554 0.51702,0.51702 0.77553,1.14124 0.77554,1.87263 -10e-6,0.10404 -0.0378,0.19389 -0.1135,0.26955 -0.0725,0.0725 -0.16078,0.10877 -0.26481,0.10876 l -4.12832,0 c 0.0694,0.36255 0.24275,0.68254 0.52018,0.95997 0.36885,0.36885 0.81494,0.55328 1.33827,0.55327 0.47289,10e-6 0.87957,-0.14974 1.22005,-0.44924 0.0694,-0.0536 0.14817,-0.0804 0.23645,-0.0804"
           style="marker:none"
           id="path4036" />
        <path
           d="m -183.50022,-900.71508 c -0.52333,0 -0.96942,0.18443 -1.33827,0.55328 -0.36886,0.36886 -0.55328,0.81495 -0.55328,1.33827 0,0.52333 0.18442,0.96942 0.55328,1.33828 0.36885,0.36885 0.81494,0.55328 1.33827,0.55327 0.52333,10e-6 0.96942,-0.18442 1.33827,-0.55327 0.36885,-0.36886 0.55328,-0.81495 0.55328,-1.33828 0,-0.52332 -0.18443,-0.96941 -0.55328,-1.33827 -0.36885,-0.36885 -0.81494,-0.55328 -1.33827,-0.55328 m 1.89155,3.74527 c -0.006,0.006 -0.0126,0.0126 -0.0189,0.0189 -0.51703,0.51702 -1.14124,0.77554 -1.87264,0.77554 -0.7314,0 -1.35561,-0.25852 -1.87264,-0.77554 -0.51702,-0.51702 -0.77553,-1.14124 -0.77553,-1.87264 0,-0.73139 0.25851,-1.35561 0.77553,-1.87263 0.51703,-0.51702 1.14124,-0.77554 1.87264,-0.77554 0.7314,0 1.35561,0.25852 1.87264,0.77554 0.51702,0.51702 0.77553,1.14124 0.77553,1.87263 l 0,2.64818 c 0,0.5517 -0.19862,1.03089 -0.59584,1.43758 -0.55486,0.55485 -1.22478,0.83228 -2.00977,0.83228 -0.785,0 -1.45335,-0.27743 -2.00505,-0.83228 -0.20492,-0.20177 -0.372,-0.42088 -0.50126,-0.65732 -0.0378,-0.0567 -0.0567,-0.12295 -0.0567,-0.19861 0,-0.10404 0.0362,-0.19389 0.10876,-0.26955 0.0757,-0.0725 0.16551,-0.10876 0.26955,-0.10876 0.10403,0 0.19388,0.0362 0.26954,0.10876 0.0315,0.0347 0.0583,0.0725 0.0804,0.1135 0.0946,0.17023 0.21595,0.32944 0.36413,0.47761 0.40668,0.40668 0.89691,0.61003 1.47068,0.61003 0.57377,0 1.06399,-0.20335 1.47068,-0.61003 0.2522,-0.30265 0.37831,-0.60372 0.37831,-0.90321 l 0,-0.79446"
           style="marker:none"
           id="path4038" />
        <path
           d="m -180.09543,-901.09339 c 0,-0.10403 0.0363,-0.1923 0.10877,-0.26482 0.0757,-0.0757 0.16551,-0.11349 0.26955,-0.11349 0.10403,0 0.1923,0.0378 0.26481,0.11349 0.0757,0.0725 0.11349,0.16079 0.1135,0.26482 l 0,0.41614 c 0.52963,-0.52963 1.16015,-0.79445 1.89155,-0.79445 0.36885,0 0.70775,0.0631 1.01671,0.18915 0.0567,0.0221 0.10876,0.0552 0.15605,0.0993 0.0725,0.0757 0.10876,0.16552 0.10877,0.26955 -1e-5,0.10404 -0.0378,0.19389 -0.1135,0.26954 -0.0725,0.0725 -0.16078,0.10877 -0.26482,0.10877 -0.0599,0 -0.11507,-0.0126 -0.16551,-0.0378 -0.22383,-0.0946 -0.46973,-0.14187 -0.7377,-0.14187 -0.52333,0 -0.96942,0.18443 -1.33828,0.55328 -0.36885,0.36886 -0.55328,0.81495 -0.55327,1.33827 l 0,2.26987 c -1e-5,0.10403 -0.0378,0.19388 -0.1135,0.26954 -0.0725,0.0725 -0.16078,0.10877 -0.26481,0.10877 -0.10404,0 -0.19389,-0.0363 -0.26955,-0.10877 -0.0725,-0.0757 -0.10877,-0.16551 -0.10877,-0.26954 l 0,-4.53973"
           style="marker:none"
           id="path4040" />
        <path
           d="m -172.90753,-900.71508 c -0.52333,0 -0.96942,0.18443 -1.33827,0.55328 -0.36885,0.36886 -0.55328,0.81495 -0.55328,1.33827 0,0.52333 0.18443,0.96942 0.55328,1.33828 0.36885,0.36885 0.81494,0.55328 1.33827,0.55327 0.52333,10e-6 0.96942,-0.18442 1.33828,-0.55327 0.36885,-0.36886 0.55327,-0.81495 0.55328,-1.33828 -1e-5,-0.52332 -0.18443,-0.96941 -0.55328,-1.33827 -0.36886,-0.36885 -0.81495,-0.55328 -1.33828,-0.55328 m 1.89156,3.74527 c -0.52964,0.52964 -1.16016,0.79446 -1.89156,0.79446 -0.7314,0 -1.35561,-0.25852 -1.87263,-0.77554 -0.51703,-0.51702 -0.77554,-1.14124 -0.77554,-1.87264 0,-0.73139 0.25851,-1.35561 0.77554,-1.87263 0.51702,-0.51702 1.14123,-0.77554 1.87263,-0.77554 0.7314,0 1.35561,0.25852 1.87264,0.77554 0.51702,0.51702 0.77553,1.14124 0.77554,1.87263 l 0,2.26987 c -10e-6,0.10403 -0.0378,0.19388 -0.11349,0.26954 -0.0725,0.0725 -0.16079,0.10877 -0.26482,0.10877 -0.10404,0 -0.19389,-0.0363 -0.26955,-0.10877 -0.0725,-0.0757 -0.10877,-0.16551 -0.10876,-0.26954 l 0,-0.41615"
           style="marker:none"
           id="path4042" />
        <path
           d="m -168.74611,-898.82353 c 0,0.52333 0.18442,0.96942 0.55328,1.33828 0.36885,0.36885 0.81494,0.55328 1.33827,0.55327 0.52333,10e-6 0.96942,-0.18442 1.33828,-0.55327 0.36884,-0.36886 0.55327,-0.81495 0.55327,-1.33828 0,-0.52332 -0.18443,-0.96941 -0.55327,-1.33827 -0.36886,-0.36885 -0.81495,-0.55328 -1.33828,-0.55328 -0.52333,0 -0.96942,0.18443 -1.33827,0.55328 -0.36886,0.36886 -0.55328,0.81495 -0.55328,1.33827 m 0,4.53973 c 0,0.10403 -0.0378,0.1923 -0.11349,0.26482 -0.0725,0.0757 -0.16079,0.11349 -0.26482,0.11349 -0.10404,0 -0.19389,-0.0378 -0.26955,-0.11349 -0.0725,-0.0725 -0.10876,-0.16079 -0.10876,-0.26482 l 0,-4.53973 c 0,-0.73139 0.25851,-1.35561 0.77553,-1.87263 0.51703,-0.51702 1.14124,-0.77554 1.87264,-0.77554 0.7314,0 1.35561,0.25852 1.87264,0.77554 0.51702,0.51702 0.77553,1.14124 0.77554,1.87263 -1e-5,0.7314 -0.25852,1.35562 -0.77554,1.87264 -0.51703,0.51702 -1.14124,0.77554 -1.87264,0.77554 -0.7314,0 -1.35561,-0.25852 -1.87264,-0.77554 -0.006,-0.006 -0.0126,-0.0126 -0.0189,-0.0189 l 0,2.68601"
           style="marker:none"
           id="path4044" />
        <path
           d="m -163.44976,-903.36325 c 0,-0.10403 0.0362,-0.1923 0.10876,-0.26482 0.0757,-0.0757 0.16551,-0.11349 0.26955,-0.11349 0.10403,0 0.19231,0.0378 0.26482,0.11349 0.0757,0.0725 0.11349,0.16079 0.11349,0.26482 l 0,2.57724 c 0.47289,-0.45712 1.04035,-0.68569 1.7024,-0.68569 0.6778,0 1.2563,0.24118 1.7355,0.72352 0.48234,0.47919 0.72351,1.05769 0.72352,1.7355 l 0,2.45902 c -1e-5,0.10403 -0.0378,0.19388 -0.1135,0.26954 -0.0725,0.0725 -0.16078,0.10877 -0.26481,0.10877 -0.10404,0 -0.19389,-0.0363 -0.26955,-0.10877 -0.0725,-0.0757 -0.10877,-0.16551 -0.10877,-0.26954 l 0,-2.45902 c 0,-0.46974 -0.16709,-0.87011 -0.50126,-1.20114 -0.33102,-0.33417 -0.7314,-0.50126 -1.20113,-0.50126 -0.46974,0 -0.8717,0.16709 -1.20587,0.50126 -0.33102,0.33103 -0.49653,0.7314 -0.49653,1.20114 l 0,2.45902 c 0,0.10403 -0.0378,0.19388 -0.11349,0.26954 -0.0725,0.0725 -0.16079,0.10877 -0.26482,0.10877 -0.10404,0 -0.19389,-0.0363 -0.26955,-0.10877 -0.0725,-0.0757 -0.10876,-0.16551 -0.10876,-0.26954 l 0,-6.80959"
           style="marker:none"
           id="path4046" />
        <path
           d="m -156.5456,-902.60663 c 0,0.12926 -0.0473,0.24118 -0.14186,0.33575 -0.0914,0.0914 -0.20177,0.13714 -0.33102,0.13714 -0.12926,0 -0.24118,-0.0457 -0.33575,-0.13714 -0.0914,-0.0946 -0.13714,-0.20649 -0.13714,-0.33575 0,-0.12925 0.0457,-0.23959 0.13714,-0.33102 0.0946,-0.0946 0.20649,-0.14186 0.33575,-0.14187 0.12925,10e-6 0.23959,0.0473 0.33102,0.14187 0.0946,0.0914 0.14186,0.20177 0.14186,0.33102 m -0.85119,1.51324 c -1e-5,-0.10403 0.0363,-0.1923 0.10876,-0.26482 0.0757,-0.0757 0.16551,-0.11349 0.26955,-0.11349 0.10403,0 0.1923,0.0378 0.26481,0.11349 0.0757,0.0725 0.11349,0.16079 0.1135,0.26482 l 0,4.53973 c -10e-6,0.10403 -0.0378,0.19388 -0.1135,0.26954 -0.0725,0.0725 -0.16078,0.10877 -0.26481,0.10877 -0.10404,0 -0.19389,-0.0363 -0.26955,-0.10877 -0.0725,-0.0757 -0.10877,-0.16551 -0.10876,-0.26954 l 0,-4.53973"
           style="marker:none"
           id="path4048" />
        <path
           d="m -151.39111,-897.47107 c 0.10403,0 0.1923,0.0378 0.26481,0.1135 0.0757,0.0725 0.11349,0.16078 0.1135,0.26481 -1e-5,0.10404 -0.0394,0.19704 -0.11823,0.27901 -0.48865,0.4256 -1.064,0.6384 -1.72604,0.6384 -0.7314,0 -1.35561,-0.25852 -1.87264,-0.77554 -0.51702,-0.51702 -0.77553,-1.14124 -0.77553,-1.87264 0,-0.73139 0.25851,-1.35561 0.77553,-1.87263 0.51703,-0.51702 1.14124,-0.77554 1.87264,-0.77554 0.66204,0 1.23739,0.2128 1.72604,0.6384 0.0883,0.0788 0.13241,0.17655 0.13241,0.29319 0,0.10404 -0.0378,0.19389 -0.11349,0.26954 -0.0725,0.0725 -0.16079,0.10877 -0.26482,0.10877 -0.0914,0 -0.17182,-0.0284 -0.24117,-0.0851 -0.3531,-0.3121 -0.76608,-0.46816 -1.23897,-0.46816 -0.52333,0 -0.96942,0.18443 -1.33827,0.55328 -0.36886,0.36886 -0.55328,0.81495 -0.55328,1.33827 0,0.52333 0.18442,0.96942 0.55328,1.33828 0.36885,0.36885 0.81494,0.55328 1.33827,0.55327 0.47289,10e-6 0.8843,-0.15447 1.23424,-0.46343 0.0662,-0.0504 0.14344,-0.0757 0.23172,-0.0757"
           style="marker:none"
           id="path4050" />
        <path
           d="m -142.83184,-898.82353 c 0,-0.52332 -0.18443,-0.96941 -0.55328,-1.33827 -0.36885,-0.36885 -0.81494,-0.55328 -1.33827,-0.55328 -0.52333,0 -0.96942,0.18443 -1.33827,0.55328 -0.36886,0.36886 -0.55328,0.81495 -0.55328,1.33827 0,0.52333 0.18442,0.96942 0.55328,1.33828 0.36885,0.36885 0.81494,0.55328 1.33827,0.55327 0.52333,10e-6 0.96942,-0.18442 1.33827,-0.55327 0.36885,-0.36886 0.55328,-0.81495 0.55328,-1.33828 m 0,-4.54918 c 0,-0.10403 0.0362,-0.1923 0.10877,-0.26482 0.0756,-0.0756 0.1655,-0.11348 0.26954,-0.11349 0.10403,1e-5 0.19231,0.0378 0.26482,0.11349 0.0757,0.0725 0.11349,0.16079 0.11349,0.26482 l 0,4.54918 c 0,0.7314 -0.25851,1.35562 -0.77553,1.87264 -0.51703,0.51702 -1.14124,0.77554 -1.87264,0.77554 -0.7314,0 -1.35561,-0.25852 -1.87264,-0.77554 -0.51702,-0.51702 -0.77553,-1.14124 -0.77553,-1.87264 0,-0.73139 0.25851,-1.35561 0.77553,-1.87263 0.51703,-0.51702 1.14124,-0.77554 1.87264,-0.77554 0.7314,0 1.35561,0.25852 1.87264,0.77554 0.006,0.006 0.0126,0.0126 0.0189,0.0189 l 0,-2.69546"
           style="marker:none"
           id="path4052" />
        <path
           d="m -136.81197,-899.20184 c -0.0694,-0.36254 -0.24276,-0.68253 -0.52018,-0.95996 -0.36886,-0.36885 -0.81495,-0.55328 -1.33827,-0.55328 -0.52333,0 -0.96943,0.18443 -1.33828,0.55328 -0.27743,0.27743 -0.45082,0.59742 -0.52017,0.95996 l 3.7169,0 m -0.40196,1.74023 c 0.10403,0 0.19231,0.0378 0.26482,0.11349 0.0757,0.0725 0.11349,0.16079 0.11349,0.26482 0,0.10404 -0.0363,0.19389 -0.10876,0.26955 -0.48866,0.4256 -1.064,0.6384 -1.72604,0.6384 -0.73141,0 -1.35562,-0.25852 -1.87264,-0.77554 -0.51702,-0.51702 -0.77554,-1.14124 -0.77554,-1.87264 0,-0.73139 0.25852,-1.35561 0.77554,-1.87263 0.51702,-0.51702 1.14123,-0.77554 1.87264,-0.77554 0.73139,0 1.35561,0.25852 1.87263,0.77554 0.51702,0.51702 0.77554,1.14124 0.77554,1.87263 0,0.10404 -0.0378,0.19389 -0.11349,0.26955 -0.0725,0.0725 -0.16079,0.10877 -0.26482,0.10876 l -4.12831,0 c 0.0694,0.36255 0.24274,0.68254 0.52017,0.95997 0.36885,0.36885 0.81495,0.55328 1.33828,0.55327 0.47288,10e-6 0.87957,-0.14974 1.22005,-0.44924 0.0693,-0.0536 0.14817,-0.0804 0.23644,-0.0804"
           style="marker:none"
           id="path4054" />
        <path
           d="m -134.32931,-898.82353 c -0.28688,-0.10718 -0.48707,-0.2191 -0.60057,-0.33575 -0.22383,-0.22068 -0.33575,-0.48707 -0.33575,-0.79918 0,-0.3121 0.11665,-0.5848 0.34994,-0.8181 0.45397,-0.46342 1.04666,-0.69514 1.77806,-0.69514 0.7913,0 1.4691,0.31684 2.03342,0.9505 0.0504,0.0599 0.0741,0.13399 0.0709,0.22226 0,0.10404 -0.0378,0.19389 -0.11349,0.26955 -0.0725,0.0725 -0.16079,0.10877 -0.26482,0.10876 -0.10404,10e-6 -0.18758,-0.0331 -0.25063,-0.0993 -0.0631,-0.0662 -0.10877,-0.11349 -0.13714,-0.14187 -0.36885,-0.36885 -0.81494,-0.55328 -1.33827,-0.55328 -0.52333,0 -0.94105,0.16394 -1.25315,0.4918 -0.0757,0.0914 -0.1135,0.2002 -0.1135,0.3263 0.009,0.14817 0.0867,0.24905 0.23172,0.30264 l 2.32661,0.77081 c 0.28688,0.10719 0.48707,0.21911 0.60057,0.33575 0.22383,0.22069 0.33574,0.48708 0.33575,0.79918 -1e-5,0.31211 -0.11665,0.58481 -0.34994,0.8181 -0.45398,0.46343 -1.04666,0.69515 -1.77806,0.69515 -0.79445,0 -1.47226,-0.31684 -2.03342,-0.95051 -0.0473,-0.0662 -0.0709,-0.14029 -0.0709,-0.22226 0,-0.10403 0.0363,-0.1923 0.10876,-0.26481 0.0757,-0.0757 0.16551,-0.1135 0.26955,-0.1135 0.10403,0 0.18758,0.0331 0.25063,0.0993 0.0631,0.0662 0.10876,0.11349 0.13714,0.14187 0.36885,0.36885 0.81494,0.55328 1.33827,0.55327 0.52333,10e-6 0.94105,-0.16393 1.25315,-0.4918 0.0757,-0.0914 0.11349,-0.20019 0.1135,-0.32629 -0.009,-0.14817 -0.0867,-0.24905 -0.23172,-0.30265 l -2.32661,-0.77081"
           style="marker:none"
           id="path4056" />
        <path
           d="m -129.02351,-902.60663 c 0,0.12926 -0.0473,0.24118 -0.14186,0.33575 -0.0914,0.0914 -0.20177,0.13714 -0.33102,0.13714 -0.12926,0 -0.24118,-0.0457 -0.33575,-0.13714 -0.0914,-0.0946 -0.13714,-0.20649 -0.13714,-0.33575 0,-0.12925 0.0457,-0.23959 0.13714,-0.33102 0.0946,-0.0946 0.20649,-0.14186 0.33575,-0.14187 0.12925,10e-6 0.23959,0.0473 0.33102,0.14187 0.0946,0.0914 0.14186,0.20177 0.14186,0.33102 m -0.85119,1.51324 c 0,-0.10403 0.0362,-0.1923 0.10876,-0.26482 0.0757,-0.0757 0.16551,-0.11349 0.26955,-0.11349 0.10403,0 0.1923,0.0378 0.26481,0.11349 0.0757,0.0725 0.1135,0.16079 0.1135,0.26482 l 0,4.53973 c 0,0.10403 -0.0378,0.19388 -0.1135,0.26954 -0.0725,0.0725 -0.16078,0.10877 -0.26481,0.10877 -0.10404,0 -0.19389,-0.0363 -0.26955,-0.10877 -0.0725,-0.0757 -0.10876,-0.16551 -0.10876,-0.26954 l 0,-4.53973"
           style="marker:none"
           id="path4058" />
        <path
           d="m -125.33497,-900.71508 c -0.52334,0 -0.96943,0.18443 -1.33828,0.55328 -0.36885,0.36886 -0.55328,0.81495 -0.55328,1.33827 0,0.52333 0.18443,0.96942 0.55328,1.33828 0.36885,0.36885 0.81494,0.55328 1.33828,0.55327 0.52332,10e-6 0.96941,-0.18442 1.33827,-0.55327 0.36885,-0.36886 0.55327,-0.81495 0.55328,-1.33828 -1e-5,-0.52332 -0.18443,-0.96941 -0.55328,-1.33827 -0.36886,-0.36885 -0.81495,-0.55328 -1.33827,-0.55328 m 1.89155,3.74527 c -0.006,0.006 -0.0126,0.0126 -0.0189,0.0189 -0.51703,0.51702 -1.14124,0.77554 -1.87263,0.77554 -0.73141,0 -1.35562,-0.25852 -1.87264,-0.77554 -0.51703,-0.51702 -0.77554,-1.14124 -0.77554,-1.87264 0,-0.73139 0.25851,-1.35561 0.77554,-1.87263 0.51702,-0.51702 1.14123,-0.77554 1.87264,-0.77554 0.73139,0 1.3556,0.25852 1.87263,0.77554 0.51702,0.51702 0.77553,1.14124 0.77554,1.87263 l 0,2.64818 c -10e-6,0.5517 -0.19862,1.03089 -0.59584,1.43758 -0.55486,0.55485 -1.22478,0.83228 -2.00977,0.83228 -0.785,0 -1.45335,-0.27743 -2.00505,-0.83228 -0.20492,-0.20177 -0.37201,-0.42088 -0.50126,-0.65732 -0.0378,-0.0567 -0.0567,-0.12295 -0.0567,-0.19861 0,-0.10404 0.0363,-0.19389 0.10877,-0.26955 0.0757,-0.0725 0.16551,-0.10876 0.26954,-0.10876 0.10404,0 0.19389,0.0362 0.26955,0.10876 0.0315,0.0347 0.0583,0.0725 0.0804,0.1135 0.0946,0.17023 0.21595,0.32944 0.36412,0.47761 0.40669,0.40668 0.89691,0.61003 1.47069,0.61003 0.57376,0 1.06399,-0.20335 1.47068,-0.61003 0.2522,-0.30265 0.3783,-0.60372 0.37831,-0.90321 l 0,-0.79446"
           style="marker:none"
           id="path4060" />
        <path
           d="m -121.93018,-901.09339 c 0,-0.10403 0.0362,-0.1923 0.10876,-0.26482 0.0757,-0.0757 0.16551,-0.11349 0.26955,-0.11349 0.10403,0 0.1923,0.0378 0.26481,0.11349 0.0757,0.0725 0.1135,0.16079 0.1135,0.26482 l 0,0.30738 c 0.47288,-0.45712 1.04035,-0.68569 1.70239,-0.68569 0.67781,0 1.25631,0.24118 1.7355,0.72352 0.48234,0.47919 0.72352,1.05769 0.72352,1.7355 l 0,2.45902 c 0,0.10403 -0.0378,0.19388 -0.11349,0.26954 -0.0725,0.0725 -0.16079,0.10877 -0.26482,0.10877 -0.10404,0 -0.19389,-0.0363 -0.26954,-0.10877 -0.0725,-0.0757 -0.10877,-0.16551 -0.10877,-0.26954 l 0,-2.45902 c 0,-0.46974 -0.16709,-0.87011 -0.50126,-1.20114 -0.33103,-0.33417 -0.7314,-0.50126 -1.20114,-0.50126 -0.46973,0 -0.87169,0.16709 -1.20586,0.50126 -0.33102,0.33103 -0.49653,0.7314 -0.49653,1.20114 l 0,2.45902 c 0,0.10403 -0.0378,0.19388 -0.1135,0.26954 -0.0725,0.0725 -0.16078,0.10877 -0.26481,0.10877 -0.10404,0 -0.19389,-0.0363 -0.26955,-0.10877 -0.0725,-0.0757 -0.10876,-0.16551 -0.10876,-0.26954 l 0,-4.53973"
           style="marker:none"
           id="path4062" />
        <path
           d="m -111.7489,-899.20184 c -0.0694,-0.36254 -0.24275,-0.68253 -0.52018,-0.95996 -0.36885,-0.36885 -0.81494,-0.55328 -1.33827,-0.55328 -0.52333,0 -0.96942,0.18443 -1.33827,0.55328 -0.27743,0.27743 -0.45083,0.59742 -0.52018,0.95996 l 3.7169,0 m -0.40196,1.74023 c 0.10404,0 0.19231,0.0378 0.26482,0.11349 0.0757,0.0725 0.11349,0.16079 0.1135,0.26482 -10e-6,0.10404 -0.0363,0.19389 -0.10877,0.26955 -0.48865,0.4256 -1.064,0.6384 -1.72604,0.6384 -0.7314,0 -1.35561,-0.25852 -1.87264,-0.77554 -0.51702,-0.51702 -0.77553,-1.14124 -0.77553,-1.87264 0,-0.73139 0.25851,-1.35561 0.77553,-1.87263 0.51703,-0.51702 1.14124,-0.77554 1.87264,-0.77554 0.7314,0 1.35561,0.25852 1.87264,0.77554 0.51702,0.51702 0.77553,1.14124 0.77553,1.87263 0,0.10404 -0.0378,0.19389 -0.11349,0.26955 -0.0725,0.0725 -0.16079,0.10877 -0.26482,0.10876 l -4.12831,0 c 0.0694,0.36255 0.24275,0.68254 0.52018,0.95997 0.36885,0.36885 0.81494,0.55328 1.33827,0.55327 0.47288,10e-6 0.87957,-0.14974 1.22005,-0.44924 0.0694,-0.0536 0.14817,-0.0804 0.23644,-0.0804"
           style="marker:none"
           id="path4064" />
        <path
           d="m -110.20255,-901.09339 c 0,-0.10403 0.0362,-0.1923 0.10876,-0.26482 0.0757,-0.0757 0.16551,-0.11349 0.26955,-0.11349 0.10403,0 0.1923,0.0378 0.26481,0.11349 0.0757,0.0725 0.1135,0.16079 0.1135,0.26482 l 0,0.41614 c 0.52963,-0.52963 1.16015,-0.79445 1.89155,-0.79445 0.36885,0 0.70775,0.0631 1.01671,0.18915 0.0567,0.0221 0.10876,0.0552 0.15605,0.0993 0.0725,0.0757 0.10876,0.16552 0.10877,0.26955 -10e-6,0.10404 -0.0378,0.19389 -0.1135,0.26954 -0.0725,0.0725 -0.16078,0.10877 -0.26481,0.10877 -0.0599,0 -0.11508,-0.0126 -0.16551,-0.0378 -0.22384,-0.0946 -0.46974,-0.14187 -0.73771,-0.14187 -0.52333,0 -0.96942,0.18443 -1.33827,0.55328 -0.36886,0.36886 -0.55328,0.81495 -0.55328,1.33827 l 0,2.26987 c 0,0.10403 -0.0378,0.19388 -0.1135,0.26954 -0.0725,0.0725 -0.16078,0.10877 -0.26481,0.10877 -0.10404,0 -0.19389,-0.0363 -0.26955,-0.10877 -0.0725,-0.0757 -0.10876,-0.16551 -0.10876,-0.26954 l 0,-4.53973"
           style="marker:none"
           id="path4066" />
      </g>
    </g>
  </g>
</svg>