<?xml version="1.0" encoding="UTF-8" standalone="no"?>
<!-- Created with Inkscape (http://www.inkscape.org/) -->

<svg
   xmlns:dc="http://purl.org/dc/elements/1.1/"
   xmlns:cc="http://creativecommons.org/ns#"
   xmlns:rdf="http://www.w3.org/1999/02/22-rdf-syntax-ns#"
   xmlns:svg="http://www.w3.org/2000/svg"
   xmlns="http://www.w3.org/2000/svg"
   xmlns:sodipodi="http://sodipodi.sourceforge.net/DTD/sodipodi-0.dtd"
   xmlns:inkscape="http://www.inkscape.org/namespaces/inkscape"
   width="244.26486"
   height="110.07497"
   id="svg2"
   sodipodi:version="0.32"
   inkscape:version="0.48.4 r9939"
   sodipodi:docname="iune.svg"
   inkscape:output_extension="org.inkscape.output.svg.inkscape"
   version="1.1"
   inkscape:export-filename="/home/koxta/proiektuak/iunetrecet/manuala/iune_txikia.png"
   inkscape:export-xdpi="90"
   inkscape:export-ydpi="90">
  <defs
     id="defs4" />
  <sodipodi:namedview
     id="base"
     pagecolor="#ffffff"
     bordercolor="#666666"
     borderopacity="1.0"
     inkscape:pageopacity="0.0"
     inkscape:pageshadow="2"
     inkscape:zoom="1.4716097"
     inkscape:cx="140.4287"
     inkscape:cy="-9.7320479"
     inkscape:document-units="mm"
     inkscape:current-layer="layer1"
     inkscape:window-width="656"
     inkscape:window-height="1029"
     inkscape:window-x="0"
     inkscape:window-y="19"
     showgrid="false"
     showguides="true"
     inkscape:guide-bbox="true"
     units="px"
     inkscape:snap-page="true"
     inkscape:snap-to-guides="true"
     inkscape:window-maximized="0"
     borderlayer="true"
     fit-margin-top="0"
     fit-margin-left="0"
     fit-margin-right="0"
     fit-margin-bottom="0"
     inkscape:showpageshadow="false"
     showborder="true" />
  <metadata
     id="metadata7">
    <rdf:RDF>
      <cc:Work
         rdf:about="">
        <dc:format>image/svg+xml</dc:format>
        <dc:type
           rdf:resource="http://purl.org/dc/dcmitype/StillImage" />
        <dc:title />
      </cc:Work>
    </rdf:RDF>
  </metadata>
  <g
     inkscape:label="Capa 1"
     inkscape:groupmode="layer"
     id="layer1"
     transform="translate(-27.631361,-848.38807)">
    <path
       inkscape:connector-curvature="0"
       id="path37252-6-1-3-3-6-1"
       style="font-size:226.59182738999999174px;font-style:normal;font-variant:normal;font-weight:normal;font-stretch:normal;text-indent:0;text-align:start;text-decoration:none;line-height:125%;letter-spacing:0px;word-spacing:0px;text-transform:none;direction:ltr;block-progression:tb;writing-mode:lr-tb;text-anchor:start;color:#000000;fill:#000000;fill-opacity:1;fill-rule:nonzero;stroke:none;stroke-width:1px;marker:none;visibility:visible;font-family:Comfortaa;-inkscape-font-specification:Comfortaa"
       d="m 246.13157,922.93934 c 3.84795,-0.73591 7.2442,-2.5758 10.1888,-5.51951 3.91485,-3.91391 5.8723,-8.64735 5.87237,-14.20042 -7e-5,-5.55307 -1.95752,-10.28656 -5.87237,-14.20032 -2.9446,-2.94386 -6.34085,-4.78375 -10.1888,-5.51966 l 0,39.43991 m -18.47035,-4.26509 c -2e-5,1.10382 -0.40155,2.0406 -1.20457,2.80994 -0.76961,0.80289 -1.70652,1.20433 -2.8107,1.20433 -1.10421,0 -2.05786,-0.38474 -2.86091,-1.15406 -4.5172,-5.18519 -6.7758,-11.29017 -6.7758,-18.31505 0,-7.76086 2.74378,-14.38434 8.23136,-19.87045 5.48754,-5.48611 12.11276,-8.22925 19.87568,-8.22925 7.76286,0 14.38809,2.74314 19.87568,8.22925 5.48751,5.48611 8.23129,12.10959 8.23134,19.87045 -5e-5,7.7608 -2.74383,14.38428 -8.23134,19.87055 -5.48759,5.48613 -12.11282,8.22909 -19.87568,8.22909 -1.10424,0 -2.05786,-0.40144 -2.86091,-1.20418 -0.76961,-0.76946 -1.15439,-1.70612 -1.15439,-2.80994 l 0,-43.8055 c -3.84802,0.73591 -7.24427,2.5758 -10.18879,5.51966 -3.91494,3.91376 -5.87239,8.64725 -5.87239,14.20032 0,5.01787 1.5894,9.333 4.76817,12.946 0.56882,0.73592 0.85323,1.57219 0.85325,2.50884" />
    <path
       style="font-size:226.59182738999999174px;font-style:normal;font-variant:normal;font-weight:normal;font-stretch:normal;text-indent:0;text-align:start;text-decoration:none;line-height:125%;letter-spacing:0px;word-spacing:0px;text-transform:none;direction:ltr;block-progression:tb;writing-mode:lr-tb;text-anchor:start;color:#000000;fill:#000000;fill-opacity:1;fill-rule:nonzero;stroke:none;stroke-width:1px;marker:none;visibility:visible;font-family:Comfortaa;-inkscape-font-specification:Comfortaa"
       d="m 201.96128,931.32574 c 0.96021,0 1.79384,-0.31317 2.52631,-0.92026 0.1015,-0.0874 0.18213,-0.19931 0.27832,-0.29967 0.40151,-0.38472 0.71985,-0.79444 0.92061,-1.26286 0.1924,-0.4684 0.29974,-0.98911 0.29974,-1.54102 l 0,-26.09133 c 0,-7.19224 -2.55712,-13.35352 -7.64318,-18.47161 -0.12718,-0.12717 -0.25682,-0.24062 -0.38537,-0.36389 l 0,0.0223 c -0.62738,-0.6063 -1.2895,-1.18174 -1.94827,-1.71232 -0.32938,-0.26531 -0.64761,-0.52423 -0.98483,-0.77061 -0.33721,-0.24619 -0.68259,-0.4789 -1.02767,-0.70618 -0.69011,-0.45487 -1.39802,-0.86253 -2.11952,-1.24156 -0.36075,-0.18942 -0.72329,-0.36453 -1.09188,-0.53504 -0.35106,-0.1617 -0.71247,-0.3262 -1.07047,-0.47094 -0.0559,-0.0223 -0.11511,-0.0415 -0.17128,-0.0636 -0.33589,-0.13363 -0.68558,-0.2672 -1.02767,-0.3852 -0.32437,-0.11136 -0.65498,-0.22315 -0.98482,-0.32113 -0.0568,-0.0176 -0.11425,-0.0254 -0.17128,-0.0428 -0.34589,-0.10015 -0.6972,-0.19294 -1.04907,-0.27834 -0.30209,-0.0731 -0.59268,-0.15115 -0.89919,-0.21393 -0.52369,-0.10643 -1.06915,-0.1818 -1.60571,-0.25686 -0.0291,0 -0.0566,-0.0176 -0.0857,-0.0223 -0.78822,-0.10814 -1.58187,-0.19564 -2.39787,-0.23538 -0.0435,0 -0.0848,0 -0.12837,0 -0.43454,-0.019 -0.86359,-0.0223 -1.30598,-0.0223 -0.51983,0 -1.03265,0.017 -1.54148,0.0428 -0.78574,0.0415 -1.5523,0.10966 -2.31223,0.21409 -0.45468,0.062 -0.90334,0.12888 -1.3488,0.21392 -0.0517,0.017 -0.0982,0.0333 -0.14995,0.0429 -0.31445,0.062 -0.63221,0.11935 -0.94203,0.1926 -0.0501,0.017 -0.0998,0.0303 -0.14996,0.0428 -0.19359,0.0477 -0.38627,0.0986 -0.57806,0.14946 -0.55063,0.14791 -1.09167,0.30745 -1.6271,0.49227 -0.3421,0.11766 -0.69178,0.25225 -1.02767,0.38522 -0.0415,0.017 -0.0872,0.0254 -0.12837,0.0428 -0.0153,0 -0.028,0.017 -0.0427,0.0207 -0.34657,0.13993 -0.68774,0.29314 -1.02767,0.44949 -0.0153,0 -0.0284,0.017 -0.0427,0.0223 -0.0785,0.0366 -0.15744,0.0699 -0.2355,0.10644 -0.28536,0.13516 -0.57568,0.28121 -0.85638,0.42816 -0.72151,0.37886 -1.42941,0.78666 -2.11954,1.2414 -0.34504,0.22727 -0.69043,0.45995 -1.02767,0.70632 -0.33722,0.24622 -0.65543,0.50531 -0.98484,0.77045 -0.65875,0.5306 -1.29944,1.10603 -1.92684,1.71233 l 0,-0.0428 c -0.13601,0.1304 -0.27224,0.25161 -0.40677,0.38521 -5.08608,5.11822 -7.62178,11.27936 -7.62176,18.47159 l 0,26.09133 c 2e-5,0.414 0.0369,0.81036 0.14995,1.17728 0.18824,0.61156 0.5472,1.1458 1.04909,1.6266 0.18816,0.19628 0.36989,0.38682 0.57805,0.53521 0.005,0 0.017,0 0.0216,0 0.10184,0.0716 0.21453,0.15422 0.32115,0.21393 0.005,0 0.017,0 0.0216,0 0.55942,0.31366 1.17251,0.47094 1.8626,0.47094 0.13805,0 0.27346,-0.017 0.40679,-0.0223 0.39838,-0.0383 0.78338,-0.12717 1.13471,-0.27832 0.35243,-0.14793 0.67353,-0.36265 0.98484,-0.62063 0.1015,-0.0874 0.18211,-0.19929 0.27832,-0.29963 0.40152,-0.38475 0.71985,-0.79445 0.92061,-1.26287 0.20076,-0.4684 0.29971,-0.98913 0.29972,-1.54102 l 0,-26.09133 c 0,-0.31158 0.009,-0.61441 0.0216,-0.92043 0.0275,-0.6117 0.0677,-1.20861 0.14996,-1.79791 0.0831,-0.58927 0.20399,-1.16678 0.34256,-1.73363 0.13721,-0.56687 0.30026,-1.12512 0.4924,-1.66957 0.19214,-0.54443 0.41667,-1.08344 0.66372,-1.60527 0.86459,-1.82671 2.05968,-3.52138 3.59677,-5.07275 0.66504,-0.65862 1.36112,-1.24139 2.07672,-1.77644 0.005,0 0.017,0 0.0216,0 0.47258,-0.35276 0.93983,-0.70712 1.43443,-1.00598 2.7355,-1.66637 5.83641,-2.48294 9.27032,-2.48294 2.17394,0 4.20134,0.33815 6.10169,1.00599 0.007,0 0.017,0 0.0216,0 0.26605,0.0939 0.53145,0.21409 0.79214,0.32112 0.007,0 0.017,0 0.0216,0 0.26059,0.1066 0.51555,0.22203 0.77075,0.34245 0.005,0 0.017,0 0.0216,0 0.25524,0.12088 0.49951,0.25129 0.74934,0.38521 0.005,0 0.017,0 0.0216,0 0.24992,0.13364 0.48339,0.28073 0.72794,0.42817 0.005,0 0.017,0 0.0216,0 0.24478,0.14792 0.48852,0.33113 0.72792,0.49227 0.005,0 0.017,0 0.0216,0 0.97663,0.65863 1.89654,1.41205 2.78323,2.29015 1.97627,1.99465 3.39586,4.22835 4.26049,6.67802 0.0961,0.27216 0.19597,0.53554 0.2783,0.81339 0.16476,0.55556 0.297,1.13419 0.40679,1.71234 0.2196,1.15613 0.34255,2.34964 0.34255,3.59581 l 0,26.09133 c 0,0.41384 0.0369,0.81019 0.14997,1.17712 0.18822,0.61154 0.54718,1.14579 1.04906,1.62677 0.18816,0.19625 0.36992,0.38679 0.57808,0.53504 0.005,0 0.017,0 0.0216,0 0.10184,0.0716 0.21452,0.1542 0.32114,0.21407 0.005,0 0.017,0 0.0216,0 0.55942,0.31366 1.17249,0.47079 1.86262,0.47079 z"
       id="path37254-7-6-8-2-0-4"
       inkscape:connector-curvature="0" />
    <path
       style="font-size:226.59182738999999174px;font-style:normal;font-variant:normal;font-weight:normal;font-stretch:normal;text-indent:0;text-align:start;text-decoration:none;line-height:125%;letter-spacing:0px;word-spacing:0px;text-transform:none;direction:ltr;block-progression:tb;writing-mode:lr-tb;text-anchor:start;color:#000000;fill:#000000;fill-opacity:1;fill-rule:nonzero;stroke:none;stroke-width:1px;marker:none;visibility:visible;font-family:Comfortaa;-inkscape-font-specification:Comfortaa"
       d="m 119.64185,931.32574 c 0.89924,0 1.78845,-0.0477 2.65477,-0.12888 0.40179,-0.0366 0.80419,-0.0749 1.19894,-0.12887 0.0289,0 0.0568,-0.0176 0.0857,-0.0223 0.80122,-0.11306 1.58308,-0.26657 2.35507,-0.44947 0.22184,-0.0524 0.44428,-0.11291 0.66369,-0.17114 0.23399,-0.062 0.4753,-0.12258 0.70651,-0.19261 0.40021,-0.11935 0.78552,-0.24541 1.17753,-0.38537 0.78398,-0.27993 1.56119,-0.60327 2.31221,-0.96306 0.3755,-0.18004 0.746,-0.35658 1.11332,-0.55652 0.36727,-0.19992 0.73283,-0.42226 1.09186,-0.64224 1.79526,-1.09951 3.48465,-2.44588 5.07405,-4.04528 5.11944,-5.08467 7.66456,-11.21525 7.66459,-18.4073 l 0,-26.09137 c -2e-5,-0.41383 -0.0369,-0.80558 -0.14996,-1.17713 -0.18822,-0.61934 -0.54718,-1.18921 -1.04907,-1.69086 -0.18817,-0.18814 -0.3699,-0.37169 -0.57805,-0.51372 -0.005,0 -0.017,0 -0.0216,0 -0.10491,-0.0686 -0.21207,-0.13517 -0.32113,-0.19262 -0.005,0 -0.017,0 -0.0216,0 -0.10864,-0.0556 -0.20819,-0.10508 -0.32113,-0.14962 -0.47349,-0.19753 -0.98217,-0.29965 -1.5415,-0.29965 -0.13805,0 -0.27344,0.017 -0.40676,0.0207 -0.80188,0.0731 -1.52969,0.34531 -2.14097,0.85618 -0.0972,0.0811 -0.1644,0.18575 -0.2569,0.27833 -0.40153,0.40144 -0.71985,0.82898 -0.92059,1.30565 -0.20077,0.47666 -0.29975,1.01044 -0.29975,1.5625 l 0,26.09121 c 0,0.31159 -0.009,0.61474 -0.0216,0.92041 -0.0554,1.2231 -0.2153,2.40056 -0.4924,3.53157 -0.13737,0.56552 -0.30031,1.12697 -0.49243,1.66949 -0.19215,0.54253 -0.41666,1.06437 -0.6637,1.58399 -0.86461,1.8184 -2.05968,3.4932 -3.5968,5.02979 -0.44333,0.44327 -0.90435,0.85363 -1.37019,1.24155 -0.23752,0.19769 -0.48454,0.39445 -0.72791,0.57783 -0.47258,0.35595 -0.93983,0.68295 -1.43444,0.98453 -0.49954,0.30472 -1.01943,0.58545 -1.54149,0.83483 -0.51376,0.24654 -1.04803,0.4711 -1.58431,0.66355 -0.27224,0.097 -0.55706,0.19502 -0.83495,0.2782 -1.66259,0.49862 -3.43995,0.74911 -5.30956,0.74911 -2.18123,0 -4.21726,-0.34863 -6.12311,-1.02731 -0.81404,-0.29089 -1.59276,-0.63332 -2.35503,-1.04892 -0.005,0 -0.017,0 -0.0216,0 -0.24864,-0.13516 -0.48478,-0.30029 -0.72793,-0.44946 -0.005,0 -0.017,0 -0.0216,0 -0.24314,-0.14963 -0.49029,-0.30811 -0.72791,-0.4708 -0.005,0 -0.017,0 -0.0216,0 -0.97662,-0.66483 -1.89653,-1.44656 -2.78324,-2.33311 -1.31751,-1.31708 -2.38796,-2.73519 -3.21142,-4.25936 -0.41172,-0.76199 -0.76084,-1.54056 -1.04906,-2.35442 -0.097,-0.27118 -0.19519,-0.55763 -0.27832,-0.83469 -0.16475,-0.5541 -0.29699,-1.11378 -0.40676,-1.69082 -0.22171,-1.15407 -0.34257,-2.3498 -0.34259,-3.59596 l 0,-26.09121 c 2e-5,-0.27612 -0.017,-0.55621 -0.0643,-0.81339 -0.15064,-0.77153 -0.53241,-1.45259 -1.13469,-2.05476 -0.18817,-0.18816 -0.3699,-0.37153 -0.578061,-0.51374 -0.0051,0 -0.017,0 -0.02159,0 -0.104903,-0.0684 -0.212069,-0.13516 -0.321138,-0.1926 -0.0051,0 -0.017,0 -0.02159,0 -0.56772,-0.29424 -1.179714,-0.44948 -1.862641,-0.44948 -0.138057,0 -0.273446,0.017 -0.40676,0.0223 -0.801875,0.0731 -1.529688,0.34515 -2.14095,0.85618 -0.09725,0.0811 -0.164412,0.18576 -0.256921,0.27817 -0.401523,0.40144 -0.719838,0.82897 -0.920617,1.30565 -0.200762,0.47666 -0.299698,1.01044 -0.299715,1.56251 l 0,26.09135 c 3.4e-5,7.19205 2.566549,13.32248 7.685983,18.40713 0.63578,0.63987 1.27959,1.23823 1.94826,1.79807 0.66872,0.5597 1.35368,1.08265 2.05531,1.56236 0.35081,0.23999 0.71144,0.46507 1.07047,0.68503 0.35908,0.21996 0.72462,0.44215 1.09189,0.64209 0.3673,0.19991 0.73777,0.37662 1.11329,0.55651 0.37552,0.17989 0.75098,0.35372 1.1347,0.51372 0.38378,0.15999 0.78554,0.30952 1.17754,0.44947 0.39199,0.13993 0.77729,0.26531 1.17753,0.38522 0.25906,0.078 0.52961,0.14469 0.79215,0.21409 0.14553,0.0383 0.28147,0.0923 0.42818,0.12888 0.0418,0.017 0.0865,0.017 0.12837,0.0223 0.36495,0.0859 0.74179,0.16475 1.11328,0.23538 0.72215,0.1384 1.45829,0.24257 2.20518,0.32114 0.11646,0.017 0.22554,0.0318 0.34253,0.0428 0.0153,9.8e-4 0.0286,-0.002 0.0427,0 0.41646,0.0366 0.83911,0.0668 1.26317,0.0858 0.007,3e-4 0.0153,-3.1e-4 0.0216,0 0.43133,0.019 0.8668,0.0428 1.30597,0.0428 z"
       id="path37256-2-8-4-2-6-1"
       inkscape:connector-curvature="0" />
    <path
       inkscape:connector-curvature="0"
       id="path37258-8-6-9-6-9-9"
       style="font-size:226.59182738999999174px;font-style:normal;font-variant:normal;font-weight:normal;font-stretch:normal;text-indent:0;text-align:start;text-decoration:none;line-height:125%;letter-spacing:0px;word-spacing:0px;text-transform:none;direction:ltr;block-progression:tb;writing-mode:lr-tb;text-anchor:start;color:#000000;fill:#000000;fill-opacity:1;fill-rule:nonzero;stroke:none;stroke-width:1px;marker:none;visibility:visible;font-family:Comfortaa;-inkscape-font-specification:Comfortaa"
       d="m 53.397598,883.49943 c -3.84797,0.73608 -7.244226,2.57597 -10.188819,5.51966 -3.914856,3.91393 -5.872302,8.6474 -5.872353,14.20032 5.1e-5,5.55307 1.957497,10.28651 5.872353,14.20042 2.944593,2.94386 6.340849,4.7836 10.188819,5.51951 l 0,-39.43991 m 18.470333,4.26524 c 1.7e-5,-1.10395 0.401541,-2.04062 1.204588,-2.81009 0.769588,-0.80272 1.706494,-1.20416 2.810684,-1.20416 1.104241,0 2.057861,0.38472 2.860908,1.15406 4.517211,5.18502 6.775799,11.29001 6.775799,18.31493 0,7.76096 -2.74378,14.38444 -8.231357,19.87055 -5.487526,5.48613 -12.11277,8.22925 -19.875665,8.22909 -7.762862,1.6e-4 -14.388107,-2.74296 -19.8757,-8.22909 -5.487509,-5.48611 -8.231289,-12.10959 -8.231357,-19.87055 6.8e-5,-7.76086 2.743848,-14.38434 8.231357,-19.87045 5.487593,-5.48611 12.112838,-8.22909 19.8757,-8.22925 1.104224,1.6e-4 2.05786,0.40145 2.860891,1.20432 0.769621,0.76948 1.154414,1.70616 1.154398,2.80994 l 0,43.80537 c 3.848003,-0.73591 7.24426,-2.57565 10.188802,-5.51951 3.914924,-3.91391 5.872353,-8.64735 5.872353,-14.20042 0,-5.0177 -1.589365,-9.33306 -4.768145,-12.94589 -0.568826,-0.73593 -0.853239,-1.5722 -0.853256,-2.50885" />
    <path
       style="color:#000000;fill:#d40000;fill-opacity:1;fill-rule:nonzero;stroke:none;stroke-width:2;marker:none;visibility:visible;display:inline;overflow:visible;enable-background:accumulate"
       d="m 49.818722,856.73414 c 0,-4.19308 3.400031,-7.59222 7.594166,-7.59222 4.194135,0 7.594148,3.39914 7.594148,7.59222 0,4.19303 -3.400013,7.59217 -7.594148,7.59217 -4.194135,0 -7.594166,-3.39914 -7.594166,-7.59217 z"
       id="path37292-0-7-4-5-7-4-7"
       inkscape:connector-curvature="0" />
    <path
       id="path3576-5-9-1"
       style="font-size:8.73411083px;font-style:normal;font-variant:normal;font-weight:normal;font-stretch:normal;text-indent:0;text-align:start;text-decoration:none;line-height:125%;letter-spacing:0px;word-spacing:0px;text-transform:none;direction:ltr;block-progression:tb;writing-mode:lr-tb;text-anchor:start;color:#000000;fill:#d40000;fill-opacity:1;fill-rule:nonzero;stroke:none;stroke-width:1px;marker:none;visibility:visible;font-family:Comfortaa;-inkscape-font-specification:Comfortaa"
       d="m 100.14794,856.97472 c 0,-0.73895 -0.260477,-1.36882 -0.781443,-1.88967 -0.520982,-0.52082 -1.151028,-0.78124 -1.890183,-0.78124 -0.739143,0 -1.369187,0.26042 -1.890172,0.78124 -0.520963,0.52085 -0.78144,1.15072 -0.78144,1.88967 0,0.73897 0.260477,1.36885 0.78144,1.8897 0.520985,0.52083 1.151029,0.78123 1.890172,0.78123 0.739155,0 1.369201,-0.2604 1.890183,-0.78123 0.520966,-0.52085 0.781443,-1.15073 0.781443,-1.8897 m 0,-6.42356 c 0,-0.14698 0.0512,-0.27153 0.15363,-0.37392 0.10684,-0.10683 0.23376,-0.16023 0.38072,-0.16023 0.14683,0 0.27162,0.0534 0.37402,0.16023 0.10685,0.10242 0.16027,0.22703 0.16027,0.37392 l 0,6.42356 c -10e-6,1.03278 -0.36513,1.91418 -1.09537,2.64425 -0.730238,0.73003 -1.611868,1.09505 -2.644915,1.09505 -1.033028,0 -1.914662,-0.36502 -2.644897,-1.09505 -0.730237,-0.73007 -1.095357,-1.61147 -1.095357,-2.64425 0,-1.03276 0.36512,-1.91415 1.095357,-2.64422 0.730235,-0.73004 1.611869,-1.09506 2.644897,-1.09506 1.033047,0 1.914677,0.36502 2.644915,1.09506 0.01,0.01 0.0178,0.0177 0.0267,0.0266 l 0,-3.80605"
       inkscape:connector-curvature="0" />
    <path
       id="path3578-8-0-7"
       style="font-size:8.73411083px;font-style:normal;font-variant:normal;font-weight:normal;font-stretch:normal;text-indent:0;text-align:start;text-decoration:none;line-height:125%;letter-spacing:0px;word-spacing:0px;text-transform:none;direction:ltr;block-progression:tb;writing-mode:lr-tb;text-anchor:start;color:#000000;fill:#d40000;fill-opacity:1;fill-rule:nonzero;stroke:none;stroke-width:1px;marker:none;visibility:visible;font-family:Comfortaa;-inkscape-font-specification:Comfortaa"
       d="m 104.02179,851.63288 c 0,0.18251 -0.0667,0.34057 -0.20036,0.47409 -0.12902,0.12916 -0.28499,0.19365 -0.46754,0.19365 -0.18257,0 -0.34063,-0.0646 -0.4742,-0.19365 -0.12903,-0.13352 -0.1937,-0.29158 -0.1937,-0.47409 0,-0.18251 0.0646,-0.3383 0.1937,-0.46742 0.13356,-0.13351 0.29163,-0.20032 0.4742,-0.20032 0.18255,0 0.33841,0.0669 0.46754,0.20032 0.13356,0.12902 0.20036,0.28491 0.20036,0.46742 m -1.20222,2.13675 c 0,-0.1468 0.0512,-0.27156 0.15362,-0.37393 0.10685,-0.10683 0.23379,-0.16023 0.38071,-0.16023 0.14683,0 0.27161,0.0534 0.37402,0.16023 0.10685,0.10243 0.16027,0.22704 0.16027,0.37393 l 0,6.41021 c 0,0.14679 -0.0535,0.27379 -0.16027,0.38062 -0.10247,0.10243 -0.22707,0.15359 -0.37402,0.15359 -0.14683,0 -0.27383,-0.0512 -0.38071,-0.15359 -0.10247,-0.10683 -0.15362,-0.2337 -0.15362,-0.38062 l 0,-6.41021"
       inkscape:connector-curvature="0" />
    <path
       id="path3580-2-3-9"
       style="font-size:8.73411083px;font-style:normal;font-variant:normal;font-weight:normal;font-stretch:normal;text-indent:0;text-align:start;text-decoration:none;line-height:125%;letter-spacing:0px;word-spacing:0px;text-transform:none;direction:ltr;block-progression:tb;writing-mode:lr-tb;text-anchor:start;color:#000000;fill:#d40000;fill-opacity:1;fill-rule:nonzero;stroke:none;stroke-width:1px;marker:none;visibility:visible;font-family:Comfortaa;-inkscape-font-specification:Comfortaa"
       d="m 106.81364,856.97472 c -0.4052,-0.1513 -0.68796,-0.30936 -0.84824,-0.47409 -0.31614,-0.31159 -0.47421,-0.68775 -0.47421,-1.12845 0,-0.44069 0.16475,-0.82576 0.49424,-1.15518 0.64118,-0.65437 1.47829,-0.98156 2.51133,-0.98156 1.11763,0 2.07496,0.44737 2.87198,1.34214 0.0712,0.0845 0.10458,0.18918 0.10021,0.31382 0,0.14695 -0.0535,0.2738 -0.16026,0.38062 -0.10248,0.10243 -0.2271,0.1536 -0.37403,0.1536 -0.14683,0 -0.26494,-0.0467 -0.35399,-0.14034 -0.0891,-0.0936 -0.15363,-0.16021 -0.19369,-0.20032 -0.52097,-0.52085 -1.15102,-0.78124 -1.89017,-0.78124 -0.73915,0 -1.32915,0.23148 -1.76994,0.69442 -0.10685,0.12917 -0.16027,0.2827 -0.16027,0.46074 0.0146,0.20922 0.12255,0.35168 0.32729,0.42735 l 3.28609,1.08839 c 0.40519,0.15133 0.68794,0.30942 0.84824,0.47409 0.31613,0.31162 0.4742,0.68777 0.47422,1.12847 -2e-5,0.44073 -0.16476,0.82577 -0.49426,1.15519 -0.64119,0.65436 -1.4783,0.98156 -2.51132,0.98156 -1.12209,0 -2.07941,-0.44737 -2.872,-1.34214 -0.0667,-0.0935 -0.10021,-0.19808 -0.10021,-0.31382 0,-0.14698 0.0512,-0.27156 0.15364,-0.37393 0.10683,-0.10683 0.23375,-0.16022 0.3807,-0.16022 0.14683,0 0.26493,0.0467 0.35397,0.14031 0.0891,0.0935 0.15364,0.16022 0.1937,0.20031 0.52097,0.52085 1.15104,0.78124 1.89018,0.78124 0.73915,0 1.32912,-0.23144 1.76995,-0.69442 0.10684,-0.12899 0.16027,-0.2827 0.16027,-0.46074 -0.0146,-0.20923 -0.12239,-0.35168 -0.32727,-0.42736 l -3.2861,-1.08838"
       inkscape:connector-curvature="0" />
    <path
       id="path3582-1-5-6"
       style="font-size:8.73411083px;font-style:normal;font-variant:normal;font-weight:normal;font-stretch:normal;text-indent:0;text-align:start;text-decoration:none;line-height:125%;letter-spacing:0px;word-spacing:0px;text-transform:none;direction:ltr;block-progression:tb;writing-mode:lr-tb;text-anchor:start;color:#000000;fill:#d40000;fill-opacity:1;fill-rule:nonzero;stroke:none;stroke-width:1px;marker:none;visibility:visible;font-family:Comfortaa;-inkscape-font-specification:Comfortaa"
       d="m 118.93612,856.44056 c -0.0979,-0.51194 -0.34286,-0.96378 -0.7347,-1.35551 -0.52097,-0.52082 -1.15103,-0.78124 -1.89017,-0.78124 -0.73916,0 -1.3692,0.26042 -1.89017,0.78124 -0.39182,0.39173 -0.63674,0.84357 -0.73468,1.35551 l 5.24972,0 m -0.56771,2.45724 c 0.14683,0 0.2716,0.0534 0.37403,0.16023 0.10685,0.10242 0.16027,0.227 0.16027,0.37392 -1e-5,0.14681 -0.0512,0.27377 -0.15363,0.38063 -0.69019,0.60093 -1.50279,0.90141 -2.43786,0.90141 -1.03303,0 -1.91467,-0.36502 -2.6449,-1.09505 -0.73023,-0.73007 -1.09537,-1.61147 -1.09537,-2.64425 0,-1.03276 0.36514,-1.91415 1.09537,-2.64422 0.73023,-0.73004 1.61187,-1.09506 2.6449,-1.09506 1.03303,0 1.91466,0.36502 2.64491,1.09506 0.73022,0.73007 1.09535,1.61146 1.09537,2.64422 -2e-5,0.14698 -0.0534,0.27379 -0.16026,0.38059 -0.10248,0.10246 -0.2271,0.15359 -0.37403,0.15359 l -5.8308,0 c 0.0979,0.51197 0.34286,0.96378 0.73468,1.35552 0.52098,0.52083 1.15102,0.78123 1.89017,0.78123 0.66792,0 1.2423,-0.21143 1.7232,-0.63435 0.0979,-0.0756 0.20928,-0.11344 0.33396,-0.11344"
       inkscape:connector-curvature="0" />
    <path
       id="path3584-22-6-0"
       style="font-size:8.73411083px;font-style:normal;font-variant:normal;font-weight:normal;font-stretch:normal;text-indent:0;text-align:start;text-decoration:none;line-height:125%;letter-spacing:0px;word-spacing:0px;text-transform:none;direction:ltr;block-progression:tb;writing-mode:lr-tb;text-anchor:start;color:#000000;fill:#d40000;fill-opacity:1;fill-rule:nonzero;stroke:none;stroke-width:1px;marker:none;visibility:visible;font-family:Comfortaa;-inkscape-font-specification:Comfortaa"
       d="m 122.85672,851.63288 c 0,0.18251 -0.0667,0.34057 -0.20037,0.47409 -0.12902,0.12916 -0.28496,0.19365 -0.46753,0.19365 -0.18257,0 -0.34064,-0.0646 -0.47421,-0.19365 -0.12902,-0.13352 -0.19369,-0.29158 -0.19369,-0.47409 0,-0.18251 0.0646,-0.3383 0.19369,-0.46742 0.13355,-0.13351 0.29164,-0.20032 0.47421,-0.20032 0.18257,0 0.33841,0.0669 0.46753,0.20032 0.13355,0.12902 0.20037,0.28491 0.20037,0.46742 m -1.20222,2.13675 c 0,-0.1468 0.0512,-0.27156 0.15363,-0.37393 0.10684,-0.10683 0.23378,-0.16023 0.38073,-0.16023 0.14683,0 0.27161,0.0534 0.37402,0.16023 0.10684,0.10243 0.16027,0.22704 0.16027,0.37393 l 0,6.41021 c 0,0.14679 -0.0535,0.27379 -0.16027,0.38062 -0.10247,0.10243 -0.22708,0.15359 -0.37402,0.15359 -0.147,0 -0.27385,-0.0512 -0.38073,-0.15359 -0.10247,-0.10683 -0.15363,-0.2337 -0.15363,-0.38062 l 0,-6.41021"
       inkscape:connector-curvature="0" />
    <path
       style="font-size:8.73411083px;font-style:normal;font-variant:normal;font-weight:normal;font-stretch:normal;text-indent:0;text-align:start;text-decoration:none;line-height:125%;letter-spacing:0px;word-spacing:0px;text-transform:none;direction:ltr;block-progression:tb;writing-mode:lr-tb;text-anchor:start;color:#000000;fill:#d40000;fill-opacity:1;fill-rule:nonzero;stroke:none;stroke-width:1px;marker:none;visibility:visible;font-family:Comfortaa;-inkscape-font-specification:Comfortaa"
       d="m 130.75408,860.73281 c 0.14683,0 0.24725,-0.0493 0.35414,-0.15167 0.10246,-0.10679 0.15168,-0.25769 0.15168,-0.40461 l 0,-3.48974 c -2e-5,-0.95708 -0.33054,-1.75105 -1.01179,-2.42769 -0.0167,-0.0169 -0.0336,-0.0341 -0.0507,-0.0507 -0.16696,-0.16135 -0.32221,-0.28358 -0.50589,-0.40461 -0.18674,-0.1277 -0.35221,-0.21831 -0.55648,-0.30345 -0.0129,-0.005 -0.0372,0.005 -0.0507,0 -0.39656,-0.15845 -0.80289,-0.25289 -1.26473,-0.25289 -0.23934,0 -0.48646,0.008 -0.70826,0.0507 -0.43415,0.0808 -0.84681,0.26369 -1.21415,0.50575 -0.16825,0.11506 -0.35187,0.25501 -0.50589,0.40462 -0.0169,0.0166 -0.0338,0.0336 -0.0507,0.0506 -0.68126,0.67663 -1.01178,1.47057 -1.0118,2.42765 l 0,3.48977 c 2e-5,0.14679 0.0449,0.29779 0.1517,0.40462 0.10246,0.10242 0.25779,0.15163 0.40471,0.15163 0.0735,0 0.1389,-0.0248 0.20236,-0.0507 0.0623,-0.0257 0.10053,-0.0498 0.15169,-0.10116 0.10685,-0.1068 0.15168,-0.25779 0.15168,-0.40459 l 0,-3.48978 c 0,-0.66326 0.24071,-1.20158 0.70826,-1.66899 0.35398,-0.35392 0.75245,-0.56902 1.21415,-0.65751 0.15362,-0.0294 0.34001,-0.0507 0.50589,-0.0507 0.66346,0 1.19747,0.23621 1.66946,0.70807 0.11687,0.11684 0.21587,0.22492 0.30353,0.35402 0.0886,0.12915 0.19396,0.26328 0.25295,0.40462 0.11687,0.28268 0.15168,0.57872 0.15168,0.91038 l 0,3.48975 c 0,0.1468 0.0449,0.29778 0.15168,0.40462 0.10248,0.10246 0.25777,0.15163 0.40472,0.15163 z"
       id="path3586-0-8-1"
       inkscape:connector-curvature="0" />
    <path
       id="path3588-70-8-0"
       style="font-size:8.73411083px;font-style:normal;font-variant:normal;font-weight:normal;font-stretch:normal;text-indent:0;text-align:start;text-decoration:none;line-height:125%;letter-spacing:0px;word-spacing:0px;text-transform:none;direction:ltr;block-progression:tb;writing-mode:lr-tb;text-anchor:start;color:#000000;fill:#d40000;fill-opacity:1;fill-rule:nonzero;stroke:none;stroke-width:1px;marker:none;visibility:visible;font-family:Comfortaa;-inkscape-font-specification:Comfortaa"
       d="m 136.08124,854.30381 c -0.73913,0 -1.3692,0.26042 -1.89017,0.78124 -0.52096,0.52085 -0.78144,1.15072 -0.78144,1.88967 0,0.73897 0.26048,1.36885 0.78144,1.8897 0.52097,0.52083 1.15104,0.78123 1.89017,0.78123 0.73916,0 1.36921,-0.2604 1.89017,-0.78123 0.52098,-0.52085 0.78146,-1.15073 0.78146,-1.8897 0,-0.73895 -0.26048,-1.36882 -0.78146,-1.88967 -0.52096,-0.52082 -1.15101,-0.78124 -1.89017,-0.78124 m 2.67163,5.28844 c -0.74806,0.74784 -1.6386,1.12177 -2.67163,1.12177 -1.03302,0 -1.91466,-0.36502 -2.6449,-1.09505 -0.73023,-0.73007 -1.09535,-1.61147 -1.09535,-2.64425 0,-1.03276 0.36512,-1.91415 1.09535,-2.64422 0.73024,-0.73004 1.61188,-1.09506 2.6449,-1.09506 1.03303,0 1.91466,0.36502 2.64492,1.09506 0.73022,0.73007 1.09535,1.61146 1.09537,2.64422 l 0,3.20512 c -2e-5,0.14679 -0.0535,0.27379 -0.16026,0.38062 -0.10248,0.10243 -0.22709,0.15359 -0.37403,0.15359 -0.14683,0 -0.27385,-0.0512 -0.38071,-0.15359 -0.10247,-0.10683 -0.15363,-0.2337 -0.15363,-0.38062 l 0,-0.58759"
       inkscape:connector-curvature="0" />
    <path
       id="path3590-7-1-7"
       style="font-size:8.73411083px;font-style:normal;font-variant:normal;font-weight:normal;font-stretch:normal;text-indent:0;text-align:start;text-decoration:none;line-height:125%;letter-spacing:0px;word-spacing:0px;text-transform:none;direction:ltr;block-progression:tb;writing-mode:lr-tb;text-anchor:start;color:#000000;fill:#d40000;fill-opacity:1;fill-rule:nonzero;stroke:none;stroke-width:1px;marker:none;visibility:visible;font-family:Comfortaa;-inkscape-font-specification:Comfortaa"
       d="m 144.04268,859.64565 c 0.147,0 0.27162,0.0534 0.37403,0.16023 0.10684,0.10246 0.16026,0.22704 0.16026,0.37393 0,0.14679 -0.0535,0.27379 -0.16026,0.38062 -0.10248,0.10242 -0.22708,0.15359 -0.37403,0.15359 -1.78108,0 -2.67161,-0.89033 -2.67161,-2.67093 l 0,-3.73928 -0.53434,0 c -0.14683,0 -0.27382,-0.0512 -0.3807,-0.15359 -0.10248,-0.10683 -0.15364,-0.2337 -0.15364,-0.38062 0,-0.1468 0.0512,-0.27153 0.15364,-0.37393 0.10685,-0.1068 0.23377,-0.16023 0.3807,-0.16023 l 0.53434,0 0,-2.67093 c 0,-0.14677 0.0512,-0.2715 0.15364,-0.37393 0.10684,-0.1068 0.23375,-0.16019 0.38068,-0.16019 0.14683,0 0.27162,0.0534 0.37404,0.16019 0.10684,0.10246 0.16027,0.22707 0.16027,0.37393 l 0,2.67093 1.07533,0 c 0.14683,3e-5 0.27162,0.0534 0.37402,0.16023 0.10685,0.10246 0.16027,0.22704 0.16027,0.37393 0,0.14679 -0.0535,0.27379 -0.16027,0.38062 -0.10247,0.10243 -0.22709,0.15359 -0.37402,0.15359 l -1.07533,0 0,3.73928 c 0,1.06834 0.5343,1.60256 1.60297,1.60256"
       inkscape:connector-curvature="0" />
    <path
       id="path3592-97-53-2"
       style="font-size:8.73411083px;font-style:normal;font-variant:normal;font-weight:normal;font-stretch:normal;text-indent:0;text-align:start;text-decoration:none;line-height:125%;letter-spacing:0px;word-spacing:0px;text-transform:none;direction:ltr;block-progression:tb;writing-mode:lr-tb;text-anchor:start;color:#000000;fill:#d40000;fill-opacity:1;fill-rule:nonzero;stroke:none;stroke-width:1px;marker:none;visibility:visible;font-family:Comfortaa;-inkscape-font-specification:Comfortaa"
       d="m 151.52322,859.64565 c 0.14683,0 0.2716,0.0534 0.37402,0.16023 0.10685,0.10246 0.16028,0.22704 0.16028,0.37393 0,0.14679 -0.0535,0.27379 -0.16028,0.38062 -0.10247,0.10242 -0.22709,0.15359 -0.37402,0.15359 l -5.34325,0 c -0.14683,0 -0.27383,-0.0512 -0.3807,-0.15359 -0.10248,-0.10683 -0.15364,-0.2337 -0.15364,-0.38062 0,-0.12462 0.0356,-0.23372 0.10685,-0.3272 l 4.62857,-5.54883 -4.20113,0 c -0.14683,0 -0.27383,-0.0511 -0.3807,-0.15359 -0.10248,-0.1068 -0.15364,-0.23367 -0.15364,-0.38059 0,-0.1468 0.0512,-0.27156 0.15364,-0.37393 0.10683,-0.10683 0.23377,-0.16023 0.3807,-0.16023 l 5.34327,0 c 0.14683,0 0.2716,0.0534 0.37402,0.16023 0.10685,0.10243 0.16027,0.22704 0.16027,0.37393 0,0.13351 -0.0422,0.24928 -0.12692,0.34721 l -4.61524,5.52881 4.20784,0"
       inkscape:connector-curvature="0" />
    <path
       id="path3594-9-1-5"
       style="font-size:8.73411083px;font-style:normal;font-variant:normal;font-weight:normal;font-stretch:normal;text-indent:0;text-align:start;text-decoration:none;line-height:125%;letter-spacing:0px;word-spacing:0px;text-transform:none;direction:ltr;block-progression:tb;writing-mode:lr-tb;text-anchor:start;color:#000000;fill:#d40000;fill-opacity:1;fill-rule:nonzero;stroke:none;stroke-width:1px;marker:none;visibility:visible;font-family:Comfortaa;-inkscape-font-specification:Comfortaa"
       d="m 156.43901,854.30381 c -0.73917,0 -1.36922,0.26042 -1.89018,0.78124 -0.52097,0.52085 -0.78146,1.15072 -0.78146,1.88967 0,0.73897 0.26049,1.36885 0.78146,1.8897 0.52096,0.52083 1.15101,0.78123 1.89018,0.78123 0.73913,0 1.36921,-0.2604 1.89017,-0.78123 0.52096,-0.52085 0.78144,-1.15073 0.78144,-1.8897 0,-0.73895 -0.26048,-1.36882 -0.78144,-1.88967 -0.52096,-0.52082 -1.15104,-0.78124 -1.89017,-0.78124 m 2.67161,5.28844 c -0.74804,0.74784 -1.6386,1.12177 -2.67161,1.12177 -1.03302,0 -1.91466,-0.36502 -2.64491,-1.09505 -0.73024,-0.73007 -1.09537,-1.61147 -1.09537,-2.64425 0,-1.03276 0.36513,-1.91415 1.09537,-2.64422 0.73025,-0.73004 1.61189,-1.09506 2.64491,-1.09506 1.03301,0 1.91465,0.36502 2.6449,1.09506 0.73024,0.73007 1.09536,1.61146 1.09538,2.64422 l 0,3.20512 c -2e-5,0.14679 -0.0535,0.27379 -0.16028,0.38062 -0.10247,0.10243 -0.2271,0.15359 -0.37403,0.15359 -0.14683,0 -0.27385,-0.0512 -0.38071,-0.15359 -0.10247,-0.10683 -0.15363,-0.2337 -0.15363,-0.38062 l 0,-0.58759"
       inkscape:connector-curvature="0" />
    <path
       id="path3596-4-8-3"
       style="font-size:8.73411083px;font-style:normal;font-variant:normal;font-weight:normal;font-stretch:normal;text-indent:0;text-align:start;text-decoration:none;line-height:125%;letter-spacing:0px;word-spacing:0px;text-transform:none;direction:ltr;block-progression:tb;writing-mode:lr-tb;text-anchor:start;color:#000000;fill:#d40000;fill-opacity:1;fill-rule:nonzero;stroke:none;stroke-width:1px;marker:none;visibility:visible;font-family:Comfortaa;-inkscape-font-specification:Comfortaa"
       d="m 162.98446,851.63288 c 0,0.18251 -0.0667,0.34057 -0.20036,0.47409 -0.12902,0.12916 -0.28497,0.19365 -0.46753,0.19365 -0.18258,0 -0.34064,-0.0646 -0.47421,-0.19365 -0.12903,-0.13352 -0.1937,-0.29158 -0.1937,-0.47409 0,-0.18251 0.0646,-0.3383 0.1937,-0.46742 0.13356,-0.13351 0.29163,-0.20032 0.47421,-0.20032 0.18256,0 0.33841,0.0669 0.46753,0.20032 0.13356,0.12902 0.20036,0.28491 0.20036,0.46742 m -1.20221,2.13675 c 0,-0.1468 0.0512,-0.27156 0.15363,-0.37393 0.10684,-0.10683 0.23375,-0.16023 0.38069,-0.16023 0.14683,0 0.27161,0.0534 0.37404,0.16023 0.10685,0.10243 0.16027,0.22704 0.16027,0.37393 l 0,6.41021 c 0,0.14679 -0.0535,0.27379 -0.16027,0.38062 -0.10247,0.10243 -0.22709,0.15359 -0.37404,0.15359 -0.14699,0 -0.27385,-0.0512 -0.38069,-0.15359 -0.10247,-0.10683 -0.15363,-0.2337 -0.15363,-0.38062 l 0,-6.41021"
       inkscape:connector-curvature="0" />
    <path
       id="path3598-43-2-2"
       style="font-size:8.73411083px;font-style:normal;font-variant:normal;font-weight:normal;font-stretch:normal;text-indent:0;text-align:start;text-decoration:none;line-height:125%;letter-spacing:0px;word-spacing:0px;text-transform:none;direction:ltr;block-progression:tb;writing-mode:lr-tb;text-anchor:start;color:#000000;fill:#d40000;fill-opacity:1;fill-rule:nonzero;stroke:none;stroke-width:1px;marker:none;visibility:visible;font-family:Comfortaa;-inkscape-font-specification:Comfortaa"
       d="m 164.45388,850.56451 c 0,-0.1468 0.0512,-0.27153 0.15363,-0.37393 0.10684,-0.10683 0.23376,-0.16022 0.3807,-0.16022 0.14699,0 0.27161,0.0534 0.37402,0.16022 0.10686,0.10246 0.16028,0.22704 0.16028,0.37393 l 0,9.08114 0.53431,0 c 0.14684,0 0.27162,0.0534 0.37403,0.16023 0.10685,0.10246 0.16026,0.22704 0.16026,0.37393 0,0.14679 -0.0534,0.27379 -0.16026,0.38062 -0.10248,0.10242 -0.22709,0.15359 -0.37403,0.15359 l -1.06863,0 c -0.14684,0 -0.27385,-0.0512 -0.38072,-0.15359 -0.10247,-0.10683 -0.15362,-0.2337 -0.15362,-0.38062 l 0,-9.61533"
       inkscape:connector-curvature="0" />
    <path
       id="path3600-73-9-9"
       style="font-size:8.73411083px;font-style:normal;font-variant:normal;font-weight:normal;font-stretch:normal;text-indent:0;text-align:start;text-decoration:none;line-height:125%;letter-spacing:0px;word-spacing:0px;text-transform:none;direction:ltr;block-progression:tb;writing-mode:lr-tb;text-anchor:start;color:#000000;fill:#d40000;fill-opacity:1;fill-rule:nonzero;stroke:none;stroke-width:1px;marker:none;visibility:visible;font-family:Comfortaa;-inkscape-font-specification:Comfortaa"
       d="m 174.02495,856.44056 c -0.0979,-0.51194 -0.34286,-0.96378 -0.73469,-1.35551 -0.52098,-0.52082 -1.15102,-0.78124 -1.89017,-0.78124 -0.73915,0 -1.36919,0.26042 -1.89018,0.78124 -0.39185,0.39173 -0.63674,0.84357 -0.73469,1.35551 l 5.24973,0 m -0.56772,2.45724 c 0.14699,0 0.27161,0.0534 0.37402,0.16023 0.10685,0.10242 0.16027,0.227 0.16027,0.37392 -2e-5,0.14681 -0.0512,0.27377 -0.15363,0.38063 -0.69017,0.60093 -1.50279,0.90141 -2.43785,0.90141 -1.03304,0 -1.91467,-0.36502 -2.64491,-1.09505 -0.73026,-0.73007 -1.09536,-1.61147 -1.09536,-2.64425 0,-1.03276 0.3651,-1.91415 1.09536,-2.64422 0.73024,-0.73004 1.61187,-1.09506 2.64491,-1.09506 1.03304,0 1.91467,0.36502 2.6449,1.09506 0.73024,0.73007 1.09536,1.61146 1.09538,2.64422 -2e-5,0.14698 -0.0535,0.27379 -0.16027,0.38059 -0.10248,0.10246 -0.2271,0.15359 -0.37403,0.15359 l -5.83082,0 c 0.0979,0.51197 0.34285,0.96378 0.73469,1.35552 0.52099,0.52083 1.15103,0.78123 1.89018,0.78123 0.66791,0 1.24229,-0.21143 1.72319,-0.63435 0.0979,-0.0756 0.20928,-0.11344 0.33395,-0.11344"
       inkscape:connector-curvature="0" />
    <path
       id="path3602-8-9-4"
       style="font-size:8.73411083px;font-style:normal;font-variant:normal;font-weight:normal;font-stretch:normal;text-indent:0;text-align:start;text-decoration:none;line-height:125%;letter-spacing:0px;word-spacing:0px;text-transform:none;direction:ltr;block-progression:tb;writing-mode:lr-tb;text-anchor:start;color:#000000;fill:#d40000;fill-opacity:1;fill-rule:nonzero;stroke:none;stroke-width:1px;marker:none;visibility:visible;font-family:Comfortaa;-inkscape-font-specification:Comfortaa"
       d="m 183.9567,854.30381 c -0.73915,0 -1.36921,0.26042 -1.89016,0.78124 -0.52098,0.52085 -0.78145,1.15072 -0.78145,1.88967 0,0.73897 0.26047,1.36885 0.78145,1.8897 0.52095,0.52083 1.15101,0.78123 1.89016,0.78123 0.73915,0 1.36921,-0.2604 1.89018,-0.78123 0.52095,-0.52085 0.78144,-1.15073 0.78144,-1.8897 0,-0.73895 -0.26049,-1.36882 -0.78144,-1.88967 -0.52097,-0.52082 -1.15103,-0.78124 -1.89018,-0.78124 m 2.67162,5.28844 c -0.01,0.01 -0.0179,0.0177 -0.0267,0.0266 -0.73025,0.73004 -1.61188,1.09509 -2.6449,1.09509 -1.03303,0 -1.91466,-0.36505 -2.6449,-1.09509 -0.73024,-0.73003 -1.09536,-1.61143 -1.09536,-2.64422 0,-1.03275 0.36512,-1.91415 1.09536,-2.64421 0.73024,-0.73004 1.61187,-1.09506 2.6449,-1.09506 1.03302,0 1.91465,0.36502 2.6449,1.09506 0.73024,0.73006 1.09537,1.61146 1.09537,2.64421 l 0,3.73931 c 0,0.77903 -0.28053,1.45564 -0.84156,2.02991 -0.78368,0.78347 -1.72987,1.17521 -2.8386,1.17521 -1.10872,0 -2.05268,-0.39174 -2.8319,-1.17521 -0.28944,-0.2849 -0.52543,-0.59429 -0.708,-0.92815 -0.0535,-0.0801 -0.0801,-0.17361 -0.0801,-0.28044 0,-0.1468 0.0512,-0.27376 0.15364,-0.38062 0.10684,-0.10243 0.23376,-0.1536 0.3807,-0.1536 0.14683,0 0.27384,0.0512 0.38071,0.1536 0.0445,0.049 0.0824,0.10246 0.11349,0.16022 0.13355,0.24039 0.30499,0.46521 0.51428,0.67444 0.57438,0.57421 1.26678,0.86136 2.07718,0.86139 0.81039,-3e-5 1.50279,-0.28718 2.07719,-0.86139 0.3562,-0.42736 0.53432,-0.85247 0.53432,-1.27536 l 0,-1.1218"
       inkscape:connector-curvature="0" />
    <path
       id="path3604-7-0-7"
       style="font-size:8.73411083px;font-style:normal;font-variant:normal;font-weight:normal;font-stretch:normal;text-indent:0;text-align:start;text-decoration:none;line-height:125%;letter-spacing:0px;word-spacing:0px;text-transform:none;direction:ltr;block-progression:tb;writing-mode:lr-tb;text-anchor:start;color:#000000;fill:#d40000;fill-opacity:1;fill-rule:nonzero;stroke:none;stroke-width:1px;marker:none;visibility:visible;font-family:Comfortaa;-inkscape-font-specification:Comfortaa"
       d="m 188.76562,853.76963 c 0,-0.1468 0.0512,-0.27156 0.15363,-0.37393 0.10684,-0.10683 0.23376,-0.16023 0.38069,-0.16023 0.14683,0 0.27162,0.0534 0.37405,0.16023 0.10683,0.10243 0.16026,0.22704 0.16026,0.37393 l 0,0.58759 c 0.74806,-0.74786 1.6386,-1.12178 2.67163,-1.12178 0.52095,0 0.99963,0.0891 1.43599,0.2671 0.0801,0.0311 0.15363,0.078 0.22043,0.1403 0.10247,0.10684 0.15362,0.23371 0.15362,0.38063 -1e-5,0.14676 -0.0534,0.27376 -0.16026,0.3806 -0.10248,0.10245 -0.22708,0.15358 -0.37403,0.15358 -0.0845,0 -0.16251,-0.0177 -0.23376,-0.0534 -0.31615,-0.13355 -0.66346,-0.20032 -1.04193,-0.20032 -0.73914,0 -1.36921,0.26039 -1.89017,0.78123 -0.52097,0.52082 -0.78145,1.15073 -0.78145,1.88967 l 0,3.20509 c 0,0.1468 -0.0535,0.27379 -0.16027,0.38062 -0.10248,0.10246 -0.2271,0.1536 -0.37404,0.1536 -0.14683,0 -0.27384,-0.0511 -0.38069,-0.1536 -0.10248,-0.10683 -0.15363,-0.23367 -0.15363,-0.38062 l 0,-6.41021"
       inkscape:connector-curvature="0" />
    <path
       id="path3606-19-1-3"
       style="font-size:8.73411083px;font-style:normal;font-variant:normal;font-weight:normal;font-stretch:normal;text-indent:0;text-align:start;text-decoration:none;line-height:125%;letter-spacing:0px;word-spacing:0px;text-transform:none;direction:ltr;block-progression:tb;writing-mode:lr-tb;text-anchor:start;color:#000000;fill:#d40000;fill-opacity:1;fill-rule:nonzero;stroke:none;stroke-width:1px;marker:none;visibility:visible;font-family:Comfortaa;-inkscape-font-specification:Comfortaa"
       d="m 198.91778,854.30381 c -0.73915,0 -1.36919,0.26042 -1.89017,0.78124 -0.52097,0.52085 -0.78144,1.15072 -0.78144,1.88967 0,0.73897 0.26047,1.36885 0.78144,1.8897 0.52098,0.52083 1.15102,0.78123 1.89017,0.78123 0.73915,0 1.36919,-0.2604 1.89018,-0.78123 0.52096,-0.52085 0.78143,-1.15073 0.78143,-1.8897 0,-0.73895 -0.26047,-1.36882 -0.78143,-1.88967 -0.52099,-0.52082 -1.15103,-0.78124 -1.89018,-0.78124 m 2.67161,5.28844 c -0.74806,0.74784 -1.63857,1.12177 -2.67161,1.12177 -1.03304,0 -1.91467,-0.36502 -2.6449,-1.09505 -0.73024,-0.73007 -1.09536,-1.61147 -1.09536,-2.64425 0,-1.03276 0.36512,-1.91415 1.09536,-2.64422 0.73023,-0.73004 1.61186,-1.09506 2.6449,-1.09506 1.03304,0 1.91467,0.36502 2.64493,1.09506 0.73021,0.73007 1.09533,1.61146 1.09534,2.64422 l 0,3.20512 c -1e-5,0.14679 -0.0534,0.27379 -0.16026,0.38062 -0.10248,0.10243 -0.2271,0.15359 -0.37402,0.15359 -0.14683,0 -0.27386,-0.0512 -0.38073,-0.15359 -0.10248,-0.10683 -0.15363,-0.2337 -0.15363,-0.38062 l 0,-0.58759"
       inkscape:connector-curvature="0" />
    <path
       id="path3608-9-9-9"
       style="font-size:8.73411083px;font-style:normal;font-variant:normal;font-weight:normal;font-stretch:normal;text-indent:0;text-align:start;text-decoration:none;line-height:125%;letter-spacing:0px;word-spacing:0px;text-transform:none;direction:ltr;block-progression:tb;writing-mode:lr-tb;text-anchor:start;color:#000000;fill:#d40000;fill-opacity:1;fill-rule:nonzero;stroke:none;stroke-width:1px;marker:none;visibility:visible;font-family:Comfortaa;-inkscape-font-specification:Comfortaa"
       d="m 207.62726,850.03036 c 0.14698,0 0.27161,0.0534 0.37403,0.16019 0.10685,0.10246 0.16028,0.22707 0.16028,0.37393 0,0.14679 -0.0535,0.2738 -0.16028,0.38062 -0.10247,0.10246 -0.22709,0.15359 -0.37403,0.15359 -1.42486,0 -2.13729,0.71226 -2.13729,2.13672 l 0,0.40064 1.60965,0 c 0.14683,0 0.27161,0.0535 0.37404,0.16023 0.10684,0.10246 0.16026,0.22704 0.16026,0.37393 -1e-5,0.1468 -0.0534,0.27379 -0.16026,0.38062 -0.10248,0.10243 -0.22712,0.1536 -0.37404,0.1536 l -1.60965,0 0,5.47538 c 0,0.14695 -0.0535,0.27379 -0.16027,0.38062 -0.10247,0.10242 -0.22711,0.15359 -0.37403,0.15359 -0.14683,0 -0.27385,-0.0512 -0.38072,-0.15359 -0.10247,-0.10683 -0.15362,-0.2337 -0.15362,-0.38062 l 0,-5.47538 -0.53433,0 c -0.14683,0 -0.27385,-0.0512 -0.38071,-0.1536 -0.10247,-0.10683 -0.15362,-0.23371 -0.15362,-0.38062 0,-0.14681 0.0512,-0.27153 0.15362,-0.37393 0.10685,-0.1068 0.23377,-0.16023 0.38071,-0.16023 l 0.53433,0 0,-0.40064 c 0,-2.13672 1.06864,-3.20509 3.20593,-3.20509"
       inkscape:connector-curvature="0" />
    <path
       id="path3610-3-0-9"
       style="font-size:8.73411083px;font-style:normal;font-variant:normal;font-weight:normal;font-stretch:normal;text-indent:0;text-align:start;text-decoration:none;line-height:125%;letter-spacing:0px;word-spacing:0px;text-transform:none;direction:ltr;block-progression:tb;writing-mode:lr-tb;text-anchor:start;color:#000000;fill:#d40000;fill-opacity:1;fill-rule:nonzero;stroke:none;stroke-width:1px;marker:none;visibility:visible;font-family:Comfortaa;-inkscape-font-specification:Comfortaa"
       d="m 210.43247,851.63288 c 0,0.18251 -0.0669,0.34057 -0.20037,0.47409 -0.12902,0.12916 -0.28496,0.19365 -0.46755,0.19365 -0.18255,0 -0.34062,-0.0646 -0.47419,-0.19365 -0.12902,-0.13352 -0.19369,-0.29158 -0.19369,-0.47409 0,-0.18251 0.0646,-0.3383 0.19369,-0.46742 0.13356,-0.13351 0.29164,-0.20032 0.47419,-0.20032 0.18259,0 0.33841,0.0669 0.46755,0.20032 0.13356,0.12902 0.20037,0.28491 0.20037,0.46742 m -1.20222,2.13675 c 0,-0.1468 0.0512,-0.27156 0.15363,-0.37393 0.10685,-0.10683 0.23378,-0.16023 0.38071,-0.16023 0.14683,0 0.27161,0.0534 0.37404,0.16023 0.10685,0.10243 0.16026,0.22704 0.16026,0.37393 l 0,6.41021 c 0,0.14679 -0.0534,0.27379 -0.16026,0.38062 -0.10248,0.10243 -0.2271,0.15359 -0.37404,0.15359 -0.14683,0 -0.27383,-0.0512 -0.38071,-0.15359 -0.10247,-0.10683 -0.15363,-0.2337 -0.15363,-0.38062 l 0,-6.41021"
       inkscape:connector-curvature="0" />
    <path
       id="path3612-64-9-0"
       style="font-size:8.73411083px;font-style:normal;font-variant:normal;font-weight:normal;font-stretch:normal;text-indent:0;text-align:start;text-decoration:none;line-height:125%;letter-spacing:0px;word-spacing:0px;text-transform:none;direction:ltr;block-progression:tb;writing-mode:lr-tb;text-anchor:start;color:#000000;fill:#d40000;fill-opacity:1;fill-rule:nonzero;stroke:none;stroke-width:1px;marker:none;visibility:visible;font-family:Comfortaa;-inkscape-font-specification:Comfortaa"
       d="m 212.97052,856.25358 4.52172,-2.93803 c 0.0845,-0.0534 0.18033,-0.0801 0.2872,-0.0801 0.14683,3e-5 0.2716,0.0534 0.37402,0.16023 0.10684,0.10246 0.16027,0.22704 0.16027,0.37393 0,0.14695 -0.0512,0.27156 -0.15364,0.37392 -0.0267,0.0266 -0.0512,0.049 -0.0735,0.0667 l -3.09907,2.01657 3.17922,3.57905 c 0.0979,0.1068 0.14683,0.23144 0.14683,0.37392 0,0.14677 -0.0535,0.27377 -0.16026,0.38059 -0.10248,0.10246 -0.22708,0.1536 -0.37403,0.1536 -0.14683,0 -0.27607,-0.0534 -0.38739,-0.16023 l -3.31948,-3.73931 -1.10205,0.71446 0,2.65092 c 0,0.14677 -0.0534,0.27377 -0.16026,0.3806 -0.10248,0.10245 -0.2271,0.15359 -0.37404,0.15359 -0.14683,0 -0.27383,-0.0512 -0.38069,-0.15359 -0.10248,-0.1068 -0.15363,-0.23371 -0.15363,-0.3806 l 0,-9.61535 c 0,-0.1468 0.0512,-0.27154 0.15363,-0.37393 0.10685,-0.10679 0.23376,-0.16023 0.38069,-0.16023 0.14699,0 0.27161,0.0535 0.37404,0.16023 0.10685,0.10246 0.16026,0.22707 0.16026,0.37393 l 0,5.68907"
       inkscape:connector-curvature="0" />
    <path
       id="path3614-4-5-4"
       style="font-size:8.73411083px;font-style:normal;font-variant:normal;font-weight:normal;font-stretch:normal;text-indent:0;text-align:start;text-decoration:none;line-height:125%;letter-spacing:0px;word-spacing:0px;text-transform:none;direction:ltr;block-progression:tb;writing-mode:lr-tb;text-anchor:start;color:#000000;fill:#d40000;fill-opacity:1;fill-rule:nonzero;stroke:none;stroke-width:1px;marker:none;visibility:visible;font-family:Comfortaa;-inkscape-font-specification:Comfortaa"
       d="m 226.43548,856.97472 c -2e-5,1.03278 -0.36512,1.91418 -1.09535,2.64425 -0.73026,0.73003 -1.61188,1.09505 -2.6449,1.09505 -1.03303,0 -1.91468,-0.36502 -2.64493,-1.09505 -0.73024,-0.73007 -1.09536,-1.61147 -1.09536,-2.64425 0,-1.03276 0.36512,-1.91415 1.09536,-2.64422 0.73025,-0.73004 1.6119,-1.09506 2.64493,-1.09506 1.03302,0 1.91464,0.36502 2.6449,1.09506 0.73023,0.73007 1.09533,1.61146 1.09535,2.64422 m -3.74025,-2.67091 c -0.73917,0 -1.36922,0.26042 -1.89019,0.78124 -0.52096,0.52085 -0.78146,1.15072 -0.78144,1.88967 -2e-5,0.73897 0.26048,1.36885 0.78144,1.8897 0.52097,0.52083 1.15102,0.78123 1.89019,0.78123 0.73913,0 1.36919,-0.2604 1.89016,-0.78123 0.52096,-0.52085 0.78143,-1.15073 0.78145,-1.8897 -2e-5,-0.73895 -0.26049,-1.36882 -0.78145,-1.88967 -0.52097,-0.52082 -1.15103,-0.78124 -1.89016,-0.78124"
       inkscape:connector-curvature="0" />
    <path
       id="path3616-38-2-4"
       style="font-size:8.73411083px;font-style:normal;font-variant:normal;font-weight:normal;font-stretch:normal;text-indent:0;text-align:start;text-decoration:none;line-height:125%;letter-spacing:0px;word-spacing:0px;text-transform:none;direction:ltr;block-progression:tb;writing-mode:lr-tb;text-anchor:start;color:#000000;fill:#d40000;fill-opacity:1;fill-rule:nonzero;stroke:none;stroke-width:1px;marker:none;visibility:visible;font-family:Comfortaa;-inkscape-font-specification:Comfortaa"
       d="m 235.25185,854.30381 c -0.73918,0 -1.36922,0.26042 -1.89019,0.78124 -0.52097,0.52085 -0.78146,1.15072 -0.78146,1.88967 0,0.73897 0.26049,1.36885 0.78146,1.8897 0.52097,0.52083 1.15101,0.78123 1.89019,0.78123 0.73912,0 1.36919,-0.2604 1.89017,-0.78123 0.52094,-0.52085 0.78143,-1.15073 0.78144,-1.8897 -1e-5,-0.73895 -0.2605,-1.36882 -0.78144,-1.88967 -0.52098,-0.52082 -1.15105,-0.78124 -1.89017,-0.78124 m 2.67161,5.28844 c -0.74805,0.74784 -1.6386,1.12177 -2.67161,1.12177 -1.03304,0 -1.91467,-0.36502 -2.64492,-1.09505 -0.73024,-0.73007 -1.09537,-1.61147 -1.09537,-2.64425 0,-1.03276 0.36513,-1.91415 1.09537,-2.64422 0.73025,-0.73004 1.61188,-1.09506 2.64492,-1.09506 1.03301,0 1.91464,0.36502 2.64489,1.09506 0.73023,0.73007 1.09535,1.61146 1.09537,2.64422 l 0,3.20512 c -2e-5,0.14679 -0.0534,0.27379 -0.16026,0.38062 -0.10248,0.10243 -0.22712,0.15359 -0.37405,0.15359 -0.14683,0 -0.27382,-0.0512 -0.3807,-0.15359 -0.10248,-0.10683 -0.15364,-0.2337 -0.15364,-0.38062 l 0,-0.58759"
       inkscape:connector-curvature="0" />
    <path
       id="path3618-0-6-6"
       style="font-size:8.73411083px;font-style:normal;font-variant:normal;font-weight:normal;font-stretch:normal;text-indent:0;text-align:start;text-decoration:none;line-height:125%;letter-spacing:0px;word-spacing:0px;text-transform:none;direction:ltr;block-progression:tb;writing-mode:lr-tb;text-anchor:start;color:#000000;fill:#d40000;fill-opacity:1;fill-rule:nonzero;stroke:none;stroke-width:1px;marker:none;visibility:visible;font-family:Comfortaa;-inkscape-font-specification:Comfortaa"
       d="m 241.38323,856.97472 c -0.40521,-0.1513 -0.68796,-0.30936 -0.84826,-0.47409 -0.31613,-0.31159 -0.4742,-0.68775 -0.4742,-1.12845 0,-0.44069 0.16473,-0.82576 0.49424,-1.15518 0.64118,-0.65437 1.47828,-0.98156 2.51133,-0.98156 1.11763,0 2.07495,0.44737 2.87198,1.34214 0.0712,0.0845 0.10458,0.18918 0.10021,0.31382 0,0.14695 -0.0535,0.2738 -0.16028,0.38062 -0.10247,0.10243 -0.22707,0.1536 -0.37401,0.1536 -0.14683,0 -0.26495,-0.0467 -0.35399,-0.14034 -0.0891,-0.0936 -0.15362,-0.16021 -0.1937,-0.20032 -0.52098,-0.52085 -1.15102,-0.78124 -1.89018,-0.78124 -0.73914,0 -1.32914,0.23148 -1.76994,0.69442 -0.10684,0.12917 -0.16026,0.2827 -0.16026,0.46074 0.0146,0.20922 0.12239,0.35168 0.32726,0.42735 l 3.28611,1.08839 c 0.40518,0.15133 0.68793,0.30942 0.84823,0.47409 0.31613,0.31162 0.4742,0.68777 0.47421,1.12847 -1e-5,0.44073 -0.16475,0.82577 -0.49423,1.15519 -0.6412,0.65436 -1.4783,0.98156 -2.51135,0.98156 -1.12207,0 -2.07939,-0.44737 -2.87197,-1.34214 -0.0667,-0.0935 -0.10021,-0.19808 -0.10021,-0.31382 0,-0.14698 0.0512,-0.27156 0.15362,-0.37393 0.10685,-0.10683 0.23376,-0.16022 0.38072,-0.16022 0.14683,0 0.26493,0.0467 0.35396,0.14031 0.0891,0.0935 0.15363,0.16022 0.1937,0.20031 0.52098,0.52085 1.15103,0.78124 1.89018,0.78124 0.73915,0 1.32912,-0.23144 1.76995,-0.69442 0.10685,-0.12899 0.16028,-0.2827 0.16028,-0.46074 -0.0146,-0.20923 -0.12239,-0.35168 -0.32728,-0.42736 l -3.28608,-1.08838"
       inkscape:connector-curvature="0" />
    <path
       id="path3620-5-3-5"
       style="font-size:8.73411083px;font-style:normal;font-variant:normal;font-weight:normal;font-stretch:normal;text-indent:0;text-align:start;text-decoration:none;line-height:125%;letter-spacing:0px;word-spacing:0px;text-transform:none;direction:ltr;block-progression:tb;writing-mode:lr-tb;text-anchor:start;color:#000000;fill:#d40000;fill-opacity:1;fill-rule:nonzero;stroke:none;stroke-width:1px;marker:none;visibility:visible;font-family:Comfortaa;-inkscape-font-specification:Comfortaa"
       d="m 248.2092,856.25358 4.52174,-2.93803 c 0.0845,-0.0534 0.18032,-0.0801 0.28718,-0.0801 0.14683,3e-5 0.27162,0.0534 0.37403,0.16023 0.10684,0.10246 0.16026,0.22704 0.16026,0.37393 0,0.14695 -0.0512,0.27156 -0.15363,0.37392 -0.0267,0.0266 -0.0512,0.049 -0.0735,0.0667 l -3.09907,2.01657 3.17922,3.57905 c 0.0979,0.1068 0.14683,0.23144 0.14683,0.37392 0,0.14677 -0.0535,0.27377 -0.16026,0.38059 -0.10248,0.10246 -0.22708,0.1536 -0.37403,0.1536 -0.14683,0 -0.27605,-0.0534 -0.38737,-0.16023 l -3.3195,-3.73931 -1.10204,0.71446 0,2.65092 c 0,0.14677 -0.0534,0.27377 -0.16027,0.3806 -0.10247,0.10245 -0.22709,0.15359 -0.37402,0.15359 -0.14683,0 -0.27384,-0.0512 -0.38071,-0.15359 -0.10247,-0.1068 -0.15363,-0.23371 -0.15363,-0.3806 l 0,-9.61535 c 0,-0.1468 0.0512,-0.27154 0.15363,-0.37393 0.10685,-0.10679 0.23377,-0.16023 0.38071,-0.16023 0.14699,0 0.27161,0.0535 0.37402,0.16023 0.10685,0.10246 0.16027,0.22707 0.16027,0.37393 l 0,5.68907"
       inkscape:connector-curvature="0" />
    <path
       id="path3622-6-0-5"
       style="font-size:8.73411083px;font-style:normal;font-variant:normal;font-weight:normal;font-stretch:normal;text-indent:0;text-align:start;text-decoration:none;line-height:125%;letter-spacing:0px;word-spacing:0px;text-transform:none;direction:ltr;block-progression:tb;writing-mode:lr-tb;text-anchor:start;color:#000000;fill:#d40000;fill-opacity:1;fill-rule:nonzero;stroke:none;stroke-width:1px;marker:none;visibility:visible;font-family:Comfortaa;-inkscape-font-specification:Comfortaa"
       d="m 260.55879,856.44056 c -0.0981,-0.51194 -0.34288,-0.96378 -0.73471,-1.35551 -0.52096,-0.52082 -1.15103,-0.78124 -1.89017,-0.78124 -0.73915,0 -1.36921,0.26042 -1.89017,0.78124 -0.39185,0.39173 -0.63674,0.84357 -0.7347,1.35551 l 5.24975,0 m -0.56773,2.45724 c 0.14683,0 0.2716,0.0534 0.37401,0.16023 0.10685,0.10242 0.16027,0.227 0.16027,0.37392 0,0.14681 -0.0512,0.27377 -0.15363,0.38063 -0.69019,0.60093 -1.50279,0.90141 -2.43785,0.90141 -1.03302,0 -1.91466,-0.36502 -2.6449,-1.09505 -0.73024,-0.73007 -1.09538,-1.61147 -1.09538,-2.64425 0,-1.03276 0.36514,-1.91415 1.09538,-2.64422 0.73024,-0.73004 1.61188,-1.09506 2.6449,-1.09506 1.03302,0 1.91465,0.36502 2.6449,1.09506 0.73024,0.73007 1.09536,1.61146 1.09536,2.64422 0,0.14698 -0.0535,0.27379 -0.16027,0.38059 -0.10247,0.10246 -0.22711,0.15359 -0.37402,0.15359 l -5.83082,0 c 0.0979,0.51197 0.34285,0.96378 0.7347,1.35552 0.52095,0.52083 1.15101,0.78123 1.89017,0.78123 0.6679,0 1.2423,-0.21143 1.72318,-0.63435 0.0979,-0.0756 0.20928,-0.11344 0.33398,-0.11344"
       inkscape:connector-curvature="0" />
    <path
       id="path3624-0-7-8"
       style="font-size:8.73411083px;font-style:normal;font-variant:normal;font-weight:normal;font-stretch:normal;text-indent:0;text-align:start;text-decoration:none;line-height:125%;letter-spacing:0px;word-spacing:0px;text-transform:none;direction:ltr;block-progression:tb;writing-mode:lr-tb;text-anchor:start;color:#000000;fill:#d40000;fill-opacity:1;fill-rule:nonzero;stroke:none;stroke-width:1px;marker:none;visibility:visible;font-family:Comfortaa;-inkscape-font-specification:Comfortaa"
       d="m 266.48308,854.30381 c -0.73914,0 -1.36921,0.26042 -1.89017,0.78124 -0.52095,0.52085 -0.78146,1.15072 -0.78146,1.88967 0,0.73897 0.26051,1.36885 0.78146,1.8897 0.52096,0.52083 1.15103,0.78123 1.89017,0.78123 0.73915,0 1.36921,-0.2604 1.89019,-0.78123 0.52096,-0.52085 0.78144,-1.15073 0.78146,-1.8897 -2e-5,-0.73895 -0.2605,-1.36882 -0.78146,-1.88967 -0.52098,-0.52082 -1.15104,-0.78124 -1.89019,-0.78124 m 2.67165,5.28844 c -0.74806,0.74784 -1.63862,1.12177 -2.67165,1.12177 -1.03302,0 -1.91464,-0.36502 -2.6449,-1.09505 -0.73024,-0.73007 -1.09537,-1.61147 -1.09537,-2.64425 0,-1.03276 0.36513,-1.91415 1.09537,-2.64422 0.73026,-0.73004 1.61188,-1.09506 2.6449,-1.09506 1.03303,0 1.91466,0.36502 2.64492,1.09506 0.73023,0.73007 1.09535,1.61146 1.09537,2.64422 l 0,3.20512 c -2e-5,0.14679 -0.0535,0.27379 -0.16027,0.38062 -0.10247,0.10243 -0.22709,0.15359 -0.37404,0.15359 -0.14683,0 -0.27385,-0.0512 -0.38071,-0.15359 -0.10247,-0.10683 -0.15362,-0.2337 -0.15362,-0.38062 l 0,-0.58759"
       inkscape:connector-curvature="0" />
    <path
       style="color:#000000;fill:#d40000;fill-opacity:1;fill-rule:nonzero;stroke:none;stroke-width:2;marker:none;visibility:visible;display:inline;overflow:visible;enable-background:accumulate"
       d="m 234.52211,950.11702 c 0,-4.19305 3.40003,-7.59218 7.59417,-7.59218 4.19413,0 7.59415,3.39913 7.59415,7.59218 0,4.19305 -3.40002,7.59217 -7.59415,7.59217 -4.19414,0 -7.59417,-3.39912 -7.59417,-7.59217 z"
       id="path37292-07-1-0-3-9-6"
       inkscape:connector-curvature="0" />
    <path
       id="path3576-5-2-0-9"
       style="font-size:8.73411083px;font-style:normal;font-variant:normal;font-weight:normal;font-stretch:normal;text-indent:0;text-align:start;text-decoration:none;line-height:125%;letter-spacing:0px;word-spacing:0px;text-transform:none;direction:ltr;block-progression:tb;writing-mode:lr-tb;text-anchor:start;color:#000000;fill:#d40000;fill-opacity:1;fill-rule:nonzero;stroke:none;stroke-width:1px;marker:none;visibility:visible;font-family:Comfortaa;-inkscape-font-specification:Comfortaa"
       d="m 199.37964,950.11034 c 0,0.73895 0.26047,1.36882 0.78145,1.88967 0.52097,0.52081 1.15103,0.78124 1.89018,0.78124 0.73915,0 1.36919,-0.26043 1.89017,-0.78124 0.52097,-0.52085 0.78144,-1.15072 0.78144,-1.88967 0,-0.73897 -0.26047,-1.36885 -0.78144,-1.8897 -0.52098,-0.52084 -1.15102,-0.78123 -1.89017,-0.78123 -0.73915,0 -1.36921,0.26039 -1.89018,0.78123 -0.52098,0.52085 -0.78145,1.15073 -0.78145,1.8897 m 0,6.42355 c 0,0.14698 -0.0512,0.27153 -0.15362,0.37393 -0.10685,0.10683 -0.23377,0.16023 -0.38073,0.16023 -0.14683,0 -0.27162,-0.0534 -0.37402,-0.16023 -0.10685,-0.10243 -0.16027,-0.22704 -0.16027,-0.37393 l 0,-6.42355 c 2e-5,-1.03278 0.36513,-1.91418 1.09537,-2.64425 0.73024,-0.73003 1.61187,-1.09505 2.64492,-1.09505 1.03302,0 1.91466,0.36502 2.64489,1.09505 0.73024,0.73007 1.09536,1.61147 1.09536,2.64425 0,1.03276 -0.36512,1.91415 -1.09536,2.64422 -0.73023,0.73004 -1.61187,1.09506 -2.64489,1.09506 -1.03305,0 -1.91468,-0.36502 -2.64492,-1.09506 -0.01,-0.01 -0.0179,-0.0178 -0.0267,-0.0266 l 0,3.80604"
       inkscape:connector-curvature="0" />
    <path
       id="path3578-8-4-8-5"
       style="font-size:8.73411083px;font-style:normal;font-variant:normal;font-weight:normal;font-stretch:normal;text-indent:0;text-align:start;text-decoration:none;line-height:125%;letter-spacing:0px;word-spacing:0px;text-transform:none;direction:ltr;block-progression:tb;writing-mode:lr-tb;text-anchor:start;color:#000000;fill:#d40000;fill-opacity:1;fill-rule:nonzero;stroke:none;stroke-width:1px;marker:none;visibility:visible;font-family:Comfortaa;-inkscape-font-specification:Comfortaa"
       d="m 195.50579,955.45218 c 0,-0.18251 0.0667,-0.34057 0.20036,-0.47409 0.12902,-0.12917 0.28499,-0.19365 0.46754,-0.19365 0.18257,0 0.34063,0.0646 0.47421,0.19365 0.12902,0.13352 0.19369,0.29158 0.19369,0.47409 0,0.18251 -0.0646,0.3383 -0.19369,0.46741 -0.13357,0.13352 -0.29164,0.20032 -0.47421,0.20032 -0.18255,0 -0.33841,-0.0669 -0.46754,-0.20032 -0.13356,-0.12901 -0.20036,-0.2849 -0.20036,-0.46741 m 1.20222,-2.13675 c 0,0.1468 -0.0512,0.27156 -0.15362,0.37393 -0.10685,0.10682 -0.23379,0.16023 -0.38071,0.16023 -0.14683,0 -0.27161,-0.0535 -0.37402,-0.16023 -0.10685,-0.10243 -0.16027,-0.22704 -0.16027,-0.37393 l 0,-6.41021 c 0,-0.14679 0.0535,-0.27379 0.16027,-0.38062 0.10248,-0.10243 0.22707,-0.15359 0.37402,-0.15359 0.14683,0 0.27383,0.0512 0.38071,0.15359 0.10247,0.10683 0.15362,0.2337 0.15362,0.38062 l 0,6.41021"
       inkscape:connector-curvature="0" />
    <path
       id="path3580-2-8-5-9"
       style="font-size:8.73411083px;font-style:normal;font-variant:normal;font-weight:normal;font-stretch:normal;text-indent:0;text-align:start;text-decoration:none;line-height:125%;letter-spacing:0px;word-spacing:0px;text-transform:none;direction:ltr;block-progression:tb;writing-mode:lr-tb;text-anchor:start;color:#000000;fill:#d40000;fill-opacity:1;fill-rule:nonzero;stroke:none;stroke-width:1px;marker:none;visibility:visible;font-family:Comfortaa;-inkscape-font-specification:Comfortaa"
       d="m 192.71394,950.11034 c 0.4052,0.1513 0.68796,0.30935 0.84824,0.47409 0.31614,0.31159 0.47422,0.68774 0.47422,1.12844 0,0.44069 -0.16476,0.82577 -0.49424,1.15519 -0.64119,0.65436 -1.4783,0.98156 -2.51134,0.98156 -1.11762,0 -2.07495,-0.44738 -2.87198,-1.34214 -0.0712,-0.0845 -0.10458,-0.18918 -0.10021,-0.31382 0,-0.14695 0.0535,-0.2738 0.16026,-0.38063 0.10248,-0.10242 0.2271,-0.15359 0.37403,-0.15359 0.14683,0 0.26494,0.0467 0.35399,0.14034 0.0891,0.0936 0.15363,0.1602 0.19369,0.20032 0.52098,0.52084 1.15102,0.78124 1.89018,0.78124 0.73914,0 1.32914,-0.23148 1.76994,-0.69442 0.10684,-0.12918 0.16026,-0.2827 0.16026,-0.46074 -0.0146,-0.20923 -0.12255,-0.35168 -0.32729,-0.42736 l -3.28609,-1.08838 c -0.40518,-0.15133 -0.68794,-0.30943 -0.84824,-0.47409 -0.31613,-0.31162 -0.4742,-0.68778 -0.47422,-1.12848 2e-5,-0.44073 0.16476,-0.82576 0.49426,-1.15518 0.64119,-0.65437 1.4783,-0.98156 2.51134,-0.98156 1.12207,0 2.07939,0.44736 2.87198,1.34214 0.0667,0.0935 0.10021,0.19808 0.10021,0.31382 0,0.14698 -0.0512,0.27156 -0.15363,0.37393 -0.10684,0.10682 -0.23376,0.16022 -0.38071,0.16022 -0.14683,0 -0.26493,-0.0467 -0.35397,-0.14031 -0.0891,-0.0936 -0.15364,-0.16022 -0.1937,-0.20032 -0.52097,-0.52084 -1.15103,-0.78123 -1.89017,-0.78123 -0.73916,0 -1.32913,0.23144 -1.76995,0.69442 -0.10685,0.12899 -0.16027,0.2827 -0.16027,0.46074 0.0146,0.20922 0.12238,0.35168 0.32727,0.42735 l 3.28609,1.08839"
       inkscape:connector-curvature="0" />
    <path
       id="path3582-1-1-3-9"
       style="font-size:8.73411083px;font-style:normal;font-variant:normal;font-weight:normal;font-stretch:normal;text-indent:0;text-align:start;text-decoration:none;line-height:125%;letter-spacing:0px;word-spacing:0px;text-transform:none;direction:ltr;block-progression:tb;writing-mode:lr-tb;text-anchor:start;color:#000000;fill:#d40000;fill-opacity:1;fill-rule:nonzero;stroke:none;stroke-width:1px;marker:none;visibility:visible;font-family:Comfortaa;-inkscape-font-specification:Comfortaa"
       d="m 180.59146,950.6445 c 0.0979,0.51194 0.34286,0.96378 0.73471,1.35551 0.52096,0.52081 1.15102,0.78124 1.89017,0.78124 0.73915,0 1.36919,-0.26043 1.89016,-0.78124 0.39183,-0.39173 0.63674,-0.84357 0.73469,-1.35551 l -5.24973,0 m 0.56771,-2.45724 c -0.14683,0 -0.2716,-0.0534 -0.37403,-0.16023 -0.10685,-0.10243 -0.16027,-0.22701 -0.16027,-0.37393 1e-5,-0.1468 0.0512,-0.27376 0.15363,-0.38062 0.69019,-0.60094 1.50279,-0.90141 2.43787,-0.90141 1.03302,0 1.91466,0.36502 2.6449,1.09505 0.73022,0.73007 1.09536,1.61147 1.09536,2.64425 0,1.03276 -0.36514,1.91415 -1.09536,2.64422 -0.73024,0.73004 -1.61188,1.09506 -2.6449,1.09506 -1.03304,0 -1.91466,-0.36502 -2.64492,-1.09506 -0.73022,-0.73007 -1.09535,-1.61146 -1.09537,-2.64422 2e-5,-0.14698 0.0535,-0.27379 0.16026,-0.3806 0.10248,-0.10245 0.2271,-0.15358 0.37403,-0.15358 l 5.8308,0 c -0.0979,-0.51197 -0.34285,-0.96378 -0.73468,-1.35552 -0.52097,-0.52084 -1.15102,-0.78123 -1.89017,-0.78123 -0.66792,0 -1.2423,0.21142 -1.7232,0.63435 -0.0979,0.0756 -0.20928,0.11344 -0.33396,0.11344"
       inkscape:connector-curvature="0" />
    <path
       id="path3584-22-7-9-9"
       style="font-size:8.73411083px;font-style:normal;font-variant:normal;font-weight:normal;font-stretch:normal;text-indent:0;text-align:start;text-decoration:none;line-height:125%;letter-spacing:0px;word-spacing:0px;text-transform:none;direction:ltr;block-progression:tb;writing-mode:lr-tb;text-anchor:start;color:#000000;fill:#d40000;fill-opacity:1;fill-rule:nonzero;stroke:none;stroke-width:1px;marker:none;visibility:visible;font-family:Comfortaa;-inkscape-font-specification:Comfortaa"
       d="m 176.67086,955.45218 c 0,-0.18251 0.0667,-0.34057 0.20037,-0.47409 0.12902,-0.12917 0.28497,-0.19365 0.46753,-0.19365 0.18257,0 0.34064,0.0646 0.47421,0.19365 0.12902,0.13352 0.1937,0.29158 0.1937,0.47409 0,0.18251 -0.0646,0.3383 -0.1937,0.46741 -0.13355,0.13352 -0.29164,0.20032 -0.47421,0.20032 -0.18256,0 -0.33841,-0.0669 -0.46753,-0.20032 -0.13355,-0.12901 -0.20037,-0.2849 -0.20037,-0.46741 m 1.20222,-2.13675 c 0,0.1468 -0.0512,0.27156 -0.15363,0.37393 -0.10684,0.10682 -0.23378,0.16023 -0.38072,0.16023 -0.14683,0 -0.27162,-0.0535 -0.37403,-0.16023 -0.10684,-0.10243 -0.16027,-0.22704 -0.16027,-0.37393 l 0,-6.41021 c 0,-0.14679 0.0535,-0.27379 0.16027,-0.38062 0.10248,-0.10243 0.22708,-0.15359 0.37403,-0.15359 0.14699,0 0.27385,0.0512 0.38072,0.15359 0.10247,0.10683 0.15363,0.2337 0.15363,0.38062 l 0,6.41021"
       inkscape:connector-curvature="0" />
    <path
       style="font-size:8.73411083px;font-style:normal;font-variant:normal;font-weight:normal;font-stretch:normal;text-indent:0;text-align:start;text-decoration:none;line-height:125%;letter-spacing:0px;word-spacing:0px;text-transform:none;direction:ltr;block-progression:tb;writing-mode:lr-tb;text-anchor:start;color:#000000;fill:#d40000;fill-opacity:1;fill-rule:nonzero;stroke:none;stroke-width:1px;marker:none;visibility:visible;font-family:Comfortaa;-inkscape-font-specification:Comfortaa"
       d="m 168.7735,946.35225 c -0.14683,0 -0.24725,0.0493 -0.35412,0.15166 -0.10248,0.1068 -0.1517,0.25769 -0.1517,0.40461 l 0,3.48975 c 2e-5,0.95708 0.33054,1.75104 1.01179,2.42769 0.0167,0.0169 0.0336,0.0341 0.0507,0.0507 0.16697,0.16136 0.32221,0.28358 0.50589,0.40461 0.18674,0.12771 0.35221,0.21832 0.55648,0.30346 0.0129,0.005 0.0372,-0.005 0.0507,0 0.39656,0.15845 0.8029,0.25289 1.26475,0.25289 0.23932,0 0.48644,-0.008 0.70824,-0.0507 0.43415,-0.0808 0.84681,-0.2637 1.21415,-0.50575 0.16825,-0.11507 0.35187,-0.25501 0.50589,-0.40463 0.0169,-0.0166 0.0338,-0.0336 0.0507,-0.0506 0.68125,-0.67664 1.01177,-1.47057 1.01179,-2.42765 l 0,-3.48978 c -2e-5,-0.14679 -0.0449,-0.29778 -0.1517,-0.40462 -0.10246,-0.10241 -0.25778,-0.15162 -0.4047,-0.15162 -0.0735,0 -0.13891,0.0248 -0.20236,0.0507 -0.0623,0.0258 -0.10054,0.0498 -0.1517,0.10117 -0.10684,0.1068 -0.15168,0.25779 -0.15168,0.40459 l 0,3.48978 c 0,0.66326 -0.24071,1.20158 -0.70826,1.66899 -0.35398,0.35391 -0.75245,0.56902 -1.21414,0.65751 -0.15363,0.0294 -0.34002,0.0507 -0.5059,0.0507 -0.66346,0 -1.19747,-0.23621 -1.66944,-0.70806 -0.11689,-0.11684 -0.21589,-0.22492 -0.30355,-0.35403 -0.0886,-0.12914 -0.19396,-0.26327 -0.25295,-0.40462 -0.11687,-0.28267 -0.15168,-0.57871 -0.15168,-0.91037 l 0,-3.48975 c 0,-0.1468 -0.0449,-0.29779 -0.15168,-0.40462 -0.10248,-0.10246 -0.25776,-0.15164 -0.40472,-0.15164 z"
       id="path3586-0-4-8-6"
       inkscape:connector-curvature="0" />
    <path
       id="path3588-70-2-8-0"
       style="font-size:8.73411083px;font-style:normal;font-variant:normal;font-weight:normal;font-stretch:normal;text-indent:0;text-align:start;text-decoration:none;line-height:125%;letter-spacing:0px;word-spacing:0px;text-transform:none;direction:ltr;block-progression:tb;writing-mode:lr-tb;text-anchor:start;color:#000000;fill:#d40000;fill-opacity:1;fill-rule:nonzero;stroke:none;stroke-width:1px;marker:none;visibility:visible;font-family:Comfortaa;-inkscape-font-specification:Comfortaa"
       d="m 163.44634,952.78125 c 0.73914,0 1.3692,-0.26043 1.89017,-0.78124 0.52096,-0.52085 0.78144,-1.15072 0.78144,-1.88967 0,-0.73897 -0.26048,-1.36885 -0.78144,-1.8897 -0.52097,-0.52084 -1.15103,-0.78123 -1.89017,-0.78123 -0.73916,0 -1.36921,0.26039 -1.89017,0.78123 -0.52098,0.52085 -0.78146,1.15073 -0.78146,1.8897 0,0.73895 0.26048,1.36882 0.78146,1.88967 0.52096,0.52081 1.15101,0.78124 1.89017,0.78124 m -2.67163,-5.28844 c 0.74806,-0.74785 1.6386,-1.12177 2.67163,-1.12177 1.03302,0 1.91466,0.36502 2.6449,1.09505 0.73024,0.73007 1.09536,1.61147 1.09536,2.64425 0,1.03276 -0.36512,1.91415 -1.09536,2.64422 -0.73024,0.73004 -1.61188,1.09506 -2.6449,1.09506 -1.03303,0 -1.91466,-0.36502 -2.64491,-1.09506 -0.73022,-0.73007 -1.09536,-1.61146 -1.09538,-2.64422 l 0,-3.20512 c 2e-5,-0.14679 0.0535,-0.27379 0.16026,-0.38062 0.10248,-0.10243 0.22709,-0.15359 0.37403,-0.15359 0.14683,0 0.27385,0.0512 0.38071,0.15359 0.10247,0.10683 0.15363,0.2337 0.15363,0.38062 l 0,0.58759"
       inkscape:connector-curvature="0" />
    <path
       id="path3590-7-3-7-7"
       style="font-size:8.73411083px;font-style:normal;font-variant:normal;font-weight:normal;font-stretch:normal;text-indent:0;text-align:start;text-decoration:none;line-height:125%;letter-spacing:0px;word-spacing:0px;text-transform:none;direction:ltr;block-progression:tb;writing-mode:lr-tb;text-anchor:start;color:#000000;fill:#d40000;fill-opacity:1;fill-rule:nonzero;stroke:none;stroke-width:1px;marker:none;visibility:visible;font-family:Comfortaa;-inkscape-font-specification:Comfortaa"
       d="m 155.4849,947.43941 c -0.14699,0 -0.27162,-0.0535 -0.37403,-0.16023 -0.10684,-0.10246 -0.16026,-0.22704 -0.16026,-0.37393 0,-0.14679 0.0535,-0.27379 0.16026,-0.38063 0.10248,-0.10241 0.22708,-0.15358 0.37403,-0.15358 1.78109,0 2.67161,0.89032 2.67161,2.67093 l 0,3.73928 0.53434,0 c 0.14683,0 0.27383,0.0512 0.3807,0.15358 0.10248,0.10684 0.15364,0.23371 0.15364,0.38063 0,0.1468 -0.0512,0.27153 -0.15364,0.37393 -0.10684,0.10679 -0.23377,0.16023 -0.3807,0.16023 l -0.53434,0 0,2.67093 c 0,0.14677 -0.0512,0.2715 -0.15363,0.37393 -0.10684,0.10679 -0.23376,0.16019 -0.38069,0.16019 -0.14683,0 -0.27162,-0.0534 -0.37404,-0.16019 -0.10684,-0.10246 -0.16027,-0.22707 -0.16027,-0.37393 l 0,-2.67093 -1.07533,0 c -0.14683,-3e-5 -0.27161,-0.0535 -0.37402,-0.16023 -0.10685,-0.10246 -0.16027,-0.22704 -0.16027,-0.37393 0,-0.14679 0.0535,-0.27379 0.16027,-0.38063 0.10247,-0.10242 0.22709,-0.15358 0.37402,-0.15358 l 1.07533,0 0,-3.73928 c 0,-1.06835 -0.5343,-1.60256 -1.60296,-1.60256"
       inkscape:connector-curvature="0" />
    <path
       id="path3592-97-5-6-6"
       style="font-size:8.73411083px;font-style:normal;font-variant:normal;font-weight:normal;font-stretch:normal;text-indent:0;text-align:start;text-decoration:none;line-height:125%;letter-spacing:0px;word-spacing:0px;text-transform:none;direction:ltr;block-progression:tb;writing-mode:lr-tb;text-anchor:start;color:#000000;fill:#d40000;fill-opacity:1;fill-rule:nonzero;stroke:none;stroke-width:1px;marker:none;visibility:visible;font-family:Comfortaa;-inkscape-font-specification:Comfortaa"
       d="m 148.00436,947.43941 c -0.14683,0 -0.27159,-0.0535 -0.37402,-0.16023 -0.10685,-0.10246 -0.16027,-0.22704 -0.16027,-0.37393 0,-0.14679 0.0535,-0.27379 0.16027,-0.38063 0.10248,-0.10241 0.22709,-0.15358 0.37402,-0.15358 l 5.34325,0 c 0.14683,0 0.27383,0.0512 0.3807,0.15358 0.10248,0.10684 0.15364,0.23371 0.15364,0.38063 0,0.12462 -0.0356,0.23371 -0.10685,0.3272 l -4.62857,5.54883 4.20113,0 c 0.14683,0 0.27383,0.0511 0.3807,0.15358 0.10248,0.10681 0.15364,0.23368 0.15364,0.3806 0,0.1468 -0.0512,0.27156 -0.15364,0.37393 -0.10683,0.10682 -0.23377,0.16023 -0.3807,0.16023 l -5.34327,0 c -0.14683,0 -0.27159,-0.0535 -0.37402,-0.16023 -0.10685,-0.10243 -0.16027,-0.22704 -0.16027,-0.37393 0,-0.13352 0.0422,-0.24928 0.12692,-0.34721 l 4.61524,-5.52881 -4.20784,0"
       inkscape:connector-curvature="0" />
    <path
       id="path3594-9-4-9-1"
       style="font-size:8.73411083px;font-style:normal;font-variant:normal;font-weight:normal;font-stretch:normal;text-indent:0;text-align:start;text-decoration:none;line-height:125%;letter-spacing:0px;word-spacing:0px;text-transform:none;direction:ltr;block-progression:tb;writing-mode:lr-tb;text-anchor:start;color:#000000;fill:#d40000;fill-opacity:1;fill-rule:nonzero;stroke:none;stroke-width:1px;marker:none;visibility:visible;font-family:Comfortaa;-inkscape-font-specification:Comfortaa"
       d="m 143.08857,952.78125 c 0.73918,0 1.36922,-0.26043 1.89018,-0.78124 0.52097,-0.52085 0.78146,-1.15072 0.78146,-1.88967 0,-0.73897 -0.26049,-1.36885 -0.78146,-1.8897 -0.52096,-0.52084 -1.151,-0.78123 -1.89018,-0.78123 -0.73912,0 -1.3692,0.26039 -1.89017,0.78123 -0.52096,0.52085 -0.78144,1.15073 -0.78144,1.8897 0,0.73895 0.26048,1.36882 0.78144,1.88967 0.52097,0.52081 1.15105,0.78124 1.89017,0.78124 m -2.67161,-5.28844 c 0.74804,-0.74785 1.6386,-1.12177 2.67161,-1.12177 1.03303,0 1.91466,0.36502 2.64491,1.09505 0.73024,0.73007 1.09537,1.61147 1.09537,2.64425 0,1.03276 -0.36513,1.91415 -1.09537,2.64422 -0.73025,0.73004 -1.61188,1.09506 -2.64491,1.09506 -1.03301,0 -1.91465,-0.36502 -2.6449,-1.09506 -0.73024,-0.73007 -1.09536,-1.61146 -1.09537,-2.64422 l 0,-3.20512 c 1e-5,-0.14679 0.0535,-0.27379 0.16027,-0.38062 0.10247,-0.10243 0.2271,-0.15359 0.37403,-0.15359 0.14683,0 0.27385,0.0512 0.38071,0.15359 0.10247,0.10683 0.15363,0.2337 0.15363,0.38062 l 0,0.58759"
       inkscape:connector-curvature="0" />
    <path
       id="path3596-4-4-5-9"
       style="font-size:8.73411083px;font-style:normal;font-variant:normal;font-weight:normal;font-stretch:normal;text-indent:0;text-align:start;text-decoration:none;line-height:125%;letter-spacing:0px;word-spacing:0px;text-transform:none;direction:ltr;block-progression:tb;writing-mode:lr-tb;text-anchor:start;color:#000000;fill:#d40000;fill-opacity:1;fill-rule:nonzero;stroke:none;stroke-width:1px;marker:none;visibility:visible;font-family:Comfortaa;-inkscape-font-specification:Comfortaa"
       d="m 136.54312,955.45218 c 0,-0.18251 0.0667,-0.34057 0.20036,-0.47409 0.12903,-0.12917 0.28497,-0.19365 0.46753,-0.19365 0.18258,0 0.34064,0.0646 0.47422,0.19365 0.12902,0.13352 0.19369,0.29158 0.19369,0.47409 0,0.18251 -0.0646,0.3383 -0.19369,0.46741 -0.13357,0.13352 -0.29164,0.20032 -0.47422,0.20032 -0.18256,0 -0.33841,-0.0669 -0.46753,-0.20032 -0.13356,-0.12901 -0.20036,-0.2849 -0.20036,-0.46741 m 1.20221,-2.13675 c 0,0.1468 -0.0512,0.27156 -0.15363,0.37393 -0.10684,0.10682 -0.23375,0.16023 -0.38069,0.16023 -0.14683,0 -0.27161,-0.0535 -0.37404,-0.16023 -0.10685,-0.10243 -0.16027,-0.22704 -0.16027,-0.37393 l 0,-6.41021 c 0,-0.14679 0.0535,-0.27379 0.16027,-0.38062 0.10248,-0.10243 0.22709,-0.15359 0.37404,-0.15359 0.14699,0 0.27385,0.0512 0.38069,0.15359 0.10247,0.10683 0.15363,0.2337 0.15363,0.38062 l 0,6.41021"
       inkscape:connector-curvature="0" />
    <path
       id="path3598-43-1-8-5"
       style="font-size:8.73411083px;font-style:normal;font-variant:normal;font-weight:normal;font-stretch:normal;text-indent:0;text-align:start;text-decoration:none;line-height:125%;letter-spacing:0px;word-spacing:0px;text-transform:none;direction:ltr;block-progression:tb;writing-mode:lr-tb;text-anchor:start;color:#000000;fill:#d40000;fill-opacity:1;fill-rule:nonzero;stroke:none;stroke-width:1px;marker:none;visibility:visible;font-family:Comfortaa;-inkscape-font-specification:Comfortaa"
       d="m 135.07371,956.52055 c 0,0.1468 -0.0512,0.27153 -0.15363,0.37393 -0.10685,0.10682 -0.23376,0.16022 -0.38071,0.16022 -0.14699,0 -0.27161,-0.0534 -0.37402,-0.16022 -0.10685,-0.10246 -0.16027,-0.22704 -0.16027,-0.37393 l 0,-9.08114 -0.53432,0 c -0.14683,0 -0.27161,-0.0535 -0.37403,-0.16023 -0.10685,-0.10246 -0.16026,-0.22704 -0.16026,-0.37393 0,-0.14679 0.0534,-0.27379 0.16026,-0.38063 0.10248,-0.10241 0.22709,-0.15358 0.37403,-0.15358 l 1.06864,0 c 0.14683,0 0.27384,0.0512 0.38071,0.15358 0.10248,0.10684 0.15363,0.23371 0.15363,0.38063 l 0,9.61533"
       inkscape:connector-curvature="0" />
    <path
       id="path3600-73-7-4-5"
       style="font-size:8.73411083px;font-style:normal;font-variant:normal;font-weight:normal;font-stretch:normal;text-indent:0;text-align:start;text-decoration:none;line-height:125%;letter-spacing:0px;word-spacing:0px;text-transform:none;direction:ltr;block-progression:tb;writing-mode:lr-tb;text-anchor:start;color:#000000;fill:#d40000;fill-opacity:1;fill-rule:nonzero;stroke:none;stroke-width:1px;marker:none;visibility:visible;font-family:Comfortaa;-inkscape-font-specification:Comfortaa"
       d="m 125.50263,950.6445 c 0.0979,0.51194 0.34286,0.96378 0.73469,1.35551 0.52098,0.52081 1.15102,0.78124 1.89017,0.78124 0.73915,0 1.3692,-0.26043 1.89018,-0.78124 0.39185,-0.39173 0.63674,-0.84357 0.73469,-1.35551 l -5.24973,0 m 0.56772,-2.45724 c -0.14699,0 -0.27161,-0.0534 -0.37402,-0.16023 -0.10684,-0.10243 -0.16027,-0.22701 -0.16027,-0.37393 2e-5,-0.1468 0.0512,-0.27376 0.15363,-0.38062 0.69017,-0.60094 1.50279,-0.90141 2.43785,-0.90141 1.03304,0 1.91467,0.36502 2.64491,1.09505 0.73026,0.73007 1.09536,1.61147 1.09536,2.64425 0,1.03276 -0.3651,1.91415 -1.09536,2.64422 -0.73024,0.73004 -1.61187,1.09506 -2.64491,1.09506 -1.03304,0 -1.91466,-0.36502 -2.6449,-1.09506 -0.73024,-0.73007 -1.09536,-1.61146 -1.09537,-2.64422 1e-5,-0.14698 0.0535,-0.27379 0.16027,-0.3806 0.10247,-0.10245 0.22709,-0.15358 0.37402,-0.15358 l 5.83082,0 c -0.0979,-0.51197 -0.34284,-0.96378 -0.73469,-1.35552 -0.52099,-0.52084 -1.15103,-0.78123 -1.89018,-0.78123 -0.6679,0 -1.24229,0.21142 -1.72319,0.63435 -0.0979,0.0756 -0.20928,0.11344 -0.33395,0.11344"
       inkscape:connector-curvature="0" />
    <path
       id="path3602-8-3-1-4"
       style="font-size:8.73411083px;font-style:normal;font-variant:normal;font-weight:normal;font-stretch:normal;text-indent:0;text-align:start;text-decoration:none;line-height:125%;letter-spacing:0px;word-spacing:0px;text-transform:none;direction:ltr;block-progression:tb;writing-mode:lr-tb;text-anchor:start;color:#000000;fill:#d40000;fill-opacity:1;fill-rule:nonzero;stroke:none;stroke-width:1px;marker:none;visibility:visible;font-family:Comfortaa;-inkscape-font-specification:Comfortaa"
       d="m 115.57088,952.78125 c 0.73915,0 1.36921,-0.26043 1.89016,-0.78124 0.52098,-0.52085 0.78146,-1.15072 0.78146,-1.88967 0,-0.73897 -0.26048,-1.36885 -0.78146,-1.8897 -0.52095,-0.52084 -1.15101,-0.78123 -1.89016,-0.78123 -0.73915,0 -1.36921,0.26039 -1.89017,0.78123 -0.52095,0.52085 -0.78144,1.15073 -0.78144,1.8897 0,0.73895 0.26049,1.36882 0.78144,1.88967 0.52096,0.52081 1.15102,0.78124 1.89017,0.78124 m -2.67161,-5.28844 c 0.01,-0.01 0.0178,-0.0177 0.0267,-0.0266 0.73026,-0.73004 1.61188,-1.09509 2.6449,-1.09509 1.03303,0 1.91466,0.36505 2.6449,1.09509 0.73024,0.73003 1.09536,1.61143 1.09536,2.64422 0,1.03275 -0.36512,1.91415 -1.09536,2.64421 -0.73024,0.73004 -1.61187,1.09506 -2.6449,1.09506 -1.03302,0 -1.91464,-0.36502 -2.6449,-1.09506 -0.73024,-0.73006 -1.09537,-1.61146 -1.09537,-2.64421 l 0,-3.73931 c 0,-0.77903 0.28053,-1.45564 0.84156,-2.02991 0.78368,-0.78347 1.72987,-1.17521 2.8386,-1.17521 1.10872,0 2.05268,0.39174 2.8319,1.17521 0.28944,0.2849 0.52543,0.59428 0.708,0.92815 0.0535,0.0801 0.0801,0.17361 0.0801,0.28043 0,0.1468 -0.0512,0.27377 -0.15364,0.38063 -0.10683,0.10242 -0.23376,0.15359 -0.3807,0.15359 -0.14683,0 -0.27384,-0.0512 -0.38071,-0.15359 -0.0445,-0.049 -0.0824,-0.10246 -0.11349,-0.16023 -0.13355,-0.24038 -0.30499,-0.46521 -0.51428,-0.67443 -0.57438,-0.57422 -1.26678,-0.86136 -2.07717,-0.86139 -0.81039,3e-5 -1.5028,0.28717 -2.0772,0.86139 -0.3562,0.42735 -0.53432,0.85247 -0.53432,1.27536 l 0,1.1218"
       inkscape:connector-curvature="0" />
    <path
       id="path3604-7-6-1-9"
       style="font-size:8.73411083px;font-style:normal;font-variant:normal;font-weight:normal;font-stretch:normal;text-indent:0;text-align:start;text-decoration:none;line-height:125%;letter-spacing:0px;word-spacing:0px;text-transform:none;direction:ltr;block-progression:tb;writing-mode:lr-tb;text-anchor:start;color:#000000;fill:#d40000;fill-opacity:1;fill-rule:nonzero;stroke:none;stroke-width:1px;marker:none;visibility:visible;font-family:Comfortaa;-inkscape-font-specification:Comfortaa"
       d="m 110.76196,953.31543 c 0,0.1468 -0.0512,0.27156 -0.15363,0.37393 -0.10684,0.10682 -0.23376,0.16023 -0.38069,0.16023 -0.14683,0 -0.27162,-0.0535 -0.37405,-0.16023 -0.10683,-0.10243 -0.16026,-0.22704 -0.16026,-0.37393 l 0,-0.58759 c -0.74806,0.74785 -1.63859,1.12178 -2.67162,1.12178 -0.52095,0 -0.99964,-0.0891 -1.436,-0.2671 -0.0801,-0.0311 -0.15363,-0.078 -0.22043,-0.1403 -0.10247,-0.10684 -0.15362,-0.23372 -0.15362,-0.38064 1e-5,-0.14676 0.0535,-0.27375 0.16026,-0.38059 0.10248,-0.10246 0.22708,-0.15359 0.37403,-0.15359 0.0845,0 0.16251,0.0178 0.23376,0.0534 0.31615,0.13355 0.66346,0.20032 1.04193,0.20032 0.73914,0 1.36921,-0.26039 1.89017,-0.78123 0.52097,-0.52082 0.78146,-1.15073 0.78146,-1.88967 l 0,-3.20509 c 0,-0.1468 0.0535,-0.2738 0.16026,-0.38062 0.10248,-0.10246 0.2271,-0.1536 0.37404,-0.1536 0.14683,0 0.27384,0.0511 0.38069,0.1536 0.10248,0.10682 0.15363,0.23367 0.15363,0.38062 l 0,6.41021"
       inkscape:connector-curvature="0" />
    <path
       id="path3606-19-9-2-8"
       style="font-size:8.73411083px;font-style:normal;font-variant:normal;font-weight:normal;font-stretch:normal;text-indent:0;text-align:start;text-decoration:none;line-height:125%;letter-spacing:0px;word-spacing:0px;text-transform:none;direction:ltr;block-progression:tb;writing-mode:lr-tb;text-anchor:start;color:#000000;fill:#d40000;fill-opacity:1;fill-rule:nonzero;stroke:none;stroke-width:1px;marker:none;visibility:visible;font-family:Comfortaa;-inkscape-font-specification:Comfortaa"
       d="m 100.60981,952.78125 c 0.73914,0 1.36919,-0.26043 1.89017,-0.78124 0.52096,-0.52085 0.78144,-1.15072 0.78144,-1.88967 0,-0.73897 -0.26048,-1.36885 -0.78144,-1.8897 -0.52098,-0.52084 -1.15103,-0.78123 -1.89017,-0.78123 -0.739155,0 -1.369202,0.26039 -1.890184,0.78123 -0.520967,0.52085 -0.781441,1.15073 -0.781441,1.8897 0,0.73895 0.260474,1.36882 0.781441,1.88967 0.520982,0.52081 1.151029,0.78124 1.890184,0.78124 m -2.671625,-5.28844 c 0.748061,-0.74785 1.638578,-1.12177 2.671625,-1.12177 1.03303,0 1.91467,0.36502 2.64489,1.09505 0.73024,0.73007 1.09536,1.61147 1.09536,2.64425 0,1.03276 -0.36512,1.91415 -1.09536,2.64422 -0.73022,0.73004 -1.61186,1.09506 -2.64489,1.09506 -1.033047,0 -1.914678,-0.36502 -2.64493,-1.09506 -0.730223,-0.73007 -1.09534,-1.61146 -1.095355,-2.64422 l 0,-3.20512 c 1.5e-5,-0.14679 0.05342,-0.27379 0.160265,-0.38062 0.102476,-0.10243 0.227097,-0.15359 0.374022,-0.15359 0.146831,0 0.273866,0.0512 0.380724,0.15359 0.102477,0.10683 0.153632,0.2337 0.153632,0.38062 l 0,0.58759"
       inkscape:connector-curvature="0" />
    <path
       id="path3608-9-5-3-3"
       style="font-size:8.73411083px;font-style:normal;font-variant:normal;font-weight:normal;font-stretch:normal;text-indent:0;text-align:start;text-decoration:none;line-height:125%;letter-spacing:0px;word-spacing:0px;text-transform:none;direction:ltr;block-progression:tb;writing-mode:lr-tb;text-anchor:start;color:#000000;fill:#d40000;fill-opacity:1;fill-rule:nonzero;stroke:none;stroke-width:1px;marker:none;visibility:visible;font-family:Comfortaa;-inkscape-font-specification:Comfortaa"
       d="m 91.900327,957.0547 c -0.146994,0 -0.271613,-0.0534 -0.374038,-0.16019 -0.106847,-0.10246 -0.160268,-0.22707 -0.160268,-0.37393 0,-0.14679 0.05342,-0.2738 0.160268,-0.38063 0.102473,-0.10245 0.227093,-0.15358 0.374038,-0.15358 1.424857,0 2.137287,-0.71226 2.137287,-2.13672 l 0,-0.40065 -1.609653,0 c -0.146831,0 -0.27161,-0.0534 -0.374037,-0.16022 -0.106844,-0.10246 -0.160269,-0.22704 -0.160269,-0.37393 1.8e-5,-0.1468 0.05343,-0.2738 0.160269,-0.38062 0.102473,-0.10243 0.227112,-0.1536 0.374037,-0.1536 l 1.609653,0 0,-5.47538 c 0,-0.14695 0.05342,-0.27379 0.160268,-0.38063 0.102474,-0.10241 0.227109,-0.15358 0.374038,-0.15358 0.146831,0 0.273847,0.0512 0.380709,0.15358 0.102474,0.10684 0.15363,0.23371 0.15363,0.38063 l 0,5.47538 0.534322,0 c 0.146831,0 0.273847,0.0512 0.380709,0.1536 0.102473,0.10682 0.153627,0.2337 0.153627,0.38062 0,0.1468 -0.05115,0.27153 -0.153627,0.37393 -0.106847,0.1068 -0.233765,0.16022 -0.380709,0.16022 l -0.534322,0 0,0.40065 c 0,2.13672 -1.068645,3.20509 -3.205932,3.20509"
       inkscape:connector-curvature="0" />
    <path
       id="path3610-3-6-2-5"
       style="font-size:8.73411083px;font-style:normal;font-variant:normal;font-weight:normal;font-stretch:normal;text-indent:0;text-align:start;text-decoration:none;line-height:125%;letter-spacing:0px;word-spacing:0px;text-transform:none;direction:ltr;block-progression:tb;writing-mode:lr-tb;text-anchor:start;color:#000000;fill:#d40000;fill-opacity:1;fill-rule:nonzero;stroke:none;stroke-width:1px;marker:none;visibility:visible;font-family:Comfortaa;-inkscape-font-specification:Comfortaa"
       d="m 89.095112,955.45218 c 0,-0.18251 0.06686,-0.34057 0.200367,-0.47409 0.129023,-0.12917 0.284967,-0.19365 0.467544,-0.19365 0.182559,0 0.340624,0.0646 0.474198,0.19365 0.129021,0.13352 0.193695,0.29158 0.193695,0.47409 0,0.18251 -0.06459,0.3383 -0.193695,0.46741 -0.133559,0.13352 -0.291639,0.20032 -0.474198,0.20032 -0.182577,0 -0.338407,-0.0669 -0.467544,-0.20032 -0.133556,-0.12901 -0.200367,-0.2849 -0.200367,-0.46741 m 1.202217,-2.13675 c 0,0.1468 -0.05116,0.27156 -0.153631,0.37393 -0.106846,0.10682 -0.233779,0.16023 -0.380709,0.16023 -0.14683,0 -0.271613,-0.0535 -0.374037,-0.16023 -0.106846,-0.10243 -0.160268,-0.22704 -0.160268,-0.37393 l 0,-6.41021 c 0,-0.14679 0.05342,-0.27379 0.160268,-0.38062 0.102474,-0.10243 0.227093,-0.15359 0.374037,-0.15359 0.146831,0 0.273833,0.0512 0.380709,0.15359 0.102474,0.10683 0.153631,0.2337 0.153631,0.38062 l 0,6.41021"
       inkscape:connector-curvature="0" />
    <path
       id="path3612-64-7-1-7"
       style="font-size:8.73411083px;font-style:normal;font-variant:normal;font-weight:normal;font-stretch:normal;text-indent:0;text-align:start;text-decoration:none;line-height:125%;letter-spacing:0px;word-spacing:0px;text-transform:none;direction:ltr;block-progression:tb;writing-mode:lr-tb;text-anchor:start;color:#000000;fill:#d40000;fill-opacity:1;fill-rule:nonzero;stroke:none;stroke-width:1px;marker:none;visibility:visible;font-family:Comfortaa;-inkscape-font-specification:Comfortaa"
       d="m 86.55706,950.83147 -4.521714,2.93803 c -0.08451,0.0534 -0.180339,0.0801 -0.287201,0.0801 -0.146831,-3e-5 -0.271598,-0.0535 -0.374023,-0.16023 -0.106846,-0.10246 -0.160267,-0.22704 -0.160267,-0.37393 0,-0.14695 0.05116,-0.27156 0.15363,-0.37392 0.02672,-0.0266 0.05116,-0.049 0.0735,-0.0667 l 3.099072,-2.01658 -3.179221,-3.57904 c -0.09794,-0.1068 -0.146831,-0.23144 -0.146831,-0.37392 0,-0.14677 0.05342,-0.27377 0.160268,-0.3806 0.102474,-0.10245 0.227075,-0.15359 0.37402,-0.15359 0.146831,0 0.276065,0.0534 0.387395,0.16023 l 3.319478,3.7393 1.102041,-0.71446 0,-2.65091 c 0,-0.14677 0.05342,-0.27377 0.160268,-0.38061 0.102474,-0.10244 0.227095,-0.15358 0.374038,-0.15358 0.146831,0 0.273832,0.0512 0.380694,0.15358 0.102473,0.10681 0.153628,0.23372 0.153628,0.38061 l 0,9.61535 c 0,0.1468 -0.05116,0.27154 -0.153628,0.37393 -0.106847,0.10679 -0.233764,0.16023 -0.380694,0.16023 -0.146993,0 -0.271613,-0.0535 -0.374038,-0.16023 -0.106846,-0.10246 -0.160268,-0.22707 -0.160268,-0.37393 l 0,-5.68908"
       inkscape:connector-curvature="0" />
    <path
       id="path3614-4-2-5-8"
       style="font-size:8.73411083px;font-style:normal;font-variant:normal;font-weight:normal;font-stretch:normal;text-indent:0;text-align:start;text-decoration:none;line-height:125%;letter-spacing:0px;word-spacing:0px;text-transform:none;direction:ltr;block-progression:tb;writing-mode:lr-tb;text-anchor:start;color:#000000;fill:#d40000;fill-opacity:1;fill-rule:nonzero;stroke:none;stroke-width:1px;marker:none;visibility:visible;font-family:Comfortaa;-inkscape-font-specification:Comfortaa"
       d="m 73.092099,950.11034 c 1.8e-5,-1.03278 0.36512,-1.91418 1.095354,-2.64425 0.730256,-0.73003 1.611887,-1.09505 2.6449,-1.09505 1.033028,0 1.914677,0.36502 2.64493,1.09505 0.730238,0.73007 1.095357,1.61147 1.095357,2.64425 0,1.03276 -0.365119,1.91415 -1.095357,2.64422 -0.730253,0.73004 -1.611902,1.09506 -2.64493,1.09506 -1.033013,0 -1.914644,-0.36502 -2.6449,-1.09506 -0.730234,-0.73007 -1.095336,-1.61146 -1.095354,-2.64422 m 3.740254,2.67091 c 0.739173,0 1.36922,-0.26043 1.890183,-0.78124 0.520966,-0.52085 0.781459,-1.15072 0.781444,-1.88967 1.5e-5,-0.73897 -0.260478,-1.36885 -0.781444,-1.8897 -0.520963,-0.52084 -1.15101,-0.78123 -1.890183,-0.78123 -0.739125,0 -1.369187,0.26039 -1.890168,0.78123 -0.520951,0.52085 -0.781426,1.15073 -0.781441,1.8897 1.5e-5,0.73895 0.26049,1.36882 0.781441,1.88967 0.520981,0.52081 1.151043,0.78124 1.890168,0.78124"
       inkscape:connector-curvature="0" />
    <path
       id="path3616-38-9-3-6"
       style="font-size:8.73411083px;font-style:normal;font-variant:normal;font-weight:normal;font-stretch:normal;text-indent:0;text-align:start;text-decoration:none;line-height:125%;letter-spacing:0px;word-spacing:0px;text-transform:none;direction:ltr;block-progression:tb;writing-mode:lr-tb;text-anchor:start;color:#000000;fill:#d40000;fill-opacity:1;fill-rule:nonzero;stroke:none;stroke-width:1px;marker:none;visibility:visible;font-family:Comfortaa;-inkscape-font-specification:Comfortaa"
       d="m 64.275738,952.78125 c 0.739174,0 1.369217,-0.26043 1.890184,-0.78124 0.520966,-0.52085 0.781459,-1.15072 0.781459,-1.88967 0,-0.73897 -0.260493,-1.36885 -0.781459,-1.8897 -0.520967,-0.52084 -1.15101,-0.78123 -1.890184,-0.78123 -0.739124,0 -1.369202,0.26039 -1.890168,0.78123 -0.520951,0.52085 -0.781441,1.15073 -0.781456,1.8897 1.5e-5,0.73895 0.260505,1.36882 0.781456,1.88967 0.520966,0.52081 1.151044,0.78124 1.890168,0.78124 m -2.671624,-5.28844 c 0.74806,-0.74785 1.638611,-1.12177 2.671624,-1.12177 1.033028,0 1.914662,0.36502 2.644915,1.09505 0.730237,0.73007 1.095373,1.61147 1.095373,2.64425 0,1.03276 -0.365136,1.91415 -1.095373,2.64422 -0.730253,0.73004 -1.611887,1.09506 -2.644915,1.09506 -1.033013,0 -1.914647,-0.36502 -2.6449,-1.09506 -0.730234,-0.73007 -1.095354,-1.61146 -1.095369,-2.64422 l 0,-3.20512 c 1.5e-5,-0.14679 0.05342,-0.27379 0.160268,-0.38062 0.102473,-0.10243 0.227108,-0.15359 0.374038,-0.15359 0.146831,0 0.273831,0.0512 0.380709,0.15359 0.102473,0.10683 0.15363,0.2337 0.15363,0.38062 l 0,0.58759"
       inkscape:connector-curvature="0" />
    <path
       id="path3618-0-5-2-8"
       style="font-size:8.73411083px;font-style:normal;font-variant:normal;font-weight:normal;font-stretch:normal;text-indent:0;text-align:start;text-decoration:none;line-height:125%;letter-spacing:0px;word-spacing:0px;text-transform:none;direction:ltr;block-progression:tb;writing-mode:lr-tb;text-anchor:start;color:#000000;fill:#d40000;fill-opacity:1;fill-rule:nonzero;stroke:none;stroke-width:1px;marker:none;visibility:visible;font-family:Comfortaa;-inkscape-font-specification:Comfortaa"
       d="m 58.144359,950.11034 c 0.405202,0.1513 0.687952,0.30935 0.848252,0.47409 0.316132,0.31159 0.474198,0.68774 0.474198,1.12844 0,0.44069 -0.164736,0.82577 -0.49424,1.15519 -0.641183,0.65436 -1.478281,0.98156 -2.511325,0.98156 -1.117632,0 -2.074946,-0.44738 -2.871977,-1.34214 -0.07123,-0.0845 -0.104579,-0.18918 -0.100208,-0.31382 0,-0.14695 0.05342,-0.2738 0.160267,-0.38063 0.102474,-0.10242 0.227079,-0.15359 0.374022,-0.15359 0.146831,0 0.264944,0.0467 0.353981,0.14034 0.08903,0.0936 0.153631,0.1602 0.193698,0.20032 0.520982,0.52084 1.151027,0.78124 1.890184,0.78124 0.73914,0 1.329135,-0.23148 1.769936,-0.69442 0.106845,-0.12918 0.160267,-0.2827 0.160267,-0.46074 -0.01457,-0.20923 -0.122387,-0.35168 -0.327269,-0.42736 l -3.286098,-1.08838 c -0.405185,-0.15133 -0.687936,-0.30943 -0.848236,-0.47409 -0.316131,-0.31162 -0.474197,-0.68778 -0.474214,-1.12848 1.7e-5,-0.44073 0.164752,-0.82576 0.494239,-1.15518 0.6412,-0.65437 1.478298,-0.98156 2.511343,-0.98156 1.122066,0 2.079397,0.44736 2.871976,1.34214 0.06669,0.0935 0.100208,0.19808 0.100208,0.31382 0,0.14698 -0.05116,0.27156 -0.15363,0.37393 -0.106846,0.10682 -0.233748,0.16022 -0.380708,0.16022 -0.146831,0 -0.264927,-0.0467 -0.353965,-0.14031 -0.08903,-0.0936 -0.15363,-0.16022 -0.193697,-0.20032 -0.520982,-0.52084 -1.151027,-0.78123 -1.890184,-0.78123 -0.739141,0 -1.32912,0.23144 -1.769952,0.69442 -0.106845,0.12899 -0.160267,0.2827 -0.160267,0.46074 0.01457,0.20922 0.122385,0.35168 0.327269,0.42735 l 3.286081,1.08839"
       inkscape:connector-curvature="0" />
    <path
       id="path3620-5-8-5-1"
       style="font-size:8.73411083px;font-style:normal;font-variant:normal;font-weight:normal;font-stretch:normal;text-indent:0;text-align:start;text-decoration:none;line-height:125%;letter-spacing:0px;word-spacing:0px;text-transform:none;direction:ltr;block-progression:tb;writing-mode:lr-tb;text-anchor:start;color:#000000;fill:#d40000;fill-opacity:1;fill-rule:nonzero;stroke:none;stroke-width:1px;marker:none;visibility:visible;font-family:Comfortaa;-inkscape-font-specification:Comfortaa"
       d="m 51.318374,950.83147 -4.521728,2.93803 c -0.08451,0.0534 -0.180324,0.0801 -0.287185,0.0801 -0.146831,-3e-5 -0.271613,-0.0535 -0.374023,-0.16023 -0.106844,-0.10246 -0.160267,-0.22704 -0.160267,-0.37393 0,-0.14695 0.05116,-0.27156 0.15363,-0.37392 0.02671,-0.0266 0.05116,-0.049 0.0735,-0.0667 l 3.099071,-2.01658 -3.179221,-3.57904 c -0.09794,-0.1068 -0.146831,-0.23144 -0.146831,-0.37392 0,-0.14677 0.05342,-0.27377 0.160268,-0.3806 0.102474,-0.10245 0.227078,-0.15359 0.374022,-0.15359 0.146831,0 0.276065,0.0534 0.387378,0.16023 l 3.319494,3.7393 1.102042,-0.71446 0,-2.65091 c 0,-0.14677 0.05342,-0.27377 0.160267,-0.38061 0.102474,-0.10244 0.227095,-0.15358 0.374022,-0.15358 0.146831,0 0.273847,0.0512 0.380708,0.15358 0.102475,0.10681 0.153631,0.23372 0.153631,0.38061 l 0,9.61535 c 0,0.1468 -0.05116,0.27154 -0.153631,0.37393 -0.106844,0.10679 -0.233764,0.16023 -0.380708,0.16023 -0.146993,0 -0.271612,-0.0535 -0.374022,-0.16023 -0.106845,-0.10246 -0.160267,-0.22707 -0.160267,-0.37393 l 0,-5.68908"
       inkscape:connector-curvature="0" />
    <path
       id="path3622-6-6-3-2"
       style="font-size:8.73411083px;font-style:normal;font-variant:normal;font-weight:normal;font-stretch:normal;text-indent:0;text-align:start;text-decoration:none;line-height:125%;letter-spacing:0px;word-spacing:0px;text-transform:none;direction:ltr;block-progression:tb;writing-mode:lr-tb;text-anchor:start;color:#000000;fill:#d40000;fill-opacity:1;fill-rule:nonzero;stroke:none;stroke-width:1px;marker:none;visibility:visible;font-family:Comfortaa;-inkscape-font-specification:Comfortaa"
       d="m 38.968796,950.6445 c 0.09811,0.51194 0.342875,0.96378 0.734705,1.35551 0.520966,0.52081 1.151027,0.78124 1.890169,0.78124 0.739156,0 1.369218,-0.26043 1.890167,-0.78124 0.391847,-0.39173 0.636748,-0.84357 0.734705,-1.35551 l -5.249746,0 m 0.567736,-2.45724 c -0.146831,0 -0.271613,-0.0534 -0.374023,-0.16023 -0.106844,-0.10243 -0.160268,-0.22701 -0.160268,-0.37393 0,-0.1468 0.05116,-0.27376 0.153631,-0.38062 0.690186,-0.60094 1.50279,-0.90141 2.437846,-0.90141 1.033029,0 1.914661,0.36502 2.644898,1.09505 0.730253,0.73007 1.095388,1.61147 1.095388,2.64425 0,1.03276 -0.365135,1.91415 -1.095388,2.64422 -0.730237,0.73004 -1.611869,1.09506 -2.644898,1.09506 -1.033013,0 -1.914646,-0.36502 -2.644899,-1.09506 -0.730237,-0.73007 -1.095355,-1.61146 -1.095355,-2.64422 0,-0.14698 0.05342,-0.27379 0.160267,-0.3806 0.102475,-0.10245 0.227111,-0.15358 0.374023,-0.15358 l 5.830821,0 c -0.09794,-0.51197 -0.342859,-0.96378 -0.734705,-1.35552 -0.520951,-0.52084 -1.151012,-0.78123 -1.890168,-0.78123 -0.667895,0 -1.2423,0.21142 -1.723183,0.63435 -0.09794,0.0756 -0.20927,0.11344 -0.333972,0.11344"
       inkscape:connector-curvature="0" />
    <path
       id="path3624-0-1-7-5"
       style="font-size:8.73411083px;font-style:normal;font-variant:normal;font-weight:normal;font-stretch:normal;text-indent:0;text-align:start;text-decoration:none;line-height:125%;letter-spacing:0px;word-spacing:0px;text-transform:none;direction:ltr;block-progression:tb;writing-mode:lr-tb;text-anchor:start;color:#000000;fill:#d40000;fill-opacity:1;fill-rule:nonzero;stroke:none;stroke-width:1px;marker:none;visibility:visible;font-family:Comfortaa;-inkscape-font-specification:Comfortaa"
       d="m 33.044501,952.78125 c 0.739141,0 1.369203,-0.26043 1.890169,-0.78124 0.52095,-0.52085 0.781458,-1.15072 0.781458,-1.88967 0,-0.73897 -0.260508,-1.36885 -0.781458,-1.8897 -0.520966,-0.52084 -1.151028,-0.78123 -1.890169,-0.78123 -0.739156,0 -1.369217,0.26039 -1.890184,0.78123 -0.520967,0.52085 -0.781441,1.15073 -0.781458,1.8897 1.7e-5,0.73895 0.260491,1.36882 0.781458,1.88967 0.520967,0.52081 1.151028,0.78124 1.890184,0.78124 m -2.671642,-5.28844 c 0.74806,-0.74785 1.638614,-1.12177 2.671642,-1.12177 1.033013,0 1.914646,0.36502 2.644899,1.09505 0.730237,0.73007 1.095371,1.61147 1.095371,2.64425 0,1.03276 -0.365134,1.91415 -1.095371,2.64422 -0.730253,0.73004 -1.611886,1.09506 -2.644899,1.09506 -1.033028,0 -1.914661,-0.36502 -2.644914,-1.09506 -0.730237,-0.73007 -1.095356,-1.61146 -1.095372,-2.64422 l 0,-3.20512 c 1.6e-5,-0.14679 0.05342,-0.27379 0.160268,-0.38062 0.102474,-0.10243 0.227094,-0.15359 0.374038,-0.15359 0.146831,0 0.273847,0.0512 0.380708,0.15359 0.102474,0.10683 0.15363,0.2337 0.15363,0.38062 l 0,0.58759"
       inkscape:connector-curvature="0" />
  </g>
</svg>
